%TF.GenerationSoftware,KiCad,Pcbnew,5.1.12-84ad8e8a86~92~ubuntu18.04.1*%
%TF.CreationDate,2021-11-12T09:30:33+01:00*%
%TF.ProjectId,window-sensor,77696e64-6f77-42d7-9365-6e736f722e6b,rev?*%
%TF.SameCoordinates,PX5dd7700PY8ec3da0*%
%TF.FileFunction,Soldermask,Bot*%
%TF.FilePolarity,Negative*%
%FSLAX46Y46*%
G04 Gerber Fmt 4.6, Leading zero omitted, Abs format (unit mm)*
G04 Created by KiCad (PCBNEW 5.1.12-84ad8e8a86~92~ubuntu18.04.1) date 2021-11-12 09:30:33*
%MOMM*%
%LPD*%
G01*
G04 APERTURE LIST*
%TA.AperFunction,Profile*%
%ADD10C,0.050000*%
%TD*%
%ADD11C,2.250000*%
%ADD12C,1.308000*%
%ADD13C,0.500000*%
%ADD14O,1.600000X1.600000*%
%ADD15R,1.600000X1.600000*%
%ADD16R,1.700000X1.700000*%
%ADD17O,1.700000X1.700000*%
%ADD18R,1.500000X1.500000*%
G04 APERTURE END LIST*
D10*
X74900000Y1800000D02*
X78900000Y1800000D01*
X52000000Y1800000D02*
X56000000Y1800000D01*
X27000000Y1800000D02*
X31000000Y1800000D01*
X74900000Y97000000D02*
X78900000Y97000000D01*
X52000000Y97000000D02*
X56000000Y97000000D01*
X27000000Y97000000D02*
X31000000Y97000000D01*
X9100000Y20900000D02*
X9900000Y20100000D01*
X9100000Y45200000D02*
X9900000Y44400000D01*
X9100000Y69500000D02*
X9900000Y68700000D01*
X27000000Y26100000D02*
G75*
G02*
X27000000Y24100000I0J-1000000D01*
G01*
X27000000Y50400000D02*
G75*
G02*
X27000000Y48400000I0J-1000000D01*
G01*
X52000000Y26100000D02*
G75*
G02*
X52000000Y24100000I0J-1000000D01*
G01*
X52000000Y50400000D02*
G75*
G02*
X52000000Y48400000I0J-1000000D01*
G01*
X78900000Y24100000D02*
G75*
G02*
X78900000Y26100000I0J1000000D01*
G01*
X78900000Y48400000D02*
G75*
G02*
X78900000Y50400000I0J1000000D01*
G01*
X56000000Y1800000D02*
X74900000Y1800000D01*
X56000000Y26100000D02*
X74900000Y26100000D01*
X56000000Y50400000D02*
X74900000Y50400000D01*
X7000000Y4800000D02*
X7000000Y1800000D01*
X7000000Y29100000D02*
X7000000Y26100000D01*
X7000000Y53400000D02*
X7000000Y50400000D01*
X74900000Y26100000D02*
G75*
G02*
X74900000Y24100000I0J-1000000D01*
G01*
X74900000Y50400000D02*
G75*
G02*
X74900000Y48400000I0J-1000000D01*
G01*
X56000000Y24100000D02*
G75*
G02*
X56000000Y26100000I0J1000000D01*
G01*
X56000000Y48400000D02*
G75*
G02*
X56000000Y50400000I0J1000000D01*
G01*
X31000000Y1800000D02*
X52000000Y1800000D01*
X31000000Y26100000D02*
X52000000Y26100000D01*
X31000000Y50400000D02*
X52000000Y50400000D01*
X9100000Y4800000D02*
X9900000Y5600000D01*
X9100000Y29100000D02*
X9900000Y29900000D01*
X9100000Y53400000D02*
X9900000Y54200000D01*
X31000000Y24100000D02*
X52000000Y24100000D01*
X31000000Y48400000D02*
X52000000Y48400000D01*
X31000000Y72700000D02*
X52000000Y72700000D01*
X9900000Y20100000D02*
X9900000Y5600000D01*
X9900000Y44400000D02*
X9900000Y29900000D01*
X9900000Y68700000D02*
X9900000Y54200000D01*
X31000000Y24100000D02*
G75*
G02*
X31000000Y26100000I0J1000000D01*
G01*
X31000000Y48400000D02*
G75*
G02*
X31000000Y50400000I0J1000000D01*
G01*
X98900000Y24100000D02*
X78900000Y24100000D01*
X98900000Y48400000D02*
X78900000Y48400000D01*
X98900000Y72700000D02*
X78900000Y72700000D01*
X98900000Y1800000D02*
X98900000Y24100000D01*
X98900000Y26100000D02*
X98900000Y48400000D01*
X98900000Y50400000D02*
X98900000Y72700000D01*
X9100000Y4800000D02*
X7000000Y4800000D01*
X9100000Y29100000D02*
X7000000Y29100000D01*
X9100000Y53400000D02*
X7000000Y53400000D01*
X7000000Y20900000D02*
X7000000Y24100000D01*
X7000000Y45200000D02*
X7000000Y48400000D01*
X7000000Y69500000D02*
X7000000Y72700000D01*
X98900000Y1800000D02*
X78900000Y1800000D01*
X98900000Y26100000D02*
X78900000Y26100000D01*
X98900000Y50400000D02*
X78900000Y50400000D01*
X7000000Y24100000D02*
X27000000Y24100000D01*
X7000000Y48400000D02*
X27000000Y48400000D01*
X7000000Y72700000D02*
X27000000Y72700000D01*
X7000000Y20900000D02*
X9100000Y20900000D01*
X7000000Y45200000D02*
X9100000Y45200000D01*
X7000000Y69500000D02*
X9100000Y69500000D01*
X74900000Y24100000D02*
X56000000Y24100000D01*
X74900000Y48400000D02*
X56000000Y48400000D01*
X74900000Y72700000D02*
X56000000Y72700000D01*
X7000000Y1800000D02*
X27000000Y1800000D01*
X7000000Y26100000D02*
X27000000Y26100000D01*
X7000000Y50400000D02*
X27000000Y50400000D01*
X27000000Y74700000D02*
G75*
G02*
X27000000Y72700000I0J-1000000D01*
G01*
X31000000Y72700000D02*
G75*
G02*
X31000000Y74700000I0J1000000D01*
G01*
X52000000Y74700000D02*
G75*
G02*
X52000000Y72700000I0J-1000000D01*
G01*
X56000000Y72700000D02*
G75*
G02*
X56000000Y74700000I0J1000000D01*
G01*
X74900000Y74700000D02*
G75*
G02*
X74900000Y72700000I0J-1000000D01*
G01*
X78900000Y72700000D02*
G75*
G02*
X78900000Y74700000I0J1000000D01*
G01*
X98900000Y74700000D02*
X78900000Y74700000D01*
X56000000Y74700000D02*
X74900000Y74700000D01*
X31000000Y74700000D02*
X52000000Y74700000D01*
X7000000Y74700000D02*
X27000000Y74700000D01*
X74900000Y97000000D02*
X56000000Y97000000D01*
X31000000Y97000000D02*
X52000000Y97000000D01*
X98900000Y97000000D02*
X78900000Y97000000D01*
X7000000Y97000000D02*
X27000000Y97000000D01*
X98900000Y74700000D02*
X98900000Y97000000D01*
X7000000Y77700000D02*
X7000000Y74700000D01*
X7000000Y93800000D02*
X7000000Y97000000D01*
X9100000Y93800000D02*
X9900000Y93000000D01*
X9100000Y77700000D02*
X9900000Y78500000D01*
X9100000Y77700000D02*
X7000000Y77700000D01*
X9900000Y93000000D02*
X9900000Y78500000D01*
X7000000Y93800000D02*
X9100000Y93800000D01*
D11*
%TO.C,S1*%
X59550000Y4300000D03*
X69250000Y4300000D03*
D12*
X62400000Y4300000D03*
X66400000Y4300000D03*
X64400000Y4300000D03*
%TD*%
D11*
%TO.C,S1*%
X59550000Y28600000D03*
X69250000Y28600000D03*
D12*
X62400000Y28600000D03*
X66400000Y28600000D03*
X64400000Y28600000D03*
%TD*%
D11*
%TO.C,S1*%
X59550000Y52900000D03*
X69250000Y52900000D03*
D12*
X62400000Y52900000D03*
X66400000Y52900000D03*
X64400000Y52900000D03*
%TD*%
D13*
%TO.C,mouse-bite-2mm-slot*%
X76900000Y25850000D03*
X76900000Y24350000D03*
X77650000Y25850000D03*
X76150000Y25850000D03*
X76150000Y24350000D03*
X77650000Y24350000D03*
%TD*%
%TO.C,mouse-bite-2mm-slot*%
X76900000Y50150000D03*
X76900000Y48650000D03*
X77650000Y50150000D03*
X76150000Y50150000D03*
X76150000Y48650000D03*
X77650000Y48650000D03*
%TD*%
D14*
%TO.C,U3*%
X45200000Y19700000D03*
X52820000Y4460000D03*
X45200000Y17160000D03*
X52820000Y7000000D03*
X45200000Y14620000D03*
X52820000Y9540000D03*
X45200000Y12080000D03*
X52820000Y12080000D03*
X45200000Y9540000D03*
X52820000Y14620000D03*
X45200000Y7000000D03*
X52820000Y17160000D03*
D15*
X45200000Y4460000D03*
D14*
X52820000Y19700000D03*
%TD*%
%TO.C,U3*%
X45200000Y44000000D03*
X52820000Y28760000D03*
X45200000Y41460000D03*
X52820000Y31300000D03*
X45200000Y38920000D03*
X52820000Y33840000D03*
X45200000Y36380000D03*
X52820000Y36380000D03*
X45200000Y33840000D03*
X52820000Y38920000D03*
X45200000Y31300000D03*
X52820000Y41460000D03*
D15*
X45200000Y28760000D03*
D14*
X52820000Y44000000D03*
%TD*%
%TO.C,U3*%
X45200000Y68300000D03*
X52820000Y53060000D03*
X45200000Y65760000D03*
X52820000Y55600000D03*
X45200000Y63220000D03*
X52820000Y58140000D03*
X45200000Y60680000D03*
X52820000Y60680000D03*
X45200000Y58140000D03*
X52820000Y63220000D03*
X45200000Y55600000D03*
X52820000Y65760000D03*
D15*
X45200000Y53060000D03*
D14*
X52820000Y68300000D03*
%TD*%
D16*
%TO.C,J1*%
X81900000Y21600000D03*
D17*
X84440000Y21600000D03*
X86980000Y21600000D03*
X89520000Y21600000D03*
X92060000Y21600000D03*
%TD*%
D16*
%TO.C,J1*%
X81900000Y45900000D03*
D17*
X84440000Y45900000D03*
X86980000Y45900000D03*
X89520000Y45900000D03*
X92060000Y45900000D03*
%TD*%
D16*
%TO.C,J1*%
X81900000Y70200000D03*
D17*
X84440000Y70200000D03*
X86980000Y70200000D03*
X89520000Y70200000D03*
X92060000Y70200000D03*
%TD*%
D18*
%TO.C,3V7*%
X96400000Y13000000D03*
%TD*%
%TO.C,3V7*%
X96400000Y37300000D03*
%TD*%
%TO.C,3V7*%
X96400000Y61600000D03*
%TD*%
%TO.C,GND*%
X13400000Y13000000D03*
%TD*%
%TO.C,GND*%
X13400000Y37300000D03*
%TD*%
%TO.C,GND*%
X13400000Y61600000D03*
%TD*%
D13*
%TO.C,mouse-bite-2mm-slot*%
X54000000Y25850000D03*
X54000000Y24350000D03*
X54750000Y25850000D03*
X53250000Y25850000D03*
X53250000Y24350000D03*
X54750000Y24350000D03*
%TD*%
%TO.C,mouse-bite-2mm-slot*%
X54000000Y50150000D03*
X54000000Y48650000D03*
X54750000Y50150000D03*
X53250000Y50150000D03*
X53250000Y48650000D03*
X54750000Y48650000D03*
%TD*%
%TO.C,mouse-bite-2mm-slot*%
X29000000Y25850000D03*
X29000000Y24350000D03*
X29750000Y25850000D03*
X28250000Y25850000D03*
X28250000Y24350000D03*
X29750000Y24350000D03*
%TD*%
%TO.C,mouse-bite-2mm-slot*%
X29000000Y50150000D03*
X29000000Y48650000D03*
X29750000Y50150000D03*
X28250000Y50150000D03*
X28250000Y48650000D03*
X29750000Y48650000D03*
%TD*%
%TO.C,mouse-bite-2mm-slot*%
X77650000Y72950000D03*
X76150000Y72950000D03*
X76150000Y74450000D03*
X77650000Y74450000D03*
X76900000Y72950000D03*
X76900000Y74450000D03*
%TD*%
%TO.C,mouse-bite-2mm-slot*%
X54750000Y72950000D03*
X53250000Y72950000D03*
X53250000Y74450000D03*
X54750000Y74450000D03*
X54000000Y72950000D03*
X54000000Y74450000D03*
%TD*%
%TO.C,mouse-bite-2mm-slot*%
X29750000Y72950000D03*
X28250000Y72950000D03*
X28250000Y74450000D03*
X29750000Y74450000D03*
X29000000Y72950000D03*
X29000000Y74450000D03*
%TD*%
D18*
%TO.C,GND*%
X13400000Y85900000D03*
%TD*%
%TO.C,3V7*%
X96400000Y85900000D03*
%TD*%
D14*
%TO.C,U3*%
X52820000Y92600000D03*
D15*
X45200000Y77360000D03*
D14*
X52820000Y90060000D03*
X45200000Y79900000D03*
X52820000Y87520000D03*
X45200000Y82440000D03*
X52820000Y84980000D03*
X45200000Y84980000D03*
X52820000Y82440000D03*
X45200000Y87520000D03*
X52820000Y79900000D03*
X45200000Y90060000D03*
X52820000Y77360000D03*
X45200000Y92600000D03*
%TD*%
D17*
%TO.C,J1*%
X92060000Y94500000D03*
X89520000Y94500000D03*
X86980000Y94500000D03*
X84440000Y94500000D03*
D16*
X81900000Y94500000D03*
%TD*%
D12*
%TO.C,S1*%
X64400000Y77200000D03*
X66400000Y77200000D03*
X62400000Y77200000D03*
D11*
X69250000Y77200000D03*
X59550000Y77200000D03*
%TD*%
M02*
