%TF.GenerationSoftware,KiCad,Pcbnew,5.1.12-84ad8e8a86~92~ubuntu18.04.1*%
%TF.CreationDate,2021-11-12T09:30:33+01:00*%
%TF.ProjectId,window-sensor,77696e64-6f77-42d7-9365-6e736f722e6b,rev?*%
%TF.SameCoordinates,PX5dd7700PY8ec3da0*%
%TF.FileFunction,Legend,Top*%
%TF.FilePolarity,Positive*%
%FSLAX46Y46*%
G04 Gerber Fmt 4.6, Leading zero omitted, Abs format (unit mm)*
G04 Created by KiCad (PCBNEW 5.1.12-84ad8e8a86~92~ubuntu18.04.1) date 2021-11-12 09:30:33*
%MOMM*%
%LPD*%
G01*
G04 APERTURE LIST*
%TA.AperFunction,Profile*%
%ADD10C,0.050000*%
%TD*%
%ADD11C,0.100000*%
%ADD12C,0.150000*%
%ADD13C,0.127000*%
%ADD14C,0.120000*%
G04 APERTURE END LIST*
D10*
X74900000Y1800000D02*
X78900000Y1800000D01*
X52000000Y1800000D02*
X56000000Y1800000D01*
X27000000Y1800000D02*
X31000000Y1800000D01*
X74900000Y97000000D02*
X78900000Y97000000D01*
X52000000Y97000000D02*
X56000000Y97000000D01*
X27000000Y97000000D02*
X31000000Y97000000D01*
X9100000Y20900000D02*
X9900000Y20100000D01*
X9100000Y45200000D02*
X9900000Y44400000D01*
X9100000Y69500000D02*
X9900000Y68700000D01*
D11*
X89416666Y23173810D02*
X89250000Y23411905D01*
X89130952Y23173810D02*
X89130952Y23673810D01*
X89321428Y23673810D01*
X89369047Y23650000D01*
X89392857Y23626191D01*
X89416666Y23578572D01*
X89416666Y23507143D01*
X89392857Y23459524D01*
X89369047Y23435715D01*
X89321428Y23411905D01*
X89130952Y23411905D01*
X89583333Y23673810D02*
X89916666Y23173810D01*
X89916666Y23673810D02*
X89583333Y23173810D01*
X89416666Y47473810D02*
X89250000Y47711905D01*
X89130952Y47473810D02*
X89130952Y47973810D01*
X89321428Y47973810D01*
X89369047Y47950000D01*
X89392857Y47926191D01*
X89416666Y47878572D01*
X89416666Y47807143D01*
X89392857Y47759524D01*
X89369047Y47735715D01*
X89321428Y47711905D01*
X89130952Y47711905D01*
X89583333Y47973810D02*
X89916666Y47473810D01*
X89916666Y47973810D02*
X89583333Y47473810D01*
X89416666Y71773810D02*
X89250000Y72011905D01*
X89130952Y71773810D02*
X89130952Y72273810D01*
X89321428Y72273810D01*
X89369047Y72250000D01*
X89392857Y72226191D01*
X89416666Y72178572D01*
X89416666Y72107143D01*
X89392857Y72059524D01*
X89369047Y72035715D01*
X89321428Y72011905D01*
X89130952Y72011905D01*
X89583333Y72273810D02*
X89916666Y71773810D01*
X89916666Y72273810D02*
X89583333Y71773810D01*
D10*
X27000000Y26100000D02*
G75*
G02*
X27000000Y24100000I0J-1000000D01*
G01*
X27000000Y50400000D02*
G75*
G02*
X27000000Y48400000I0J-1000000D01*
G01*
X52000000Y26100000D02*
G75*
G02*
X52000000Y24100000I0J-1000000D01*
G01*
X52000000Y50400000D02*
G75*
G02*
X52000000Y48400000I0J-1000000D01*
G01*
X78900000Y24100000D02*
G75*
G02*
X78900000Y26100000I0J1000000D01*
G01*
X78900000Y48400000D02*
G75*
G02*
X78900000Y50400000I0J1000000D01*
G01*
X56000000Y1800000D02*
X74900000Y1800000D01*
X56000000Y26100000D02*
X74900000Y26100000D01*
X56000000Y50400000D02*
X74900000Y50400000D01*
X7000000Y4800000D02*
X7000000Y1800000D01*
X7000000Y29100000D02*
X7000000Y26100000D01*
X7000000Y53400000D02*
X7000000Y50400000D01*
D12*
X48004761Y7438096D02*
X48052380Y7580953D01*
X48052380Y7819048D01*
X48004761Y7914286D01*
X47957142Y7961905D01*
X47861904Y8009524D01*
X47766666Y8009524D01*
X47671428Y7961905D01*
X47623809Y7914286D01*
X47576190Y7819048D01*
X47528571Y7628572D01*
X47480952Y7533334D01*
X47433333Y7485715D01*
X47338095Y7438096D01*
X47242857Y7438096D01*
X47147619Y7485715D01*
X47100000Y7533334D01*
X47052380Y7628572D01*
X47052380Y7866667D01*
X47100000Y8009524D01*
X48052380Y8438096D02*
X47052380Y8438096D01*
X48052380Y9009524D01*
X47052380Y9009524D01*
X47052380Y9390477D02*
X47052380Y10057143D01*
X48052380Y9628572D01*
X47385714Y10866667D02*
X48052380Y10866667D01*
X47004761Y10628572D02*
X47719047Y10390477D01*
X47719047Y11009524D01*
X48052380Y11390477D02*
X47052380Y11390477D01*
X47528571Y11390477D02*
X47528571Y11961905D01*
X48052380Y11961905D02*
X47052380Y11961905D01*
X47957142Y13009524D02*
X48004761Y12961905D01*
X48052380Y12819048D01*
X48052380Y12723810D01*
X48004761Y12580953D01*
X47909523Y12485715D01*
X47814285Y12438096D01*
X47623809Y12390477D01*
X47480952Y12390477D01*
X47290476Y12438096D01*
X47195238Y12485715D01*
X47100000Y12580953D01*
X47052380Y12723810D01*
X47052380Y12819048D01*
X47100000Y12961905D01*
X47147619Y13009524D01*
X47480952Y13580953D02*
X47433333Y13485715D01*
X47385714Y13438096D01*
X47290476Y13390477D01*
X47242857Y13390477D01*
X47147619Y13438096D01*
X47100000Y13485715D01*
X47052380Y13580953D01*
X47052380Y13771429D01*
X47100000Y13866667D01*
X47147619Y13914286D01*
X47242857Y13961905D01*
X47290476Y13961905D01*
X47385714Y13914286D01*
X47433333Y13866667D01*
X47480952Y13771429D01*
X47480952Y13580953D01*
X47528571Y13485715D01*
X47576190Y13438096D01*
X47671428Y13390477D01*
X47861904Y13390477D01*
X47957142Y13438096D01*
X48004761Y13485715D01*
X48052380Y13580953D01*
X48052380Y13771429D01*
X48004761Y13866667D01*
X47957142Y13914286D01*
X47861904Y13961905D01*
X47671428Y13961905D01*
X47576190Y13914286D01*
X47528571Y13866667D01*
X47480952Y13771429D01*
X47052380Y14819048D02*
X47052380Y14628572D01*
X47100000Y14533334D01*
X47147619Y14485715D01*
X47290476Y14390477D01*
X47480952Y14342858D01*
X47861904Y14342858D01*
X47957142Y14390477D01*
X48004761Y14438096D01*
X48052380Y14533334D01*
X48052380Y14723810D01*
X48004761Y14819048D01*
X47957142Y14866667D01*
X47861904Y14914286D01*
X47623809Y14914286D01*
X47528571Y14866667D01*
X47480952Y14819048D01*
X47433333Y14723810D01*
X47433333Y14533334D01*
X47480952Y14438096D01*
X47528571Y14390477D01*
X47623809Y14342858D01*
X48052380Y15342858D02*
X47052380Y15342858D01*
X48052380Y15914286D01*
X47052380Y15914286D01*
X48004761Y31738096D02*
X48052380Y31880953D01*
X48052380Y32119048D01*
X48004761Y32214286D01*
X47957142Y32261905D01*
X47861904Y32309524D01*
X47766666Y32309524D01*
X47671428Y32261905D01*
X47623809Y32214286D01*
X47576190Y32119048D01*
X47528571Y31928572D01*
X47480952Y31833334D01*
X47433333Y31785715D01*
X47338095Y31738096D01*
X47242857Y31738096D01*
X47147619Y31785715D01*
X47100000Y31833334D01*
X47052380Y31928572D01*
X47052380Y32166667D01*
X47100000Y32309524D01*
X48052380Y32738096D02*
X47052380Y32738096D01*
X48052380Y33309524D01*
X47052380Y33309524D01*
X47052380Y33690477D02*
X47052380Y34357143D01*
X48052380Y33928572D01*
X47385714Y35166667D02*
X48052380Y35166667D01*
X47004761Y34928572D02*
X47719047Y34690477D01*
X47719047Y35309524D01*
X48052380Y35690477D02*
X47052380Y35690477D01*
X47528571Y35690477D02*
X47528571Y36261905D01*
X48052380Y36261905D02*
X47052380Y36261905D01*
X47957142Y37309524D02*
X48004761Y37261905D01*
X48052380Y37119048D01*
X48052380Y37023810D01*
X48004761Y36880953D01*
X47909523Y36785715D01*
X47814285Y36738096D01*
X47623809Y36690477D01*
X47480952Y36690477D01*
X47290476Y36738096D01*
X47195238Y36785715D01*
X47100000Y36880953D01*
X47052380Y37023810D01*
X47052380Y37119048D01*
X47100000Y37261905D01*
X47147619Y37309524D01*
X47480952Y37880953D02*
X47433333Y37785715D01*
X47385714Y37738096D01*
X47290476Y37690477D01*
X47242857Y37690477D01*
X47147619Y37738096D01*
X47100000Y37785715D01*
X47052380Y37880953D01*
X47052380Y38071429D01*
X47100000Y38166667D01*
X47147619Y38214286D01*
X47242857Y38261905D01*
X47290476Y38261905D01*
X47385714Y38214286D01*
X47433333Y38166667D01*
X47480952Y38071429D01*
X47480952Y37880953D01*
X47528571Y37785715D01*
X47576190Y37738096D01*
X47671428Y37690477D01*
X47861904Y37690477D01*
X47957142Y37738096D01*
X48004761Y37785715D01*
X48052380Y37880953D01*
X48052380Y38071429D01*
X48004761Y38166667D01*
X47957142Y38214286D01*
X47861904Y38261905D01*
X47671428Y38261905D01*
X47576190Y38214286D01*
X47528571Y38166667D01*
X47480952Y38071429D01*
X47052380Y39119048D02*
X47052380Y38928572D01*
X47100000Y38833334D01*
X47147619Y38785715D01*
X47290476Y38690477D01*
X47480952Y38642858D01*
X47861904Y38642858D01*
X47957142Y38690477D01*
X48004761Y38738096D01*
X48052380Y38833334D01*
X48052380Y39023810D01*
X48004761Y39119048D01*
X47957142Y39166667D01*
X47861904Y39214286D01*
X47623809Y39214286D01*
X47528571Y39166667D01*
X47480952Y39119048D01*
X47433333Y39023810D01*
X47433333Y38833334D01*
X47480952Y38738096D01*
X47528571Y38690477D01*
X47623809Y38642858D01*
X48052380Y39642858D02*
X47052380Y39642858D01*
X48052380Y40214286D01*
X47052380Y40214286D01*
X48004761Y56038096D02*
X48052380Y56180953D01*
X48052380Y56419048D01*
X48004761Y56514286D01*
X47957142Y56561905D01*
X47861904Y56609524D01*
X47766666Y56609524D01*
X47671428Y56561905D01*
X47623809Y56514286D01*
X47576190Y56419048D01*
X47528571Y56228572D01*
X47480952Y56133334D01*
X47433333Y56085715D01*
X47338095Y56038096D01*
X47242857Y56038096D01*
X47147619Y56085715D01*
X47100000Y56133334D01*
X47052380Y56228572D01*
X47052380Y56466667D01*
X47100000Y56609524D01*
X48052380Y57038096D02*
X47052380Y57038096D01*
X48052380Y57609524D01*
X47052380Y57609524D01*
X47052380Y57990477D02*
X47052380Y58657143D01*
X48052380Y58228572D01*
X47385714Y59466667D02*
X48052380Y59466667D01*
X47004761Y59228572D02*
X47719047Y58990477D01*
X47719047Y59609524D01*
X48052380Y59990477D02*
X47052380Y59990477D01*
X47528571Y59990477D02*
X47528571Y60561905D01*
X48052380Y60561905D02*
X47052380Y60561905D01*
X47957142Y61609524D02*
X48004761Y61561905D01*
X48052380Y61419048D01*
X48052380Y61323810D01*
X48004761Y61180953D01*
X47909523Y61085715D01*
X47814285Y61038096D01*
X47623809Y60990477D01*
X47480952Y60990477D01*
X47290476Y61038096D01*
X47195238Y61085715D01*
X47100000Y61180953D01*
X47052380Y61323810D01*
X47052380Y61419048D01*
X47100000Y61561905D01*
X47147619Y61609524D01*
X47480952Y62180953D02*
X47433333Y62085715D01*
X47385714Y62038096D01*
X47290476Y61990477D01*
X47242857Y61990477D01*
X47147619Y62038096D01*
X47100000Y62085715D01*
X47052380Y62180953D01*
X47052380Y62371429D01*
X47100000Y62466667D01*
X47147619Y62514286D01*
X47242857Y62561905D01*
X47290476Y62561905D01*
X47385714Y62514286D01*
X47433333Y62466667D01*
X47480952Y62371429D01*
X47480952Y62180953D01*
X47528571Y62085715D01*
X47576190Y62038096D01*
X47671428Y61990477D01*
X47861904Y61990477D01*
X47957142Y62038096D01*
X48004761Y62085715D01*
X48052380Y62180953D01*
X48052380Y62371429D01*
X48004761Y62466667D01*
X47957142Y62514286D01*
X47861904Y62561905D01*
X47671428Y62561905D01*
X47576190Y62514286D01*
X47528571Y62466667D01*
X47480952Y62371429D01*
X47052380Y63419048D02*
X47052380Y63228572D01*
X47100000Y63133334D01*
X47147619Y63085715D01*
X47290476Y62990477D01*
X47480952Y62942858D01*
X47861904Y62942858D01*
X47957142Y62990477D01*
X48004761Y63038096D01*
X48052380Y63133334D01*
X48052380Y63323810D01*
X48004761Y63419048D01*
X47957142Y63466667D01*
X47861904Y63514286D01*
X47623809Y63514286D01*
X47528571Y63466667D01*
X47480952Y63419048D01*
X47433333Y63323810D01*
X47433333Y63133334D01*
X47480952Y63038096D01*
X47528571Y62990477D01*
X47623809Y62942858D01*
X48052380Y63942858D02*
X47052380Y63942858D01*
X48052380Y64514286D01*
X47052380Y64514286D01*
D10*
X74900000Y26100000D02*
G75*
G02*
X74900000Y24100000I0J-1000000D01*
G01*
X74900000Y50400000D02*
G75*
G02*
X74900000Y48400000I0J-1000000D01*
G01*
X56000000Y24100000D02*
G75*
G02*
X56000000Y26100000I0J1000000D01*
G01*
X56000000Y48400000D02*
G75*
G02*
X56000000Y50400000I0J1000000D01*
G01*
X31000000Y1800000D02*
X52000000Y1800000D01*
X31000000Y26100000D02*
X52000000Y26100000D01*
X31000000Y50400000D02*
X52000000Y50400000D01*
D11*
X62735714Y3119048D02*
X62735714Y3500000D01*
X62926190Y3309524D02*
X62545238Y3309524D01*
X62426190Y3690477D02*
X62426190Y4000000D01*
X62616666Y3833334D01*
X62616666Y3904762D01*
X62640476Y3952381D01*
X62664285Y3976191D01*
X62711904Y4000000D01*
X62830952Y4000000D01*
X62878571Y3976191D01*
X62902380Y3952381D01*
X62926190Y3904762D01*
X62926190Y3761905D01*
X62902380Y3714286D01*
X62878571Y3690477D01*
X62426190Y4142858D02*
X62926190Y4309524D01*
X62426190Y4476191D01*
X62426190Y4595239D02*
X62426190Y4928572D01*
X62926190Y4714286D01*
X62735714Y27419048D02*
X62735714Y27800000D01*
X62926190Y27609524D02*
X62545238Y27609524D01*
X62426190Y27990477D02*
X62426190Y28300000D01*
X62616666Y28133334D01*
X62616666Y28204762D01*
X62640476Y28252381D01*
X62664285Y28276191D01*
X62711904Y28300000D01*
X62830952Y28300000D01*
X62878571Y28276191D01*
X62902380Y28252381D01*
X62926190Y28204762D01*
X62926190Y28061905D01*
X62902380Y28014286D01*
X62878571Y27990477D01*
X62426190Y28442858D02*
X62926190Y28609524D01*
X62426190Y28776191D01*
X62426190Y28895239D02*
X62426190Y29228572D01*
X62926190Y29014286D01*
X62735714Y51719048D02*
X62735714Y52100000D01*
X62926190Y51909524D02*
X62545238Y51909524D01*
X62426190Y52290477D02*
X62426190Y52600000D01*
X62616666Y52433334D01*
X62616666Y52504762D01*
X62640476Y52552381D01*
X62664285Y52576191D01*
X62711904Y52600000D01*
X62830952Y52600000D01*
X62878571Y52576191D01*
X62902380Y52552381D01*
X62926190Y52504762D01*
X62926190Y52361905D01*
X62902380Y52314286D01*
X62878571Y52290477D01*
X62426190Y52742858D02*
X62926190Y52909524D01*
X62426190Y53076191D01*
X62426190Y53195239D02*
X62426190Y53528572D01*
X62926190Y53314286D01*
X86161904Y23650000D02*
X86114285Y23673810D01*
X86042857Y23673810D01*
X85971428Y23650000D01*
X85923809Y23602381D01*
X85900000Y23554762D01*
X85876190Y23459524D01*
X85876190Y23388096D01*
X85900000Y23292858D01*
X85923809Y23245239D01*
X85971428Y23197620D01*
X86042857Y23173810D01*
X86090476Y23173810D01*
X86161904Y23197620D01*
X86185714Y23221429D01*
X86185714Y23388096D01*
X86090476Y23388096D01*
X86400000Y23173810D02*
X86400000Y23673810D01*
X86590476Y23673810D01*
X86638095Y23650000D01*
X86661904Y23626191D01*
X86685714Y23578572D01*
X86685714Y23507143D01*
X86661904Y23459524D01*
X86638095Y23435715D01*
X86590476Y23411905D01*
X86400000Y23411905D01*
X86900000Y23173810D02*
X86900000Y23673810D01*
X87233333Y23673810D02*
X87328571Y23673810D01*
X87376190Y23650000D01*
X87423809Y23602381D01*
X87447619Y23507143D01*
X87447619Y23340477D01*
X87423809Y23245239D01*
X87376190Y23197620D01*
X87328571Y23173810D01*
X87233333Y23173810D01*
X87185714Y23197620D01*
X87138095Y23245239D01*
X87114285Y23340477D01*
X87114285Y23507143D01*
X87138095Y23602381D01*
X87185714Y23650000D01*
X87233333Y23673810D01*
X87757142Y23673810D02*
X87804761Y23673810D01*
X87852380Y23650000D01*
X87876190Y23626191D01*
X87900000Y23578572D01*
X87923809Y23483334D01*
X87923809Y23364286D01*
X87900000Y23269048D01*
X87876190Y23221429D01*
X87852380Y23197620D01*
X87804761Y23173810D01*
X87757142Y23173810D01*
X87709523Y23197620D01*
X87685714Y23221429D01*
X87661904Y23269048D01*
X87638095Y23364286D01*
X87638095Y23483334D01*
X87661904Y23578572D01*
X87685714Y23626191D01*
X87709523Y23650000D01*
X87757142Y23673810D01*
X86161904Y47950000D02*
X86114285Y47973810D01*
X86042857Y47973810D01*
X85971428Y47950000D01*
X85923809Y47902381D01*
X85900000Y47854762D01*
X85876190Y47759524D01*
X85876190Y47688096D01*
X85900000Y47592858D01*
X85923809Y47545239D01*
X85971428Y47497620D01*
X86042857Y47473810D01*
X86090476Y47473810D01*
X86161904Y47497620D01*
X86185714Y47521429D01*
X86185714Y47688096D01*
X86090476Y47688096D01*
X86400000Y47473810D02*
X86400000Y47973810D01*
X86590476Y47973810D01*
X86638095Y47950000D01*
X86661904Y47926191D01*
X86685714Y47878572D01*
X86685714Y47807143D01*
X86661904Y47759524D01*
X86638095Y47735715D01*
X86590476Y47711905D01*
X86400000Y47711905D01*
X86900000Y47473810D02*
X86900000Y47973810D01*
X87233333Y47973810D02*
X87328571Y47973810D01*
X87376190Y47950000D01*
X87423809Y47902381D01*
X87447619Y47807143D01*
X87447619Y47640477D01*
X87423809Y47545239D01*
X87376190Y47497620D01*
X87328571Y47473810D01*
X87233333Y47473810D01*
X87185714Y47497620D01*
X87138095Y47545239D01*
X87114285Y47640477D01*
X87114285Y47807143D01*
X87138095Y47902381D01*
X87185714Y47950000D01*
X87233333Y47973810D01*
X87757142Y47973810D02*
X87804761Y47973810D01*
X87852380Y47950000D01*
X87876190Y47926191D01*
X87900000Y47878572D01*
X87923809Y47783334D01*
X87923809Y47664286D01*
X87900000Y47569048D01*
X87876190Y47521429D01*
X87852380Y47497620D01*
X87804761Y47473810D01*
X87757142Y47473810D01*
X87709523Y47497620D01*
X87685714Y47521429D01*
X87661904Y47569048D01*
X87638095Y47664286D01*
X87638095Y47783334D01*
X87661904Y47878572D01*
X87685714Y47926191D01*
X87709523Y47950000D01*
X87757142Y47973810D01*
X86161904Y72250000D02*
X86114285Y72273810D01*
X86042857Y72273810D01*
X85971428Y72250000D01*
X85923809Y72202381D01*
X85900000Y72154762D01*
X85876190Y72059524D01*
X85876190Y71988096D01*
X85900000Y71892858D01*
X85923809Y71845239D01*
X85971428Y71797620D01*
X86042857Y71773810D01*
X86090476Y71773810D01*
X86161904Y71797620D01*
X86185714Y71821429D01*
X86185714Y71988096D01*
X86090476Y71988096D01*
X86400000Y71773810D02*
X86400000Y72273810D01*
X86590476Y72273810D01*
X86638095Y72250000D01*
X86661904Y72226191D01*
X86685714Y72178572D01*
X86685714Y72107143D01*
X86661904Y72059524D01*
X86638095Y72035715D01*
X86590476Y72011905D01*
X86400000Y72011905D01*
X86900000Y71773810D02*
X86900000Y72273810D01*
X87233333Y72273810D02*
X87328571Y72273810D01*
X87376190Y72250000D01*
X87423809Y72202381D01*
X87447619Y72107143D01*
X87447619Y71940477D01*
X87423809Y71845239D01*
X87376190Y71797620D01*
X87328571Y71773810D01*
X87233333Y71773810D01*
X87185714Y71797620D01*
X87138095Y71845239D01*
X87114285Y71940477D01*
X87114285Y72107143D01*
X87138095Y72202381D01*
X87185714Y72250000D01*
X87233333Y72273810D01*
X87757142Y72273810D02*
X87804761Y72273810D01*
X87852380Y72250000D01*
X87876190Y72226191D01*
X87900000Y72178572D01*
X87923809Y72083334D01*
X87923809Y71964286D01*
X87900000Y71869048D01*
X87876190Y71821429D01*
X87852380Y71797620D01*
X87804761Y71773810D01*
X87757142Y71773810D01*
X87709523Y71797620D01*
X87685714Y71821429D01*
X87661904Y71869048D01*
X87638095Y71964286D01*
X87638095Y72083334D01*
X87661904Y72178572D01*
X87685714Y72226191D01*
X87709523Y72250000D01*
X87757142Y72273810D01*
X83519047Y23364286D02*
X83900000Y23364286D01*
X83709523Y23173810D02*
X83709523Y23554762D01*
X84090476Y23673810D02*
X84400000Y23673810D01*
X84233333Y23483334D01*
X84304761Y23483334D01*
X84352380Y23459524D01*
X84376190Y23435715D01*
X84400000Y23388096D01*
X84400000Y23269048D01*
X84376190Y23221429D01*
X84352380Y23197620D01*
X84304761Y23173810D01*
X84161904Y23173810D01*
X84114285Y23197620D01*
X84090476Y23221429D01*
X84542857Y23673810D02*
X84709523Y23173810D01*
X84876190Y23673810D01*
X84995238Y23673810D02*
X85304761Y23673810D01*
X85138095Y23483334D01*
X85209523Y23483334D01*
X85257142Y23459524D01*
X85280952Y23435715D01*
X85304761Y23388096D01*
X85304761Y23269048D01*
X85280952Y23221429D01*
X85257142Y23197620D01*
X85209523Y23173810D01*
X85066666Y23173810D01*
X85019047Y23197620D01*
X84995238Y23221429D01*
X83519047Y47664286D02*
X83900000Y47664286D01*
X83709523Y47473810D02*
X83709523Y47854762D01*
X84090476Y47973810D02*
X84400000Y47973810D01*
X84233333Y47783334D01*
X84304761Y47783334D01*
X84352380Y47759524D01*
X84376190Y47735715D01*
X84400000Y47688096D01*
X84400000Y47569048D01*
X84376190Y47521429D01*
X84352380Y47497620D01*
X84304761Y47473810D01*
X84161904Y47473810D01*
X84114285Y47497620D01*
X84090476Y47521429D01*
X84542857Y47973810D02*
X84709523Y47473810D01*
X84876190Y47973810D01*
X84995238Y47973810D02*
X85304761Y47973810D01*
X85138095Y47783334D01*
X85209523Y47783334D01*
X85257142Y47759524D01*
X85280952Y47735715D01*
X85304761Y47688096D01*
X85304761Y47569048D01*
X85280952Y47521429D01*
X85257142Y47497620D01*
X85209523Y47473810D01*
X85066666Y47473810D01*
X85019047Y47497620D01*
X84995238Y47521429D01*
X83519047Y71964286D02*
X83900000Y71964286D01*
X83709523Y71773810D02*
X83709523Y72154762D01*
X84090476Y72273810D02*
X84400000Y72273810D01*
X84233333Y72083334D01*
X84304761Y72083334D01*
X84352380Y72059524D01*
X84376190Y72035715D01*
X84400000Y71988096D01*
X84400000Y71869048D01*
X84376190Y71821429D01*
X84352380Y71797620D01*
X84304761Y71773810D01*
X84161904Y71773810D01*
X84114285Y71797620D01*
X84090476Y71821429D01*
X84542857Y72273810D02*
X84709523Y71773810D01*
X84876190Y72273810D01*
X84995238Y72273810D02*
X85304761Y72273810D01*
X85138095Y72083334D01*
X85209523Y72083334D01*
X85257142Y72059524D01*
X85280952Y72035715D01*
X85304761Y71988096D01*
X85304761Y71869048D01*
X85280952Y71821429D01*
X85257142Y71797620D01*
X85209523Y71773810D01*
X85066666Y71773810D01*
X85019047Y71797620D01*
X84995238Y71821429D01*
D10*
X9100000Y4800000D02*
X9900000Y5600000D01*
X9100000Y29100000D02*
X9900000Y29900000D01*
X9100000Y53400000D02*
X9900000Y54200000D01*
D11*
X64135714Y3119048D02*
X64135714Y3500000D01*
X64326190Y3309524D02*
X63945238Y3309524D01*
X63826190Y3690477D02*
X63826190Y4000000D01*
X64016666Y3833334D01*
X64016666Y3904762D01*
X64040476Y3952381D01*
X64064285Y3976191D01*
X64111904Y4000000D01*
X64230952Y4000000D01*
X64278571Y3976191D01*
X64302380Y3952381D01*
X64326190Y3904762D01*
X64326190Y3761905D01*
X64302380Y3714286D01*
X64278571Y3690477D01*
X63826190Y4142858D02*
X64326190Y4309524D01*
X63826190Y4476191D01*
X63826190Y4595239D02*
X63826190Y4904762D01*
X64016666Y4738096D01*
X64016666Y4809524D01*
X64040476Y4857143D01*
X64064285Y4880953D01*
X64111904Y4904762D01*
X64230952Y4904762D01*
X64278571Y4880953D01*
X64302380Y4857143D01*
X64326190Y4809524D01*
X64326190Y4666667D01*
X64302380Y4619048D01*
X64278571Y4595239D01*
X64135714Y27419048D02*
X64135714Y27800000D01*
X64326190Y27609524D02*
X63945238Y27609524D01*
X63826190Y27990477D02*
X63826190Y28300000D01*
X64016666Y28133334D01*
X64016666Y28204762D01*
X64040476Y28252381D01*
X64064285Y28276191D01*
X64111904Y28300000D01*
X64230952Y28300000D01*
X64278571Y28276191D01*
X64302380Y28252381D01*
X64326190Y28204762D01*
X64326190Y28061905D01*
X64302380Y28014286D01*
X64278571Y27990477D01*
X63826190Y28442858D02*
X64326190Y28609524D01*
X63826190Y28776191D01*
X63826190Y28895239D02*
X63826190Y29204762D01*
X64016666Y29038096D01*
X64016666Y29109524D01*
X64040476Y29157143D01*
X64064285Y29180953D01*
X64111904Y29204762D01*
X64230952Y29204762D01*
X64278571Y29180953D01*
X64302380Y29157143D01*
X64326190Y29109524D01*
X64326190Y28966667D01*
X64302380Y28919048D01*
X64278571Y28895239D01*
X64135714Y51719048D02*
X64135714Y52100000D01*
X64326190Y51909524D02*
X63945238Y51909524D01*
X63826190Y52290477D02*
X63826190Y52600000D01*
X64016666Y52433334D01*
X64016666Y52504762D01*
X64040476Y52552381D01*
X64064285Y52576191D01*
X64111904Y52600000D01*
X64230952Y52600000D01*
X64278571Y52576191D01*
X64302380Y52552381D01*
X64326190Y52504762D01*
X64326190Y52361905D01*
X64302380Y52314286D01*
X64278571Y52290477D01*
X63826190Y52742858D02*
X64326190Y52909524D01*
X63826190Y53076191D01*
X63826190Y53195239D02*
X63826190Y53504762D01*
X64016666Y53338096D01*
X64016666Y53409524D01*
X64040476Y53457143D01*
X64064285Y53480953D01*
X64111904Y53504762D01*
X64230952Y53504762D01*
X64278571Y53480953D01*
X64302380Y53457143D01*
X64326190Y53409524D01*
X64326190Y53266667D01*
X64302380Y53219048D01*
X64278571Y53195239D01*
X60850000Y3819048D02*
X60826190Y3771429D01*
X60826190Y3700000D01*
X60850000Y3628572D01*
X60897619Y3580953D01*
X60945238Y3557143D01*
X61040476Y3533334D01*
X61111904Y3533334D01*
X61207142Y3557143D01*
X61254761Y3580953D01*
X61302380Y3628572D01*
X61326190Y3700000D01*
X61326190Y3747620D01*
X61302380Y3819048D01*
X61278571Y3842858D01*
X61111904Y3842858D01*
X61111904Y3747620D01*
X61326190Y4057143D02*
X60826190Y4057143D01*
X61326190Y4342858D01*
X60826190Y4342858D01*
X61326190Y4580953D02*
X60826190Y4580953D01*
X60826190Y4700000D01*
X60850000Y4771429D01*
X60897619Y4819048D01*
X60945238Y4842858D01*
X61040476Y4866667D01*
X61111904Y4866667D01*
X61207142Y4842858D01*
X61254761Y4819048D01*
X61302380Y4771429D01*
X61326190Y4700000D01*
X61326190Y4580953D01*
X60850000Y28119048D02*
X60826190Y28071429D01*
X60826190Y28000000D01*
X60850000Y27928572D01*
X60897619Y27880953D01*
X60945238Y27857143D01*
X61040476Y27833334D01*
X61111904Y27833334D01*
X61207142Y27857143D01*
X61254761Y27880953D01*
X61302380Y27928572D01*
X61326190Y28000000D01*
X61326190Y28047620D01*
X61302380Y28119048D01*
X61278571Y28142858D01*
X61111904Y28142858D01*
X61111904Y28047620D01*
X61326190Y28357143D02*
X60826190Y28357143D01*
X61326190Y28642858D01*
X60826190Y28642858D01*
X61326190Y28880953D02*
X60826190Y28880953D01*
X60826190Y29000000D01*
X60850000Y29071429D01*
X60897619Y29119048D01*
X60945238Y29142858D01*
X61040476Y29166667D01*
X61111904Y29166667D01*
X61207142Y29142858D01*
X61254761Y29119048D01*
X61302380Y29071429D01*
X61326190Y29000000D01*
X61326190Y28880953D01*
X60850000Y52419048D02*
X60826190Y52371429D01*
X60826190Y52300000D01*
X60850000Y52228572D01*
X60897619Y52180953D01*
X60945238Y52157143D01*
X61040476Y52133334D01*
X61111904Y52133334D01*
X61207142Y52157143D01*
X61254761Y52180953D01*
X61302380Y52228572D01*
X61326190Y52300000D01*
X61326190Y52347620D01*
X61302380Y52419048D01*
X61278571Y52442858D01*
X61111904Y52442858D01*
X61111904Y52347620D01*
X61326190Y52657143D02*
X60826190Y52657143D01*
X61326190Y52942858D01*
X60826190Y52942858D01*
X61326190Y53180953D02*
X60826190Y53180953D01*
X60826190Y53300000D01*
X60850000Y53371429D01*
X60897619Y53419048D01*
X60945238Y53442858D01*
X61040476Y53466667D01*
X61111904Y53466667D01*
X61207142Y53442858D01*
X61254761Y53419048D01*
X61302380Y53371429D01*
X61326190Y53300000D01*
X61326190Y53180953D01*
D10*
X31000000Y24100000D02*
X52000000Y24100000D01*
X31000000Y48400000D02*
X52000000Y48400000D01*
X31000000Y72700000D02*
X52000000Y72700000D01*
D11*
X91619047Y23673810D02*
X91904761Y23673810D01*
X91761904Y23173810D02*
X91761904Y23673810D01*
X92023809Y23673810D02*
X92357142Y23173810D01*
X92357142Y23673810D02*
X92023809Y23173810D01*
X91619047Y47973810D02*
X91904761Y47973810D01*
X91761904Y47473810D02*
X91761904Y47973810D01*
X92023809Y47973810D02*
X92357142Y47473810D01*
X92357142Y47973810D02*
X92023809Y47473810D01*
X91619047Y72273810D02*
X91904761Y72273810D01*
X91761904Y71773810D02*
X91761904Y72273810D01*
X92023809Y72273810D02*
X92357142Y71773810D01*
X92357142Y72273810D02*
X92023809Y71773810D01*
D10*
X9900000Y20100000D02*
X9900000Y5600000D01*
X9900000Y44400000D02*
X9900000Y29900000D01*
X9900000Y68700000D02*
X9900000Y54200000D01*
D11*
X81519047Y23650000D02*
X81471428Y23673810D01*
X81400000Y23673810D01*
X81328571Y23650000D01*
X81280952Y23602381D01*
X81257142Y23554762D01*
X81233333Y23459524D01*
X81233333Y23388096D01*
X81257142Y23292858D01*
X81280952Y23245239D01*
X81328571Y23197620D01*
X81400000Y23173810D01*
X81447619Y23173810D01*
X81519047Y23197620D01*
X81542857Y23221429D01*
X81542857Y23388096D01*
X81447619Y23388096D01*
X81757142Y23173810D02*
X81757142Y23673810D01*
X82042857Y23173810D01*
X82042857Y23673810D01*
X82280952Y23173810D02*
X82280952Y23673810D01*
X82400000Y23673810D01*
X82471428Y23650000D01*
X82519047Y23602381D01*
X82542857Y23554762D01*
X82566666Y23459524D01*
X82566666Y23388096D01*
X82542857Y23292858D01*
X82519047Y23245239D01*
X82471428Y23197620D01*
X82400000Y23173810D01*
X82280952Y23173810D01*
X81519047Y47950000D02*
X81471428Y47973810D01*
X81400000Y47973810D01*
X81328571Y47950000D01*
X81280952Y47902381D01*
X81257142Y47854762D01*
X81233333Y47759524D01*
X81233333Y47688096D01*
X81257142Y47592858D01*
X81280952Y47545239D01*
X81328571Y47497620D01*
X81400000Y47473810D01*
X81447619Y47473810D01*
X81519047Y47497620D01*
X81542857Y47521429D01*
X81542857Y47688096D01*
X81447619Y47688096D01*
X81757142Y47473810D02*
X81757142Y47973810D01*
X82042857Y47473810D01*
X82042857Y47973810D01*
X82280952Y47473810D02*
X82280952Y47973810D01*
X82400000Y47973810D01*
X82471428Y47950000D01*
X82519047Y47902381D01*
X82542857Y47854762D01*
X82566666Y47759524D01*
X82566666Y47688096D01*
X82542857Y47592858D01*
X82519047Y47545239D01*
X82471428Y47497620D01*
X82400000Y47473810D01*
X82280952Y47473810D01*
X81519047Y72250000D02*
X81471428Y72273810D01*
X81400000Y72273810D01*
X81328571Y72250000D01*
X81280952Y72202381D01*
X81257142Y72154762D01*
X81233333Y72059524D01*
X81233333Y71988096D01*
X81257142Y71892858D01*
X81280952Y71845239D01*
X81328571Y71797620D01*
X81400000Y71773810D01*
X81447619Y71773810D01*
X81519047Y71797620D01*
X81542857Y71821429D01*
X81542857Y71988096D01*
X81447619Y71988096D01*
X81757142Y71773810D02*
X81757142Y72273810D01*
X82042857Y71773810D01*
X82042857Y72273810D01*
X82280952Y71773810D02*
X82280952Y72273810D01*
X82400000Y72273810D01*
X82471428Y72250000D01*
X82519047Y72202381D01*
X82542857Y72154762D01*
X82566666Y72059524D01*
X82566666Y71988096D01*
X82542857Y71892858D01*
X82519047Y71845239D01*
X82471428Y71797620D01*
X82400000Y71773810D01*
X82280952Y71773810D01*
D10*
X31000000Y24100000D02*
G75*
G02*
X31000000Y26100000I0J1000000D01*
G01*
X31000000Y48400000D02*
G75*
G02*
X31000000Y50400000I0J1000000D01*
G01*
X98900000Y24100000D02*
X78900000Y24100000D01*
X98900000Y48400000D02*
X78900000Y48400000D01*
X98900000Y72700000D02*
X78900000Y72700000D01*
X98900000Y1800000D02*
X98900000Y24100000D01*
X98900000Y26100000D02*
X98900000Y48400000D01*
X98900000Y50400000D02*
X98900000Y72700000D01*
X9100000Y4800000D02*
X7000000Y4800000D01*
X9100000Y29100000D02*
X7000000Y29100000D01*
X9100000Y53400000D02*
X7000000Y53400000D01*
X7000000Y20900000D02*
X7000000Y24100000D01*
X7000000Y45200000D02*
X7000000Y48400000D01*
X7000000Y69500000D02*
X7000000Y72700000D01*
X98900000Y1800000D02*
X78900000Y1800000D01*
X98900000Y26100000D02*
X78900000Y26100000D01*
X98900000Y50400000D02*
X78900000Y50400000D01*
X7000000Y24100000D02*
X27000000Y24100000D01*
X7000000Y48400000D02*
X27000000Y48400000D01*
X7000000Y72700000D02*
X27000000Y72700000D01*
X7000000Y20900000D02*
X9100000Y20900000D01*
X7000000Y45200000D02*
X9100000Y45200000D01*
X7000000Y69500000D02*
X9100000Y69500000D01*
X74900000Y24100000D02*
X56000000Y24100000D01*
X74900000Y48400000D02*
X56000000Y48400000D01*
X74900000Y72700000D02*
X56000000Y72700000D01*
X7000000Y1800000D02*
X27000000Y1800000D01*
X7000000Y26100000D02*
X27000000Y26100000D01*
X7000000Y50400000D02*
X27000000Y50400000D01*
X27000000Y74700000D02*
G75*
G02*
X27000000Y72700000I0J-1000000D01*
G01*
X31000000Y72700000D02*
G75*
G02*
X31000000Y74700000I0J1000000D01*
G01*
X52000000Y74700000D02*
G75*
G02*
X52000000Y72700000I0J-1000000D01*
G01*
X56000000Y72700000D02*
G75*
G02*
X56000000Y74700000I0J1000000D01*
G01*
X74900000Y74700000D02*
G75*
G02*
X74900000Y72700000I0J-1000000D01*
G01*
X78900000Y72700000D02*
G75*
G02*
X78900000Y74700000I0J1000000D01*
G01*
X98900000Y74700000D02*
X78900000Y74700000D01*
X56000000Y74700000D02*
X74900000Y74700000D01*
X31000000Y74700000D02*
X52000000Y74700000D01*
X7000000Y74700000D02*
X27000000Y74700000D01*
X74900000Y97000000D02*
X56000000Y97000000D01*
X31000000Y97000000D02*
X52000000Y97000000D01*
X98900000Y97000000D02*
X78900000Y97000000D01*
X7000000Y97000000D02*
X27000000Y97000000D01*
X98900000Y74700000D02*
X98900000Y97000000D01*
X7000000Y77700000D02*
X7000000Y74700000D01*
X7000000Y93800000D02*
X7000000Y97000000D01*
X9100000Y93800000D02*
X9900000Y93000000D01*
X9100000Y77700000D02*
X9900000Y78500000D01*
X9100000Y77700000D02*
X7000000Y77700000D01*
X9900000Y93000000D02*
X9900000Y78500000D01*
X7000000Y93800000D02*
X9100000Y93800000D01*
D11*
X91619047Y96573810D02*
X91904761Y96573810D01*
X91761904Y96073810D02*
X91761904Y96573810D01*
X92023809Y96573810D02*
X92357142Y96073810D01*
X92357142Y96573810D02*
X92023809Y96073810D01*
X89416666Y96073810D02*
X89250000Y96311905D01*
X89130952Y96073810D02*
X89130952Y96573810D01*
X89321428Y96573810D01*
X89369047Y96550000D01*
X89392857Y96526191D01*
X89416666Y96478572D01*
X89416666Y96407143D01*
X89392857Y96359524D01*
X89369047Y96335715D01*
X89321428Y96311905D01*
X89130952Y96311905D01*
X89583333Y96573810D02*
X89916666Y96073810D01*
X89916666Y96573810D02*
X89583333Y96073810D01*
X86161904Y96550000D02*
X86114285Y96573810D01*
X86042857Y96573810D01*
X85971428Y96550000D01*
X85923809Y96502381D01*
X85900000Y96454762D01*
X85876190Y96359524D01*
X85876190Y96288096D01*
X85900000Y96192858D01*
X85923809Y96145239D01*
X85971428Y96097620D01*
X86042857Y96073810D01*
X86090476Y96073810D01*
X86161904Y96097620D01*
X86185714Y96121429D01*
X86185714Y96288096D01*
X86090476Y96288096D01*
X86400000Y96073810D02*
X86400000Y96573810D01*
X86590476Y96573810D01*
X86638095Y96550000D01*
X86661904Y96526191D01*
X86685714Y96478572D01*
X86685714Y96407143D01*
X86661904Y96359524D01*
X86638095Y96335715D01*
X86590476Y96311905D01*
X86400000Y96311905D01*
X86900000Y96073810D02*
X86900000Y96573810D01*
X87233333Y96573810D02*
X87328571Y96573810D01*
X87376190Y96550000D01*
X87423809Y96502381D01*
X87447619Y96407143D01*
X87447619Y96240477D01*
X87423809Y96145239D01*
X87376190Y96097620D01*
X87328571Y96073810D01*
X87233333Y96073810D01*
X87185714Y96097620D01*
X87138095Y96145239D01*
X87114285Y96240477D01*
X87114285Y96407143D01*
X87138095Y96502381D01*
X87185714Y96550000D01*
X87233333Y96573810D01*
X87757142Y96573810D02*
X87804761Y96573810D01*
X87852380Y96550000D01*
X87876190Y96526191D01*
X87900000Y96478572D01*
X87923809Y96383334D01*
X87923809Y96264286D01*
X87900000Y96169048D01*
X87876190Y96121429D01*
X87852380Y96097620D01*
X87804761Y96073810D01*
X87757142Y96073810D01*
X87709523Y96097620D01*
X87685714Y96121429D01*
X87661904Y96169048D01*
X87638095Y96264286D01*
X87638095Y96383334D01*
X87661904Y96478572D01*
X87685714Y96526191D01*
X87709523Y96550000D01*
X87757142Y96573810D01*
X81519047Y96550000D02*
X81471428Y96573810D01*
X81400000Y96573810D01*
X81328571Y96550000D01*
X81280952Y96502381D01*
X81257142Y96454762D01*
X81233333Y96359524D01*
X81233333Y96288096D01*
X81257142Y96192858D01*
X81280952Y96145239D01*
X81328571Y96097620D01*
X81400000Y96073810D01*
X81447619Y96073810D01*
X81519047Y96097620D01*
X81542857Y96121429D01*
X81542857Y96288096D01*
X81447619Y96288096D01*
X81757142Y96073810D02*
X81757142Y96573810D01*
X82042857Y96073810D01*
X82042857Y96573810D01*
X82280952Y96073810D02*
X82280952Y96573810D01*
X82400000Y96573810D01*
X82471428Y96550000D01*
X82519047Y96502381D01*
X82542857Y96454762D01*
X82566666Y96359524D01*
X82566666Y96288096D01*
X82542857Y96192858D01*
X82519047Y96145239D01*
X82471428Y96097620D01*
X82400000Y96073810D01*
X82280952Y96073810D01*
X83519047Y96264286D02*
X83900000Y96264286D01*
X83709523Y96073810D02*
X83709523Y96454762D01*
X84090476Y96573810D02*
X84400000Y96573810D01*
X84233333Y96383334D01*
X84304761Y96383334D01*
X84352380Y96359524D01*
X84376190Y96335715D01*
X84400000Y96288096D01*
X84400000Y96169048D01*
X84376190Y96121429D01*
X84352380Y96097620D01*
X84304761Y96073810D01*
X84161904Y96073810D01*
X84114285Y96097620D01*
X84090476Y96121429D01*
X84542857Y96573810D02*
X84709523Y96073810D01*
X84876190Y96573810D01*
X84995238Y96573810D02*
X85304761Y96573810D01*
X85138095Y96383334D01*
X85209523Y96383334D01*
X85257142Y96359524D01*
X85280952Y96335715D01*
X85304761Y96288096D01*
X85304761Y96169048D01*
X85280952Y96121429D01*
X85257142Y96097620D01*
X85209523Y96073810D01*
X85066666Y96073810D01*
X85019047Y96097620D01*
X84995238Y96121429D01*
D12*
X48004761Y80338096D02*
X48052380Y80480953D01*
X48052380Y80719048D01*
X48004761Y80814286D01*
X47957142Y80861905D01*
X47861904Y80909524D01*
X47766666Y80909524D01*
X47671428Y80861905D01*
X47623809Y80814286D01*
X47576190Y80719048D01*
X47528571Y80528572D01*
X47480952Y80433334D01*
X47433333Y80385715D01*
X47338095Y80338096D01*
X47242857Y80338096D01*
X47147619Y80385715D01*
X47100000Y80433334D01*
X47052380Y80528572D01*
X47052380Y80766667D01*
X47100000Y80909524D01*
X48052380Y81338096D02*
X47052380Y81338096D01*
X48052380Y81909524D01*
X47052380Y81909524D01*
X47052380Y82290477D02*
X47052380Y82957143D01*
X48052380Y82528572D01*
X47385714Y83766667D02*
X48052380Y83766667D01*
X47004761Y83528572D02*
X47719047Y83290477D01*
X47719047Y83909524D01*
X48052380Y84290477D02*
X47052380Y84290477D01*
X47528571Y84290477D02*
X47528571Y84861905D01*
X48052380Y84861905D02*
X47052380Y84861905D01*
X47957142Y85909524D02*
X48004761Y85861905D01*
X48052380Y85719048D01*
X48052380Y85623810D01*
X48004761Y85480953D01*
X47909523Y85385715D01*
X47814285Y85338096D01*
X47623809Y85290477D01*
X47480952Y85290477D01*
X47290476Y85338096D01*
X47195238Y85385715D01*
X47100000Y85480953D01*
X47052380Y85623810D01*
X47052380Y85719048D01*
X47100000Y85861905D01*
X47147619Y85909524D01*
X47480952Y86480953D02*
X47433333Y86385715D01*
X47385714Y86338096D01*
X47290476Y86290477D01*
X47242857Y86290477D01*
X47147619Y86338096D01*
X47100000Y86385715D01*
X47052380Y86480953D01*
X47052380Y86671429D01*
X47100000Y86766667D01*
X47147619Y86814286D01*
X47242857Y86861905D01*
X47290476Y86861905D01*
X47385714Y86814286D01*
X47433333Y86766667D01*
X47480952Y86671429D01*
X47480952Y86480953D01*
X47528571Y86385715D01*
X47576190Y86338096D01*
X47671428Y86290477D01*
X47861904Y86290477D01*
X47957142Y86338096D01*
X48004761Y86385715D01*
X48052380Y86480953D01*
X48052380Y86671429D01*
X48004761Y86766667D01*
X47957142Y86814286D01*
X47861904Y86861905D01*
X47671428Y86861905D01*
X47576190Y86814286D01*
X47528571Y86766667D01*
X47480952Y86671429D01*
X47052380Y87719048D02*
X47052380Y87528572D01*
X47100000Y87433334D01*
X47147619Y87385715D01*
X47290476Y87290477D01*
X47480952Y87242858D01*
X47861904Y87242858D01*
X47957142Y87290477D01*
X48004761Y87338096D01*
X48052380Y87433334D01*
X48052380Y87623810D01*
X48004761Y87719048D01*
X47957142Y87766667D01*
X47861904Y87814286D01*
X47623809Y87814286D01*
X47528571Y87766667D01*
X47480952Y87719048D01*
X47433333Y87623810D01*
X47433333Y87433334D01*
X47480952Y87338096D01*
X47528571Y87290477D01*
X47623809Y87242858D01*
X48052380Y88242858D02*
X47052380Y88242858D01*
X48052380Y88814286D01*
X47052380Y88814286D01*
D11*
X62735714Y76019048D02*
X62735714Y76400000D01*
X62926190Y76209524D02*
X62545238Y76209524D01*
X62426190Y76590477D02*
X62426190Y76900000D01*
X62616666Y76733334D01*
X62616666Y76804762D01*
X62640476Y76852381D01*
X62664285Y76876191D01*
X62711904Y76900000D01*
X62830952Y76900000D01*
X62878571Y76876191D01*
X62902380Y76852381D01*
X62926190Y76804762D01*
X62926190Y76661905D01*
X62902380Y76614286D01*
X62878571Y76590477D01*
X62426190Y77042858D02*
X62926190Y77209524D01*
X62426190Y77376191D01*
X62426190Y77495239D02*
X62426190Y77828572D01*
X62926190Y77614286D01*
X64135714Y76019048D02*
X64135714Y76400000D01*
X64326190Y76209524D02*
X63945238Y76209524D01*
X63826190Y76590477D02*
X63826190Y76900000D01*
X64016666Y76733334D01*
X64016666Y76804762D01*
X64040476Y76852381D01*
X64064285Y76876191D01*
X64111904Y76900000D01*
X64230952Y76900000D01*
X64278571Y76876191D01*
X64302380Y76852381D01*
X64326190Y76804762D01*
X64326190Y76661905D01*
X64302380Y76614286D01*
X64278571Y76590477D01*
X63826190Y77042858D02*
X64326190Y77209524D01*
X63826190Y77376191D01*
X63826190Y77495239D02*
X63826190Y77804762D01*
X64016666Y77638096D01*
X64016666Y77709524D01*
X64040476Y77757143D01*
X64064285Y77780953D01*
X64111904Y77804762D01*
X64230952Y77804762D01*
X64278571Y77780953D01*
X64302380Y77757143D01*
X64326190Y77709524D01*
X64326190Y77566667D01*
X64302380Y77519048D01*
X64278571Y77495239D01*
X60850000Y76719048D02*
X60826190Y76671429D01*
X60826190Y76600000D01*
X60850000Y76528572D01*
X60897619Y76480953D01*
X60945238Y76457143D01*
X61040476Y76433334D01*
X61111904Y76433334D01*
X61207142Y76457143D01*
X61254761Y76480953D01*
X61302380Y76528572D01*
X61326190Y76600000D01*
X61326190Y76647620D01*
X61302380Y76719048D01*
X61278571Y76742858D01*
X61111904Y76742858D01*
X61111904Y76647620D01*
X61326190Y76957143D02*
X60826190Y76957143D01*
X61326190Y77242858D01*
X60826190Y77242858D01*
X61326190Y77480953D02*
X60826190Y77480953D01*
X60826190Y77600000D01*
X60850000Y77671429D01*
X60897619Y77719048D01*
X60945238Y77742858D01*
X61040476Y77766667D01*
X61111904Y77766667D01*
X61207142Y77742858D01*
X61254761Y77719048D01*
X61302380Y77671429D01*
X61326190Y77600000D01*
X61326190Y77480953D01*
D13*
%TO.C,S1*%
X69400000Y2300000D02*
X59400000Y2300000D01*
X59400000Y6300000D02*
X62400000Y6300000D01*
X62400000Y6300000D02*
X64400000Y6300000D01*
X64400000Y6300000D02*
X66400000Y6300000D01*
X66400000Y6300000D02*
X69400000Y6300000D01*
X69400000Y2300000D02*
X69400000Y3000000D01*
X69400000Y5600000D02*
X69400000Y6300000D01*
X59400000Y2300000D02*
X59400000Y3000000D01*
X59400000Y5600000D02*
X59400000Y6300000D01*
X69400000Y26600000D02*
X59400000Y26600000D01*
X59400000Y30600000D02*
X62400000Y30600000D01*
X62400000Y30600000D02*
X64400000Y30600000D01*
X64400000Y30600000D02*
X66400000Y30600000D01*
X66400000Y30600000D02*
X69400000Y30600000D01*
X69400000Y26600000D02*
X69400000Y27300000D01*
X69400000Y29900000D02*
X69400000Y30600000D01*
X59400000Y26600000D02*
X59400000Y27300000D01*
X59400000Y29900000D02*
X59400000Y30600000D01*
X69400000Y50900000D02*
X59400000Y50900000D01*
X59400000Y54900000D02*
X62400000Y54900000D01*
X62400000Y54900000D02*
X64400000Y54900000D01*
X64400000Y54900000D02*
X66400000Y54900000D01*
X66400000Y54900000D02*
X69400000Y54900000D01*
X69400000Y50900000D02*
X69400000Y51600000D01*
X69400000Y54200000D02*
X69400000Y54900000D01*
X59400000Y50900000D02*
X59400000Y51600000D01*
X59400000Y54200000D02*
X59400000Y54900000D01*
D14*
%TO.C,10k-4*%
X40127064Y14965000D02*
X39672936Y14965000D01*
X40127064Y16435000D02*
X39672936Y16435000D01*
X40127064Y39265000D02*
X39672936Y39265000D01*
X40127064Y40735000D02*
X39672936Y40735000D01*
X40127064Y63565000D02*
X39672936Y63565000D01*
X40127064Y65035000D02*
X39672936Y65035000D01*
%TO.C,100nF-1*%
X37538748Y4035000D02*
X38061252Y4035000D01*
X37538748Y2565000D02*
X38061252Y2565000D01*
X37538748Y28335000D02*
X38061252Y28335000D01*
X37538748Y26865000D02*
X38061252Y26865000D01*
X37538748Y52635000D02*
X38061252Y52635000D01*
X37538748Y51165000D02*
X38061252Y51165000D01*
D11*
%TO.C,mouse-bite-2mm-slot*%
X74900000Y24100000D02*
G75*
G03*
X74900000Y26100000I0J1000000D01*
G01*
X78900000Y26100000D02*
G75*
G03*
X78900000Y24100000I0J-1000000D01*
G01*
X74900000Y48400000D02*
G75*
G03*
X74900000Y50400000I0J1000000D01*
G01*
X78900000Y50400000D02*
G75*
G03*
X78900000Y48400000I0J-1000000D01*
G01*
D14*
%TO.C,10k-1*%
X25472936Y4035000D02*
X25927064Y4035000D01*
X25472936Y2565000D02*
X25927064Y2565000D01*
X25472936Y28335000D02*
X25927064Y28335000D01*
X25472936Y26865000D02*
X25927064Y26865000D01*
X25472936Y52635000D02*
X25927064Y52635000D01*
X25472936Y51165000D02*
X25927064Y51165000D01*
%TO.C,10k-2*%
X32027064Y2565000D02*
X31572936Y2565000D01*
X32027064Y4035000D02*
X31572936Y4035000D01*
X32027064Y26865000D02*
X31572936Y26865000D01*
X32027064Y28335000D02*
X31572936Y28335000D01*
X32027064Y51165000D02*
X31572936Y51165000D01*
X32027064Y52635000D02*
X31572936Y52635000D01*
%TO.C,U3*%
X50010000Y21030000D02*
G75*
G02*
X48010000Y21030000I-1000000J0D01*
G01*
X51660000Y21030000D02*
X50010000Y21030000D01*
X51660000Y3130000D02*
X51660000Y21030000D01*
X46360000Y3130000D02*
X51660000Y3130000D01*
X46360000Y21030000D02*
X46360000Y3130000D01*
X48010000Y21030000D02*
X46360000Y21030000D01*
X50010000Y45330000D02*
G75*
G02*
X48010000Y45330000I-1000000J0D01*
G01*
X51660000Y45330000D02*
X50010000Y45330000D01*
X51660000Y27430000D02*
X51660000Y45330000D01*
X46360000Y27430000D02*
X51660000Y27430000D01*
X46360000Y45330000D02*
X46360000Y27430000D01*
X48010000Y45330000D02*
X46360000Y45330000D01*
X50010000Y69630000D02*
G75*
G02*
X48010000Y69630000I-1000000J0D01*
G01*
X51660000Y69630000D02*
X50010000Y69630000D01*
X51660000Y51730000D02*
X51660000Y69630000D01*
X46360000Y51730000D02*
X51660000Y51730000D01*
X46360000Y69630000D02*
X46360000Y51730000D01*
X48010000Y69630000D02*
X46360000Y69630000D01*
%TO.C,J1*%
X93390000Y20270000D02*
X93390000Y22930000D01*
X83170000Y20270000D02*
X93390000Y20270000D01*
X83170000Y22930000D02*
X93390000Y22930000D01*
X83170000Y20270000D02*
X83170000Y22930000D01*
X81900000Y20270000D02*
X80570000Y20270000D01*
X80570000Y20270000D02*
X80570000Y21600000D01*
X93390000Y44570000D02*
X93390000Y47230000D01*
X83170000Y44570000D02*
X93390000Y44570000D01*
X83170000Y47230000D02*
X93390000Y47230000D01*
X83170000Y44570000D02*
X83170000Y47230000D01*
X81900000Y44570000D02*
X80570000Y44570000D01*
X80570000Y44570000D02*
X80570000Y45900000D01*
X93390000Y68870000D02*
X93390000Y71530000D01*
X83170000Y68870000D02*
X93390000Y68870000D01*
X83170000Y71530000D02*
X93390000Y71530000D01*
X83170000Y68870000D02*
X83170000Y71530000D01*
X81900000Y68870000D02*
X80570000Y68870000D01*
X80570000Y68870000D02*
X80570000Y70200000D01*
%TO.C,3V7*%
X95450000Y13950000D02*
X97350000Y13950000D01*
X97350000Y13950000D02*
X97350000Y12050000D01*
X97350000Y12050000D02*
X95450000Y12050000D01*
X95450000Y12050000D02*
X95450000Y13950000D01*
X95450000Y38250000D02*
X97350000Y38250000D01*
X97350000Y38250000D02*
X97350000Y36350000D01*
X97350000Y36350000D02*
X95450000Y36350000D01*
X95450000Y36350000D02*
X95450000Y38250000D01*
X95450000Y62550000D02*
X97350000Y62550000D01*
X97350000Y62550000D02*
X97350000Y60650000D01*
X97350000Y60650000D02*
X95450000Y60650000D01*
X95450000Y60650000D02*
X95450000Y62550000D01*
%TO.C,ESP-12E1*%
X11180000Y6080000D02*
X11180000Y22320000D01*
X11180000Y22320000D02*
X18800000Y22320000D01*
X34800000Y22320000D02*
X35420000Y22320000D01*
X35420000Y22320000D02*
X35420000Y20200000D01*
X35420000Y8200000D02*
X35420000Y6080000D01*
X35420000Y6080000D02*
X34800000Y6080000D01*
X18800000Y6080000D02*
X11180000Y6080000D01*
X18800000Y6080000D02*
X18800000Y5470000D01*
X11180000Y30380000D02*
X11180000Y46620000D01*
X11180000Y46620000D02*
X18800000Y46620000D01*
X34800000Y46620000D02*
X35420000Y46620000D01*
X35420000Y46620000D02*
X35420000Y44500000D01*
X35420000Y32500000D02*
X35420000Y30380000D01*
X35420000Y30380000D02*
X34800000Y30380000D01*
X18800000Y30380000D02*
X11180000Y30380000D01*
X18800000Y30380000D02*
X18800000Y29770000D01*
X11180000Y54680000D02*
X11180000Y70920000D01*
X11180000Y70920000D02*
X18800000Y70920000D01*
X34800000Y70920000D02*
X35420000Y70920000D01*
X35420000Y70920000D02*
X35420000Y68800000D01*
X35420000Y56800000D02*
X35420000Y54680000D01*
X35420000Y54680000D02*
X34800000Y54680000D01*
X18800000Y54680000D02*
X11180000Y54680000D01*
X18800000Y54680000D02*
X18800000Y54070000D01*
%TO.C,10k-3*%
X20027064Y4135000D02*
X19572936Y4135000D01*
X20027064Y2665000D02*
X19572936Y2665000D01*
X20027064Y28435000D02*
X19572936Y28435000D01*
X20027064Y26965000D02*
X19572936Y26965000D01*
X20027064Y52735000D02*
X19572936Y52735000D01*
X20027064Y51265000D02*
X19572936Y51265000D01*
%TO.C,REED1*%
X9300000Y6800000D02*
X9800000Y6800000D01*
X9800000Y6800000D02*
X9800000Y19800000D01*
X9800000Y19800000D02*
X9300000Y19800000D01*
X7200000Y19800000D02*
X7200000Y6800000D01*
X7200000Y6800000D02*
X7700000Y6800000D01*
X7700000Y19800000D02*
X7200000Y19800000D01*
X9300000Y31100000D02*
X9800000Y31100000D01*
X9800000Y31100000D02*
X9800000Y44100000D01*
X9800000Y44100000D02*
X9300000Y44100000D01*
X7200000Y44100000D02*
X7200000Y31100000D01*
X7200000Y31100000D02*
X7700000Y31100000D01*
X7700000Y44100000D02*
X7200000Y44100000D01*
X9300000Y55400000D02*
X9800000Y55400000D01*
X9800000Y55400000D02*
X9800000Y68400000D01*
X9800000Y68400000D02*
X9300000Y68400000D01*
X7200000Y68400000D02*
X7200000Y55400000D01*
X7200000Y55400000D02*
X7700000Y55400000D01*
X7700000Y68400000D02*
X7200000Y68400000D01*
%TO.C,GND*%
X12450000Y12050000D02*
X12450000Y13950000D01*
X14350000Y12050000D02*
X12450000Y12050000D01*
X14350000Y13950000D02*
X14350000Y12050000D01*
X12450000Y13950000D02*
X14350000Y13950000D01*
X12450000Y36350000D02*
X12450000Y38250000D01*
X14350000Y36350000D02*
X12450000Y36350000D01*
X14350000Y38250000D02*
X14350000Y36350000D01*
X12450000Y38250000D02*
X14350000Y38250000D01*
X12450000Y60650000D02*
X12450000Y62550000D01*
X14350000Y60650000D02*
X12450000Y60650000D01*
X14350000Y62550000D02*
X14350000Y60650000D01*
X12450000Y62550000D02*
X14350000Y62550000D01*
%TO.C,HT7333*%
X64950000Y11760000D02*
X66260000Y11760000D01*
X66260000Y11760000D02*
X66260000Y9040000D01*
X61770000Y7900000D02*
X61770000Y9040000D01*
X61540000Y11760000D02*
X62850000Y11760000D01*
X61540000Y9040000D02*
X61540000Y11760000D01*
X61540000Y9040000D02*
X61770000Y9040000D01*
X66260000Y9040000D02*
X66030000Y9040000D01*
X64950000Y36060000D02*
X66260000Y36060000D01*
X66260000Y36060000D02*
X66260000Y33340000D01*
X61770000Y32200000D02*
X61770000Y33340000D01*
X61540000Y36060000D02*
X62850000Y36060000D01*
X61540000Y33340000D02*
X61540000Y36060000D01*
X61540000Y33340000D02*
X61770000Y33340000D01*
X66260000Y33340000D02*
X66030000Y33340000D01*
X64950000Y60360000D02*
X66260000Y60360000D01*
X66260000Y60360000D02*
X66260000Y57640000D01*
X61770000Y56500000D02*
X61770000Y57640000D01*
X61540000Y60360000D02*
X62850000Y60360000D01*
X61540000Y57640000D02*
X61540000Y60360000D01*
X61540000Y57640000D02*
X61770000Y57640000D01*
X66260000Y57640000D02*
X66030000Y57640000D01*
D11*
%TO.C,mouse-bite-2mm-slot*%
X52000000Y24100000D02*
G75*
G03*
X52000000Y26100000I0J1000000D01*
G01*
X56000000Y26100000D02*
G75*
G03*
X56000000Y24100000I0J-1000000D01*
G01*
X52000000Y48400000D02*
G75*
G03*
X52000000Y50400000I0J1000000D01*
G01*
X56000000Y50400000D02*
G75*
G03*
X56000000Y48400000I0J-1000000D01*
G01*
D14*
%TO.C,1M-1*%
X13772936Y4135000D02*
X14227064Y4135000D01*
X13772936Y2665000D02*
X14227064Y2665000D01*
X13772936Y28435000D02*
X14227064Y28435000D01*
X13772936Y26965000D02*
X14227064Y26965000D01*
X13772936Y52735000D02*
X14227064Y52735000D01*
X13772936Y51265000D02*
X14227064Y51265000D01*
D11*
%TO.C,mouse-bite-2mm-slot*%
X27000000Y24100000D02*
G75*
G03*
X27000000Y26100000I0J1000000D01*
G01*
X31000000Y26100000D02*
G75*
G03*
X31000000Y24100000I0J-1000000D01*
G01*
X27000000Y48400000D02*
G75*
G03*
X27000000Y50400000I0J1000000D01*
G01*
X31000000Y50400000D02*
G75*
G03*
X31000000Y48400000I0J-1000000D01*
G01*
D14*
%TO.C,FLASH1*%
X38330000Y10370000D02*
X38630000Y10370000D01*
X41470000Y6230000D02*
X41170000Y6230000D01*
X38630000Y6230000D02*
X38330000Y6230000D01*
X41470000Y10370000D02*
X41470000Y6230000D01*
X41170000Y10370000D02*
X41470000Y10370000D01*
X38330000Y6230000D02*
X38330000Y10370000D01*
X38330000Y34670000D02*
X38630000Y34670000D01*
X41470000Y30530000D02*
X41170000Y30530000D01*
X38630000Y30530000D02*
X38330000Y30530000D01*
X41470000Y34670000D02*
X41470000Y30530000D01*
X41170000Y34670000D02*
X41470000Y34670000D01*
X38330000Y30530000D02*
X38330000Y34670000D01*
X38330000Y58970000D02*
X38630000Y58970000D01*
X41470000Y54830000D02*
X41170000Y54830000D01*
X38630000Y54830000D02*
X38330000Y54830000D01*
X41470000Y58970000D02*
X41470000Y54830000D01*
X41170000Y58970000D02*
X41470000Y58970000D01*
X38330000Y54830000D02*
X38330000Y58970000D01*
%TO.C,TP4056*%
X93200000Y7000000D02*
X93200000Y15000000D01*
X99200000Y7000000D02*
X93200000Y7000000D01*
X99200000Y15000000D02*
X99200000Y7000000D01*
X93200000Y15000000D02*
X99200000Y15000000D01*
X72200000Y2500000D02*
X72200000Y19500000D01*
X98200000Y2500000D02*
X72200000Y2500000D01*
X98200000Y19500000D02*
X98200000Y2500000D01*
X72200000Y19500000D02*
X98200000Y19500000D01*
X93200000Y31300000D02*
X93200000Y39300000D01*
X99200000Y31300000D02*
X93200000Y31300000D01*
X99200000Y39300000D02*
X99200000Y31300000D01*
X93200000Y39300000D02*
X99200000Y39300000D01*
X72200000Y26800000D02*
X72200000Y43800000D01*
X98200000Y26800000D02*
X72200000Y26800000D01*
X98200000Y43800000D02*
X98200000Y26800000D01*
X72200000Y43800000D02*
X98200000Y43800000D01*
X93200000Y55600000D02*
X93200000Y63600000D01*
X99200000Y55600000D02*
X93200000Y55600000D01*
X99200000Y63600000D02*
X99200000Y55600000D01*
X93200000Y63600000D02*
X99200000Y63600000D01*
X72200000Y51100000D02*
X72200000Y68100000D01*
X98200000Y51100000D02*
X72200000Y51100000D01*
X98200000Y68100000D02*
X98200000Y51100000D01*
X72200000Y68100000D02*
X98200000Y68100000D01*
%TO.C,RESET1*%
X38330000Y22370000D02*
X38630000Y22370000D01*
X41470000Y18230000D02*
X41170000Y18230000D01*
X38630000Y18230000D02*
X38330000Y18230000D01*
X41470000Y22370000D02*
X41470000Y18230000D01*
X41170000Y22370000D02*
X41470000Y22370000D01*
X38330000Y18230000D02*
X38330000Y22370000D01*
X38330000Y46670000D02*
X38630000Y46670000D01*
X41470000Y42530000D02*
X41170000Y42530000D01*
X38630000Y42530000D02*
X38330000Y42530000D01*
X41470000Y46670000D02*
X41470000Y42530000D01*
X41170000Y46670000D02*
X41470000Y46670000D01*
X38330000Y42530000D02*
X38330000Y46670000D01*
X38330000Y70970000D02*
X38630000Y70970000D01*
X41470000Y66830000D02*
X41170000Y66830000D01*
X38630000Y66830000D02*
X38330000Y66830000D01*
X41470000Y70970000D02*
X41470000Y66830000D01*
X41170000Y70970000D02*
X41470000Y70970000D01*
X38330000Y66830000D02*
X38330000Y70970000D01*
%TO.C,1000uF-1*%
X57540000Y23560000D02*
X57540000Y19510000D01*
X57540000Y13040000D02*
X57540000Y17090000D01*
X66995563Y13040000D02*
X57540000Y13040000D01*
X66995563Y23560000D02*
X57540000Y23560000D01*
X68060000Y22495563D02*
X68060000Y19510000D01*
X68060000Y14104437D02*
X68060000Y17090000D01*
X68060000Y14104437D02*
X66995563Y13040000D01*
X68060000Y22495563D02*
X66995563Y23560000D01*
X69550000Y15840000D02*
X68300000Y15840000D01*
X68925000Y15215000D02*
X68925000Y16465000D01*
X57540000Y47860000D02*
X57540000Y43810000D01*
X57540000Y37340000D02*
X57540000Y41390000D01*
X66995563Y37340000D02*
X57540000Y37340000D01*
X66995563Y47860000D02*
X57540000Y47860000D01*
X68060000Y46795563D02*
X68060000Y43810000D01*
X68060000Y38404437D02*
X68060000Y41390000D01*
X68060000Y38404437D02*
X66995563Y37340000D01*
X68060000Y46795563D02*
X66995563Y47860000D01*
X69550000Y40140000D02*
X68300000Y40140000D01*
X68925000Y39515000D02*
X68925000Y40765000D01*
X57540000Y72160000D02*
X57540000Y68110000D01*
X57540000Y61640000D02*
X57540000Y65690000D01*
X66995563Y61640000D02*
X57540000Y61640000D01*
X66995563Y72160000D02*
X57540000Y72160000D01*
X68060000Y71095563D02*
X68060000Y68110000D01*
X68060000Y62704437D02*
X68060000Y65690000D01*
X68060000Y62704437D02*
X66995563Y61640000D01*
X68060000Y71095563D02*
X66995563Y72160000D01*
X69550000Y64440000D02*
X68300000Y64440000D01*
X68925000Y63815000D02*
X68925000Y65065000D01*
%TO.C,100nF-2*%
X39638748Y11665000D02*
X40161252Y11665000D01*
X39638748Y13135000D02*
X40161252Y13135000D01*
X39638748Y35965000D02*
X40161252Y35965000D01*
X39638748Y37435000D02*
X40161252Y37435000D01*
X39638748Y60265000D02*
X40161252Y60265000D01*
X39638748Y61735000D02*
X40161252Y61735000D01*
D11*
%TO.C,mouse-bite-2mm-slot*%
X78900000Y74700000D02*
G75*
G03*
X78900000Y72700000I0J-1000000D01*
G01*
X74900000Y72700000D02*
G75*
G03*
X74900000Y74700000I0J1000000D01*
G01*
X56000000Y74700000D02*
G75*
G03*
X56000000Y72700000I0J-1000000D01*
G01*
X52000000Y72700000D02*
G75*
G03*
X52000000Y74700000I0J1000000D01*
G01*
X31000000Y74700000D02*
G75*
G03*
X31000000Y72700000I0J-1000000D01*
G01*
X27000000Y72700000D02*
G75*
G03*
X27000000Y74700000I0J1000000D01*
G01*
D14*
%TO.C,GND*%
X12450000Y86850000D02*
X14350000Y86850000D01*
X14350000Y86850000D02*
X14350000Y84950000D01*
X14350000Y84950000D02*
X12450000Y84950000D01*
X12450000Y84950000D02*
X12450000Y86850000D01*
%TO.C,3V7*%
X95450000Y84950000D02*
X95450000Y86850000D01*
X97350000Y84950000D02*
X95450000Y84950000D01*
X97350000Y86850000D02*
X97350000Y84950000D01*
X95450000Y86850000D02*
X97350000Y86850000D01*
%TO.C,TP4056*%
X72200000Y92400000D02*
X98200000Y92400000D01*
X98200000Y92400000D02*
X98200000Y75400000D01*
X98200000Y75400000D02*
X72200000Y75400000D01*
X72200000Y75400000D02*
X72200000Y92400000D01*
X93200000Y87900000D02*
X99200000Y87900000D01*
X99200000Y87900000D02*
X99200000Y79900000D01*
X99200000Y79900000D02*
X93200000Y79900000D01*
X93200000Y79900000D02*
X93200000Y87900000D01*
%TO.C,U3*%
X48010000Y93930000D02*
X46360000Y93930000D01*
X46360000Y93930000D02*
X46360000Y76030000D01*
X46360000Y76030000D02*
X51660000Y76030000D01*
X51660000Y76030000D02*
X51660000Y93930000D01*
X51660000Y93930000D02*
X50010000Y93930000D01*
X50010000Y93930000D02*
G75*
G02*
X48010000Y93930000I-1000000J0D01*
G01*
%TO.C,J1*%
X80570000Y93170000D02*
X80570000Y94500000D01*
X81900000Y93170000D02*
X80570000Y93170000D01*
X83170000Y93170000D02*
X83170000Y95830000D01*
X83170000Y95830000D02*
X93390000Y95830000D01*
X83170000Y93170000D02*
X93390000Y93170000D01*
X93390000Y93170000D02*
X93390000Y95830000D01*
%TO.C,100nF-1*%
X37538748Y75465000D02*
X38061252Y75465000D01*
X37538748Y76935000D02*
X38061252Y76935000D01*
%TO.C,ESP-12E1*%
X18800000Y78980000D02*
X18800000Y78370000D01*
X18800000Y78980000D02*
X11180000Y78980000D01*
X35420000Y78980000D02*
X34800000Y78980000D01*
X35420000Y81100000D02*
X35420000Y78980000D01*
X35420000Y95220000D02*
X35420000Y93100000D01*
X34800000Y95220000D02*
X35420000Y95220000D01*
X11180000Y95220000D02*
X18800000Y95220000D01*
X11180000Y78980000D02*
X11180000Y95220000D01*
%TO.C,10k-3*%
X20027064Y75565000D02*
X19572936Y75565000D01*
X20027064Y77035000D02*
X19572936Y77035000D01*
%TO.C,FLASH1*%
X38330000Y79130000D02*
X38330000Y83270000D01*
X41170000Y83270000D02*
X41470000Y83270000D01*
X41470000Y83270000D02*
X41470000Y79130000D01*
X38630000Y79130000D02*
X38330000Y79130000D01*
X41470000Y79130000D02*
X41170000Y79130000D01*
X38330000Y83270000D02*
X38630000Y83270000D01*
%TO.C,RESET1*%
X38330000Y91130000D02*
X38330000Y95270000D01*
X41170000Y95270000D02*
X41470000Y95270000D01*
X41470000Y95270000D02*
X41470000Y91130000D01*
X38630000Y91130000D02*
X38330000Y91130000D01*
X41470000Y91130000D02*
X41170000Y91130000D01*
X38330000Y95270000D02*
X38630000Y95270000D01*
%TO.C,REED1*%
X7700000Y92700000D02*
X7200000Y92700000D01*
X7200000Y79700000D02*
X7700000Y79700000D01*
X7200000Y92700000D02*
X7200000Y79700000D01*
X9800000Y92700000D02*
X9300000Y92700000D01*
X9800000Y79700000D02*
X9800000Y92700000D01*
X9300000Y79700000D02*
X9800000Y79700000D01*
%TO.C,10k-2*%
X32027064Y76935000D02*
X31572936Y76935000D01*
X32027064Y75465000D02*
X31572936Y75465000D01*
%TO.C,10k-1*%
X25472936Y75465000D02*
X25927064Y75465000D01*
X25472936Y76935000D02*
X25927064Y76935000D01*
%TO.C,1M-1*%
X13772936Y75565000D02*
X14227064Y75565000D01*
X13772936Y77035000D02*
X14227064Y77035000D01*
%TO.C,HT7333*%
X66260000Y81940000D02*
X66030000Y81940000D01*
X61540000Y81940000D02*
X61770000Y81940000D01*
X61540000Y81940000D02*
X61540000Y84660000D01*
X61540000Y84660000D02*
X62850000Y84660000D01*
X61770000Y80800000D02*
X61770000Y81940000D01*
X66260000Y84660000D02*
X66260000Y81940000D01*
X64950000Y84660000D02*
X66260000Y84660000D01*
%TO.C,10k-4*%
X40127064Y89335000D02*
X39672936Y89335000D01*
X40127064Y87865000D02*
X39672936Y87865000D01*
%TO.C,100nF-2*%
X39638748Y86035000D02*
X40161252Y86035000D01*
X39638748Y84565000D02*
X40161252Y84565000D01*
%TO.C,1000uF-1*%
X68925000Y88115000D02*
X68925000Y89365000D01*
X69550000Y88740000D02*
X68300000Y88740000D01*
X68060000Y95395563D02*
X66995563Y96460000D01*
X68060000Y87004437D02*
X66995563Y85940000D01*
X68060000Y87004437D02*
X68060000Y89990000D01*
X68060000Y95395563D02*
X68060000Y92410000D01*
X66995563Y96460000D02*
X57540000Y96460000D01*
X66995563Y85940000D02*
X57540000Y85940000D01*
X57540000Y85940000D02*
X57540000Y89990000D01*
X57540000Y96460000D02*
X57540000Y92410000D01*
D13*
%TO.C,S1*%
X59400000Y78500000D02*
X59400000Y79200000D01*
X59400000Y75200000D02*
X59400000Y75900000D01*
X69400000Y78500000D02*
X69400000Y79200000D01*
X69400000Y75200000D02*
X69400000Y75900000D01*
X66400000Y79200000D02*
X69400000Y79200000D01*
X64400000Y79200000D02*
X66400000Y79200000D01*
X62400000Y79200000D02*
X64400000Y79200000D01*
X59400000Y79200000D02*
X62400000Y79200000D01*
X69400000Y75200000D02*
X59400000Y75200000D01*
%TD*%
%TO.C,S1*%
D12*
X63800074Y3981290D02*
X63912560Y3943795D01*
X64100037Y3943795D01*
X64175028Y3981290D01*
X64212523Y4018785D01*
X64250018Y4093776D01*
X64250018Y4168767D01*
X64212523Y4243757D01*
X64175028Y4281253D01*
X64100037Y4318748D01*
X63950056Y4356243D01*
X63875065Y4393739D01*
X63837570Y4431234D01*
X63800074Y4506225D01*
X63800074Y4581215D01*
X63837570Y4656206D01*
X63875065Y4693701D01*
X63950056Y4731197D01*
X64137532Y4731197D01*
X64250018Y4693701D01*
X64999925Y3943795D02*
X64549981Y3943795D01*
X64774953Y3943795D02*
X64774953Y4731197D01*
X64699962Y4618711D01*
X64624972Y4543720D01*
X64549981Y4506225D01*
X63800074Y28281290D02*
X63912560Y28243795D01*
X64100037Y28243795D01*
X64175028Y28281290D01*
X64212523Y28318785D01*
X64250018Y28393776D01*
X64250018Y28468767D01*
X64212523Y28543757D01*
X64175028Y28581253D01*
X64100037Y28618748D01*
X63950056Y28656243D01*
X63875065Y28693739D01*
X63837570Y28731234D01*
X63800074Y28806225D01*
X63800074Y28881215D01*
X63837570Y28956206D01*
X63875065Y28993701D01*
X63950056Y29031197D01*
X64137532Y29031197D01*
X64250018Y28993701D01*
X64999925Y28243795D02*
X64549981Y28243795D01*
X64774953Y28243795D02*
X64774953Y29031197D01*
X64699962Y28918711D01*
X64624972Y28843720D01*
X64549981Y28806225D01*
X63800074Y52581290D02*
X63912560Y52543795D01*
X64100037Y52543795D01*
X64175028Y52581290D01*
X64212523Y52618785D01*
X64250018Y52693776D01*
X64250018Y52768767D01*
X64212523Y52843757D01*
X64175028Y52881253D01*
X64100037Y52918748D01*
X63950056Y52956243D01*
X63875065Y52993739D01*
X63837570Y53031234D01*
X63800074Y53106225D01*
X63800074Y53181215D01*
X63837570Y53256206D01*
X63875065Y53293701D01*
X63950056Y53331197D01*
X64137532Y53331197D01*
X64250018Y53293701D01*
X64999925Y52543795D02*
X64549981Y52543795D01*
X64774953Y52543795D02*
X64774953Y53331197D01*
X64699962Y53218711D01*
X64624972Y53143720D01*
X64549981Y53106225D01*
%TO.C,10k-4*%
D11*
X38674761Y16707143D02*
X38389047Y16707143D01*
X38531904Y16707143D02*
X38531904Y17207143D01*
X38484285Y17135714D01*
X38436666Y17088095D01*
X38389047Y17064286D01*
X38984285Y17207143D02*
X39031904Y17207143D01*
X39079523Y17183333D01*
X39103333Y17159524D01*
X39127142Y17111905D01*
X39150952Y17016667D01*
X39150952Y16897619D01*
X39127142Y16802381D01*
X39103333Y16754762D01*
X39079523Y16730953D01*
X39031904Y16707143D01*
X38984285Y16707143D01*
X38936666Y16730953D01*
X38912857Y16754762D01*
X38889047Y16802381D01*
X38865238Y16897619D01*
X38865238Y17016667D01*
X38889047Y17111905D01*
X38912857Y17159524D01*
X38936666Y17183333D01*
X38984285Y17207143D01*
X39365238Y16707143D02*
X39365238Y17207143D01*
X39412857Y16897619D02*
X39555714Y16707143D01*
X39555714Y17040476D02*
X39365238Y16850000D01*
X39770000Y16897619D02*
X40150952Y16897619D01*
X40603333Y17040476D02*
X40603333Y16707143D01*
X40484285Y17230953D02*
X40365238Y16873810D01*
X40674761Y16873810D01*
X38674761Y41007143D02*
X38389047Y41007143D01*
X38531904Y41007143D02*
X38531904Y41507143D01*
X38484285Y41435714D01*
X38436666Y41388095D01*
X38389047Y41364286D01*
X38984285Y41507143D02*
X39031904Y41507143D01*
X39079523Y41483333D01*
X39103333Y41459524D01*
X39127142Y41411905D01*
X39150952Y41316667D01*
X39150952Y41197619D01*
X39127142Y41102381D01*
X39103333Y41054762D01*
X39079523Y41030953D01*
X39031904Y41007143D01*
X38984285Y41007143D01*
X38936666Y41030953D01*
X38912857Y41054762D01*
X38889047Y41102381D01*
X38865238Y41197619D01*
X38865238Y41316667D01*
X38889047Y41411905D01*
X38912857Y41459524D01*
X38936666Y41483333D01*
X38984285Y41507143D01*
X39365238Y41007143D02*
X39365238Y41507143D01*
X39412857Y41197619D02*
X39555714Y41007143D01*
X39555714Y41340476D02*
X39365238Y41150000D01*
X39770000Y41197619D02*
X40150952Y41197619D01*
X40603333Y41340476D02*
X40603333Y41007143D01*
X40484285Y41530953D02*
X40365238Y41173810D01*
X40674761Y41173810D01*
X38674761Y65307143D02*
X38389047Y65307143D01*
X38531904Y65307143D02*
X38531904Y65807143D01*
X38484285Y65735714D01*
X38436666Y65688095D01*
X38389047Y65664286D01*
X38984285Y65807143D02*
X39031904Y65807143D01*
X39079523Y65783333D01*
X39103333Y65759524D01*
X39127142Y65711905D01*
X39150952Y65616667D01*
X39150952Y65497619D01*
X39127142Y65402381D01*
X39103333Y65354762D01*
X39079523Y65330953D01*
X39031904Y65307143D01*
X38984285Y65307143D01*
X38936666Y65330953D01*
X38912857Y65354762D01*
X38889047Y65402381D01*
X38865238Y65497619D01*
X38865238Y65616667D01*
X38889047Y65711905D01*
X38912857Y65759524D01*
X38936666Y65783333D01*
X38984285Y65807143D01*
X39365238Y65307143D02*
X39365238Y65807143D01*
X39412857Y65497619D02*
X39555714Y65307143D01*
X39555714Y65640476D02*
X39365238Y65450000D01*
X39770000Y65497619D02*
X40150952Y65497619D01*
X40603333Y65640476D02*
X40603333Y65307143D01*
X40484285Y65830953D02*
X40365238Y65473810D01*
X40674761Y65473810D01*
%TO.C,100nF-1*%
X36578571Y4373810D02*
X36292857Y4373810D01*
X36435714Y4373810D02*
X36435714Y4873810D01*
X36388095Y4802381D01*
X36340476Y4754762D01*
X36292857Y4730953D01*
X36888095Y4873810D02*
X36935714Y4873810D01*
X36983333Y4850000D01*
X37007142Y4826191D01*
X37030952Y4778572D01*
X37054761Y4683334D01*
X37054761Y4564286D01*
X37030952Y4469048D01*
X37007142Y4421429D01*
X36983333Y4397620D01*
X36935714Y4373810D01*
X36888095Y4373810D01*
X36840476Y4397620D01*
X36816666Y4421429D01*
X36792857Y4469048D01*
X36769047Y4564286D01*
X36769047Y4683334D01*
X36792857Y4778572D01*
X36816666Y4826191D01*
X36840476Y4850000D01*
X36888095Y4873810D01*
X37364285Y4873810D02*
X37411904Y4873810D01*
X37459523Y4850000D01*
X37483333Y4826191D01*
X37507142Y4778572D01*
X37530952Y4683334D01*
X37530952Y4564286D01*
X37507142Y4469048D01*
X37483333Y4421429D01*
X37459523Y4397620D01*
X37411904Y4373810D01*
X37364285Y4373810D01*
X37316666Y4397620D01*
X37292857Y4421429D01*
X37269047Y4469048D01*
X37245238Y4564286D01*
X37245238Y4683334D01*
X37269047Y4778572D01*
X37292857Y4826191D01*
X37316666Y4850000D01*
X37364285Y4873810D01*
X37745238Y4707143D02*
X37745238Y4373810D01*
X37745238Y4659524D02*
X37769047Y4683334D01*
X37816666Y4707143D01*
X37888095Y4707143D01*
X37935714Y4683334D01*
X37959523Y4635715D01*
X37959523Y4373810D01*
X38364285Y4635715D02*
X38197619Y4635715D01*
X38197619Y4373810D02*
X38197619Y4873810D01*
X38435714Y4873810D01*
X38626190Y4564286D02*
X39007142Y4564286D01*
X39507142Y4373810D02*
X39221428Y4373810D01*
X39364285Y4373810D02*
X39364285Y4873810D01*
X39316666Y4802381D01*
X39269047Y4754762D01*
X39221428Y4730953D01*
X36578571Y28673810D02*
X36292857Y28673810D01*
X36435714Y28673810D02*
X36435714Y29173810D01*
X36388095Y29102381D01*
X36340476Y29054762D01*
X36292857Y29030953D01*
X36888095Y29173810D02*
X36935714Y29173810D01*
X36983333Y29150000D01*
X37007142Y29126191D01*
X37030952Y29078572D01*
X37054761Y28983334D01*
X37054761Y28864286D01*
X37030952Y28769048D01*
X37007142Y28721429D01*
X36983333Y28697620D01*
X36935714Y28673810D01*
X36888095Y28673810D01*
X36840476Y28697620D01*
X36816666Y28721429D01*
X36792857Y28769048D01*
X36769047Y28864286D01*
X36769047Y28983334D01*
X36792857Y29078572D01*
X36816666Y29126191D01*
X36840476Y29150000D01*
X36888095Y29173810D01*
X37364285Y29173810D02*
X37411904Y29173810D01*
X37459523Y29150000D01*
X37483333Y29126191D01*
X37507142Y29078572D01*
X37530952Y28983334D01*
X37530952Y28864286D01*
X37507142Y28769048D01*
X37483333Y28721429D01*
X37459523Y28697620D01*
X37411904Y28673810D01*
X37364285Y28673810D01*
X37316666Y28697620D01*
X37292857Y28721429D01*
X37269047Y28769048D01*
X37245238Y28864286D01*
X37245238Y28983334D01*
X37269047Y29078572D01*
X37292857Y29126191D01*
X37316666Y29150000D01*
X37364285Y29173810D01*
X37745238Y29007143D02*
X37745238Y28673810D01*
X37745238Y28959524D02*
X37769047Y28983334D01*
X37816666Y29007143D01*
X37888095Y29007143D01*
X37935714Y28983334D01*
X37959523Y28935715D01*
X37959523Y28673810D01*
X38364285Y28935715D02*
X38197619Y28935715D01*
X38197619Y28673810D02*
X38197619Y29173810D01*
X38435714Y29173810D01*
X38626190Y28864286D02*
X39007142Y28864286D01*
X39507142Y28673810D02*
X39221428Y28673810D01*
X39364285Y28673810D02*
X39364285Y29173810D01*
X39316666Y29102381D01*
X39269047Y29054762D01*
X39221428Y29030953D01*
X36578571Y52973810D02*
X36292857Y52973810D01*
X36435714Y52973810D02*
X36435714Y53473810D01*
X36388095Y53402381D01*
X36340476Y53354762D01*
X36292857Y53330953D01*
X36888095Y53473810D02*
X36935714Y53473810D01*
X36983333Y53450000D01*
X37007142Y53426191D01*
X37030952Y53378572D01*
X37054761Y53283334D01*
X37054761Y53164286D01*
X37030952Y53069048D01*
X37007142Y53021429D01*
X36983333Y52997620D01*
X36935714Y52973810D01*
X36888095Y52973810D01*
X36840476Y52997620D01*
X36816666Y53021429D01*
X36792857Y53069048D01*
X36769047Y53164286D01*
X36769047Y53283334D01*
X36792857Y53378572D01*
X36816666Y53426191D01*
X36840476Y53450000D01*
X36888095Y53473810D01*
X37364285Y53473810D02*
X37411904Y53473810D01*
X37459523Y53450000D01*
X37483333Y53426191D01*
X37507142Y53378572D01*
X37530952Y53283334D01*
X37530952Y53164286D01*
X37507142Y53069048D01*
X37483333Y53021429D01*
X37459523Y52997620D01*
X37411904Y52973810D01*
X37364285Y52973810D01*
X37316666Y52997620D01*
X37292857Y53021429D01*
X37269047Y53069048D01*
X37245238Y53164286D01*
X37245238Y53283334D01*
X37269047Y53378572D01*
X37292857Y53426191D01*
X37316666Y53450000D01*
X37364285Y53473810D01*
X37745238Y53307143D02*
X37745238Y52973810D01*
X37745238Y53259524D02*
X37769047Y53283334D01*
X37816666Y53307143D01*
X37888095Y53307143D01*
X37935714Y53283334D01*
X37959523Y53235715D01*
X37959523Y52973810D01*
X38364285Y53235715D02*
X38197619Y53235715D01*
X38197619Y52973810D02*
X38197619Y53473810D01*
X38435714Y53473810D01*
X38626190Y53164286D02*
X39007142Y53164286D01*
X39507142Y52973810D02*
X39221428Y52973810D01*
X39364285Y52973810D02*
X39364285Y53473810D01*
X39316666Y53402381D01*
X39269047Y53354762D01*
X39221428Y53330953D01*
%TO.C,10k-1*%
X24554761Y4373810D02*
X24269047Y4373810D01*
X24411904Y4373810D02*
X24411904Y4873810D01*
X24364285Y4802381D01*
X24316666Y4754762D01*
X24269047Y4730953D01*
X24864285Y4873810D02*
X24911904Y4873810D01*
X24959523Y4850000D01*
X24983333Y4826191D01*
X25007142Y4778572D01*
X25030952Y4683334D01*
X25030952Y4564286D01*
X25007142Y4469048D01*
X24983333Y4421429D01*
X24959523Y4397620D01*
X24911904Y4373810D01*
X24864285Y4373810D01*
X24816666Y4397620D01*
X24792857Y4421429D01*
X24769047Y4469048D01*
X24745238Y4564286D01*
X24745238Y4683334D01*
X24769047Y4778572D01*
X24792857Y4826191D01*
X24816666Y4850000D01*
X24864285Y4873810D01*
X25245238Y4373810D02*
X25245238Y4873810D01*
X25292857Y4564286D02*
X25435714Y4373810D01*
X25435714Y4707143D02*
X25245238Y4516667D01*
X25650000Y4564286D02*
X26030952Y4564286D01*
X26530952Y4373810D02*
X26245238Y4373810D01*
X26388095Y4373810D02*
X26388095Y4873810D01*
X26340476Y4802381D01*
X26292857Y4754762D01*
X26245238Y4730953D01*
X24554761Y28673810D02*
X24269047Y28673810D01*
X24411904Y28673810D02*
X24411904Y29173810D01*
X24364285Y29102381D01*
X24316666Y29054762D01*
X24269047Y29030953D01*
X24864285Y29173810D02*
X24911904Y29173810D01*
X24959523Y29150000D01*
X24983333Y29126191D01*
X25007142Y29078572D01*
X25030952Y28983334D01*
X25030952Y28864286D01*
X25007142Y28769048D01*
X24983333Y28721429D01*
X24959523Y28697620D01*
X24911904Y28673810D01*
X24864285Y28673810D01*
X24816666Y28697620D01*
X24792857Y28721429D01*
X24769047Y28769048D01*
X24745238Y28864286D01*
X24745238Y28983334D01*
X24769047Y29078572D01*
X24792857Y29126191D01*
X24816666Y29150000D01*
X24864285Y29173810D01*
X25245238Y28673810D02*
X25245238Y29173810D01*
X25292857Y28864286D02*
X25435714Y28673810D01*
X25435714Y29007143D02*
X25245238Y28816667D01*
X25650000Y28864286D02*
X26030952Y28864286D01*
X26530952Y28673810D02*
X26245238Y28673810D01*
X26388095Y28673810D02*
X26388095Y29173810D01*
X26340476Y29102381D01*
X26292857Y29054762D01*
X26245238Y29030953D01*
X24554761Y52973810D02*
X24269047Y52973810D01*
X24411904Y52973810D02*
X24411904Y53473810D01*
X24364285Y53402381D01*
X24316666Y53354762D01*
X24269047Y53330953D01*
X24864285Y53473810D02*
X24911904Y53473810D01*
X24959523Y53450000D01*
X24983333Y53426191D01*
X25007142Y53378572D01*
X25030952Y53283334D01*
X25030952Y53164286D01*
X25007142Y53069048D01*
X24983333Y53021429D01*
X24959523Y52997620D01*
X24911904Y52973810D01*
X24864285Y52973810D01*
X24816666Y52997620D01*
X24792857Y53021429D01*
X24769047Y53069048D01*
X24745238Y53164286D01*
X24745238Y53283334D01*
X24769047Y53378572D01*
X24792857Y53426191D01*
X24816666Y53450000D01*
X24864285Y53473810D01*
X25245238Y52973810D02*
X25245238Y53473810D01*
X25292857Y53164286D02*
X25435714Y52973810D01*
X25435714Y53307143D02*
X25245238Y53116667D01*
X25650000Y53164286D02*
X26030952Y53164286D01*
X26530952Y52973810D02*
X26245238Y52973810D01*
X26388095Y52973810D02*
X26388095Y53473810D01*
X26340476Y53402381D01*
X26292857Y53354762D01*
X26245238Y53330953D01*
%TO.C,10k-2*%
X30654761Y4373810D02*
X30369047Y4373810D01*
X30511904Y4373810D02*
X30511904Y4873810D01*
X30464285Y4802381D01*
X30416666Y4754762D01*
X30369047Y4730953D01*
X30964285Y4873810D02*
X31011904Y4873810D01*
X31059523Y4850000D01*
X31083333Y4826191D01*
X31107142Y4778572D01*
X31130952Y4683334D01*
X31130952Y4564286D01*
X31107142Y4469048D01*
X31083333Y4421429D01*
X31059523Y4397620D01*
X31011904Y4373810D01*
X30964285Y4373810D01*
X30916666Y4397620D01*
X30892857Y4421429D01*
X30869047Y4469048D01*
X30845238Y4564286D01*
X30845238Y4683334D01*
X30869047Y4778572D01*
X30892857Y4826191D01*
X30916666Y4850000D01*
X30964285Y4873810D01*
X31345238Y4373810D02*
X31345238Y4873810D01*
X31392857Y4564286D02*
X31535714Y4373810D01*
X31535714Y4707143D02*
X31345238Y4516667D01*
X31750000Y4564286D02*
X32130952Y4564286D01*
X32345238Y4826191D02*
X32369047Y4850000D01*
X32416666Y4873810D01*
X32535714Y4873810D01*
X32583333Y4850000D01*
X32607142Y4826191D01*
X32630952Y4778572D01*
X32630952Y4730953D01*
X32607142Y4659524D01*
X32321428Y4373810D01*
X32630952Y4373810D01*
X30654761Y28673810D02*
X30369047Y28673810D01*
X30511904Y28673810D02*
X30511904Y29173810D01*
X30464285Y29102381D01*
X30416666Y29054762D01*
X30369047Y29030953D01*
X30964285Y29173810D02*
X31011904Y29173810D01*
X31059523Y29150000D01*
X31083333Y29126191D01*
X31107142Y29078572D01*
X31130952Y28983334D01*
X31130952Y28864286D01*
X31107142Y28769048D01*
X31083333Y28721429D01*
X31059523Y28697620D01*
X31011904Y28673810D01*
X30964285Y28673810D01*
X30916666Y28697620D01*
X30892857Y28721429D01*
X30869047Y28769048D01*
X30845238Y28864286D01*
X30845238Y28983334D01*
X30869047Y29078572D01*
X30892857Y29126191D01*
X30916666Y29150000D01*
X30964285Y29173810D01*
X31345238Y28673810D02*
X31345238Y29173810D01*
X31392857Y28864286D02*
X31535714Y28673810D01*
X31535714Y29007143D02*
X31345238Y28816667D01*
X31750000Y28864286D02*
X32130952Y28864286D01*
X32345238Y29126191D02*
X32369047Y29150000D01*
X32416666Y29173810D01*
X32535714Y29173810D01*
X32583333Y29150000D01*
X32607142Y29126191D01*
X32630952Y29078572D01*
X32630952Y29030953D01*
X32607142Y28959524D01*
X32321428Y28673810D01*
X32630952Y28673810D01*
X30654761Y52973810D02*
X30369047Y52973810D01*
X30511904Y52973810D02*
X30511904Y53473810D01*
X30464285Y53402381D01*
X30416666Y53354762D01*
X30369047Y53330953D01*
X30964285Y53473810D02*
X31011904Y53473810D01*
X31059523Y53450000D01*
X31083333Y53426191D01*
X31107142Y53378572D01*
X31130952Y53283334D01*
X31130952Y53164286D01*
X31107142Y53069048D01*
X31083333Y53021429D01*
X31059523Y52997620D01*
X31011904Y52973810D01*
X30964285Y52973810D01*
X30916666Y52997620D01*
X30892857Y53021429D01*
X30869047Y53069048D01*
X30845238Y53164286D01*
X30845238Y53283334D01*
X30869047Y53378572D01*
X30892857Y53426191D01*
X30916666Y53450000D01*
X30964285Y53473810D01*
X31345238Y52973810D02*
X31345238Y53473810D01*
X31392857Y53164286D02*
X31535714Y52973810D01*
X31535714Y53307143D02*
X31345238Y53116667D01*
X31750000Y53164286D02*
X32130952Y53164286D01*
X32345238Y53426191D02*
X32369047Y53450000D01*
X32416666Y53473810D01*
X32535714Y53473810D01*
X32583333Y53450000D01*
X32607142Y53426191D01*
X32630952Y53378572D01*
X32630952Y53330953D01*
X32607142Y53259524D01*
X32321428Y52973810D01*
X32630952Y52973810D01*
%TO.C,3V7*%
X95780952Y14873810D02*
X96090476Y14873810D01*
X95923809Y14683334D01*
X95995238Y14683334D01*
X96042857Y14659524D01*
X96066666Y14635715D01*
X96090476Y14588096D01*
X96090476Y14469048D01*
X96066666Y14421429D01*
X96042857Y14397620D01*
X95995238Y14373810D01*
X95852380Y14373810D01*
X95804761Y14397620D01*
X95780952Y14421429D01*
X96233333Y14873810D02*
X96400000Y14373810D01*
X96566666Y14873810D01*
X96685714Y14873810D02*
X97019047Y14873810D01*
X96804761Y14373810D01*
X95780952Y39173810D02*
X96090476Y39173810D01*
X95923809Y38983334D01*
X95995238Y38983334D01*
X96042857Y38959524D01*
X96066666Y38935715D01*
X96090476Y38888096D01*
X96090476Y38769048D01*
X96066666Y38721429D01*
X96042857Y38697620D01*
X95995238Y38673810D01*
X95852380Y38673810D01*
X95804761Y38697620D01*
X95780952Y38721429D01*
X96233333Y39173810D02*
X96400000Y38673810D01*
X96566666Y39173810D01*
X96685714Y39173810D02*
X97019047Y39173810D01*
X96804761Y38673810D01*
X95780952Y63473810D02*
X96090476Y63473810D01*
X95923809Y63283334D01*
X95995238Y63283334D01*
X96042857Y63259524D01*
X96066666Y63235715D01*
X96090476Y63188096D01*
X96090476Y63069048D01*
X96066666Y63021429D01*
X96042857Y62997620D01*
X95995238Y62973810D01*
X95852380Y62973810D01*
X95804761Y62997620D01*
X95780952Y63021429D01*
X96233333Y63473810D02*
X96400000Y62973810D01*
X96566666Y63473810D01*
X96685714Y63473810D02*
X97019047Y63473810D01*
X96804761Y62973810D01*
%TO.C,ESP-12E1*%
D12*
X20239523Y14261429D02*
X20572857Y14261429D01*
X20715714Y13737620D02*
X20239523Y13737620D01*
X20239523Y14737620D01*
X20715714Y14737620D01*
X21096666Y13785239D02*
X21239523Y13737620D01*
X21477619Y13737620D01*
X21572857Y13785239D01*
X21620476Y13832858D01*
X21668095Y13928096D01*
X21668095Y14023334D01*
X21620476Y14118572D01*
X21572857Y14166191D01*
X21477619Y14213810D01*
X21287142Y14261429D01*
X21191904Y14309048D01*
X21144285Y14356667D01*
X21096666Y14451905D01*
X21096666Y14547143D01*
X21144285Y14642381D01*
X21191904Y14690000D01*
X21287142Y14737620D01*
X21525238Y14737620D01*
X21668095Y14690000D01*
X22096666Y13737620D02*
X22096666Y14737620D01*
X22477619Y14737620D01*
X22572857Y14690000D01*
X22620476Y14642381D01*
X22668095Y14547143D01*
X22668095Y14404286D01*
X22620476Y14309048D01*
X22572857Y14261429D01*
X22477619Y14213810D01*
X22096666Y14213810D01*
X23096666Y14118572D02*
X23858571Y14118572D01*
X24858571Y13737620D02*
X24287142Y13737620D01*
X24572857Y13737620D02*
X24572857Y14737620D01*
X24477619Y14594762D01*
X24382380Y14499524D01*
X24287142Y14451905D01*
X25239523Y14642381D02*
X25287142Y14690000D01*
X25382380Y14737620D01*
X25620476Y14737620D01*
X25715714Y14690000D01*
X25763333Y14642381D01*
X25810952Y14547143D01*
X25810952Y14451905D01*
X25763333Y14309048D01*
X25191904Y13737620D01*
X25810952Y13737620D01*
X26239523Y14261429D02*
X26572857Y14261429D01*
X26715714Y13737620D02*
X26239523Y13737620D01*
X26239523Y14737620D01*
X26715714Y14737620D01*
X27668095Y13737620D02*
X27096666Y13737620D01*
X27382380Y13737620D02*
X27382380Y14737620D01*
X27287142Y14594762D01*
X27191904Y14499524D01*
X27096666Y14451905D01*
X20239523Y38561429D02*
X20572857Y38561429D01*
X20715714Y38037620D02*
X20239523Y38037620D01*
X20239523Y39037620D01*
X20715714Y39037620D01*
X21096666Y38085239D02*
X21239523Y38037620D01*
X21477619Y38037620D01*
X21572857Y38085239D01*
X21620476Y38132858D01*
X21668095Y38228096D01*
X21668095Y38323334D01*
X21620476Y38418572D01*
X21572857Y38466191D01*
X21477619Y38513810D01*
X21287142Y38561429D01*
X21191904Y38609048D01*
X21144285Y38656667D01*
X21096666Y38751905D01*
X21096666Y38847143D01*
X21144285Y38942381D01*
X21191904Y38990000D01*
X21287142Y39037620D01*
X21525238Y39037620D01*
X21668095Y38990000D01*
X22096666Y38037620D02*
X22096666Y39037620D01*
X22477619Y39037620D01*
X22572857Y38990000D01*
X22620476Y38942381D01*
X22668095Y38847143D01*
X22668095Y38704286D01*
X22620476Y38609048D01*
X22572857Y38561429D01*
X22477619Y38513810D01*
X22096666Y38513810D01*
X23096666Y38418572D02*
X23858571Y38418572D01*
X24858571Y38037620D02*
X24287142Y38037620D01*
X24572857Y38037620D02*
X24572857Y39037620D01*
X24477619Y38894762D01*
X24382380Y38799524D01*
X24287142Y38751905D01*
X25239523Y38942381D02*
X25287142Y38990000D01*
X25382380Y39037620D01*
X25620476Y39037620D01*
X25715714Y38990000D01*
X25763333Y38942381D01*
X25810952Y38847143D01*
X25810952Y38751905D01*
X25763333Y38609048D01*
X25191904Y38037620D01*
X25810952Y38037620D01*
X26239523Y38561429D02*
X26572857Y38561429D01*
X26715714Y38037620D02*
X26239523Y38037620D01*
X26239523Y39037620D01*
X26715714Y39037620D01*
X27668095Y38037620D02*
X27096666Y38037620D01*
X27382380Y38037620D02*
X27382380Y39037620D01*
X27287142Y38894762D01*
X27191904Y38799524D01*
X27096666Y38751905D01*
X20239523Y62861429D02*
X20572857Y62861429D01*
X20715714Y62337620D02*
X20239523Y62337620D01*
X20239523Y63337620D01*
X20715714Y63337620D01*
X21096666Y62385239D02*
X21239523Y62337620D01*
X21477619Y62337620D01*
X21572857Y62385239D01*
X21620476Y62432858D01*
X21668095Y62528096D01*
X21668095Y62623334D01*
X21620476Y62718572D01*
X21572857Y62766191D01*
X21477619Y62813810D01*
X21287142Y62861429D01*
X21191904Y62909048D01*
X21144285Y62956667D01*
X21096666Y63051905D01*
X21096666Y63147143D01*
X21144285Y63242381D01*
X21191904Y63290000D01*
X21287142Y63337620D01*
X21525238Y63337620D01*
X21668095Y63290000D01*
X22096666Y62337620D02*
X22096666Y63337620D01*
X22477619Y63337620D01*
X22572857Y63290000D01*
X22620476Y63242381D01*
X22668095Y63147143D01*
X22668095Y63004286D01*
X22620476Y62909048D01*
X22572857Y62861429D01*
X22477619Y62813810D01*
X22096666Y62813810D01*
X23096666Y62718572D02*
X23858571Y62718572D01*
X24858571Y62337620D02*
X24287142Y62337620D01*
X24572857Y62337620D02*
X24572857Y63337620D01*
X24477619Y63194762D01*
X24382380Y63099524D01*
X24287142Y63051905D01*
X25239523Y63242381D02*
X25287142Y63290000D01*
X25382380Y63337620D01*
X25620476Y63337620D01*
X25715714Y63290000D01*
X25763333Y63242381D01*
X25810952Y63147143D01*
X25810952Y63051905D01*
X25763333Y62909048D01*
X25191904Y62337620D01*
X25810952Y62337620D01*
X26239523Y62861429D02*
X26572857Y62861429D01*
X26715714Y62337620D02*
X26239523Y62337620D01*
X26239523Y63337620D01*
X26715714Y63337620D01*
X27668095Y62337620D02*
X27096666Y62337620D01*
X27382380Y62337620D02*
X27382380Y63337620D01*
X27287142Y63194762D01*
X27191904Y63099524D01*
X27096666Y63051905D01*
%TO.C,10k-3*%
D11*
X18521428Y4473810D02*
X18235714Y4473810D01*
X18378571Y4473810D02*
X18378571Y4973810D01*
X18330952Y4902381D01*
X18283333Y4854762D01*
X18235714Y4830953D01*
X18830952Y4973810D02*
X18878571Y4973810D01*
X18926190Y4950000D01*
X18950000Y4926191D01*
X18973809Y4878572D01*
X18997619Y4783334D01*
X18997619Y4664286D01*
X18973809Y4569048D01*
X18950000Y4521429D01*
X18926190Y4497620D01*
X18878571Y4473810D01*
X18830952Y4473810D01*
X18783333Y4497620D01*
X18759524Y4521429D01*
X18735714Y4569048D01*
X18711905Y4664286D01*
X18711905Y4783334D01*
X18735714Y4878572D01*
X18759524Y4926191D01*
X18783333Y4950000D01*
X18830952Y4973810D01*
X19211905Y4473810D02*
X19211905Y4973810D01*
X19259524Y4664286D02*
X19402381Y4473810D01*
X19402381Y4807143D02*
X19211905Y4616667D01*
X19616667Y4664286D02*
X19997619Y4664286D01*
X20188095Y4973810D02*
X20497619Y4973810D01*
X20330952Y4783334D01*
X20402381Y4783334D01*
X20450000Y4759524D01*
X20473809Y4735715D01*
X20497619Y4688096D01*
X20497619Y4569048D01*
X20473809Y4521429D01*
X20450000Y4497620D01*
X20402381Y4473810D01*
X20259524Y4473810D01*
X20211905Y4497620D01*
X20188095Y4521429D01*
X18521428Y28773810D02*
X18235714Y28773810D01*
X18378571Y28773810D02*
X18378571Y29273810D01*
X18330952Y29202381D01*
X18283333Y29154762D01*
X18235714Y29130953D01*
X18830952Y29273810D02*
X18878571Y29273810D01*
X18926190Y29250000D01*
X18950000Y29226191D01*
X18973809Y29178572D01*
X18997619Y29083334D01*
X18997619Y28964286D01*
X18973809Y28869048D01*
X18950000Y28821429D01*
X18926190Y28797620D01*
X18878571Y28773810D01*
X18830952Y28773810D01*
X18783333Y28797620D01*
X18759524Y28821429D01*
X18735714Y28869048D01*
X18711905Y28964286D01*
X18711905Y29083334D01*
X18735714Y29178572D01*
X18759524Y29226191D01*
X18783333Y29250000D01*
X18830952Y29273810D01*
X19211905Y28773810D02*
X19211905Y29273810D01*
X19259524Y28964286D02*
X19402381Y28773810D01*
X19402381Y29107143D02*
X19211905Y28916667D01*
X19616667Y28964286D02*
X19997619Y28964286D01*
X20188095Y29273810D02*
X20497619Y29273810D01*
X20330952Y29083334D01*
X20402381Y29083334D01*
X20450000Y29059524D01*
X20473809Y29035715D01*
X20497619Y28988096D01*
X20497619Y28869048D01*
X20473809Y28821429D01*
X20450000Y28797620D01*
X20402381Y28773810D01*
X20259524Y28773810D01*
X20211905Y28797620D01*
X20188095Y28821429D01*
X18521428Y53073810D02*
X18235714Y53073810D01*
X18378571Y53073810D02*
X18378571Y53573810D01*
X18330952Y53502381D01*
X18283333Y53454762D01*
X18235714Y53430953D01*
X18830952Y53573810D02*
X18878571Y53573810D01*
X18926190Y53550000D01*
X18950000Y53526191D01*
X18973809Y53478572D01*
X18997619Y53383334D01*
X18997619Y53264286D01*
X18973809Y53169048D01*
X18950000Y53121429D01*
X18926190Y53097620D01*
X18878571Y53073810D01*
X18830952Y53073810D01*
X18783333Y53097620D01*
X18759524Y53121429D01*
X18735714Y53169048D01*
X18711905Y53264286D01*
X18711905Y53383334D01*
X18735714Y53478572D01*
X18759524Y53526191D01*
X18783333Y53550000D01*
X18830952Y53573810D01*
X19211905Y53073810D02*
X19211905Y53573810D01*
X19259524Y53264286D02*
X19402381Y53073810D01*
X19402381Y53407143D02*
X19211905Y53216667D01*
X19616667Y53264286D02*
X19997619Y53264286D01*
X20188095Y53573810D02*
X20497619Y53573810D01*
X20330952Y53383334D01*
X20402381Y53383334D01*
X20450000Y53359524D01*
X20473809Y53335715D01*
X20497619Y53288096D01*
X20497619Y53169048D01*
X20473809Y53121429D01*
X20450000Y53097620D01*
X20402381Y53073810D01*
X20259524Y53073810D01*
X20211905Y53097620D01*
X20188095Y53121429D01*
%TO.C,REED1*%
D12*
X11452380Y11728572D02*
X10976190Y11395239D01*
X11452380Y11157143D02*
X10452380Y11157143D01*
X10452380Y11538096D01*
X10500000Y11633334D01*
X10547619Y11680953D01*
X10642857Y11728572D01*
X10785714Y11728572D01*
X10880952Y11680953D01*
X10928571Y11633334D01*
X10976190Y11538096D01*
X10976190Y11157143D01*
X10928571Y12157143D02*
X10928571Y12490477D01*
X11452380Y12633334D02*
X11452380Y12157143D01*
X10452380Y12157143D01*
X10452380Y12633334D01*
X10928571Y13061905D02*
X10928571Y13395239D01*
X11452380Y13538096D02*
X11452380Y13061905D01*
X10452380Y13061905D01*
X10452380Y13538096D01*
X11452380Y13966667D02*
X10452380Y13966667D01*
X10452380Y14204762D01*
X10500000Y14347620D01*
X10595238Y14442858D01*
X10690476Y14490477D01*
X10880952Y14538096D01*
X11023809Y14538096D01*
X11214285Y14490477D01*
X11309523Y14442858D01*
X11404761Y14347620D01*
X11452380Y14204762D01*
X11452380Y13966667D01*
X11452380Y15490477D02*
X11452380Y14919048D01*
X11452380Y15204762D02*
X10452380Y15204762D01*
X10595238Y15109524D01*
X10690476Y15014286D01*
X10738095Y14919048D01*
X11452380Y36028572D02*
X10976190Y35695239D01*
X11452380Y35457143D02*
X10452380Y35457143D01*
X10452380Y35838096D01*
X10500000Y35933334D01*
X10547619Y35980953D01*
X10642857Y36028572D01*
X10785714Y36028572D01*
X10880952Y35980953D01*
X10928571Y35933334D01*
X10976190Y35838096D01*
X10976190Y35457143D01*
X10928571Y36457143D02*
X10928571Y36790477D01*
X11452380Y36933334D02*
X11452380Y36457143D01*
X10452380Y36457143D01*
X10452380Y36933334D01*
X10928571Y37361905D02*
X10928571Y37695239D01*
X11452380Y37838096D02*
X11452380Y37361905D01*
X10452380Y37361905D01*
X10452380Y37838096D01*
X11452380Y38266667D02*
X10452380Y38266667D01*
X10452380Y38504762D01*
X10500000Y38647620D01*
X10595238Y38742858D01*
X10690476Y38790477D01*
X10880952Y38838096D01*
X11023809Y38838096D01*
X11214285Y38790477D01*
X11309523Y38742858D01*
X11404761Y38647620D01*
X11452380Y38504762D01*
X11452380Y38266667D01*
X11452380Y39790477D02*
X11452380Y39219048D01*
X11452380Y39504762D02*
X10452380Y39504762D01*
X10595238Y39409524D01*
X10690476Y39314286D01*
X10738095Y39219048D01*
X11452380Y60328572D02*
X10976190Y59995239D01*
X11452380Y59757143D02*
X10452380Y59757143D01*
X10452380Y60138096D01*
X10500000Y60233334D01*
X10547619Y60280953D01*
X10642857Y60328572D01*
X10785714Y60328572D01*
X10880952Y60280953D01*
X10928571Y60233334D01*
X10976190Y60138096D01*
X10976190Y59757143D01*
X10928571Y60757143D02*
X10928571Y61090477D01*
X11452380Y61233334D02*
X11452380Y60757143D01*
X10452380Y60757143D01*
X10452380Y61233334D01*
X10928571Y61661905D02*
X10928571Y61995239D01*
X11452380Y62138096D02*
X11452380Y61661905D01*
X10452380Y61661905D01*
X10452380Y62138096D01*
X11452380Y62566667D02*
X10452380Y62566667D01*
X10452380Y62804762D01*
X10500000Y62947620D01*
X10595238Y63042858D01*
X10690476Y63090477D01*
X10880952Y63138096D01*
X11023809Y63138096D01*
X11214285Y63090477D01*
X11309523Y63042858D01*
X11404761Y62947620D01*
X11452380Y62804762D01*
X11452380Y62566667D01*
X11452380Y64090477D02*
X11452380Y63519048D01*
X11452380Y63804762D02*
X10452380Y63804762D01*
X10595238Y63709524D01*
X10690476Y63614286D01*
X10738095Y63519048D01*
%TO.C,GND*%
D11*
X12919047Y14750000D02*
X12871428Y14773810D01*
X12800000Y14773810D01*
X12728571Y14750000D01*
X12680952Y14702381D01*
X12657142Y14654762D01*
X12633333Y14559524D01*
X12633333Y14488096D01*
X12657142Y14392858D01*
X12680952Y14345239D01*
X12728571Y14297620D01*
X12800000Y14273810D01*
X12847619Y14273810D01*
X12919047Y14297620D01*
X12942857Y14321429D01*
X12942857Y14488096D01*
X12847619Y14488096D01*
X13157142Y14273810D02*
X13157142Y14773810D01*
X13442857Y14273810D01*
X13442857Y14773810D01*
X13680952Y14273810D02*
X13680952Y14773810D01*
X13800000Y14773810D01*
X13871428Y14750000D01*
X13919047Y14702381D01*
X13942857Y14654762D01*
X13966666Y14559524D01*
X13966666Y14488096D01*
X13942857Y14392858D01*
X13919047Y14345239D01*
X13871428Y14297620D01*
X13800000Y14273810D01*
X13680952Y14273810D01*
X12919047Y39050000D02*
X12871428Y39073810D01*
X12800000Y39073810D01*
X12728571Y39050000D01*
X12680952Y39002381D01*
X12657142Y38954762D01*
X12633333Y38859524D01*
X12633333Y38788096D01*
X12657142Y38692858D01*
X12680952Y38645239D01*
X12728571Y38597620D01*
X12800000Y38573810D01*
X12847619Y38573810D01*
X12919047Y38597620D01*
X12942857Y38621429D01*
X12942857Y38788096D01*
X12847619Y38788096D01*
X13157142Y38573810D02*
X13157142Y39073810D01*
X13442857Y38573810D01*
X13442857Y39073810D01*
X13680952Y38573810D02*
X13680952Y39073810D01*
X13800000Y39073810D01*
X13871428Y39050000D01*
X13919047Y39002381D01*
X13942857Y38954762D01*
X13966666Y38859524D01*
X13966666Y38788096D01*
X13942857Y38692858D01*
X13919047Y38645239D01*
X13871428Y38597620D01*
X13800000Y38573810D01*
X13680952Y38573810D01*
X12919047Y63350000D02*
X12871428Y63373810D01*
X12800000Y63373810D01*
X12728571Y63350000D01*
X12680952Y63302381D01*
X12657142Y63254762D01*
X12633333Y63159524D01*
X12633333Y63088096D01*
X12657142Y62992858D01*
X12680952Y62945239D01*
X12728571Y62897620D01*
X12800000Y62873810D01*
X12847619Y62873810D01*
X12919047Y62897620D01*
X12942857Y62921429D01*
X12942857Y63088096D01*
X12847619Y63088096D01*
X13157142Y62873810D02*
X13157142Y63373810D01*
X13442857Y62873810D01*
X13442857Y63373810D01*
X13680952Y62873810D02*
X13680952Y63373810D01*
X13800000Y63373810D01*
X13871428Y63350000D01*
X13919047Y63302381D01*
X13942857Y63254762D01*
X13966666Y63159524D01*
X13966666Y63088096D01*
X13942857Y62992858D01*
X13919047Y62945239D01*
X13871428Y62897620D01*
X13800000Y62873810D01*
X13680952Y62873810D01*
%TO.C,HT7333*%
X62200000Y13183334D02*
X62200000Y13883334D01*
X62200000Y13550000D02*
X62600000Y13550000D01*
X62600000Y13183334D02*
X62600000Y13883334D01*
X62833333Y13883334D02*
X63233333Y13883334D01*
X63033333Y13183334D02*
X63033333Y13883334D01*
X63400000Y13883334D02*
X63866666Y13883334D01*
X63566666Y13183334D01*
X64066666Y13883334D02*
X64500000Y13883334D01*
X64266666Y13616667D01*
X64366666Y13616667D01*
X64433333Y13583334D01*
X64466666Y13550000D01*
X64500000Y13483334D01*
X64500000Y13316667D01*
X64466666Y13250000D01*
X64433333Y13216667D01*
X64366666Y13183334D01*
X64166666Y13183334D01*
X64100000Y13216667D01*
X64066666Y13250000D01*
X64733333Y13883334D02*
X65166666Y13883334D01*
X64933333Y13616667D01*
X65033333Y13616667D01*
X65100000Y13583334D01*
X65133333Y13550000D01*
X65166666Y13483334D01*
X65166666Y13316667D01*
X65133333Y13250000D01*
X65100000Y13216667D01*
X65033333Y13183334D01*
X64833333Y13183334D01*
X64766666Y13216667D01*
X64733333Y13250000D01*
X65400000Y13883334D02*
X65833333Y13883334D01*
X65600000Y13616667D01*
X65700000Y13616667D01*
X65766666Y13583334D01*
X65800000Y13550000D01*
X65833333Y13483334D01*
X65833333Y13316667D01*
X65800000Y13250000D01*
X65766666Y13216667D01*
X65700000Y13183334D01*
X65500000Y13183334D01*
X65433333Y13216667D01*
X65400000Y13250000D01*
X62200000Y37483334D02*
X62200000Y38183334D01*
X62200000Y37850000D02*
X62600000Y37850000D01*
X62600000Y37483334D02*
X62600000Y38183334D01*
X62833333Y38183334D02*
X63233333Y38183334D01*
X63033333Y37483334D02*
X63033333Y38183334D01*
X63400000Y38183334D02*
X63866666Y38183334D01*
X63566666Y37483334D01*
X64066666Y38183334D02*
X64500000Y38183334D01*
X64266666Y37916667D01*
X64366666Y37916667D01*
X64433333Y37883334D01*
X64466666Y37850000D01*
X64500000Y37783334D01*
X64500000Y37616667D01*
X64466666Y37550000D01*
X64433333Y37516667D01*
X64366666Y37483334D01*
X64166666Y37483334D01*
X64100000Y37516667D01*
X64066666Y37550000D01*
X64733333Y38183334D02*
X65166666Y38183334D01*
X64933333Y37916667D01*
X65033333Y37916667D01*
X65100000Y37883334D01*
X65133333Y37850000D01*
X65166666Y37783334D01*
X65166666Y37616667D01*
X65133333Y37550000D01*
X65100000Y37516667D01*
X65033333Y37483334D01*
X64833333Y37483334D01*
X64766666Y37516667D01*
X64733333Y37550000D01*
X65400000Y38183334D02*
X65833333Y38183334D01*
X65600000Y37916667D01*
X65700000Y37916667D01*
X65766666Y37883334D01*
X65800000Y37850000D01*
X65833333Y37783334D01*
X65833333Y37616667D01*
X65800000Y37550000D01*
X65766666Y37516667D01*
X65700000Y37483334D01*
X65500000Y37483334D01*
X65433333Y37516667D01*
X65400000Y37550000D01*
X62200000Y61783334D02*
X62200000Y62483334D01*
X62200000Y62150000D02*
X62600000Y62150000D01*
X62600000Y61783334D02*
X62600000Y62483334D01*
X62833333Y62483334D02*
X63233333Y62483334D01*
X63033333Y61783334D02*
X63033333Y62483334D01*
X63400000Y62483334D02*
X63866666Y62483334D01*
X63566666Y61783334D01*
X64066666Y62483334D02*
X64500000Y62483334D01*
X64266666Y62216667D01*
X64366666Y62216667D01*
X64433333Y62183334D01*
X64466666Y62150000D01*
X64500000Y62083334D01*
X64500000Y61916667D01*
X64466666Y61850000D01*
X64433333Y61816667D01*
X64366666Y61783334D01*
X64166666Y61783334D01*
X64100000Y61816667D01*
X64066666Y61850000D01*
X64733333Y62483334D02*
X65166666Y62483334D01*
X64933333Y62216667D01*
X65033333Y62216667D01*
X65100000Y62183334D01*
X65133333Y62150000D01*
X65166666Y62083334D01*
X65166666Y61916667D01*
X65133333Y61850000D01*
X65100000Y61816667D01*
X65033333Y61783334D01*
X64833333Y61783334D01*
X64766666Y61816667D01*
X64733333Y61850000D01*
X65400000Y62483334D02*
X65833333Y62483334D01*
X65600000Y62216667D01*
X65700000Y62216667D01*
X65766666Y62183334D01*
X65800000Y62150000D01*
X65833333Y62083334D01*
X65833333Y61916667D01*
X65800000Y61850000D01*
X65766666Y61816667D01*
X65700000Y61783334D01*
X65500000Y61783334D01*
X65433333Y61816667D01*
X65400000Y61850000D01*
%TO.C,1M-1*%
X12809523Y4473810D02*
X12523809Y4473810D01*
X12666666Y4473810D02*
X12666666Y4973810D01*
X12619047Y4902381D01*
X12571428Y4854762D01*
X12523809Y4830953D01*
X13023809Y4473810D02*
X13023809Y4973810D01*
X13190476Y4616667D01*
X13357142Y4973810D01*
X13357142Y4473810D01*
X13595238Y4664286D02*
X13976190Y4664286D01*
X14476190Y4473810D02*
X14190476Y4473810D01*
X14333333Y4473810D02*
X14333333Y4973810D01*
X14285714Y4902381D01*
X14238095Y4854762D01*
X14190476Y4830953D01*
X12809523Y28773810D02*
X12523809Y28773810D01*
X12666666Y28773810D02*
X12666666Y29273810D01*
X12619047Y29202381D01*
X12571428Y29154762D01*
X12523809Y29130953D01*
X13023809Y28773810D02*
X13023809Y29273810D01*
X13190476Y28916667D01*
X13357142Y29273810D01*
X13357142Y28773810D01*
X13595238Y28964286D02*
X13976190Y28964286D01*
X14476190Y28773810D02*
X14190476Y28773810D01*
X14333333Y28773810D02*
X14333333Y29273810D01*
X14285714Y29202381D01*
X14238095Y29154762D01*
X14190476Y29130953D01*
X12809523Y53073810D02*
X12523809Y53073810D01*
X12666666Y53073810D02*
X12666666Y53573810D01*
X12619047Y53502381D01*
X12571428Y53454762D01*
X12523809Y53430953D01*
X13023809Y53073810D02*
X13023809Y53573810D01*
X13190476Y53216667D01*
X13357142Y53573810D01*
X13357142Y53073810D01*
X13595238Y53264286D02*
X13976190Y53264286D01*
X14476190Y53073810D02*
X14190476Y53073810D01*
X14333333Y53073810D02*
X14333333Y53573810D01*
X14285714Y53502381D01*
X14238095Y53454762D01*
X14190476Y53430953D01*
%TO.C,FLASH1*%
X37770000Y6783334D02*
X37770000Y6550000D01*
X38136666Y6550000D02*
X37436666Y6550000D01*
X37436666Y6883334D01*
X38136666Y7483334D02*
X38136666Y7150000D01*
X37436666Y7150000D01*
X37936666Y7683334D02*
X37936666Y8016667D01*
X38136666Y7616667D02*
X37436666Y7850000D01*
X38136666Y8083334D01*
X38103333Y8283334D02*
X38136666Y8383334D01*
X38136666Y8550000D01*
X38103333Y8616667D01*
X38070000Y8650000D01*
X38003333Y8683334D01*
X37936666Y8683334D01*
X37870000Y8650000D01*
X37836666Y8616667D01*
X37803333Y8550000D01*
X37770000Y8416667D01*
X37736666Y8350000D01*
X37703333Y8316667D01*
X37636666Y8283334D01*
X37570000Y8283334D01*
X37503333Y8316667D01*
X37470000Y8350000D01*
X37436666Y8416667D01*
X37436666Y8583334D01*
X37470000Y8683334D01*
X38136666Y8983334D02*
X37436666Y8983334D01*
X37770000Y8983334D02*
X37770000Y9383334D01*
X38136666Y9383334D02*
X37436666Y9383334D01*
X38136666Y10083334D02*
X38136666Y9683334D01*
X38136666Y9883334D02*
X37436666Y9883334D01*
X37536666Y9816667D01*
X37603333Y9750000D01*
X37636666Y9683334D01*
X37770000Y31083334D02*
X37770000Y30850000D01*
X38136666Y30850000D02*
X37436666Y30850000D01*
X37436666Y31183334D01*
X38136666Y31783334D02*
X38136666Y31450000D01*
X37436666Y31450000D01*
X37936666Y31983334D02*
X37936666Y32316667D01*
X38136666Y31916667D02*
X37436666Y32150000D01*
X38136666Y32383334D01*
X38103333Y32583334D02*
X38136666Y32683334D01*
X38136666Y32850000D01*
X38103333Y32916667D01*
X38070000Y32950000D01*
X38003333Y32983334D01*
X37936666Y32983334D01*
X37870000Y32950000D01*
X37836666Y32916667D01*
X37803333Y32850000D01*
X37770000Y32716667D01*
X37736666Y32650000D01*
X37703333Y32616667D01*
X37636666Y32583334D01*
X37570000Y32583334D01*
X37503333Y32616667D01*
X37470000Y32650000D01*
X37436666Y32716667D01*
X37436666Y32883334D01*
X37470000Y32983334D01*
X38136666Y33283334D02*
X37436666Y33283334D01*
X37770000Y33283334D02*
X37770000Y33683334D01*
X38136666Y33683334D02*
X37436666Y33683334D01*
X38136666Y34383334D02*
X38136666Y33983334D01*
X38136666Y34183334D02*
X37436666Y34183334D01*
X37536666Y34116667D01*
X37603333Y34050000D01*
X37636666Y33983334D01*
X37770000Y55383334D02*
X37770000Y55150000D01*
X38136666Y55150000D02*
X37436666Y55150000D01*
X37436666Y55483334D01*
X38136666Y56083334D02*
X38136666Y55750000D01*
X37436666Y55750000D01*
X37936666Y56283334D02*
X37936666Y56616667D01*
X38136666Y56216667D02*
X37436666Y56450000D01*
X38136666Y56683334D01*
X38103333Y56883334D02*
X38136666Y56983334D01*
X38136666Y57150000D01*
X38103333Y57216667D01*
X38070000Y57250000D01*
X38003333Y57283334D01*
X37936666Y57283334D01*
X37870000Y57250000D01*
X37836666Y57216667D01*
X37803333Y57150000D01*
X37770000Y57016667D01*
X37736666Y56950000D01*
X37703333Y56916667D01*
X37636666Y56883334D01*
X37570000Y56883334D01*
X37503333Y56916667D01*
X37470000Y56950000D01*
X37436666Y57016667D01*
X37436666Y57183334D01*
X37470000Y57283334D01*
X38136666Y57583334D02*
X37436666Y57583334D01*
X37770000Y57583334D02*
X37770000Y57983334D01*
X38136666Y57983334D02*
X37436666Y57983334D01*
X38136666Y58683334D02*
X38136666Y58283334D01*
X38136666Y58483334D02*
X37436666Y58483334D01*
X37536666Y58416667D01*
X37603333Y58350000D01*
X37636666Y58283334D01*
%TO.C,TP4056*%
D12*
X82909523Y11447620D02*
X83480952Y11447620D01*
X83195238Y10447620D02*
X83195238Y11447620D01*
X83814285Y10447620D02*
X83814285Y11447620D01*
X84195238Y11447620D01*
X84290476Y11400000D01*
X84338095Y11352381D01*
X84385714Y11257143D01*
X84385714Y11114286D01*
X84338095Y11019048D01*
X84290476Y10971429D01*
X84195238Y10923810D01*
X83814285Y10923810D01*
X85242857Y11114286D02*
X85242857Y10447620D01*
X85004761Y11495239D02*
X84766666Y10780953D01*
X85385714Y10780953D01*
X85957142Y11447620D02*
X86052380Y11447620D01*
X86147619Y11400000D01*
X86195238Y11352381D01*
X86242857Y11257143D01*
X86290476Y11066667D01*
X86290476Y10828572D01*
X86242857Y10638096D01*
X86195238Y10542858D01*
X86147619Y10495239D01*
X86052380Y10447620D01*
X85957142Y10447620D01*
X85861904Y10495239D01*
X85814285Y10542858D01*
X85766666Y10638096D01*
X85719047Y10828572D01*
X85719047Y11066667D01*
X85766666Y11257143D01*
X85814285Y11352381D01*
X85861904Y11400000D01*
X85957142Y11447620D01*
X87195238Y11447620D02*
X86719047Y11447620D01*
X86671428Y10971429D01*
X86719047Y11019048D01*
X86814285Y11066667D01*
X87052380Y11066667D01*
X87147619Y11019048D01*
X87195238Y10971429D01*
X87242857Y10876191D01*
X87242857Y10638096D01*
X87195238Y10542858D01*
X87147619Y10495239D01*
X87052380Y10447620D01*
X86814285Y10447620D01*
X86719047Y10495239D01*
X86671428Y10542858D01*
X88100000Y11447620D02*
X87909523Y11447620D01*
X87814285Y11400000D01*
X87766666Y11352381D01*
X87671428Y11209524D01*
X87623809Y11019048D01*
X87623809Y10638096D01*
X87671428Y10542858D01*
X87719047Y10495239D01*
X87814285Y10447620D01*
X88004761Y10447620D01*
X88100000Y10495239D01*
X88147619Y10542858D01*
X88195238Y10638096D01*
X88195238Y10876191D01*
X88147619Y10971429D01*
X88100000Y11019048D01*
X88004761Y11066667D01*
X87814285Y11066667D01*
X87719047Y11019048D01*
X87671428Y10971429D01*
X87623809Y10876191D01*
X82909523Y35747620D02*
X83480952Y35747620D01*
X83195238Y34747620D02*
X83195238Y35747620D01*
X83814285Y34747620D02*
X83814285Y35747620D01*
X84195238Y35747620D01*
X84290476Y35700000D01*
X84338095Y35652381D01*
X84385714Y35557143D01*
X84385714Y35414286D01*
X84338095Y35319048D01*
X84290476Y35271429D01*
X84195238Y35223810D01*
X83814285Y35223810D01*
X85242857Y35414286D02*
X85242857Y34747620D01*
X85004761Y35795239D02*
X84766666Y35080953D01*
X85385714Y35080953D01*
X85957142Y35747620D02*
X86052380Y35747620D01*
X86147619Y35700000D01*
X86195238Y35652381D01*
X86242857Y35557143D01*
X86290476Y35366667D01*
X86290476Y35128572D01*
X86242857Y34938096D01*
X86195238Y34842858D01*
X86147619Y34795239D01*
X86052380Y34747620D01*
X85957142Y34747620D01*
X85861904Y34795239D01*
X85814285Y34842858D01*
X85766666Y34938096D01*
X85719047Y35128572D01*
X85719047Y35366667D01*
X85766666Y35557143D01*
X85814285Y35652381D01*
X85861904Y35700000D01*
X85957142Y35747620D01*
X87195238Y35747620D02*
X86719047Y35747620D01*
X86671428Y35271429D01*
X86719047Y35319048D01*
X86814285Y35366667D01*
X87052380Y35366667D01*
X87147619Y35319048D01*
X87195238Y35271429D01*
X87242857Y35176191D01*
X87242857Y34938096D01*
X87195238Y34842858D01*
X87147619Y34795239D01*
X87052380Y34747620D01*
X86814285Y34747620D01*
X86719047Y34795239D01*
X86671428Y34842858D01*
X88100000Y35747620D02*
X87909523Y35747620D01*
X87814285Y35700000D01*
X87766666Y35652381D01*
X87671428Y35509524D01*
X87623809Y35319048D01*
X87623809Y34938096D01*
X87671428Y34842858D01*
X87719047Y34795239D01*
X87814285Y34747620D01*
X88004761Y34747620D01*
X88100000Y34795239D01*
X88147619Y34842858D01*
X88195238Y34938096D01*
X88195238Y35176191D01*
X88147619Y35271429D01*
X88100000Y35319048D01*
X88004761Y35366667D01*
X87814285Y35366667D01*
X87719047Y35319048D01*
X87671428Y35271429D01*
X87623809Y35176191D01*
X82909523Y60047620D02*
X83480952Y60047620D01*
X83195238Y59047620D02*
X83195238Y60047620D01*
X83814285Y59047620D02*
X83814285Y60047620D01*
X84195238Y60047620D01*
X84290476Y60000000D01*
X84338095Y59952381D01*
X84385714Y59857143D01*
X84385714Y59714286D01*
X84338095Y59619048D01*
X84290476Y59571429D01*
X84195238Y59523810D01*
X83814285Y59523810D01*
X85242857Y59714286D02*
X85242857Y59047620D01*
X85004761Y60095239D02*
X84766666Y59380953D01*
X85385714Y59380953D01*
X85957142Y60047620D02*
X86052380Y60047620D01*
X86147619Y60000000D01*
X86195238Y59952381D01*
X86242857Y59857143D01*
X86290476Y59666667D01*
X86290476Y59428572D01*
X86242857Y59238096D01*
X86195238Y59142858D01*
X86147619Y59095239D01*
X86052380Y59047620D01*
X85957142Y59047620D01*
X85861904Y59095239D01*
X85814285Y59142858D01*
X85766666Y59238096D01*
X85719047Y59428572D01*
X85719047Y59666667D01*
X85766666Y59857143D01*
X85814285Y59952381D01*
X85861904Y60000000D01*
X85957142Y60047620D01*
X87195238Y60047620D02*
X86719047Y60047620D01*
X86671428Y59571429D01*
X86719047Y59619048D01*
X86814285Y59666667D01*
X87052380Y59666667D01*
X87147619Y59619048D01*
X87195238Y59571429D01*
X87242857Y59476191D01*
X87242857Y59238096D01*
X87195238Y59142858D01*
X87147619Y59095239D01*
X87052380Y59047620D01*
X86814285Y59047620D01*
X86719047Y59095239D01*
X86671428Y59142858D01*
X88100000Y60047620D02*
X87909523Y60047620D01*
X87814285Y60000000D01*
X87766666Y59952381D01*
X87671428Y59809524D01*
X87623809Y59619048D01*
X87623809Y59238096D01*
X87671428Y59142858D01*
X87719047Y59095239D01*
X87814285Y59047620D01*
X88004761Y59047620D01*
X88100000Y59095239D01*
X88147619Y59142858D01*
X88195238Y59238096D01*
X88195238Y59476191D01*
X88147619Y59571429D01*
X88100000Y59619048D01*
X88004761Y59666667D01*
X87814285Y59666667D01*
X87719047Y59619048D01*
X87671428Y59571429D01*
X87623809Y59476191D01*
%TO.C,RESET1*%
D11*
X38136666Y18950000D02*
X37803333Y18716667D01*
X38136666Y18550000D02*
X37436666Y18550000D01*
X37436666Y18816667D01*
X37470000Y18883334D01*
X37503333Y18916667D01*
X37570000Y18950000D01*
X37670000Y18950000D01*
X37736666Y18916667D01*
X37770000Y18883334D01*
X37803333Y18816667D01*
X37803333Y18550000D01*
X37770000Y19250000D02*
X37770000Y19483334D01*
X38136666Y19583334D02*
X38136666Y19250000D01*
X37436666Y19250000D01*
X37436666Y19583334D01*
X38103333Y19850000D02*
X38136666Y19950000D01*
X38136666Y20116667D01*
X38103333Y20183334D01*
X38070000Y20216667D01*
X38003333Y20250000D01*
X37936666Y20250000D01*
X37870000Y20216667D01*
X37836666Y20183334D01*
X37803333Y20116667D01*
X37770000Y19983334D01*
X37736666Y19916667D01*
X37703333Y19883334D01*
X37636666Y19850000D01*
X37570000Y19850000D01*
X37503333Y19883334D01*
X37470000Y19916667D01*
X37436666Y19983334D01*
X37436666Y20150000D01*
X37470000Y20250000D01*
X37770000Y20550000D02*
X37770000Y20783334D01*
X38136666Y20883334D02*
X38136666Y20550000D01*
X37436666Y20550000D01*
X37436666Y20883334D01*
X37436666Y21083334D02*
X37436666Y21483334D01*
X38136666Y21283334D02*
X37436666Y21283334D01*
X38136666Y22083334D02*
X38136666Y21683334D01*
X38136666Y21883334D02*
X37436666Y21883334D01*
X37536666Y21816667D01*
X37603333Y21750000D01*
X37636666Y21683334D01*
X38136666Y43250000D02*
X37803333Y43016667D01*
X38136666Y42850000D02*
X37436666Y42850000D01*
X37436666Y43116667D01*
X37470000Y43183334D01*
X37503333Y43216667D01*
X37570000Y43250000D01*
X37670000Y43250000D01*
X37736666Y43216667D01*
X37770000Y43183334D01*
X37803333Y43116667D01*
X37803333Y42850000D01*
X37770000Y43550000D02*
X37770000Y43783334D01*
X38136666Y43883334D02*
X38136666Y43550000D01*
X37436666Y43550000D01*
X37436666Y43883334D01*
X38103333Y44150000D02*
X38136666Y44250000D01*
X38136666Y44416667D01*
X38103333Y44483334D01*
X38070000Y44516667D01*
X38003333Y44550000D01*
X37936666Y44550000D01*
X37870000Y44516667D01*
X37836666Y44483334D01*
X37803333Y44416667D01*
X37770000Y44283334D01*
X37736666Y44216667D01*
X37703333Y44183334D01*
X37636666Y44150000D01*
X37570000Y44150000D01*
X37503333Y44183334D01*
X37470000Y44216667D01*
X37436666Y44283334D01*
X37436666Y44450000D01*
X37470000Y44550000D01*
X37770000Y44850000D02*
X37770000Y45083334D01*
X38136666Y45183334D02*
X38136666Y44850000D01*
X37436666Y44850000D01*
X37436666Y45183334D01*
X37436666Y45383334D02*
X37436666Y45783334D01*
X38136666Y45583334D02*
X37436666Y45583334D01*
X38136666Y46383334D02*
X38136666Y45983334D01*
X38136666Y46183334D02*
X37436666Y46183334D01*
X37536666Y46116667D01*
X37603333Y46050000D01*
X37636666Y45983334D01*
X38136666Y67550000D02*
X37803333Y67316667D01*
X38136666Y67150000D02*
X37436666Y67150000D01*
X37436666Y67416667D01*
X37470000Y67483334D01*
X37503333Y67516667D01*
X37570000Y67550000D01*
X37670000Y67550000D01*
X37736666Y67516667D01*
X37770000Y67483334D01*
X37803333Y67416667D01*
X37803333Y67150000D01*
X37770000Y67850000D02*
X37770000Y68083334D01*
X38136666Y68183334D02*
X38136666Y67850000D01*
X37436666Y67850000D01*
X37436666Y68183334D01*
X38103333Y68450000D02*
X38136666Y68550000D01*
X38136666Y68716667D01*
X38103333Y68783334D01*
X38070000Y68816667D01*
X38003333Y68850000D01*
X37936666Y68850000D01*
X37870000Y68816667D01*
X37836666Y68783334D01*
X37803333Y68716667D01*
X37770000Y68583334D01*
X37736666Y68516667D01*
X37703333Y68483334D01*
X37636666Y68450000D01*
X37570000Y68450000D01*
X37503333Y68483334D01*
X37470000Y68516667D01*
X37436666Y68583334D01*
X37436666Y68750000D01*
X37470000Y68850000D01*
X37770000Y69150000D02*
X37770000Y69383334D01*
X38136666Y69483334D02*
X38136666Y69150000D01*
X37436666Y69150000D01*
X37436666Y69483334D01*
X37436666Y69683334D02*
X37436666Y70083334D01*
X38136666Y69883334D02*
X37436666Y69883334D01*
X38136666Y70683334D02*
X38136666Y70283334D01*
X38136666Y70483334D02*
X37436666Y70483334D01*
X37536666Y70416667D01*
X37603333Y70350000D01*
X37636666Y70283334D01*
%TO.C,1000uF-1*%
D12*
X59680952Y20847620D02*
X59109523Y20847620D01*
X59395238Y20847620D02*
X59395238Y21847620D01*
X59300000Y21704762D01*
X59204761Y21609524D01*
X59109523Y21561905D01*
X60300000Y21847620D02*
X60395238Y21847620D01*
X60490476Y21800000D01*
X60538095Y21752381D01*
X60585714Y21657143D01*
X60633333Y21466667D01*
X60633333Y21228572D01*
X60585714Y21038096D01*
X60538095Y20942858D01*
X60490476Y20895239D01*
X60395238Y20847620D01*
X60300000Y20847620D01*
X60204761Y20895239D01*
X60157142Y20942858D01*
X60109523Y21038096D01*
X60061904Y21228572D01*
X60061904Y21466667D01*
X60109523Y21657143D01*
X60157142Y21752381D01*
X60204761Y21800000D01*
X60300000Y21847620D01*
X61252380Y21847620D02*
X61347619Y21847620D01*
X61442857Y21800000D01*
X61490476Y21752381D01*
X61538095Y21657143D01*
X61585714Y21466667D01*
X61585714Y21228572D01*
X61538095Y21038096D01*
X61490476Y20942858D01*
X61442857Y20895239D01*
X61347619Y20847620D01*
X61252380Y20847620D01*
X61157142Y20895239D01*
X61109523Y20942858D01*
X61061904Y21038096D01*
X61014285Y21228572D01*
X61014285Y21466667D01*
X61061904Y21657143D01*
X61109523Y21752381D01*
X61157142Y21800000D01*
X61252380Y21847620D01*
X62204761Y21847620D02*
X62300000Y21847620D01*
X62395238Y21800000D01*
X62442857Y21752381D01*
X62490476Y21657143D01*
X62538095Y21466667D01*
X62538095Y21228572D01*
X62490476Y21038096D01*
X62442857Y20942858D01*
X62395238Y20895239D01*
X62300000Y20847620D01*
X62204761Y20847620D01*
X62109523Y20895239D01*
X62061904Y20942858D01*
X62014285Y21038096D01*
X61966666Y21228572D01*
X61966666Y21466667D01*
X62014285Y21657143D01*
X62061904Y21752381D01*
X62109523Y21800000D01*
X62204761Y21847620D01*
X63395238Y21514286D02*
X63395238Y20847620D01*
X62966666Y21514286D02*
X62966666Y20990477D01*
X63014285Y20895239D01*
X63109523Y20847620D01*
X63252380Y20847620D01*
X63347619Y20895239D01*
X63395238Y20942858D01*
X64204761Y21371429D02*
X63871428Y21371429D01*
X63871428Y20847620D02*
X63871428Y21847620D01*
X64347619Y21847620D01*
X64728571Y21228572D02*
X65490476Y21228572D01*
X66490476Y20847620D02*
X65919047Y20847620D01*
X66204761Y20847620D02*
X66204761Y21847620D01*
X66109523Y21704762D01*
X66014285Y21609524D01*
X65919047Y21561905D01*
X59680952Y45147620D02*
X59109523Y45147620D01*
X59395238Y45147620D02*
X59395238Y46147620D01*
X59300000Y46004762D01*
X59204761Y45909524D01*
X59109523Y45861905D01*
X60300000Y46147620D02*
X60395238Y46147620D01*
X60490476Y46100000D01*
X60538095Y46052381D01*
X60585714Y45957143D01*
X60633333Y45766667D01*
X60633333Y45528572D01*
X60585714Y45338096D01*
X60538095Y45242858D01*
X60490476Y45195239D01*
X60395238Y45147620D01*
X60300000Y45147620D01*
X60204761Y45195239D01*
X60157142Y45242858D01*
X60109523Y45338096D01*
X60061904Y45528572D01*
X60061904Y45766667D01*
X60109523Y45957143D01*
X60157142Y46052381D01*
X60204761Y46100000D01*
X60300000Y46147620D01*
X61252380Y46147620D02*
X61347619Y46147620D01*
X61442857Y46100000D01*
X61490476Y46052381D01*
X61538095Y45957143D01*
X61585714Y45766667D01*
X61585714Y45528572D01*
X61538095Y45338096D01*
X61490476Y45242858D01*
X61442857Y45195239D01*
X61347619Y45147620D01*
X61252380Y45147620D01*
X61157142Y45195239D01*
X61109523Y45242858D01*
X61061904Y45338096D01*
X61014285Y45528572D01*
X61014285Y45766667D01*
X61061904Y45957143D01*
X61109523Y46052381D01*
X61157142Y46100000D01*
X61252380Y46147620D01*
X62204761Y46147620D02*
X62300000Y46147620D01*
X62395238Y46100000D01*
X62442857Y46052381D01*
X62490476Y45957143D01*
X62538095Y45766667D01*
X62538095Y45528572D01*
X62490476Y45338096D01*
X62442857Y45242858D01*
X62395238Y45195239D01*
X62300000Y45147620D01*
X62204761Y45147620D01*
X62109523Y45195239D01*
X62061904Y45242858D01*
X62014285Y45338096D01*
X61966666Y45528572D01*
X61966666Y45766667D01*
X62014285Y45957143D01*
X62061904Y46052381D01*
X62109523Y46100000D01*
X62204761Y46147620D01*
X63395238Y45814286D02*
X63395238Y45147620D01*
X62966666Y45814286D02*
X62966666Y45290477D01*
X63014285Y45195239D01*
X63109523Y45147620D01*
X63252380Y45147620D01*
X63347619Y45195239D01*
X63395238Y45242858D01*
X64204761Y45671429D02*
X63871428Y45671429D01*
X63871428Y45147620D02*
X63871428Y46147620D01*
X64347619Y46147620D01*
X64728571Y45528572D02*
X65490476Y45528572D01*
X66490476Y45147620D02*
X65919047Y45147620D01*
X66204761Y45147620D02*
X66204761Y46147620D01*
X66109523Y46004762D01*
X66014285Y45909524D01*
X65919047Y45861905D01*
X59680952Y69447620D02*
X59109523Y69447620D01*
X59395238Y69447620D02*
X59395238Y70447620D01*
X59300000Y70304762D01*
X59204761Y70209524D01*
X59109523Y70161905D01*
X60300000Y70447620D02*
X60395238Y70447620D01*
X60490476Y70400000D01*
X60538095Y70352381D01*
X60585714Y70257143D01*
X60633333Y70066667D01*
X60633333Y69828572D01*
X60585714Y69638096D01*
X60538095Y69542858D01*
X60490476Y69495239D01*
X60395238Y69447620D01*
X60300000Y69447620D01*
X60204761Y69495239D01*
X60157142Y69542858D01*
X60109523Y69638096D01*
X60061904Y69828572D01*
X60061904Y70066667D01*
X60109523Y70257143D01*
X60157142Y70352381D01*
X60204761Y70400000D01*
X60300000Y70447620D01*
X61252380Y70447620D02*
X61347619Y70447620D01*
X61442857Y70400000D01*
X61490476Y70352381D01*
X61538095Y70257143D01*
X61585714Y70066667D01*
X61585714Y69828572D01*
X61538095Y69638096D01*
X61490476Y69542858D01*
X61442857Y69495239D01*
X61347619Y69447620D01*
X61252380Y69447620D01*
X61157142Y69495239D01*
X61109523Y69542858D01*
X61061904Y69638096D01*
X61014285Y69828572D01*
X61014285Y70066667D01*
X61061904Y70257143D01*
X61109523Y70352381D01*
X61157142Y70400000D01*
X61252380Y70447620D01*
X62204761Y70447620D02*
X62300000Y70447620D01*
X62395238Y70400000D01*
X62442857Y70352381D01*
X62490476Y70257143D01*
X62538095Y70066667D01*
X62538095Y69828572D01*
X62490476Y69638096D01*
X62442857Y69542858D01*
X62395238Y69495239D01*
X62300000Y69447620D01*
X62204761Y69447620D01*
X62109523Y69495239D01*
X62061904Y69542858D01*
X62014285Y69638096D01*
X61966666Y69828572D01*
X61966666Y70066667D01*
X62014285Y70257143D01*
X62061904Y70352381D01*
X62109523Y70400000D01*
X62204761Y70447620D01*
X63395238Y70114286D02*
X63395238Y69447620D01*
X62966666Y70114286D02*
X62966666Y69590477D01*
X63014285Y69495239D01*
X63109523Y69447620D01*
X63252380Y69447620D01*
X63347619Y69495239D01*
X63395238Y69542858D01*
X64204761Y69971429D02*
X63871428Y69971429D01*
X63871428Y69447620D02*
X63871428Y70447620D01*
X64347619Y70447620D01*
X64728571Y69828572D02*
X65490476Y69828572D01*
X66490476Y69447620D02*
X65919047Y69447620D01*
X66204761Y69447620D02*
X66204761Y70447620D01*
X66109523Y70304762D01*
X66014285Y70209524D01*
X65919047Y70161905D01*
%TO.C,100nF-2*%
D11*
X38598571Y13470476D02*
X38312857Y13470476D01*
X38455714Y13470476D02*
X38455714Y13970476D01*
X38408095Y13899047D01*
X38360476Y13851428D01*
X38312857Y13827619D01*
X38908095Y13970476D02*
X38955714Y13970476D01*
X39003333Y13946666D01*
X39027142Y13922857D01*
X39050952Y13875238D01*
X39074761Y13780000D01*
X39074761Y13660952D01*
X39050952Y13565714D01*
X39027142Y13518095D01*
X39003333Y13494286D01*
X38955714Y13470476D01*
X38908095Y13470476D01*
X38860476Y13494286D01*
X38836666Y13518095D01*
X38812857Y13565714D01*
X38789047Y13660952D01*
X38789047Y13780000D01*
X38812857Y13875238D01*
X38836666Y13922857D01*
X38860476Y13946666D01*
X38908095Y13970476D01*
X39384285Y13970476D02*
X39431904Y13970476D01*
X39479523Y13946666D01*
X39503333Y13922857D01*
X39527142Y13875238D01*
X39550952Y13780000D01*
X39550952Y13660952D01*
X39527142Y13565714D01*
X39503333Y13518095D01*
X39479523Y13494286D01*
X39431904Y13470476D01*
X39384285Y13470476D01*
X39336666Y13494286D01*
X39312857Y13518095D01*
X39289047Y13565714D01*
X39265238Y13660952D01*
X39265238Y13780000D01*
X39289047Y13875238D01*
X39312857Y13922857D01*
X39336666Y13946666D01*
X39384285Y13970476D01*
X39765238Y13803809D02*
X39765238Y13470476D01*
X39765238Y13756190D02*
X39789047Y13780000D01*
X39836666Y13803809D01*
X39908095Y13803809D01*
X39955714Y13780000D01*
X39979523Y13732381D01*
X39979523Y13470476D01*
X40384285Y13732381D02*
X40217619Y13732381D01*
X40217619Y13470476D02*
X40217619Y13970476D01*
X40455714Y13970476D01*
X40646190Y13660952D02*
X41027142Y13660952D01*
X41241428Y13922857D02*
X41265238Y13946666D01*
X41312857Y13970476D01*
X41431904Y13970476D01*
X41479523Y13946666D01*
X41503333Y13922857D01*
X41527142Y13875238D01*
X41527142Y13827619D01*
X41503333Y13756190D01*
X41217619Y13470476D01*
X41527142Y13470476D01*
X38598571Y37770476D02*
X38312857Y37770476D01*
X38455714Y37770476D02*
X38455714Y38270476D01*
X38408095Y38199047D01*
X38360476Y38151428D01*
X38312857Y38127619D01*
X38908095Y38270476D02*
X38955714Y38270476D01*
X39003333Y38246666D01*
X39027142Y38222857D01*
X39050952Y38175238D01*
X39074761Y38080000D01*
X39074761Y37960952D01*
X39050952Y37865714D01*
X39027142Y37818095D01*
X39003333Y37794286D01*
X38955714Y37770476D01*
X38908095Y37770476D01*
X38860476Y37794286D01*
X38836666Y37818095D01*
X38812857Y37865714D01*
X38789047Y37960952D01*
X38789047Y38080000D01*
X38812857Y38175238D01*
X38836666Y38222857D01*
X38860476Y38246666D01*
X38908095Y38270476D01*
X39384285Y38270476D02*
X39431904Y38270476D01*
X39479523Y38246666D01*
X39503333Y38222857D01*
X39527142Y38175238D01*
X39550952Y38080000D01*
X39550952Y37960952D01*
X39527142Y37865714D01*
X39503333Y37818095D01*
X39479523Y37794286D01*
X39431904Y37770476D01*
X39384285Y37770476D01*
X39336666Y37794286D01*
X39312857Y37818095D01*
X39289047Y37865714D01*
X39265238Y37960952D01*
X39265238Y38080000D01*
X39289047Y38175238D01*
X39312857Y38222857D01*
X39336666Y38246666D01*
X39384285Y38270476D01*
X39765238Y38103809D02*
X39765238Y37770476D01*
X39765238Y38056190D02*
X39789047Y38080000D01*
X39836666Y38103809D01*
X39908095Y38103809D01*
X39955714Y38080000D01*
X39979523Y38032381D01*
X39979523Y37770476D01*
X40384285Y38032381D02*
X40217619Y38032381D01*
X40217619Y37770476D02*
X40217619Y38270476D01*
X40455714Y38270476D01*
X40646190Y37960952D02*
X41027142Y37960952D01*
X41241428Y38222857D02*
X41265238Y38246666D01*
X41312857Y38270476D01*
X41431904Y38270476D01*
X41479523Y38246666D01*
X41503333Y38222857D01*
X41527142Y38175238D01*
X41527142Y38127619D01*
X41503333Y38056190D01*
X41217619Y37770476D01*
X41527142Y37770476D01*
X38598571Y62070476D02*
X38312857Y62070476D01*
X38455714Y62070476D02*
X38455714Y62570476D01*
X38408095Y62499047D01*
X38360476Y62451428D01*
X38312857Y62427619D01*
X38908095Y62570476D02*
X38955714Y62570476D01*
X39003333Y62546666D01*
X39027142Y62522857D01*
X39050952Y62475238D01*
X39074761Y62380000D01*
X39074761Y62260952D01*
X39050952Y62165714D01*
X39027142Y62118095D01*
X39003333Y62094286D01*
X38955714Y62070476D01*
X38908095Y62070476D01*
X38860476Y62094286D01*
X38836666Y62118095D01*
X38812857Y62165714D01*
X38789047Y62260952D01*
X38789047Y62380000D01*
X38812857Y62475238D01*
X38836666Y62522857D01*
X38860476Y62546666D01*
X38908095Y62570476D01*
X39384285Y62570476D02*
X39431904Y62570476D01*
X39479523Y62546666D01*
X39503333Y62522857D01*
X39527142Y62475238D01*
X39550952Y62380000D01*
X39550952Y62260952D01*
X39527142Y62165714D01*
X39503333Y62118095D01*
X39479523Y62094286D01*
X39431904Y62070476D01*
X39384285Y62070476D01*
X39336666Y62094286D01*
X39312857Y62118095D01*
X39289047Y62165714D01*
X39265238Y62260952D01*
X39265238Y62380000D01*
X39289047Y62475238D01*
X39312857Y62522857D01*
X39336666Y62546666D01*
X39384285Y62570476D01*
X39765238Y62403809D02*
X39765238Y62070476D01*
X39765238Y62356190D02*
X39789047Y62380000D01*
X39836666Y62403809D01*
X39908095Y62403809D01*
X39955714Y62380000D01*
X39979523Y62332381D01*
X39979523Y62070476D01*
X40384285Y62332381D02*
X40217619Y62332381D01*
X40217619Y62070476D02*
X40217619Y62570476D01*
X40455714Y62570476D01*
X40646190Y62260952D02*
X41027142Y62260952D01*
X41241428Y62522857D02*
X41265238Y62546666D01*
X41312857Y62570476D01*
X41431904Y62570476D01*
X41479523Y62546666D01*
X41503333Y62522857D01*
X41527142Y62475238D01*
X41527142Y62427619D01*
X41503333Y62356190D01*
X41217619Y62070476D01*
X41527142Y62070476D01*
%TO.C,GND*%
X12919047Y87650000D02*
X12871428Y87673810D01*
X12800000Y87673810D01*
X12728571Y87650000D01*
X12680952Y87602381D01*
X12657142Y87554762D01*
X12633333Y87459524D01*
X12633333Y87388096D01*
X12657142Y87292858D01*
X12680952Y87245239D01*
X12728571Y87197620D01*
X12800000Y87173810D01*
X12847619Y87173810D01*
X12919047Y87197620D01*
X12942857Y87221429D01*
X12942857Y87388096D01*
X12847619Y87388096D01*
X13157142Y87173810D02*
X13157142Y87673810D01*
X13442857Y87173810D01*
X13442857Y87673810D01*
X13680952Y87173810D02*
X13680952Y87673810D01*
X13800000Y87673810D01*
X13871428Y87650000D01*
X13919047Y87602381D01*
X13942857Y87554762D01*
X13966666Y87459524D01*
X13966666Y87388096D01*
X13942857Y87292858D01*
X13919047Y87245239D01*
X13871428Y87197620D01*
X13800000Y87173810D01*
X13680952Y87173810D01*
%TO.C,3V7*%
X95780952Y87773810D02*
X96090476Y87773810D01*
X95923809Y87583334D01*
X95995238Y87583334D01*
X96042857Y87559524D01*
X96066666Y87535715D01*
X96090476Y87488096D01*
X96090476Y87369048D01*
X96066666Y87321429D01*
X96042857Y87297620D01*
X95995238Y87273810D01*
X95852380Y87273810D01*
X95804761Y87297620D01*
X95780952Y87321429D01*
X96233333Y87773810D02*
X96400000Y87273810D01*
X96566666Y87773810D01*
X96685714Y87773810D02*
X97019047Y87773810D01*
X96804761Y87273810D01*
%TO.C,TP4056*%
D12*
X82909523Y84347620D02*
X83480952Y84347620D01*
X83195238Y83347620D02*
X83195238Y84347620D01*
X83814285Y83347620D02*
X83814285Y84347620D01*
X84195238Y84347620D01*
X84290476Y84300000D01*
X84338095Y84252381D01*
X84385714Y84157143D01*
X84385714Y84014286D01*
X84338095Y83919048D01*
X84290476Y83871429D01*
X84195238Y83823810D01*
X83814285Y83823810D01*
X85242857Y84014286D02*
X85242857Y83347620D01*
X85004761Y84395239D02*
X84766666Y83680953D01*
X85385714Y83680953D01*
X85957142Y84347620D02*
X86052380Y84347620D01*
X86147619Y84300000D01*
X86195238Y84252381D01*
X86242857Y84157143D01*
X86290476Y83966667D01*
X86290476Y83728572D01*
X86242857Y83538096D01*
X86195238Y83442858D01*
X86147619Y83395239D01*
X86052380Y83347620D01*
X85957142Y83347620D01*
X85861904Y83395239D01*
X85814285Y83442858D01*
X85766666Y83538096D01*
X85719047Y83728572D01*
X85719047Y83966667D01*
X85766666Y84157143D01*
X85814285Y84252381D01*
X85861904Y84300000D01*
X85957142Y84347620D01*
X87195238Y84347620D02*
X86719047Y84347620D01*
X86671428Y83871429D01*
X86719047Y83919048D01*
X86814285Y83966667D01*
X87052380Y83966667D01*
X87147619Y83919048D01*
X87195238Y83871429D01*
X87242857Y83776191D01*
X87242857Y83538096D01*
X87195238Y83442858D01*
X87147619Y83395239D01*
X87052380Y83347620D01*
X86814285Y83347620D01*
X86719047Y83395239D01*
X86671428Y83442858D01*
X88100000Y84347620D02*
X87909523Y84347620D01*
X87814285Y84300000D01*
X87766666Y84252381D01*
X87671428Y84109524D01*
X87623809Y83919048D01*
X87623809Y83538096D01*
X87671428Y83442858D01*
X87719047Y83395239D01*
X87814285Y83347620D01*
X88004761Y83347620D01*
X88100000Y83395239D01*
X88147619Y83442858D01*
X88195238Y83538096D01*
X88195238Y83776191D01*
X88147619Y83871429D01*
X88100000Y83919048D01*
X88004761Y83966667D01*
X87814285Y83966667D01*
X87719047Y83919048D01*
X87671428Y83871429D01*
X87623809Y83776191D01*
%TO.C,100nF-1*%
D11*
X36578571Y77273810D02*
X36292857Y77273810D01*
X36435714Y77273810D02*
X36435714Y77773810D01*
X36388095Y77702381D01*
X36340476Y77654762D01*
X36292857Y77630953D01*
X36888095Y77773810D02*
X36935714Y77773810D01*
X36983333Y77750000D01*
X37007142Y77726191D01*
X37030952Y77678572D01*
X37054761Y77583334D01*
X37054761Y77464286D01*
X37030952Y77369048D01*
X37007142Y77321429D01*
X36983333Y77297620D01*
X36935714Y77273810D01*
X36888095Y77273810D01*
X36840476Y77297620D01*
X36816666Y77321429D01*
X36792857Y77369048D01*
X36769047Y77464286D01*
X36769047Y77583334D01*
X36792857Y77678572D01*
X36816666Y77726191D01*
X36840476Y77750000D01*
X36888095Y77773810D01*
X37364285Y77773810D02*
X37411904Y77773810D01*
X37459523Y77750000D01*
X37483333Y77726191D01*
X37507142Y77678572D01*
X37530952Y77583334D01*
X37530952Y77464286D01*
X37507142Y77369048D01*
X37483333Y77321429D01*
X37459523Y77297620D01*
X37411904Y77273810D01*
X37364285Y77273810D01*
X37316666Y77297620D01*
X37292857Y77321429D01*
X37269047Y77369048D01*
X37245238Y77464286D01*
X37245238Y77583334D01*
X37269047Y77678572D01*
X37292857Y77726191D01*
X37316666Y77750000D01*
X37364285Y77773810D01*
X37745238Y77607143D02*
X37745238Y77273810D01*
X37745238Y77559524D02*
X37769047Y77583334D01*
X37816666Y77607143D01*
X37888095Y77607143D01*
X37935714Y77583334D01*
X37959523Y77535715D01*
X37959523Y77273810D01*
X38364285Y77535715D02*
X38197619Y77535715D01*
X38197619Y77273810D02*
X38197619Y77773810D01*
X38435714Y77773810D01*
X38626190Y77464286D02*
X39007142Y77464286D01*
X39507142Y77273810D02*
X39221428Y77273810D01*
X39364285Y77273810D02*
X39364285Y77773810D01*
X39316666Y77702381D01*
X39269047Y77654762D01*
X39221428Y77630953D01*
%TO.C,ESP-12E1*%
D12*
X20239523Y87161429D02*
X20572857Y87161429D01*
X20715714Y86637620D02*
X20239523Y86637620D01*
X20239523Y87637620D01*
X20715714Y87637620D01*
X21096666Y86685239D02*
X21239523Y86637620D01*
X21477619Y86637620D01*
X21572857Y86685239D01*
X21620476Y86732858D01*
X21668095Y86828096D01*
X21668095Y86923334D01*
X21620476Y87018572D01*
X21572857Y87066191D01*
X21477619Y87113810D01*
X21287142Y87161429D01*
X21191904Y87209048D01*
X21144285Y87256667D01*
X21096666Y87351905D01*
X21096666Y87447143D01*
X21144285Y87542381D01*
X21191904Y87590000D01*
X21287142Y87637620D01*
X21525238Y87637620D01*
X21668095Y87590000D01*
X22096666Y86637620D02*
X22096666Y87637620D01*
X22477619Y87637620D01*
X22572857Y87590000D01*
X22620476Y87542381D01*
X22668095Y87447143D01*
X22668095Y87304286D01*
X22620476Y87209048D01*
X22572857Y87161429D01*
X22477619Y87113810D01*
X22096666Y87113810D01*
X23096666Y87018572D02*
X23858571Y87018572D01*
X24858571Y86637620D02*
X24287142Y86637620D01*
X24572857Y86637620D02*
X24572857Y87637620D01*
X24477619Y87494762D01*
X24382380Y87399524D01*
X24287142Y87351905D01*
X25239523Y87542381D02*
X25287142Y87590000D01*
X25382380Y87637620D01*
X25620476Y87637620D01*
X25715714Y87590000D01*
X25763333Y87542381D01*
X25810952Y87447143D01*
X25810952Y87351905D01*
X25763333Y87209048D01*
X25191904Y86637620D01*
X25810952Y86637620D01*
X26239523Y87161429D02*
X26572857Y87161429D01*
X26715714Y86637620D02*
X26239523Y86637620D01*
X26239523Y87637620D01*
X26715714Y87637620D01*
X27668095Y86637620D02*
X27096666Y86637620D01*
X27382380Y86637620D02*
X27382380Y87637620D01*
X27287142Y87494762D01*
X27191904Y87399524D01*
X27096666Y87351905D01*
%TO.C,10k-3*%
D11*
X18521428Y77373810D02*
X18235714Y77373810D01*
X18378571Y77373810D02*
X18378571Y77873810D01*
X18330952Y77802381D01*
X18283333Y77754762D01*
X18235714Y77730953D01*
X18830952Y77873810D02*
X18878571Y77873810D01*
X18926190Y77850000D01*
X18950000Y77826191D01*
X18973809Y77778572D01*
X18997619Y77683334D01*
X18997619Y77564286D01*
X18973809Y77469048D01*
X18950000Y77421429D01*
X18926190Y77397620D01*
X18878571Y77373810D01*
X18830952Y77373810D01*
X18783333Y77397620D01*
X18759524Y77421429D01*
X18735714Y77469048D01*
X18711905Y77564286D01*
X18711905Y77683334D01*
X18735714Y77778572D01*
X18759524Y77826191D01*
X18783333Y77850000D01*
X18830952Y77873810D01*
X19211905Y77373810D02*
X19211905Y77873810D01*
X19259524Y77564286D02*
X19402381Y77373810D01*
X19402381Y77707143D02*
X19211905Y77516667D01*
X19616667Y77564286D02*
X19997619Y77564286D01*
X20188095Y77873810D02*
X20497619Y77873810D01*
X20330952Y77683334D01*
X20402381Y77683334D01*
X20450000Y77659524D01*
X20473809Y77635715D01*
X20497619Y77588096D01*
X20497619Y77469048D01*
X20473809Y77421429D01*
X20450000Y77397620D01*
X20402381Y77373810D01*
X20259524Y77373810D01*
X20211905Y77397620D01*
X20188095Y77421429D01*
%TO.C,FLASH1*%
X37770000Y79683334D02*
X37770000Y79450000D01*
X38136666Y79450000D02*
X37436666Y79450000D01*
X37436666Y79783334D01*
X38136666Y80383334D02*
X38136666Y80050000D01*
X37436666Y80050000D01*
X37936666Y80583334D02*
X37936666Y80916667D01*
X38136666Y80516667D02*
X37436666Y80750000D01*
X38136666Y80983334D01*
X38103333Y81183334D02*
X38136666Y81283334D01*
X38136666Y81450000D01*
X38103333Y81516667D01*
X38070000Y81550000D01*
X38003333Y81583334D01*
X37936666Y81583334D01*
X37870000Y81550000D01*
X37836666Y81516667D01*
X37803333Y81450000D01*
X37770000Y81316667D01*
X37736666Y81250000D01*
X37703333Y81216667D01*
X37636666Y81183334D01*
X37570000Y81183334D01*
X37503333Y81216667D01*
X37470000Y81250000D01*
X37436666Y81316667D01*
X37436666Y81483334D01*
X37470000Y81583334D01*
X38136666Y81883334D02*
X37436666Y81883334D01*
X37770000Y81883334D02*
X37770000Y82283334D01*
X38136666Y82283334D02*
X37436666Y82283334D01*
X38136666Y82983334D02*
X38136666Y82583334D01*
X38136666Y82783334D02*
X37436666Y82783334D01*
X37536666Y82716667D01*
X37603333Y82650000D01*
X37636666Y82583334D01*
%TO.C,RESET1*%
X38136666Y91850000D02*
X37803333Y91616667D01*
X38136666Y91450000D02*
X37436666Y91450000D01*
X37436666Y91716667D01*
X37470000Y91783334D01*
X37503333Y91816667D01*
X37570000Y91850000D01*
X37670000Y91850000D01*
X37736666Y91816667D01*
X37770000Y91783334D01*
X37803333Y91716667D01*
X37803333Y91450000D01*
X37770000Y92150000D02*
X37770000Y92383334D01*
X38136666Y92483334D02*
X38136666Y92150000D01*
X37436666Y92150000D01*
X37436666Y92483334D01*
X38103333Y92750000D02*
X38136666Y92850000D01*
X38136666Y93016667D01*
X38103333Y93083334D01*
X38070000Y93116667D01*
X38003333Y93150000D01*
X37936666Y93150000D01*
X37870000Y93116667D01*
X37836666Y93083334D01*
X37803333Y93016667D01*
X37770000Y92883334D01*
X37736666Y92816667D01*
X37703333Y92783334D01*
X37636666Y92750000D01*
X37570000Y92750000D01*
X37503333Y92783334D01*
X37470000Y92816667D01*
X37436666Y92883334D01*
X37436666Y93050000D01*
X37470000Y93150000D01*
X37770000Y93450000D02*
X37770000Y93683334D01*
X38136666Y93783334D02*
X38136666Y93450000D01*
X37436666Y93450000D01*
X37436666Y93783334D01*
X37436666Y93983334D02*
X37436666Y94383334D01*
X38136666Y94183334D02*
X37436666Y94183334D01*
X38136666Y94983334D02*
X38136666Y94583334D01*
X38136666Y94783334D02*
X37436666Y94783334D01*
X37536666Y94716667D01*
X37603333Y94650000D01*
X37636666Y94583334D01*
%TO.C,REED1*%
D12*
X11452380Y84628572D02*
X10976190Y84295239D01*
X11452380Y84057143D02*
X10452380Y84057143D01*
X10452380Y84438096D01*
X10500000Y84533334D01*
X10547619Y84580953D01*
X10642857Y84628572D01*
X10785714Y84628572D01*
X10880952Y84580953D01*
X10928571Y84533334D01*
X10976190Y84438096D01*
X10976190Y84057143D01*
X10928571Y85057143D02*
X10928571Y85390477D01*
X11452380Y85533334D02*
X11452380Y85057143D01*
X10452380Y85057143D01*
X10452380Y85533334D01*
X10928571Y85961905D02*
X10928571Y86295239D01*
X11452380Y86438096D02*
X11452380Y85961905D01*
X10452380Y85961905D01*
X10452380Y86438096D01*
X11452380Y86866667D02*
X10452380Y86866667D01*
X10452380Y87104762D01*
X10500000Y87247620D01*
X10595238Y87342858D01*
X10690476Y87390477D01*
X10880952Y87438096D01*
X11023809Y87438096D01*
X11214285Y87390477D01*
X11309523Y87342858D01*
X11404761Y87247620D01*
X11452380Y87104762D01*
X11452380Y86866667D01*
X11452380Y88390477D02*
X11452380Y87819048D01*
X11452380Y88104762D02*
X10452380Y88104762D01*
X10595238Y88009524D01*
X10690476Y87914286D01*
X10738095Y87819048D01*
%TO.C,10k-2*%
D11*
X30654761Y77273810D02*
X30369047Y77273810D01*
X30511904Y77273810D02*
X30511904Y77773810D01*
X30464285Y77702381D01*
X30416666Y77654762D01*
X30369047Y77630953D01*
X30964285Y77773810D02*
X31011904Y77773810D01*
X31059523Y77750000D01*
X31083333Y77726191D01*
X31107142Y77678572D01*
X31130952Y77583334D01*
X31130952Y77464286D01*
X31107142Y77369048D01*
X31083333Y77321429D01*
X31059523Y77297620D01*
X31011904Y77273810D01*
X30964285Y77273810D01*
X30916666Y77297620D01*
X30892857Y77321429D01*
X30869047Y77369048D01*
X30845238Y77464286D01*
X30845238Y77583334D01*
X30869047Y77678572D01*
X30892857Y77726191D01*
X30916666Y77750000D01*
X30964285Y77773810D01*
X31345238Y77273810D02*
X31345238Y77773810D01*
X31392857Y77464286D02*
X31535714Y77273810D01*
X31535714Y77607143D02*
X31345238Y77416667D01*
X31750000Y77464286D02*
X32130952Y77464286D01*
X32345238Y77726191D02*
X32369047Y77750000D01*
X32416666Y77773810D01*
X32535714Y77773810D01*
X32583333Y77750000D01*
X32607142Y77726191D01*
X32630952Y77678572D01*
X32630952Y77630953D01*
X32607142Y77559524D01*
X32321428Y77273810D01*
X32630952Y77273810D01*
%TO.C,10k-1*%
X24554761Y77273810D02*
X24269047Y77273810D01*
X24411904Y77273810D02*
X24411904Y77773810D01*
X24364285Y77702381D01*
X24316666Y77654762D01*
X24269047Y77630953D01*
X24864285Y77773810D02*
X24911904Y77773810D01*
X24959523Y77750000D01*
X24983333Y77726191D01*
X25007142Y77678572D01*
X25030952Y77583334D01*
X25030952Y77464286D01*
X25007142Y77369048D01*
X24983333Y77321429D01*
X24959523Y77297620D01*
X24911904Y77273810D01*
X24864285Y77273810D01*
X24816666Y77297620D01*
X24792857Y77321429D01*
X24769047Y77369048D01*
X24745238Y77464286D01*
X24745238Y77583334D01*
X24769047Y77678572D01*
X24792857Y77726191D01*
X24816666Y77750000D01*
X24864285Y77773810D01*
X25245238Y77273810D02*
X25245238Y77773810D01*
X25292857Y77464286D02*
X25435714Y77273810D01*
X25435714Y77607143D02*
X25245238Y77416667D01*
X25650000Y77464286D02*
X26030952Y77464286D01*
X26530952Y77273810D02*
X26245238Y77273810D01*
X26388095Y77273810D02*
X26388095Y77773810D01*
X26340476Y77702381D01*
X26292857Y77654762D01*
X26245238Y77630953D01*
%TO.C,1M-1*%
X12809523Y77373810D02*
X12523809Y77373810D01*
X12666666Y77373810D02*
X12666666Y77873810D01*
X12619047Y77802381D01*
X12571428Y77754762D01*
X12523809Y77730953D01*
X13023809Y77373810D02*
X13023809Y77873810D01*
X13190476Y77516667D01*
X13357142Y77873810D01*
X13357142Y77373810D01*
X13595238Y77564286D02*
X13976190Y77564286D01*
X14476190Y77373810D02*
X14190476Y77373810D01*
X14333333Y77373810D02*
X14333333Y77873810D01*
X14285714Y77802381D01*
X14238095Y77754762D01*
X14190476Y77730953D01*
%TO.C,HT7333*%
X62200000Y86083334D02*
X62200000Y86783334D01*
X62200000Y86450000D02*
X62600000Y86450000D01*
X62600000Y86083334D02*
X62600000Y86783334D01*
X62833333Y86783334D02*
X63233333Y86783334D01*
X63033333Y86083334D02*
X63033333Y86783334D01*
X63400000Y86783334D02*
X63866666Y86783334D01*
X63566666Y86083334D01*
X64066666Y86783334D02*
X64500000Y86783334D01*
X64266666Y86516667D01*
X64366666Y86516667D01*
X64433333Y86483334D01*
X64466666Y86450000D01*
X64500000Y86383334D01*
X64500000Y86216667D01*
X64466666Y86150000D01*
X64433333Y86116667D01*
X64366666Y86083334D01*
X64166666Y86083334D01*
X64100000Y86116667D01*
X64066666Y86150000D01*
X64733333Y86783334D02*
X65166666Y86783334D01*
X64933333Y86516667D01*
X65033333Y86516667D01*
X65100000Y86483334D01*
X65133333Y86450000D01*
X65166666Y86383334D01*
X65166666Y86216667D01*
X65133333Y86150000D01*
X65100000Y86116667D01*
X65033333Y86083334D01*
X64833333Y86083334D01*
X64766666Y86116667D01*
X64733333Y86150000D01*
X65400000Y86783334D02*
X65833333Y86783334D01*
X65600000Y86516667D01*
X65700000Y86516667D01*
X65766666Y86483334D01*
X65800000Y86450000D01*
X65833333Y86383334D01*
X65833333Y86216667D01*
X65800000Y86150000D01*
X65766666Y86116667D01*
X65700000Y86083334D01*
X65500000Y86083334D01*
X65433333Y86116667D01*
X65400000Y86150000D01*
%TO.C,10k-4*%
X38674761Y89607143D02*
X38389047Y89607143D01*
X38531904Y89607143D02*
X38531904Y90107143D01*
X38484285Y90035714D01*
X38436666Y89988095D01*
X38389047Y89964286D01*
X38984285Y90107143D02*
X39031904Y90107143D01*
X39079523Y90083333D01*
X39103333Y90059524D01*
X39127142Y90011905D01*
X39150952Y89916667D01*
X39150952Y89797619D01*
X39127142Y89702381D01*
X39103333Y89654762D01*
X39079523Y89630953D01*
X39031904Y89607143D01*
X38984285Y89607143D01*
X38936666Y89630953D01*
X38912857Y89654762D01*
X38889047Y89702381D01*
X38865238Y89797619D01*
X38865238Y89916667D01*
X38889047Y90011905D01*
X38912857Y90059524D01*
X38936666Y90083333D01*
X38984285Y90107143D01*
X39365238Y89607143D02*
X39365238Y90107143D01*
X39412857Y89797619D02*
X39555714Y89607143D01*
X39555714Y89940476D02*
X39365238Y89750000D01*
X39770000Y89797619D02*
X40150952Y89797619D01*
X40603333Y89940476D02*
X40603333Y89607143D01*
X40484285Y90130953D02*
X40365238Y89773810D01*
X40674761Y89773810D01*
%TO.C,100nF-2*%
X38598571Y86370476D02*
X38312857Y86370476D01*
X38455714Y86370476D02*
X38455714Y86870476D01*
X38408095Y86799047D01*
X38360476Y86751428D01*
X38312857Y86727619D01*
X38908095Y86870476D02*
X38955714Y86870476D01*
X39003333Y86846666D01*
X39027142Y86822857D01*
X39050952Y86775238D01*
X39074761Y86680000D01*
X39074761Y86560952D01*
X39050952Y86465714D01*
X39027142Y86418095D01*
X39003333Y86394286D01*
X38955714Y86370476D01*
X38908095Y86370476D01*
X38860476Y86394286D01*
X38836666Y86418095D01*
X38812857Y86465714D01*
X38789047Y86560952D01*
X38789047Y86680000D01*
X38812857Y86775238D01*
X38836666Y86822857D01*
X38860476Y86846666D01*
X38908095Y86870476D01*
X39384285Y86870476D02*
X39431904Y86870476D01*
X39479523Y86846666D01*
X39503333Y86822857D01*
X39527142Y86775238D01*
X39550952Y86680000D01*
X39550952Y86560952D01*
X39527142Y86465714D01*
X39503333Y86418095D01*
X39479523Y86394286D01*
X39431904Y86370476D01*
X39384285Y86370476D01*
X39336666Y86394286D01*
X39312857Y86418095D01*
X39289047Y86465714D01*
X39265238Y86560952D01*
X39265238Y86680000D01*
X39289047Y86775238D01*
X39312857Y86822857D01*
X39336666Y86846666D01*
X39384285Y86870476D01*
X39765238Y86703809D02*
X39765238Y86370476D01*
X39765238Y86656190D02*
X39789047Y86680000D01*
X39836666Y86703809D01*
X39908095Y86703809D01*
X39955714Y86680000D01*
X39979523Y86632381D01*
X39979523Y86370476D01*
X40384285Y86632381D02*
X40217619Y86632381D01*
X40217619Y86370476D02*
X40217619Y86870476D01*
X40455714Y86870476D01*
X40646190Y86560952D02*
X41027142Y86560952D01*
X41241428Y86822857D02*
X41265238Y86846666D01*
X41312857Y86870476D01*
X41431904Y86870476D01*
X41479523Y86846666D01*
X41503333Y86822857D01*
X41527142Y86775238D01*
X41527142Y86727619D01*
X41503333Y86656190D01*
X41217619Y86370476D01*
X41527142Y86370476D01*
%TO.C,1000uF-1*%
D12*
X59680952Y93747620D02*
X59109523Y93747620D01*
X59395238Y93747620D02*
X59395238Y94747620D01*
X59300000Y94604762D01*
X59204761Y94509524D01*
X59109523Y94461905D01*
X60300000Y94747620D02*
X60395238Y94747620D01*
X60490476Y94700000D01*
X60538095Y94652381D01*
X60585714Y94557143D01*
X60633333Y94366667D01*
X60633333Y94128572D01*
X60585714Y93938096D01*
X60538095Y93842858D01*
X60490476Y93795239D01*
X60395238Y93747620D01*
X60300000Y93747620D01*
X60204761Y93795239D01*
X60157142Y93842858D01*
X60109523Y93938096D01*
X60061904Y94128572D01*
X60061904Y94366667D01*
X60109523Y94557143D01*
X60157142Y94652381D01*
X60204761Y94700000D01*
X60300000Y94747620D01*
X61252380Y94747620D02*
X61347619Y94747620D01*
X61442857Y94700000D01*
X61490476Y94652381D01*
X61538095Y94557143D01*
X61585714Y94366667D01*
X61585714Y94128572D01*
X61538095Y93938096D01*
X61490476Y93842858D01*
X61442857Y93795239D01*
X61347619Y93747620D01*
X61252380Y93747620D01*
X61157142Y93795239D01*
X61109523Y93842858D01*
X61061904Y93938096D01*
X61014285Y94128572D01*
X61014285Y94366667D01*
X61061904Y94557143D01*
X61109523Y94652381D01*
X61157142Y94700000D01*
X61252380Y94747620D01*
X62204761Y94747620D02*
X62300000Y94747620D01*
X62395238Y94700000D01*
X62442857Y94652381D01*
X62490476Y94557143D01*
X62538095Y94366667D01*
X62538095Y94128572D01*
X62490476Y93938096D01*
X62442857Y93842858D01*
X62395238Y93795239D01*
X62300000Y93747620D01*
X62204761Y93747620D01*
X62109523Y93795239D01*
X62061904Y93842858D01*
X62014285Y93938096D01*
X61966666Y94128572D01*
X61966666Y94366667D01*
X62014285Y94557143D01*
X62061904Y94652381D01*
X62109523Y94700000D01*
X62204761Y94747620D01*
X63395238Y94414286D02*
X63395238Y93747620D01*
X62966666Y94414286D02*
X62966666Y93890477D01*
X63014285Y93795239D01*
X63109523Y93747620D01*
X63252380Y93747620D01*
X63347619Y93795239D01*
X63395238Y93842858D01*
X64204761Y94271429D02*
X63871428Y94271429D01*
X63871428Y93747620D02*
X63871428Y94747620D01*
X64347619Y94747620D01*
X64728571Y94128572D02*
X65490476Y94128572D01*
X66490476Y93747620D02*
X65919047Y93747620D01*
X66204761Y93747620D02*
X66204761Y94747620D01*
X66109523Y94604762D01*
X66014285Y94509524D01*
X65919047Y94461905D01*
%TO.C,S1*%
X63800074Y76881290D02*
X63912560Y76843795D01*
X64100037Y76843795D01*
X64175028Y76881290D01*
X64212523Y76918785D01*
X64250018Y76993776D01*
X64250018Y77068767D01*
X64212523Y77143757D01*
X64175028Y77181253D01*
X64100037Y77218748D01*
X63950056Y77256243D01*
X63875065Y77293739D01*
X63837570Y77331234D01*
X63800074Y77406225D01*
X63800074Y77481215D01*
X63837570Y77556206D01*
X63875065Y77593701D01*
X63950056Y77631197D01*
X64137532Y77631197D01*
X64250018Y77593701D01*
X64999925Y76843795D02*
X64549981Y76843795D01*
X64774953Y76843795D02*
X64774953Y77631197D01*
X64699962Y77518711D01*
X64624972Y77443720D01*
X64549981Y77406225D01*
%TD*%
M02*
