%TF.GenerationSoftware,KiCad,Pcbnew,5.1.12-84ad8e8a86~92~ubuntu18.04.1*%
%TF.CreationDate,2021-11-12T09:30:33+01:00*%
%TF.ProjectId,window-sensor,77696e64-6f77-42d7-9365-6e736f722e6b,rev?*%
%TF.SameCoordinates,PX5dd7700PY8ec3da0*%
%TF.FileFunction,Copper,L2,Bot*%
%TF.FilePolarity,Positive*%
%FSLAX46Y46*%
G04 Gerber Fmt 4.6, Leading zero omitted, Abs format (unit mm)*
G04 Created by KiCad (PCBNEW 5.1.12-84ad8e8a86~92~ubuntu18.04.1) date 2021-11-12 09:30:33*
%MOMM*%
%LPD*%
G01*
G04 APERTURE LIST*
%TA.AperFunction,Profile*%
%ADD10C,0.050000*%
%TD*%
%TA.AperFunction,ComponentPad*%
%ADD11C,2.250000*%
%TD*%
%TA.AperFunction,ComponentPad*%
%ADD12C,1.308000*%
%TD*%
%TA.AperFunction,ComponentPad*%
%ADD13O,1.600000X1.600000*%
%TD*%
%TA.AperFunction,ComponentPad*%
%ADD14R,1.600000X1.600000*%
%TD*%
%TA.AperFunction,ComponentPad*%
%ADD15R,1.700000X1.700000*%
%TD*%
%TA.AperFunction,ComponentPad*%
%ADD16O,1.700000X1.700000*%
%TD*%
%TA.AperFunction,ComponentPad*%
%ADD17R,1.500000X1.500000*%
%TD*%
%TA.AperFunction,ViaPad*%
%ADD18C,0.800000*%
%TD*%
%TA.AperFunction,Conductor*%
%ADD19C,0.250000*%
%TD*%
%TA.AperFunction,Conductor*%
%ADD20C,0.254000*%
%TD*%
%TA.AperFunction,Conductor*%
%ADD21C,0.100000*%
%TD*%
G04 APERTURE END LIST*
D10*
X74900000Y1800000D02*
X78900000Y1800000D01*
X52000000Y1800000D02*
X56000000Y1800000D01*
X27000000Y1800000D02*
X31000000Y1800000D01*
X74900000Y97000000D02*
X78900000Y97000000D01*
X52000000Y97000000D02*
X56000000Y97000000D01*
X27000000Y97000000D02*
X31000000Y97000000D01*
X9100000Y20900000D02*
X9900000Y20100000D01*
X9100000Y45200000D02*
X9900000Y44400000D01*
X9100000Y69500000D02*
X9900000Y68700000D01*
X27000000Y26100000D02*
G75*
G02*
X27000000Y24100000I0J-1000000D01*
G01*
X27000000Y50400000D02*
G75*
G02*
X27000000Y48400000I0J-1000000D01*
G01*
X52000000Y26100000D02*
G75*
G02*
X52000000Y24100000I0J-1000000D01*
G01*
X52000000Y50400000D02*
G75*
G02*
X52000000Y48400000I0J-1000000D01*
G01*
X78900000Y24100000D02*
G75*
G02*
X78900000Y26100000I0J1000000D01*
G01*
X78900000Y48400000D02*
G75*
G02*
X78900000Y50400000I0J1000000D01*
G01*
X56000000Y1800000D02*
X74900000Y1800000D01*
X56000000Y26100000D02*
X74900000Y26100000D01*
X56000000Y50400000D02*
X74900000Y50400000D01*
X7000000Y4800000D02*
X7000000Y1800000D01*
X7000000Y29100000D02*
X7000000Y26100000D01*
X7000000Y53400000D02*
X7000000Y50400000D01*
X74900000Y26100000D02*
G75*
G02*
X74900000Y24100000I0J-1000000D01*
G01*
X74900000Y50400000D02*
G75*
G02*
X74900000Y48400000I0J-1000000D01*
G01*
X56000000Y24100000D02*
G75*
G02*
X56000000Y26100000I0J1000000D01*
G01*
X56000000Y48400000D02*
G75*
G02*
X56000000Y50400000I0J1000000D01*
G01*
X31000000Y1800000D02*
X52000000Y1800000D01*
X31000000Y26100000D02*
X52000000Y26100000D01*
X31000000Y50400000D02*
X52000000Y50400000D01*
X9100000Y4800000D02*
X9900000Y5600000D01*
X9100000Y29100000D02*
X9900000Y29900000D01*
X9100000Y53400000D02*
X9900000Y54200000D01*
X31000000Y24100000D02*
X52000000Y24100000D01*
X31000000Y48400000D02*
X52000000Y48400000D01*
X31000000Y72700000D02*
X52000000Y72700000D01*
X9900000Y20100000D02*
X9900000Y5600000D01*
X9900000Y44400000D02*
X9900000Y29900000D01*
X9900000Y68700000D02*
X9900000Y54200000D01*
X31000000Y24100000D02*
G75*
G02*
X31000000Y26100000I0J1000000D01*
G01*
X31000000Y48400000D02*
G75*
G02*
X31000000Y50400000I0J1000000D01*
G01*
X98900000Y24100000D02*
X78900000Y24100000D01*
X98900000Y48400000D02*
X78900000Y48400000D01*
X98900000Y72700000D02*
X78900000Y72700000D01*
X98900000Y1800000D02*
X98900000Y24100000D01*
X98900000Y26100000D02*
X98900000Y48400000D01*
X98900000Y50400000D02*
X98900000Y72700000D01*
X9100000Y4800000D02*
X7000000Y4800000D01*
X9100000Y29100000D02*
X7000000Y29100000D01*
X9100000Y53400000D02*
X7000000Y53400000D01*
X7000000Y20900000D02*
X7000000Y24100000D01*
X7000000Y45200000D02*
X7000000Y48400000D01*
X7000000Y69500000D02*
X7000000Y72700000D01*
X98900000Y1800000D02*
X78900000Y1800000D01*
X98900000Y26100000D02*
X78900000Y26100000D01*
X98900000Y50400000D02*
X78900000Y50400000D01*
X7000000Y24100000D02*
X27000000Y24100000D01*
X7000000Y48400000D02*
X27000000Y48400000D01*
X7000000Y72700000D02*
X27000000Y72700000D01*
X7000000Y20900000D02*
X9100000Y20900000D01*
X7000000Y45200000D02*
X9100000Y45200000D01*
X7000000Y69500000D02*
X9100000Y69500000D01*
X74900000Y24100000D02*
X56000000Y24100000D01*
X74900000Y48400000D02*
X56000000Y48400000D01*
X74900000Y72700000D02*
X56000000Y72700000D01*
X7000000Y1800000D02*
X27000000Y1800000D01*
X7000000Y26100000D02*
X27000000Y26100000D01*
X7000000Y50400000D02*
X27000000Y50400000D01*
X27000000Y74700000D02*
G75*
G02*
X27000000Y72700000I0J-1000000D01*
G01*
X31000000Y72700000D02*
G75*
G02*
X31000000Y74700000I0J1000000D01*
G01*
X52000000Y74700000D02*
G75*
G02*
X52000000Y72700000I0J-1000000D01*
G01*
X56000000Y72700000D02*
G75*
G02*
X56000000Y74700000I0J1000000D01*
G01*
X74900000Y74700000D02*
G75*
G02*
X74900000Y72700000I0J-1000000D01*
G01*
X78900000Y72700000D02*
G75*
G02*
X78900000Y74700000I0J1000000D01*
G01*
X98900000Y74700000D02*
X78900000Y74700000D01*
X56000000Y74700000D02*
X74900000Y74700000D01*
X31000000Y74700000D02*
X52000000Y74700000D01*
X7000000Y74700000D02*
X27000000Y74700000D01*
X74900000Y97000000D02*
X56000000Y97000000D01*
X31000000Y97000000D02*
X52000000Y97000000D01*
X98900000Y97000000D02*
X78900000Y97000000D01*
X7000000Y97000000D02*
X27000000Y97000000D01*
X98900000Y74700000D02*
X98900000Y97000000D01*
X7000000Y77700000D02*
X7000000Y74700000D01*
X7000000Y93800000D02*
X7000000Y97000000D01*
X9100000Y93800000D02*
X9900000Y93000000D01*
X9100000Y77700000D02*
X9900000Y78500000D01*
X9100000Y77700000D02*
X7000000Y77700000D01*
X9900000Y93000000D02*
X9900000Y78500000D01*
X7000000Y93800000D02*
X9100000Y93800000D01*
D11*
%TO.P,S1,P$5*%
%TO.N,N/C*%
X59550000Y4300000D03*
%TO.P,S1,P$4*%
X69250000Y4300000D03*
D12*
%TO.P,S1,3*%
%TO.N,Net-(S1-Pad3)*%
X62400000Y4300000D03*
%TO.P,S1,1*%
%TO.N,+3V8*%
X66400000Y4300000D03*
%TO.P,S1,2*%
%TO.N,Net-(HT7333-Pad2)*%
X64400000Y4300000D03*
%TD*%
D11*
%TO.P,S1,P$5*%
%TO.N,N/C*%
X59550000Y28600000D03*
%TO.P,S1,P$4*%
X69250000Y28600000D03*
D12*
%TO.P,S1,3*%
%TO.N,Net-(S1-Pad3)*%
X62400000Y28600000D03*
%TO.P,S1,1*%
%TO.N,+3V8*%
X66400000Y28600000D03*
%TO.P,S1,2*%
%TO.N,Net-(HT7333-Pad2)*%
X64400000Y28600000D03*
%TD*%
D11*
%TO.P,S1,P$5*%
%TO.N,N/C*%
X59550000Y52900000D03*
%TO.P,S1,P$4*%
X69250000Y52900000D03*
D12*
%TO.P,S1,3*%
%TO.N,Net-(S1-Pad3)*%
X62400000Y52900000D03*
%TO.P,S1,1*%
%TO.N,+3V8*%
X66400000Y52900000D03*
%TO.P,S1,2*%
%TO.N,Net-(HT7333-Pad2)*%
X64400000Y52900000D03*
%TD*%
D13*
%TO.P,U3,1*%
%TO.N,Net-(1M-1-Pad2)*%
X45200000Y19700000D03*
%TO.P,U3,8*%
%TO.N,N/C*%
X52820000Y4460000D03*
%TO.P,U3,2*%
%TO.N,+3V3*%
X45200000Y17160000D03*
%TO.P,U3,9*%
%TO.N,N/C*%
X52820000Y7000000D03*
%TO.P,U3,3*%
%TO.N,Net-(10k-1-Pad2)*%
X45200000Y14620000D03*
%TO.P,U3,10*%
%TO.N,N/C*%
X52820000Y9540000D03*
%TO.P,U3,4*%
%TO.N,Net-(1M-1-Pad2)*%
X45200000Y12080000D03*
%TO.P,U3,11*%
%TO.N,N/C*%
X52820000Y12080000D03*
%TO.P,U3,5*%
%TO.N,Net-(100nF-1-Pad1)*%
X45200000Y9540000D03*
%TO.P,U3,12*%
%TO.N,N/C*%
X52820000Y14620000D03*
%TO.P,U3,6*%
%TO.N,EN*%
X45200000Y7000000D03*
%TO.P,U3,13*%
%TO.N,N/C*%
X52820000Y17160000D03*
D14*
%TO.P,U3,7*%
X45200000Y4460000D03*
D13*
%TO.P,U3,14*%
X52820000Y19700000D03*
%TD*%
%TO.P,U3,1*%
%TO.N,Net-(1M-1-Pad2)*%
X45200000Y44000000D03*
%TO.P,U3,8*%
%TO.N,N/C*%
X52820000Y28760000D03*
%TO.P,U3,2*%
%TO.N,+3V3*%
X45200000Y41460000D03*
%TO.P,U3,9*%
%TO.N,N/C*%
X52820000Y31300000D03*
%TO.P,U3,3*%
%TO.N,Net-(10k-1-Pad2)*%
X45200000Y38920000D03*
%TO.P,U3,10*%
%TO.N,N/C*%
X52820000Y33840000D03*
%TO.P,U3,4*%
%TO.N,Net-(1M-1-Pad2)*%
X45200000Y36380000D03*
%TO.P,U3,11*%
%TO.N,N/C*%
X52820000Y36380000D03*
%TO.P,U3,5*%
%TO.N,Net-(100nF-1-Pad1)*%
X45200000Y33840000D03*
%TO.P,U3,12*%
%TO.N,N/C*%
X52820000Y38920000D03*
%TO.P,U3,6*%
%TO.N,EN*%
X45200000Y31300000D03*
%TO.P,U3,13*%
%TO.N,N/C*%
X52820000Y41460000D03*
D14*
%TO.P,U3,7*%
X45200000Y28760000D03*
D13*
%TO.P,U3,14*%
X52820000Y44000000D03*
%TD*%
%TO.P,U3,1*%
%TO.N,Net-(1M-1-Pad2)*%
X45200000Y68300000D03*
%TO.P,U3,8*%
%TO.N,N/C*%
X52820000Y53060000D03*
%TO.P,U3,2*%
%TO.N,+3V3*%
X45200000Y65760000D03*
%TO.P,U3,9*%
%TO.N,N/C*%
X52820000Y55600000D03*
%TO.P,U3,3*%
%TO.N,Net-(10k-1-Pad2)*%
X45200000Y63220000D03*
%TO.P,U3,10*%
%TO.N,N/C*%
X52820000Y58140000D03*
%TO.P,U3,4*%
%TO.N,Net-(1M-1-Pad2)*%
X45200000Y60680000D03*
%TO.P,U3,11*%
%TO.N,N/C*%
X52820000Y60680000D03*
%TO.P,U3,5*%
%TO.N,Net-(100nF-1-Pad1)*%
X45200000Y58140000D03*
%TO.P,U3,12*%
%TO.N,N/C*%
X52820000Y63220000D03*
%TO.P,U3,6*%
%TO.N,EN*%
X45200000Y55600000D03*
%TO.P,U3,13*%
%TO.N,N/C*%
X52820000Y65760000D03*
D14*
%TO.P,U3,7*%
X45200000Y53060000D03*
D13*
%TO.P,U3,14*%
X52820000Y68300000D03*
%TD*%
D15*
%TO.P,J1,1*%
%TO.N,GND*%
X81900000Y21600000D03*
D16*
%TO.P,J1,2*%
%TO.N,+3V3*%
X84440000Y21600000D03*
%TO.P,J1,3*%
%TO.N,Net-(10k-3-Pad1)*%
X86980000Y21600000D03*
%TO.P,J1,4*%
%TO.N,Net-(ESP-12E1-Pad21)*%
X89520000Y21600000D03*
%TO.P,J1,5*%
%TO.N,Net-(ESP-12E1-Pad22)*%
X92060000Y21600000D03*
%TD*%
D15*
%TO.P,J1,1*%
%TO.N,GND*%
X81900000Y45900000D03*
D16*
%TO.P,J1,2*%
%TO.N,+3V3*%
X84440000Y45900000D03*
%TO.P,J1,3*%
%TO.N,Net-(10k-3-Pad1)*%
X86980000Y45900000D03*
%TO.P,J1,4*%
%TO.N,Net-(ESP-12E1-Pad21)*%
X89520000Y45900000D03*
%TO.P,J1,5*%
%TO.N,Net-(ESP-12E1-Pad22)*%
X92060000Y45900000D03*
%TD*%
D15*
%TO.P,J1,1*%
%TO.N,GND*%
X81900000Y70200000D03*
D16*
%TO.P,J1,2*%
%TO.N,+3V3*%
X84440000Y70200000D03*
%TO.P,J1,3*%
%TO.N,Net-(10k-3-Pad1)*%
X86980000Y70200000D03*
%TO.P,J1,4*%
%TO.N,Net-(ESP-12E1-Pad21)*%
X89520000Y70200000D03*
%TO.P,J1,5*%
%TO.N,Net-(ESP-12E1-Pad22)*%
X92060000Y70200000D03*
%TD*%
D17*
%TO.P,3V7,1*%
%TO.N,+3V8*%
X96400000Y13000000D03*
%TD*%
%TO.P,3V7,1*%
%TO.N,+3V8*%
X96400000Y37300000D03*
%TD*%
%TO.P,3V7,1*%
%TO.N,+3V8*%
X96400000Y61600000D03*
%TD*%
%TO.P,GND,1*%
%TO.N,GND1*%
X13400000Y13000000D03*
%TD*%
%TO.P,GND,1*%
%TO.N,GND1*%
X13400000Y37300000D03*
%TD*%
%TO.P,GND,1*%
%TO.N,GND1*%
X13400000Y61600000D03*
%TD*%
%TO.P,GND,1*%
%TO.N,GND1*%
X13400000Y85900000D03*
%TD*%
%TO.P,3V7,1*%
%TO.N,+3V8*%
X96400000Y85900000D03*
%TD*%
D13*
%TO.P,U3,14*%
%TO.N,N/C*%
X52820000Y92600000D03*
D14*
%TO.P,U3,7*%
X45200000Y77360000D03*
D13*
%TO.P,U3,13*%
X52820000Y90060000D03*
%TO.P,U3,6*%
%TO.N,EN*%
X45200000Y79900000D03*
%TO.P,U3,12*%
%TO.N,N/C*%
X52820000Y87520000D03*
%TO.P,U3,5*%
%TO.N,Net-(100nF-1-Pad1)*%
X45200000Y82440000D03*
%TO.P,U3,11*%
%TO.N,N/C*%
X52820000Y84980000D03*
%TO.P,U3,4*%
%TO.N,Net-(1M-1-Pad2)*%
X45200000Y84980000D03*
%TO.P,U3,10*%
%TO.N,N/C*%
X52820000Y82440000D03*
%TO.P,U3,3*%
%TO.N,Net-(10k-1-Pad2)*%
X45200000Y87520000D03*
%TO.P,U3,9*%
%TO.N,N/C*%
X52820000Y79900000D03*
%TO.P,U3,2*%
%TO.N,+3V3*%
X45200000Y90060000D03*
%TO.P,U3,8*%
%TO.N,N/C*%
X52820000Y77360000D03*
%TO.P,U3,1*%
%TO.N,Net-(1M-1-Pad2)*%
X45200000Y92600000D03*
%TD*%
D16*
%TO.P,J1,5*%
%TO.N,Net-(ESP-12E1-Pad22)*%
X92060000Y94500000D03*
%TO.P,J1,4*%
%TO.N,Net-(ESP-12E1-Pad21)*%
X89520000Y94500000D03*
%TO.P,J1,3*%
%TO.N,Net-(10k-3-Pad1)*%
X86980000Y94500000D03*
%TO.P,J1,2*%
%TO.N,+3V3*%
X84440000Y94500000D03*
D15*
%TO.P,J1,1*%
%TO.N,GND*%
X81900000Y94500000D03*
%TD*%
D12*
%TO.P,S1,2*%
%TO.N,Net-(HT7333-Pad2)*%
X64400000Y77200000D03*
%TO.P,S1,1*%
%TO.N,+3V8*%
X66400000Y77200000D03*
%TO.P,S1,3*%
%TO.N,Net-(S1-Pad3)*%
X62400000Y77200000D03*
D11*
%TO.P,S1,P$4*%
%TO.N,N/C*%
X69250000Y77200000D03*
%TO.P,S1,P$5*%
X59550000Y77200000D03*
%TD*%
D18*
%TO.N,GND1*%
X70520100Y88283000D03*
X70520100Y63983000D03*
X70520100Y39683000D03*
X70520100Y15383000D03*
%TO.N,Net-(ESP-12E1-Pad22)*%
X20120200Y92822400D03*
X20120200Y68522400D03*
X20120200Y44222400D03*
X20120200Y19922400D03*
%TO.N,Net-(ESP-12E1-Pad1)*%
X31843800Y82459600D03*
X38976100Y93211500D03*
X31843800Y58159600D03*
X31843800Y33859600D03*
X31843800Y9559600D03*
X38976100Y68911500D03*
X38976100Y44611500D03*
X38976100Y20311500D03*
%TO.N,Net-(10k-3-Pad1)*%
X21651400Y77451400D03*
X40133200Y80117500D03*
X27800000Y92813300D03*
X27800000Y68513300D03*
X27800000Y44213300D03*
X27800000Y19913300D03*
X40133200Y55817500D03*
X40133200Y31517500D03*
X40133200Y7217500D03*
X21651400Y53151400D03*
X21651400Y28851400D03*
X21651400Y4551400D03*
%TO.N,Net-(1M-1-Pad2)*%
X10118800Y95202100D03*
X16163500Y77463500D03*
X16163500Y53163500D03*
X16163500Y28863500D03*
X16163500Y4563500D03*
X10118800Y70902100D03*
X10118800Y46602100D03*
X10118800Y22302100D03*
%TO.N,+3V3*%
X37632900Y85381600D03*
X37632900Y61081600D03*
X37632900Y36781600D03*
X37632900Y12481600D03*
%TD*%
D19*
%TO.N,GND1*%
X16362500Y76209800D02*
X13400000Y79172300D01*
X13400000Y79172300D02*
X13400000Y85900000D01*
X16362500Y76209800D02*
X54909800Y76209800D01*
X54909800Y76209800D02*
X58400000Y79700000D01*
X58400000Y79700000D02*
X68700000Y79700000D01*
X70520100Y81520100D02*
X70520100Y88283000D01*
X68700000Y79700000D02*
X70520100Y81520100D01*
X13400000Y54872300D02*
X13400000Y61600000D01*
X13400000Y30572300D02*
X13400000Y37300000D01*
X13400000Y6272300D02*
X13400000Y13000000D01*
X68700000Y55400000D02*
X70520100Y57220100D01*
X68700000Y31100000D02*
X70520100Y32920100D01*
X68700000Y6800000D02*
X70520100Y8620100D01*
X58400000Y55400000D02*
X68700000Y55400000D01*
X58400000Y31100000D02*
X68700000Y31100000D01*
X58400000Y6800000D02*
X68700000Y6800000D01*
X54909800Y51909800D02*
X58400000Y55400000D01*
X54909800Y27609800D02*
X58400000Y31100000D01*
X54909800Y3309800D02*
X58400000Y6800000D01*
X16362500Y51909800D02*
X13400000Y54872300D01*
X16362500Y27609800D02*
X13400000Y30572300D01*
X16362500Y3309800D02*
X13400000Y6272300D01*
X70520100Y57220100D02*
X70520100Y63983000D01*
X70520100Y32920100D02*
X70520100Y39683000D01*
X70520100Y8620100D02*
X70520100Y15383000D01*
X16362500Y51909800D02*
X54909800Y51909800D01*
X16362500Y27609800D02*
X54909800Y27609800D01*
X16362500Y3309800D02*
X54909800Y3309800D01*
%TO.N,Net-(ESP-12E1-Pad22)*%
X92060000Y94500000D02*
X90884700Y94500000D01*
X90884700Y94500000D02*
X90884700Y94867300D01*
X90884700Y94867300D02*
X90067700Y95684300D01*
X90067700Y95684300D02*
X22982100Y95684300D01*
X22982100Y95684300D02*
X20120200Y92822400D01*
X92060000Y70200000D02*
X90884700Y70200000D01*
X92060000Y45900000D02*
X90884700Y45900000D01*
X92060000Y21600000D02*
X90884700Y21600000D01*
X90884700Y70567300D02*
X90067700Y71384300D01*
X90884700Y46267300D02*
X90067700Y47084300D01*
X90884700Y21967300D02*
X90067700Y22784300D01*
X90884700Y70200000D02*
X90884700Y70567300D01*
X90884700Y45900000D02*
X90884700Y46267300D01*
X90884700Y21600000D02*
X90884700Y21967300D01*
X90067700Y71384300D02*
X22982100Y71384300D01*
X90067700Y47084300D02*
X22982100Y47084300D01*
X90067700Y22784300D02*
X22982100Y22784300D01*
X22982100Y71384300D02*
X20120200Y68522400D01*
X22982100Y47084300D02*
X20120200Y44222400D01*
X22982100Y22784300D02*
X20120200Y19922400D01*
%TO.N,Net-(ESP-12E1-Pad1)*%
X38976100Y93211500D02*
X31843800Y86079200D01*
X31843800Y86079200D02*
X31843800Y82459600D01*
X31843800Y61779200D02*
X31843800Y58159600D01*
X31843800Y37479200D02*
X31843800Y33859600D01*
X31843800Y13179200D02*
X31843800Y9559600D01*
X38976100Y68911500D02*
X31843800Y61779200D01*
X38976100Y44611500D02*
X31843800Y37479200D01*
X38976100Y20311500D02*
X31843800Y13179200D01*
%TO.N,Net-(10k-3-Pad1)*%
X27800000Y83121400D02*
X27321400Y83121400D01*
X27321400Y83121400D02*
X21651400Y77451400D01*
X27800000Y83121400D02*
X30803900Y80117500D01*
X30803900Y80117500D02*
X40133200Y80117500D01*
X27800000Y92813300D02*
X27800000Y83121400D01*
X86980000Y94500000D02*
X85804700Y94500000D01*
X85804700Y94500000D02*
X85804700Y94132600D01*
X85804700Y94132600D02*
X84996800Y93324700D01*
X84996800Y93324700D02*
X63933000Y93324700D01*
X63933000Y93324700D02*
X54318300Y83710000D01*
X54318300Y83710000D02*
X43725700Y83710000D01*
X43725700Y83710000D02*
X40133200Y80117500D01*
X43725700Y59410000D02*
X40133200Y55817500D01*
X43725700Y35110000D02*
X40133200Y31517500D01*
X43725700Y10810000D02*
X40133200Y7217500D01*
X27800000Y58821400D02*
X30803900Y55817500D01*
X27800000Y34521400D02*
X30803900Y31517500D01*
X27800000Y10221400D02*
X30803900Y7217500D01*
X85804700Y70200000D02*
X85804700Y69832600D01*
X85804700Y45900000D02*
X85804700Y45532600D01*
X85804700Y21600000D02*
X85804700Y21232600D01*
X85804700Y69832600D02*
X84996800Y69024700D01*
X85804700Y45532600D02*
X84996800Y44724700D01*
X85804700Y21232600D02*
X84996800Y20424700D01*
X84996800Y69024700D02*
X63933000Y69024700D01*
X84996800Y44724700D02*
X63933000Y44724700D01*
X84996800Y20424700D02*
X63933000Y20424700D01*
X30803900Y55817500D02*
X40133200Y55817500D01*
X30803900Y31517500D02*
X40133200Y31517500D01*
X30803900Y7217500D02*
X40133200Y7217500D01*
X27800000Y68513300D02*
X27800000Y58821400D01*
X27800000Y44213300D02*
X27800000Y34521400D01*
X27800000Y19913300D02*
X27800000Y10221400D01*
X27321400Y58821400D02*
X21651400Y53151400D01*
X27321400Y34521400D02*
X21651400Y28851400D01*
X27321400Y10221400D02*
X21651400Y4551400D01*
X86980000Y70200000D02*
X85804700Y70200000D01*
X86980000Y45900000D02*
X85804700Y45900000D01*
X86980000Y21600000D02*
X85804700Y21600000D01*
X63933000Y69024700D02*
X54318300Y59410000D01*
X63933000Y44724700D02*
X54318300Y35110000D01*
X63933000Y20424700D02*
X54318300Y10810000D01*
X27800000Y58821400D02*
X27321400Y58821400D01*
X27800000Y34521400D02*
X27321400Y34521400D01*
X27800000Y10221400D02*
X27321400Y10221400D01*
X54318300Y59410000D02*
X43725700Y59410000D01*
X54318300Y35110000D02*
X43725700Y35110000D01*
X54318300Y10810000D02*
X43725700Y10810000D01*
%TO.N,Net-(1M-1-Pad2)*%
X16163500Y89157400D02*
X20932700Y89157400D01*
X20932700Y89157400D02*
X25782000Y94006700D01*
X25782000Y94006700D02*
X42668000Y94006700D01*
X42668000Y94006700D02*
X44074700Y92600000D01*
X16163500Y77463500D02*
X16163500Y89157400D01*
X16163500Y89157400D02*
X10118800Y95202100D01*
X45200000Y92600000D02*
X44074700Y92600000D01*
X45200000Y84980000D02*
X45200000Y86105300D01*
X45200000Y92600000D02*
X45200000Y91474700D01*
X45200000Y91474700D02*
X45481300Y91474700D01*
X45481300Y91474700D02*
X46325300Y90630700D01*
X46325300Y90630700D02*
X46325300Y86949200D01*
X46325300Y86949200D02*
X45481400Y86105300D01*
X45481400Y86105300D02*
X45200000Y86105300D01*
X42668000Y69706700D02*
X44074700Y68300000D01*
X42668000Y45406700D02*
X44074700Y44000000D01*
X42668000Y21106700D02*
X44074700Y19700000D01*
X45200000Y60680000D02*
X45200000Y61805300D01*
X45200000Y36380000D02*
X45200000Y37505300D01*
X45200000Y12080000D02*
X45200000Y13205300D01*
X20932700Y64857400D02*
X25782000Y69706700D01*
X20932700Y40557400D02*
X25782000Y45406700D01*
X20932700Y16257400D02*
X25782000Y21106700D01*
X25782000Y69706700D02*
X42668000Y69706700D01*
X25782000Y45406700D02*
X42668000Y45406700D01*
X25782000Y21106700D02*
X42668000Y21106700D01*
X45481300Y67174700D02*
X46325300Y66330700D01*
X45481300Y42874700D02*
X46325300Y42030700D01*
X45481300Y18574700D02*
X46325300Y17730700D01*
X45481400Y61805300D02*
X45200000Y61805300D01*
X45481400Y37505300D02*
X45200000Y37505300D01*
X45481400Y13205300D02*
X45200000Y13205300D01*
X45200000Y68300000D02*
X45200000Y67174700D01*
X45200000Y44000000D02*
X45200000Y42874700D01*
X45200000Y19700000D02*
X45200000Y18574700D01*
X16163500Y53163500D02*
X16163500Y64857400D01*
X16163500Y28863500D02*
X16163500Y40557400D01*
X16163500Y4563500D02*
X16163500Y16257400D01*
X16163500Y64857400D02*
X20932700Y64857400D01*
X16163500Y40557400D02*
X20932700Y40557400D01*
X16163500Y16257400D02*
X20932700Y16257400D01*
X45200000Y67174700D02*
X45481300Y67174700D01*
X45200000Y42874700D02*
X45481300Y42874700D01*
X45200000Y18574700D02*
X45481300Y18574700D01*
X16163500Y64857400D02*
X10118800Y70902100D01*
X16163500Y40557400D02*
X10118800Y46602100D01*
X16163500Y16257400D02*
X10118800Y22302100D01*
X45200000Y68300000D02*
X44074700Y68300000D01*
X45200000Y44000000D02*
X44074700Y44000000D01*
X45200000Y19700000D02*
X44074700Y19700000D01*
X46325300Y66330700D02*
X46325300Y62649200D01*
X46325300Y42030700D02*
X46325300Y38349200D01*
X46325300Y17730700D02*
X46325300Y14049200D01*
X46325300Y62649200D02*
X45481400Y61805300D01*
X46325300Y38349200D02*
X45481400Y37505300D01*
X46325300Y14049200D02*
X45481400Y13205300D01*
%TO.N,+3V3*%
X45200000Y90060000D02*
X44074700Y90060000D01*
X44074700Y90060000D02*
X39396300Y85381600D01*
X39396300Y85381600D02*
X37632900Y85381600D01*
X45200000Y65760000D02*
X44074700Y65760000D01*
X45200000Y41460000D02*
X44074700Y41460000D01*
X45200000Y17160000D02*
X44074700Y17160000D01*
X39396300Y61081600D02*
X37632900Y61081600D01*
X39396300Y36781600D02*
X37632900Y36781600D01*
X39396300Y12481600D02*
X37632900Y12481600D01*
X44074700Y65760000D02*
X39396300Y61081600D01*
X44074700Y41460000D02*
X39396300Y36781600D01*
X44074700Y17160000D02*
X39396300Y12481600D01*
%TD*%
D20*
%TO.N,GND*%
X22557824Y96319274D02*
X22442099Y96224301D01*
X22418301Y96195303D01*
X20080399Y93857400D01*
X20018261Y93857400D01*
X19818302Y93817626D01*
X19629944Y93739605D01*
X19460426Y93626337D01*
X19316263Y93482174D01*
X19202995Y93312656D01*
X19124974Y93124298D01*
X19085200Y92924339D01*
X19085200Y92720461D01*
X19124974Y92520502D01*
X19202995Y92332144D01*
X19316263Y92162626D01*
X19460426Y92018463D01*
X19629944Y91905195D01*
X19818302Y91827174D01*
X20018261Y91787400D01*
X20222139Y91787400D01*
X20422098Y91827174D01*
X20610456Y91905195D01*
X20779974Y92018463D01*
X20924137Y92162626D01*
X21037405Y92332144D01*
X21115426Y92520502D01*
X21155200Y92720461D01*
X21155200Y92782599D01*
X23296902Y94924300D01*
X80414246Y94924300D01*
X80415000Y94785750D01*
X80573750Y94627000D01*
X81773000Y94627000D01*
X81773000Y94647000D01*
X82027000Y94647000D01*
X82027000Y94627000D01*
X82047000Y94627000D01*
X82047000Y94373000D01*
X82027000Y94373000D01*
X82027000Y94353000D01*
X81773000Y94353000D01*
X81773000Y94373000D01*
X80573750Y94373000D01*
X80415000Y94214250D01*
X80414295Y94084700D01*
X63970322Y94084700D01*
X63932999Y94088376D01*
X63895676Y94084700D01*
X63895667Y94084700D01*
X63784014Y94073703D01*
X63656425Y94035000D01*
X63640753Y94030246D01*
X63508723Y93959674D01*
X63471814Y93929383D01*
X63392999Y93864701D01*
X63369201Y93835703D01*
X54225907Y84692408D01*
X54255000Y84838665D01*
X54255000Y85121335D01*
X54199853Y85398574D01*
X54091680Y85659727D01*
X53934637Y85894759D01*
X53734759Y86094637D01*
X53502241Y86250000D01*
X53734759Y86405363D01*
X53934637Y86605241D01*
X54091680Y86840273D01*
X54199853Y87101426D01*
X54255000Y87378665D01*
X54255000Y87661335D01*
X54199853Y87938574D01*
X54091680Y88199727D01*
X53934637Y88434759D01*
X53734759Y88634637D01*
X53502241Y88790000D01*
X53734759Y88945363D01*
X53934637Y89145241D01*
X54091680Y89380273D01*
X54199853Y89641426D01*
X54255000Y89918665D01*
X54255000Y90201335D01*
X54199853Y90478574D01*
X54091680Y90739727D01*
X53934637Y90974759D01*
X53734759Y91174637D01*
X53502241Y91330000D01*
X53734759Y91485363D01*
X53934637Y91685241D01*
X54091680Y91920273D01*
X54199853Y92181426D01*
X54255000Y92458665D01*
X54255000Y92741335D01*
X54199853Y93018574D01*
X54091680Y93279727D01*
X53934637Y93514759D01*
X53734759Y93714637D01*
X53499727Y93871680D01*
X53238574Y93979853D01*
X52961335Y94035000D01*
X52678665Y94035000D01*
X52401426Y93979853D01*
X52140273Y93871680D01*
X51905241Y93714637D01*
X51705363Y93514759D01*
X51548320Y93279727D01*
X51440147Y93018574D01*
X51385000Y92741335D01*
X51385000Y92458665D01*
X51440147Y92181426D01*
X51548320Y91920273D01*
X51705363Y91685241D01*
X51905241Y91485363D01*
X52137759Y91330000D01*
X51905241Y91174637D01*
X51705363Y90974759D01*
X51548320Y90739727D01*
X51440147Y90478574D01*
X51385000Y90201335D01*
X51385000Y89918665D01*
X51440147Y89641426D01*
X51548320Y89380273D01*
X51705363Y89145241D01*
X51905241Y88945363D01*
X52137759Y88790000D01*
X51905241Y88634637D01*
X51705363Y88434759D01*
X51548320Y88199727D01*
X51440147Y87938574D01*
X51385000Y87661335D01*
X51385000Y87378665D01*
X51440147Y87101426D01*
X51548320Y86840273D01*
X51705363Y86605241D01*
X51905241Y86405363D01*
X52137759Y86250000D01*
X51905241Y86094637D01*
X51705363Y85894759D01*
X51548320Y85659727D01*
X51440147Y85398574D01*
X51385000Y85121335D01*
X51385000Y84838665D01*
X51440147Y84561426D01*
X51478017Y84470000D01*
X46541983Y84470000D01*
X46579853Y84561426D01*
X46635000Y84838665D01*
X46635000Y85121335D01*
X46579853Y85398574D01*
X46471680Y85659727D01*
X46327063Y85876162D01*
X46836303Y86385401D01*
X46865301Y86409199D01*
X46960274Y86524924D01*
X47030846Y86656953D01*
X47074303Y86800214D01*
X47085300Y86911867D01*
X47085300Y86911877D01*
X47088976Y86949200D01*
X47085300Y86986523D01*
X47085300Y90593378D01*
X47088976Y90630701D01*
X47085300Y90668024D01*
X47085300Y90668033D01*
X47074303Y90779686D01*
X47030846Y90922947D01*
X46960274Y91054976D01*
X46865301Y91170701D01*
X46836304Y91194498D01*
X46327023Y91703778D01*
X46471680Y91920273D01*
X46579853Y92181426D01*
X46635000Y92458665D01*
X46635000Y92741335D01*
X46579853Y93018574D01*
X46471680Y93279727D01*
X46314637Y93514759D01*
X46114759Y93714637D01*
X45879727Y93871680D01*
X45618574Y93979853D01*
X45341335Y94035000D01*
X45058665Y94035000D01*
X44781426Y93979853D01*
X44520273Y93871680D01*
X44285241Y93714637D01*
X44160053Y93589449D01*
X43231804Y94517697D01*
X43208001Y94546701D01*
X43092276Y94641674D01*
X42960247Y94712246D01*
X42816986Y94755703D01*
X42705333Y94766700D01*
X42705322Y94766700D01*
X42668000Y94770376D01*
X42630678Y94766700D01*
X25819323Y94766700D01*
X25782000Y94770376D01*
X25744677Y94766700D01*
X25744667Y94766700D01*
X25633014Y94755703D01*
X25489753Y94712246D01*
X25357724Y94641674D01*
X25241999Y94546701D01*
X25218201Y94517703D01*
X20617899Y89917400D01*
X16478302Y89917400D01*
X11153800Y95241901D01*
X11153800Y95304039D01*
X11114026Y95503998D01*
X11036005Y95692356D01*
X10922737Y95861874D01*
X10778574Y96006037D01*
X10609056Y96119305D01*
X10420698Y96197326D01*
X10220739Y96237100D01*
X10016861Y96237100D01*
X9816902Y96197326D01*
X9628544Y96119305D01*
X9459026Y96006037D01*
X9314863Y95861874D01*
X9201595Y95692356D01*
X9123574Y95503998D01*
X9083800Y95304039D01*
X9083800Y95100161D01*
X9123574Y94900202D01*
X9201595Y94711844D01*
X9314863Y94542326D01*
X9459026Y94398163D01*
X9628544Y94284895D01*
X9816902Y94206874D01*
X10016861Y94167100D01*
X10078999Y94167100D01*
X15403501Y88842597D01*
X15403500Y78243601D01*
X14160000Y79487101D01*
X14160000Y84512913D01*
X14274482Y84524188D01*
X14394180Y84560498D01*
X14504494Y84619463D01*
X14601185Y84698815D01*
X14680537Y84795506D01*
X14739502Y84905820D01*
X14775812Y85025518D01*
X14788072Y85150000D01*
X14788072Y86650000D01*
X14775812Y86774482D01*
X14739502Y86894180D01*
X14680537Y87004494D01*
X14601185Y87101185D01*
X14504494Y87180537D01*
X14394180Y87239502D01*
X14274482Y87275812D01*
X14150000Y87288072D01*
X12650000Y87288072D01*
X12525518Y87275812D01*
X12405820Y87239502D01*
X12295506Y87180537D01*
X12198815Y87101185D01*
X12119463Y87004494D01*
X12060498Y86894180D01*
X12024188Y86774482D01*
X12011928Y86650000D01*
X12011928Y85150000D01*
X12024188Y85025518D01*
X12060498Y84905820D01*
X12119463Y84795506D01*
X12198815Y84698815D01*
X12295506Y84619463D01*
X12405820Y84560498D01*
X12525518Y84524188D01*
X12640001Y84512913D01*
X12640000Y79209623D01*
X12636324Y79172300D01*
X12640000Y79134978D01*
X12640000Y79134968D01*
X12650997Y79023315D01*
X12676270Y78940000D01*
X12694454Y78880054D01*
X12765026Y78748024D01*
X12804871Y78699474D01*
X12859999Y78632299D01*
X12889003Y78608496D01*
X15798701Y75698797D01*
X15822499Y75669799D01*
X15938224Y75574826D01*
X16070253Y75504254D01*
X16213514Y75460797D01*
X16325167Y75449800D01*
X16325175Y75449800D01*
X16362500Y75446124D01*
X16399825Y75449800D01*
X54872478Y75449800D01*
X54909800Y75446124D01*
X54947122Y75449800D01*
X54947133Y75449800D01*
X55058786Y75460797D01*
X55202047Y75504254D01*
X55334076Y75574826D01*
X55449801Y75669799D01*
X55473604Y75698803D01*
X58714802Y78940000D01*
X59276109Y78940000D01*
X59036627Y78892364D01*
X58716327Y78759692D01*
X58428065Y78567081D01*
X58182919Y78321935D01*
X57990308Y78033673D01*
X57857636Y77713373D01*
X57790000Y77373345D01*
X57790000Y77026655D01*
X57857636Y76686627D01*
X57990308Y76366327D01*
X58182919Y76078065D01*
X58428065Y75832919D01*
X58716327Y75640308D01*
X59036627Y75507636D01*
X59376655Y75440000D01*
X59723345Y75440000D01*
X60063373Y75507636D01*
X60383673Y75640308D01*
X60671935Y75832919D01*
X60917081Y76078065D01*
X61109692Y76366327D01*
X61229903Y76656544D01*
X61257703Y76589430D01*
X61398768Y76378310D01*
X61578310Y76198768D01*
X61789430Y76057703D01*
X62024013Y75960535D01*
X62273045Y75911000D01*
X62526955Y75911000D01*
X62775987Y75960535D01*
X63010570Y76057703D01*
X63221690Y76198768D01*
X63400000Y76377078D01*
X63578310Y76198768D01*
X63789430Y76057703D01*
X64024013Y75960535D01*
X64273045Y75911000D01*
X64526955Y75911000D01*
X64775987Y75960535D01*
X65010570Y76057703D01*
X65221690Y76198768D01*
X65400000Y76377078D01*
X65578310Y76198768D01*
X65789430Y76057703D01*
X66024013Y75960535D01*
X66273045Y75911000D01*
X66526955Y75911000D01*
X66775987Y75960535D01*
X67010570Y76057703D01*
X67221690Y76198768D01*
X67401232Y76378310D01*
X67542297Y76589430D01*
X67570097Y76656544D01*
X67690308Y76366327D01*
X67882919Y76078065D01*
X68128065Y75832919D01*
X68416327Y75640308D01*
X68736627Y75507636D01*
X69076655Y75440000D01*
X69423345Y75440000D01*
X69763373Y75507636D01*
X70083673Y75640308D01*
X70371935Y75832919D01*
X70617081Y76078065D01*
X70809692Y76366327D01*
X70942364Y76686627D01*
X71010000Y77026655D01*
X71010000Y77373345D01*
X70942364Y77713373D01*
X70809692Y78033673D01*
X70617081Y78321935D01*
X70371935Y78567081D01*
X70083673Y78759692D01*
X69763373Y78892364D01*
X69423345Y78960000D01*
X69076655Y78960000D01*
X68736627Y78892364D01*
X68416327Y78759692D01*
X68128065Y78567081D01*
X67882919Y78321935D01*
X67690308Y78033673D01*
X67570097Y77743456D01*
X67542297Y77810570D01*
X67401232Y78021690D01*
X67221690Y78201232D01*
X67010570Y78342297D01*
X66775987Y78439465D01*
X66526955Y78489000D01*
X66273045Y78489000D01*
X66024013Y78439465D01*
X65789430Y78342297D01*
X65578310Y78201232D01*
X65400000Y78022922D01*
X65221690Y78201232D01*
X65010570Y78342297D01*
X64775987Y78439465D01*
X64526955Y78489000D01*
X64273045Y78489000D01*
X64024013Y78439465D01*
X63789430Y78342297D01*
X63578310Y78201232D01*
X63400000Y78022922D01*
X63221690Y78201232D01*
X63010570Y78342297D01*
X62775987Y78439465D01*
X62526955Y78489000D01*
X62273045Y78489000D01*
X62024013Y78439465D01*
X61789430Y78342297D01*
X61578310Y78201232D01*
X61398768Y78021690D01*
X61257703Y77810570D01*
X61229903Y77743456D01*
X61109692Y78033673D01*
X60917081Y78321935D01*
X60671935Y78567081D01*
X60383673Y78759692D01*
X60063373Y78892364D01*
X59823891Y78940000D01*
X68662678Y78940000D01*
X68700000Y78936324D01*
X68737322Y78940000D01*
X68737333Y78940000D01*
X68848986Y78950997D01*
X68992247Y78994454D01*
X69124276Y79065026D01*
X69240001Y79159999D01*
X69263804Y79189003D01*
X71031104Y80956302D01*
X71060101Y80980099D01*
X71125795Y81060147D01*
X71155074Y81095823D01*
X71225646Y81227853D01*
X71241420Y81279853D01*
X71269103Y81371114D01*
X71280100Y81482767D01*
X71280100Y81482776D01*
X71283776Y81520099D01*
X71280100Y81557422D01*
X71280100Y86650000D01*
X95011928Y86650000D01*
X95011928Y85150000D01*
X95024188Y85025518D01*
X95060498Y84905820D01*
X95119463Y84795506D01*
X95198815Y84698815D01*
X95295506Y84619463D01*
X95405820Y84560498D01*
X95525518Y84524188D01*
X95650000Y84511928D01*
X97150000Y84511928D01*
X97274482Y84524188D01*
X97394180Y84560498D01*
X97504494Y84619463D01*
X97601185Y84698815D01*
X97680537Y84795506D01*
X97739502Y84905820D01*
X97775812Y85025518D01*
X97788072Y85150000D01*
X97788072Y86650000D01*
X97775812Y86774482D01*
X97739502Y86894180D01*
X97680537Y87004494D01*
X97601185Y87101185D01*
X97504494Y87180537D01*
X97394180Y87239502D01*
X97274482Y87275812D01*
X97150000Y87288072D01*
X95650000Y87288072D01*
X95525518Y87275812D01*
X95405820Y87239502D01*
X95295506Y87180537D01*
X95198815Y87101185D01*
X95119463Y87004494D01*
X95060498Y86894180D01*
X95024188Y86774482D01*
X95011928Y86650000D01*
X71280100Y86650000D01*
X71280100Y87579289D01*
X71324037Y87623226D01*
X71437305Y87792744D01*
X71515326Y87981102D01*
X71555100Y88181061D01*
X71555100Y88384939D01*
X71515326Y88584898D01*
X71437305Y88773256D01*
X71324037Y88942774D01*
X71179874Y89086937D01*
X71010356Y89200205D01*
X70821998Y89278226D01*
X70622039Y89318000D01*
X70418161Y89318000D01*
X70218202Y89278226D01*
X70029844Y89200205D01*
X69860326Y89086937D01*
X69716163Y88942774D01*
X69602895Y88773256D01*
X69524874Y88584898D01*
X69485100Y88384939D01*
X69485100Y88181061D01*
X69524874Y87981102D01*
X69602895Y87792744D01*
X69716163Y87623226D01*
X69760101Y87579288D01*
X69760100Y81834902D01*
X68385199Y80460000D01*
X58437322Y80460000D01*
X58399999Y80463676D01*
X58362676Y80460000D01*
X58362667Y80460000D01*
X58251014Y80449003D01*
X58107753Y80405546D01*
X57975724Y80334974D01*
X57859999Y80240001D01*
X57836201Y80211003D01*
X54594999Y76969800D01*
X54205497Y76969800D01*
X54255000Y77218665D01*
X54255000Y77501335D01*
X54199853Y77778574D01*
X54091680Y78039727D01*
X53934637Y78274759D01*
X53734759Y78474637D01*
X53502241Y78630000D01*
X53734759Y78785363D01*
X53934637Y78985241D01*
X54091680Y79220273D01*
X54199853Y79481426D01*
X54255000Y79758665D01*
X54255000Y80041335D01*
X54199853Y80318574D01*
X54091680Y80579727D01*
X53934637Y80814759D01*
X53734759Y81014637D01*
X53502241Y81170000D01*
X53734759Y81325363D01*
X53934637Y81525241D01*
X54091680Y81760273D01*
X54199853Y82021426D01*
X54255000Y82298665D01*
X54255000Y82581335D01*
X54199853Y82858574D01*
X54161983Y82950000D01*
X54280978Y82950000D01*
X54318300Y82946324D01*
X54355622Y82950000D01*
X54355633Y82950000D01*
X54467286Y82960997D01*
X54610547Y83004454D01*
X54742576Y83075026D01*
X54858301Y83169999D01*
X54882104Y83199003D01*
X64247802Y92564700D01*
X84959478Y92564700D01*
X84996800Y92561024D01*
X85034122Y92564700D01*
X85034133Y92564700D01*
X85145786Y92575697D01*
X85289047Y92619154D01*
X85421076Y92689726D01*
X85536801Y92784699D01*
X85560603Y92813702D01*
X86069371Y93322469D01*
X86276589Y93184010D01*
X86546842Y93072068D01*
X86833740Y93015000D01*
X87126260Y93015000D01*
X87413158Y93072068D01*
X87683411Y93184010D01*
X87926632Y93346525D01*
X88133475Y93553368D01*
X88250000Y93727760D01*
X88366525Y93553368D01*
X88573368Y93346525D01*
X88816589Y93184010D01*
X89086842Y93072068D01*
X89373740Y93015000D01*
X89666260Y93015000D01*
X89953158Y93072068D01*
X90223411Y93184010D01*
X90466632Y93346525D01*
X90673475Y93553368D01*
X90790000Y93727760D01*
X90906525Y93553368D01*
X91113368Y93346525D01*
X91356589Y93184010D01*
X91626842Y93072068D01*
X91913740Y93015000D01*
X92206260Y93015000D01*
X92493158Y93072068D01*
X92763411Y93184010D01*
X93006632Y93346525D01*
X93213475Y93553368D01*
X93375990Y93796589D01*
X93487932Y94066842D01*
X93545000Y94353740D01*
X93545000Y94646260D01*
X93487932Y94933158D01*
X93375990Y95203411D01*
X93213475Y95446632D01*
X93006632Y95653475D01*
X92763411Y95815990D01*
X92493158Y95927932D01*
X92206260Y95985000D01*
X91913740Y95985000D01*
X91626842Y95927932D01*
X91356589Y95815990D01*
X91149311Y95677491D01*
X90631503Y96195298D01*
X90607701Y96224301D01*
X90491976Y96319274D01*
X90453201Y96340000D01*
X98240001Y96340000D01*
X98240000Y75360000D01*
X78867581Y75360000D01*
X78834613Y75356753D01*
X78821633Y75356753D01*
X78812468Y75355790D01*
X78618518Y75334035D01*
X78560019Y75321600D01*
X78501325Y75309978D01*
X78492522Y75307253D01*
X78306491Y75248240D01*
X78251509Y75224674D01*
X78196206Y75201880D01*
X78188100Y75197497D01*
X78153071Y75178239D01*
X78069205Y75234277D01*
X77908145Y75300990D01*
X77737165Y75335000D01*
X77562835Y75335000D01*
X77391855Y75300990D01*
X77275000Y75252587D01*
X77158145Y75300990D01*
X76987165Y75335000D01*
X76812835Y75335000D01*
X76641855Y75300990D01*
X76525000Y75252587D01*
X76408145Y75300990D01*
X76237165Y75335000D01*
X76062835Y75335000D01*
X75891855Y75300990D01*
X75730795Y75234277D01*
X75646323Y75177834D01*
X75590921Y75207292D01*
X75535606Y75230091D01*
X75480634Y75253652D01*
X75471831Y75256377D01*
X75284995Y75312786D01*
X75226307Y75324406D01*
X75167804Y75336842D01*
X75158639Y75337805D01*
X74964405Y75356850D01*
X74964402Y75356850D01*
X74932419Y75360000D01*
X55967581Y75360000D01*
X55934613Y75356753D01*
X55921633Y75356753D01*
X55912468Y75355790D01*
X55718518Y75334035D01*
X55660019Y75321600D01*
X55601325Y75309978D01*
X55592522Y75307253D01*
X55406491Y75248240D01*
X55351509Y75224674D01*
X55296206Y75201880D01*
X55288100Y75197497D01*
X55253071Y75178239D01*
X55169205Y75234277D01*
X55008145Y75300990D01*
X54837165Y75335000D01*
X54662835Y75335000D01*
X54491855Y75300990D01*
X54375000Y75252587D01*
X54258145Y75300990D01*
X54087165Y75335000D01*
X53912835Y75335000D01*
X53741855Y75300990D01*
X53625000Y75252587D01*
X53508145Y75300990D01*
X53337165Y75335000D01*
X53162835Y75335000D01*
X52991855Y75300990D01*
X52830795Y75234277D01*
X52746323Y75177834D01*
X52690921Y75207292D01*
X52635606Y75230091D01*
X52580634Y75253652D01*
X52571831Y75256377D01*
X52384995Y75312786D01*
X52326307Y75324406D01*
X52267804Y75336842D01*
X52258639Y75337805D01*
X52064405Y75356850D01*
X52064402Y75356850D01*
X52032419Y75360000D01*
X30967581Y75360000D01*
X30934613Y75356753D01*
X30921633Y75356753D01*
X30912468Y75355790D01*
X30718518Y75334035D01*
X30660019Y75321600D01*
X30601325Y75309978D01*
X30592522Y75307253D01*
X30406491Y75248240D01*
X30351509Y75224674D01*
X30296206Y75201880D01*
X30288100Y75197497D01*
X30253071Y75178239D01*
X30169205Y75234277D01*
X30008145Y75300990D01*
X29837165Y75335000D01*
X29662835Y75335000D01*
X29491855Y75300990D01*
X29375000Y75252587D01*
X29258145Y75300990D01*
X29087165Y75335000D01*
X28912835Y75335000D01*
X28741855Y75300990D01*
X28625000Y75252587D01*
X28508145Y75300990D01*
X28337165Y75335000D01*
X28162835Y75335000D01*
X27991855Y75300990D01*
X27830795Y75234277D01*
X27746323Y75177834D01*
X27690921Y75207292D01*
X27635606Y75230091D01*
X27580634Y75253652D01*
X27571831Y75256377D01*
X27384995Y75312786D01*
X27326307Y75324406D01*
X27267804Y75336842D01*
X27258639Y75337805D01*
X27064405Y75356850D01*
X27064402Y75356850D01*
X27032419Y75360000D01*
X7660000Y75360000D01*
X7660000Y77040000D01*
X9067591Y77040000D01*
X9100000Y77036808D01*
X9132409Y77040000D01*
X9132419Y77040000D01*
X9229383Y77049550D01*
X9353793Y77087290D01*
X9468450Y77148575D01*
X9568948Y77231052D01*
X9589616Y77256236D01*
X10343769Y78010388D01*
X10368948Y78031052D01*
X10451425Y78131550D01*
X10512710Y78246207D01*
X10550450Y78370617D01*
X10560000Y78467581D01*
X10560000Y78467591D01*
X10563192Y78500000D01*
X10560000Y78532409D01*
X10560000Y92967591D01*
X10563192Y93000000D01*
X10560000Y93032409D01*
X10560000Y93032419D01*
X10550450Y93129383D01*
X10512710Y93253793D01*
X10451425Y93368450D01*
X10368948Y93468948D01*
X10343770Y93489611D01*
X9589616Y94243764D01*
X9568948Y94268948D01*
X9468450Y94351425D01*
X9353793Y94412710D01*
X9229383Y94450450D01*
X9132419Y94460000D01*
X9132409Y94460000D01*
X9100000Y94463192D01*
X9067591Y94460000D01*
X7660000Y94460000D01*
X7660000Y96340000D01*
X22596599Y96340000D01*
X22557824Y96319274D01*
%TA.AperFunction,Conductor*%
D21*
G36*
X22557824Y96319274D02*
G01*
X22442099Y96224301D01*
X22418301Y96195303D01*
X20080399Y93857400D01*
X20018261Y93857400D01*
X19818302Y93817626D01*
X19629944Y93739605D01*
X19460426Y93626337D01*
X19316263Y93482174D01*
X19202995Y93312656D01*
X19124974Y93124298D01*
X19085200Y92924339D01*
X19085200Y92720461D01*
X19124974Y92520502D01*
X19202995Y92332144D01*
X19316263Y92162626D01*
X19460426Y92018463D01*
X19629944Y91905195D01*
X19818302Y91827174D01*
X20018261Y91787400D01*
X20222139Y91787400D01*
X20422098Y91827174D01*
X20610456Y91905195D01*
X20779974Y92018463D01*
X20924137Y92162626D01*
X21037405Y92332144D01*
X21115426Y92520502D01*
X21155200Y92720461D01*
X21155200Y92782599D01*
X23296902Y94924300D01*
X80414246Y94924300D01*
X80415000Y94785750D01*
X80573750Y94627000D01*
X81773000Y94627000D01*
X81773000Y94647000D01*
X82027000Y94647000D01*
X82027000Y94627000D01*
X82047000Y94627000D01*
X82047000Y94373000D01*
X82027000Y94373000D01*
X82027000Y94353000D01*
X81773000Y94353000D01*
X81773000Y94373000D01*
X80573750Y94373000D01*
X80415000Y94214250D01*
X80414295Y94084700D01*
X63970322Y94084700D01*
X63932999Y94088376D01*
X63895676Y94084700D01*
X63895667Y94084700D01*
X63784014Y94073703D01*
X63656425Y94035000D01*
X63640753Y94030246D01*
X63508723Y93959674D01*
X63471814Y93929383D01*
X63392999Y93864701D01*
X63369201Y93835703D01*
X54225907Y84692408D01*
X54255000Y84838665D01*
X54255000Y85121335D01*
X54199853Y85398574D01*
X54091680Y85659727D01*
X53934637Y85894759D01*
X53734759Y86094637D01*
X53502241Y86250000D01*
X53734759Y86405363D01*
X53934637Y86605241D01*
X54091680Y86840273D01*
X54199853Y87101426D01*
X54255000Y87378665D01*
X54255000Y87661335D01*
X54199853Y87938574D01*
X54091680Y88199727D01*
X53934637Y88434759D01*
X53734759Y88634637D01*
X53502241Y88790000D01*
X53734759Y88945363D01*
X53934637Y89145241D01*
X54091680Y89380273D01*
X54199853Y89641426D01*
X54255000Y89918665D01*
X54255000Y90201335D01*
X54199853Y90478574D01*
X54091680Y90739727D01*
X53934637Y90974759D01*
X53734759Y91174637D01*
X53502241Y91330000D01*
X53734759Y91485363D01*
X53934637Y91685241D01*
X54091680Y91920273D01*
X54199853Y92181426D01*
X54255000Y92458665D01*
X54255000Y92741335D01*
X54199853Y93018574D01*
X54091680Y93279727D01*
X53934637Y93514759D01*
X53734759Y93714637D01*
X53499727Y93871680D01*
X53238574Y93979853D01*
X52961335Y94035000D01*
X52678665Y94035000D01*
X52401426Y93979853D01*
X52140273Y93871680D01*
X51905241Y93714637D01*
X51705363Y93514759D01*
X51548320Y93279727D01*
X51440147Y93018574D01*
X51385000Y92741335D01*
X51385000Y92458665D01*
X51440147Y92181426D01*
X51548320Y91920273D01*
X51705363Y91685241D01*
X51905241Y91485363D01*
X52137759Y91330000D01*
X51905241Y91174637D01*
X51705363Y90974759D01*
X51548320Y90739727D01*
X51440147Y90478574D01*
X51385000Y90201335D01*
X51385000Y89918665D01*
X51440147Y89641426D01*
X51548320Y89380273D01*
X51705363Y89145241D01*
X51905241Y88945363D01*
X52137759Y88790000D01*
X51905241Y88634637D01*
X51705363Y88434759D01*
X51548320Y88199727D01*
X51440147Y87938574D01*
X51385000Y87661335D01*
X51385000Y87378665D01*
X51440147Y87101426D01*
X51548320Y86840273D01*
X51705363Y86605241D01*
X51905241Y86405363D01*
X52137759Y86250000D01*
X51905241Y86094637D01*
X51705363Y85894759D01*
X51548320Y85659727D01*
X51440147Y85398574D01*
X51385000Y85121335D01*
X51385000Y84838665D01*
X51440147Y84561426D01*
X51478017Y84470000D01*
X46541983Y84470000D01*
X46579853Y84561426D01*
X46635000Y84838665D01*
X46635000Y85121335D01*
X46579853Y85398574D01*
X46471680Y85659727D01*
X46327063Y85876162D01*
X46836303Y86385401D01*
X46865301Y86409199D01*
X46960274Y86524924D01*
X47030846Y86656953D01*
X47074303Y86800214D01*
X47085300Y86911867D01*
X47085300Y86911877D01*
X47088976Y86949200D01*
X47085300Y86986523D01*
X47085300Y90593378D01*
X47088976Y90630701D01*
X47085300Y90668024D01*
X47085300Y90668033D01*
X47074303Y90779686D01*
X47030846Y90922947D01*
X46960274Y91054976D01*
X46865301Y91170701D01*
X46836304Y91194498D01*
X46327023Y91703778D01*
X46471680Y91920273D01*
X46579853Y92181426D01*
X46635000Y92458665D01*
X46635000Y92741335D01*
X46579853Y93018574D01*
X46471680Y93279727D01*
X46314637Y93514759D01*
X46114759Y93714637D01*
X45879727Y93871680D01*
X45618574Y93979853D01*
X45341335Y94035000D01*
X45058665Y94035000D01*
X44781426Y93979853D01*
X44520273Y93871680D01*
X44285241Y93714637D01*
X44160053Y93589449D01*
X43231804Y94517697D01*
X43208001Y94546701D01*
X43092276Y94641674D01*
X42960247Y94712246D01*
X42816986Y94755703D01*
X42705333Y94766700D01*
X42705322Y94766700D01*
X42668000Y94770376D01*
X42630678Y94766700D01*
X25819323Y94766700D01*
X25782000Y94770376D01*
X25744677Y94766700D01*
X25744667Y94766700D01*
X25633014Y94755703D01*
X25489753Y94712246D01*
X25357724Y94641674D01*
X25241999Y94546701D01*
X25218201Y94517703D01*
X20617899Y89917400D01*
X16478302Y89917400D01*
X11153800Y95241901D01*
X11153800Y95304039D01*
X11114026Y95503998D01*
X11036005Y95692356D01*
X10922737Y95861874D01*
X10778574Y96006037D01*
X10609056Y96119305D01*
X10420698Y96197326D01*
X10220739Y96237100D01*
X10016861Y96237100D01*
X9816902Y96197326D01*
X9628544Y96119305D01*
X9459026Y96006037D01*
X9314863Y95861874D01*
X9201595Y95692356D01*
X9123574Y95503998D01*
X9083800Y95304039D01*
X9083800Y95100161D01*
X9123574Y94900202D01*
X9201595Y94711844D01*
X9314863Y94542326D01*
X9459026Y94398163D01*
X9628544Y94284895D01*
X9816902Y94206874D01*
X10016861Y94167100D01*
X10078999Y94167100D01*
X15403501Y88842597D01*
X15403500Y78243601D01*
X14160000Y79487101D01*
X14160000Y84512913D01*
X14274482Y84524188D01*
X14394180Y84560498D01*
X14504494Y84619463D01*
X14601185Y84698815D01*
X14680537Y84795506D01*
X14739502Y84905820D01*
X14775812Y85025518D01*
X14788072Y85150000D01*
X14788072Y86650000D01*
X14775812Y86774482D01*
X14739502Y86894180D01*
X14680537Y87004494D01*
X14601185Y87101185D01*
X14504494Y87180537D01*
X14394180Y87239502D01*
X14274482Y87275812D01*
X14150000Y87288072D01*
X12650000Y87288072D01*
X12525518Y87275812D01*
X12405820Y87239502D01*
X12295506Y87180537D01*
X12198815Y87101185D01*
X12119463Y87004494D01*
X12060498Y86894180D01*
X12024188Y86774482D01*
X12011928Y86650000D01*
X12011928Y85150000D01*
X12024188Y85025518D01*
X12060498Y84905820D01*
X12119463Y84795506D01*
X12198815Y84698815D01*
X12295506Y84619463D01*
X12405820Y84560498D01*
X12525518Y84524188D01*
X12640001Y84512913D01*
X12640000Y79209623D01*
X12636324Y79172300D01*
X12640000Y79134978D01*
X12640000Y79134968D01*
X12650997Y79023315D01*
X12676270Y78940000D01*
X12694454Y78880054D01*
X12765026Y78748024D01*
X12804871Y78699474D01*
X12859999Y78632299D01*
X12889003Y78608496D01*
X15798701Y75698797D01*
X15822499Y75669799D01*
X15938224Y75574826D01*
X16070253Y75504254D01*
X16213514Y75460797D01*
X16325167Y75449800D01*
X16325175Y75449800D01*
X16362500Y75446124D01*
X16399825Y75449800D01*
X54872478Y75449800D01*
X54909800Y75446124D01*
X54947122Y75449800D01*
X54947133Y75449800D01*
X55058786Y75460797D01*
X55202047Y75504254D01*
X55334076Y75574826D01*
X55449801Y75669799D01*
X55473604Y75698803D01*
X58714802Y78940000D01*
X59276109Y78940000D01*
X59036627Y78892364D01*
X58716327Y78759692D01*
X58428065Y78567081D01*
X58182919Y78321935D01*
X57990308Y78033673D01*
X57857636Y77713373D01*
X57790000Y77373345D01*
X57790000Y77026655D01*
X57857636Y76686627D01*
X57990308Y76366327D01*
X58182919Y76078065D01*
X58428065Y75832919D01*
X58716327Y75640308D01*
X59036627Y75507636D01*
X59376655Y75440000D01*
X59723345Y75440000D01*
X60063373Y75507636D01*
X60383673Y75640308D01*
X60671935Y75832919D01*
X60917081Y76078065D01*
X61109692Y76366327D01*
X61229903Y76656544D01*
X61257703Y76589430D01*
X61398768Y76378310D01*
X61578310Y76198768D01*
X61789430Y76057703D01*
X62024013Y75960535D01*
X62273045Y75911000D01*
X62526955Y75911000D01*
X62775987Y75960535D01*
X63010570Y76057703D01*
X63221690Y76198768D01*
X63400000Y76377078D01*
X63578310Y76198768D01*
X63789430Y76057703D01*
X64024013Y75960535D01*
X64273045Y75911000D01*
X64526955Y75911000D01*
X64775987Y75960535D01*
X65010570Y76057703D01*
X65221690Y76198768D01*
X65400000Y76377078D01*
X65578310Y76198768D01*
X65789430Y76057703D01*
X66024013Y75960535D01*
X66273045Y75911000D01*
X66526955Y75911000D01*
X66775987Y75960535D01*
X67010570Y76057703D01*
X67221690Y76198768D01*
X67401232Y76378310D01*
X67542297Y76589430D01*
X67570097Y76656544D01*
X67690308Y76366327D01*
X67882919Y76078065D01*
X68128065Y75832919D01*
X68416327Y75640308D01*
X68736627Y75507636D01*
X69076655Y75440000D01*
X69423345Y75440000D01*
X69763373Y75507636D01*
X70083673Y75640308D01*
X70371935Y75832919D01*
X70617081Y76078065D01*
X70809692Y76366327D01*
X70942364Y76686627D01*
X71010000Y77026655D01*
X71010000Y77373345D01*
X70942364Y77713373D01*
X70809692Y78033673D01*
X70617081Y78321935D01*
X70371935Y78567081D01*
X70083673Y78759692D01*
X69763373Y78892364D01*
X69423345Y78960000D01*
X69076655Y78960000D01*
X68736627Y78892364D01*
X68416327Y78759692D01*
X68128065Y78567081D01*
X67882919Y78321935D01*
X67690308Y78033673D01*
X67570097Y77743456D01*
X67542297Y77810570D01*
X67401232Y78021690D01*
X67221690Y78201232D01*
X67010570Y78342297D01*
X66775987Y78439465D01*
X66526955Y78489000D01*
X66273045Y78489000D01*
X66024013Y78439465D01*
X65789430Y78342297D01*
X65578310Y78201232D01*
X65400000Y78022922D01*
X65221690Y78201232D01*
X65010570Y78342297D01*
X64775987Y78439465D01*
X64526955Y78489000D01*
X64273045Y78489000D01*
X64024013Y78439465D01*
X63789430Y78342297D01*
X63578310Y78201232D01*
X63400000Y78022922D01*
X63221690Y78201232D01*
X63010570Y78342297D01*
X62775987Y78439465D01*
X62526955Y78489000D01*
X62273045Y78489000D01*
X62024013Y78439465D01*
X61789430Y78342297D01*
X61578310Y78201232D01*
X61398768Y78021690D01*
X61257703Y77810570D01*
X61229903Y77743456D01*
X61109692Y78033673D01*
X60917081Y78321935D01*
X60671935Y78567081D01*
X60383673Y78759692D01*
X60063373Y78892364D01*
X59823891Y78940000D01*
X68662678Y78940000D01*
X68700000Y78936324D01*
X68737322Y78940000D01*
X68737333Y78940000D01*
X68848986Y78950997D01*
X68992247Y78994454D01*
X69124276Y79065026D01*
X69240001Y79159999D01*
X69263804Y79189003D01*
X71031104Y80956302D01*
X71060101Y80980099D01*
X71125795Y81060147D01*
X71155074Y81095823D01*
X71225646Y81227853D01*
X71241420Y81279853D01*
X71269103Y81371114D01*
X71280100Y81482767D01*
X71280100Y81482776D01*
X71283776Y81520099D01*
X71280100Y81557422D01*
X71280100Y86650000D01*
X95011928Y86650000D01*
X95011928Y85150000D01*
X95024188Y85025518D01*
X95060498Y84905820D01*
X95119463Y84795506D01*
X95198815Y84698815D01*
X95295506Y84619463D01*
X95405820Y84560498D01*
X95525518Y84524188D01*
X95650000Y84511928D01*
X97150000Y84511928D01*
X97274482Y84524188D01*
X97394180Y84560498D01*
X97504494Y84619463D01*
X97601185Y84698815D01*
X97680537Y84795506D01*
X97739502Y84905820D01*
X97775812Y85025518D01*
X97788072Y85150000D01*
X97788072Y86650000D01*
X97775812Y86774482D01*
X97739502Y86894180D01*
X97680537Y87004494D01*
X97601185Y87101185D01*
X97504494Y87180537D01*
X97394180Y87239502D01*
X97274482Y87275812D01*
X97150000Y87288072D01*
X95650000Y87288072D01*
X95525518Y87275812D01*
X95405820Y87239502D01*
X95295506Y87180537D01*
X95198815Y87101185D01*
X95119463Y87004494D01*
X95060498Y86894180D01*
X95024188Y86774482D01*
X95011928Y86650000D01*
X71280100Y86650000D01*
X71280100Y87579289D01*
X71324037Y87623226D01*
X71437305Y87792744D01*
X71515326Y87981102D01*
X71555100Y88181061D01*
X71555100Y88384939D01*
X71515326Y88584898D01*
X71437305Y88773256D01*
X71324037Y88942774D01*
X71179874Y89086937D01*
X71010356Y89200205D01*
X70821998Y89278226D01*
X70622039Y89318000D01*
X70418161Y89318000D01*
X70218202Y89278226D01*
X70029844Y89200205D01*
X69860326Y89086937D01*
X69716163Y88942774D01*
X69602895Y88773256D01*
X69524874Y88584898D01*
X69485100Y88384939D01*
X69485100Y88181061D01*
X69524874Y87981102D01*
X69602895Y87792744D01*
X69716163Y87623226D01*
X69760101Y87579288D01*
X69760100Y81834902D01*
X68385199Y80460000D01*
X58437322Y80460000D01*
X58399999Y80463676D01*
X58362676Y80460000D01*
X58362667Y80460000D01*
X58251014Y80449003D01*
X58107753Y80405546D01*
X57975724Y80334974D01*
X57859999Y80240001D01*
X57836201Y80211003D01*
X54594999Y76969800D01*
X54205497Y76969800D01*
X54255000Y77218665D01*
X54255000Y77501335D01*
X54199853Y77778574D01*
X54091680Y78039727D01*
X53934637Y78274759D01*
X53734759Y78474637D01*
X53502241Y78630000D01*
X53734759Y78785363D01*
X53934637Y78985241D01*
X54091680Y79220273D01*
X54199853Y79481426D01*
X54255000Y79758665D01*
X54255000Y80041335D01*
X54199853Y80318574D01*
X54091680Y80579727D01*
X53934637Y80814759D01*
X53734759Y81014637D01*
X53502241Y81170000D01*
X53734759Y81325363D01*
X53934637Y81525241D01*
X54091680Y81760273D01*
X54199853Y82021426D01*
X54255000Y82298665D01*
X54255000Y82581335D01*
X54199853Y82858574D01*
X54161983Y82950000D01*
X54280978Y82950000D01*
X54318300Y82946324D01*
X54355622Y82950000D01*
X54355633Y82950000D01*
X54467286Y82960997D01*
X54610547Y83004454D01*
X54742576Y83075026D01*
X54858301Y83169999D01*
X54882104Y83199003D01*
X64247802Y92564700D01*
X84959478Y92564700D01*
X84996800Y92561024D01*
X85034122Y92564700D01*
X85034133Y92564700D01*
X85145786Y92575697D01*
X85289047Y92619154D01*
X85421076Y92689726D01*
X85536801Y92784699D01*
X85560603Y92813702D01*
X86069371Y93322469D01*
X86276589Y93184010D01*
X86546842Y93072068D01*
X86833740Y93015000D01*
X87126260Y93015000D01*
X87413158Y93072068D01*
X87683411Y93184010D01*
X87926632Y93346525D01*
X88133475Y93553368D01*
X88250000Y93727760D01*
X88366525Y93553368D01*
X88573368Y93346525D01*
X88816589Y93184010D01*
X89086842Y93072068D01*
X89373740Y93015000D01*
X89666260Y93015000D01*
X89953158Y93072068D01*
X90223411Y93184010D01*
X90466632Y93346525D01*
X90673475Y93553368D01*
X90790000Y93727760D01*
X90906525Y93553368D01*
X91113368Y93346525D01*
X91356589Y93184010D01*
X91626842Y93072068D01*
X91913740Y93015000D01*
X92206260Y93015000D01*
X92493158Y93072068D01*
X92763411Y93184010D01*
X93006632Y93346525D01*
X93213475Y93553368D01*
X93375990Y93796589D01*
X93487932Y94066842D01*
X93545000Y94353740D01*
X93545000Y94646260D01*
X93487932Y94933158D01*
X93375990Y95203411D01*
X93213475Y95446632D01*
X93006632Y95653475D01*
X92763411Y95815990D01*
X92493158Y95927932D01*
X92206260Y95985000D01*
X91913740Y95985000D01*
X91626842Y95927932D01*
X91356589Y95815990D01*
X91149311Y95677491D01*
X90631503Y96195298D01*
X90607701Y96224301D01*
X90491976Y96319274D01*
X90453201Y96340000D01*
X98240001Y96340000D01*
X98240000Y75360000D01*
X78867581Y75360000D01*
X78834613Y75356753D01*
X78821633Y75356753D01*
X78812468Y75355790D01*
X78618518Y75334035D01*
X78560019Y75321600D01*
X78501325Y75309978D01*
X78492522Y75307253D01*
X78306491Y75248240D01*
X78251509Y75224674D01*
X78196206Y75201880D01*
X78188100Y75197497D01*
X78153071Y75178239D01*
X78069205Y75234277D01*
X77908145Y75300990D01*
X77737165Y75335000D01*
X77562835Y75335000D01*
X77391855Y75300990D01*
X77275000Y75252587D01*
X77158145Y75300990D01*
X76987165Y75335000D01*
X76812835Y75335000D01*
X76641855Y75300990D01*
X76525000Y75252587D01*
X76408145Y75300990D01*
X76237165Y75335000D01*
X76062835Y75335000D01*
X75891855Y75300990D01*
X75730795Y75234277D01*
X75646323Y75177834D01*
X75590921Y75207292D01*
X75535606Y75230091D01*
X75480634Y75253652D01*
X75471831Y75256377D01*
X75284995Y75312786D01*
X75226307Y75324406D01*
X75167804Y75336842D01*
X75158639Y75337805D01*
X74964405Y75356850D01*
X74964402Y75356850D01*
X74932419Y75360000D01*
X55967581Y75360000D01*
X55934613Y75356753D01*
X55921633Y75356753D01*
X55912468Y75355790D01*
X55718518Y75334035D01*
X55660019Y75321600D01*
X55601325Y75309978D01*
X55592522Y75307253D01*
X55406491Y75248240D01*
X55351509Y75224674D01*
X55296206Y75201880D01*
X55288100Y75197497D01*
X55253071Y75178239D01*
X55169205Y75234277D01*
X55008145Y75300990D01*
X54837165Y75335000D01*
X54662835Y75335000D01*
X54491855Y75300990D01*
X54375000Y75252587D01*
X54258145Y75300990D01*
X54087165Y75335000D01*
X53912835Y75335000D01*
X53741855Y75300990D01*
X53625000Y75252587D01*
X53508145Y75300990D01*
X53337165Y75335000D01*
X53162835Y75335000D01*
X52991855Y75300990D01*
X52830795Y75234277D01*
X52746323Y75177834D01*
X52690921Y75207292D01*
X52635606Y75230091D01*
X52580634Y75253652D01*
X52571831Y75256377D01*
X52384995Y75312786D01*
X52326307Y75324406D01*
X52267804Y75336842D01*
X52258639Y75337805D01*
X52064405Y75356850D01*
X52064402Y75356850D01*
X52032419Y75360000D01*
X30967581Y75360000D01*
X30934613Y75356753D01*
X30921633Y75356753D01*
X30912468Y75355790D01*
X30718518Y75334035D01*
X30660019Y75321600D01*
X30601325Y75309978D01*
X30592522Y75307253D01*
X30406491Y75248240D01*
X30351509Y75224674D01*
X30296206Y75201880D01*
X30288100Y75197497D01*
X30253071Y75178239D01*
X30169205Y75234277D01*
X30008145Y75300990D01*
X29837165Y75335000D01*
X29662835Y75335000D01*
X29491855Y75300990D01*
X29375000Y75252587D01*
X29258145Y75300990D01*
X29087165Y75335000D01*
X28912835Y75335000D01*
X28741855Y75300990D01*
X28625000Y75252587D01*
X28508145Y75300990D01*
X28337165Y75335000D01*
X28162835Y75335000D01*
X27991855Y75300990D01*
X27830795Y75234277D01*
X27746323Y75177834D01*
X27690921Y75207292D01*
X27635606Y75230091D01*
X27580634Y75253652D01*
X27571831Y75256377D01*
X27384995Y75312786D01*
X27326307Y75324406D01*
X27267804Y75336842D01*
X27258639Y75337805D01*
X27064405Y75356850D01*
X27064402Y75356850D01*
X27032419Y75360000D01*
X7660000Y75360000D01*
X7660000Y77040000D01*
X9067591Y77040000D01*
X9100000Y77036808D01*
X9132409Y77040000D01*
X9132419Y77040000D01*
X9229383Y77049550D01*
X9353793Y77087290D01*
X9468450Y77148575D01*
X9568948Y77231052D01*
X9589616Y77256236D01*
X10343769Y78010388D01*
X10368948Y78031052D01*
X10451425Y78131550D01*
X10512710Y78246207D01*
X10550450Y78370617D01*
X10560000Y78467581D01*
X10560000Y78467591D01*
X10563192Y78500000D01*
X10560000Y78532409D01*
X10560000Y92967591D01*
X10563192Y93000000D01*
X10560000Y93032409D01*
X10560000Y93032419D01*
X10550450Y93129383D01*
X10512710Y93253793D01*
X10451425Y93368450D01*
X10368948Y93468948D01*
X10343770Y93489611D01*
X9589616Y94243764D01*
X9568948Y94268948D01*
X9468450Y94351425D01*
X9353793Y94412710D01*
X9229383Y94450450D01*
X9132419Y94460000D01*
X9132409Y94460000D01*
X9100000Y94463192D01*
X9067591Y94460000D01*
X7660000Y94460000D01*
X7660000Y96340000D01*
X22596599Y96340000D01*
X22557824Y96319274D01*
G37*
%TD.AperFunction*%
%TD*%
D20*
%TO.N,GND*%
X22557824Y72019274D02*
X22442099Y71924301D01*
X22418301Y71895303D01*
X20080399Y69557400D01*
X20018261Y69557400D01*
X19818302Y69517626D01*
X19629944Y69439605D01*
X19460426Y69326337D01*
X19316263Y69182174D01*
X19202995Y69012656D01*
X19124974Y68824298D01*
X19085200Y68624339D01*
X19085200Y68420461D01*
X19124974Y68220502D01*
X19202995Y68032144D01*
X19316263Y67862626D01*
X19460426Y67718463D01*
X19629944Y67605195D01*
X19818302Y67527174D01*
X20018261Y67487400D01*
X20222139Y67487400D01*
X20422098Y67527174D01*
X20610456Y67605195D01*
X20779974Y67718463D01*
X20924137Y67862626D01*
X21037405Y68032144D01*
X21115426Y68220502D01*
X21155200Y68420461D01*
X21155200Y68482599D01*
X23296902Y70624300D01*
X80414246Y70624300D01*
X80415000Y70485750D01*
X80573750Y70327000D01*
X81773000Y70327000D01*
X81773000Y70347000D01*
X82027000Y70347000D01*
X82027000Y70327000D01*
X82047000Y70327000D01*
X82047000Y70073000D01*
X82027000Y70073000D01*
X82027000Y70053000D01*
X81773000Y70053000D01*
X81773000Y70073000D01*
X80573750Y70073000D01*
X80415000Y69914250D01*
X80414295Y69784700D01*
X63970322Y69784700D01*
X63932999Y69788376D01*
X63895676Y69784700D01*
X63895667Y69784700D01*
X63784014Y69773703D01*
X63656425Y69735000D01*
X63640753Y69730246D01*
X63508723Y69659674D01*
X63471814Y69629383D01*
X63392999Y69564701D01*
X63369201Y69535703D01*
X54225907Y60392408D01*
X54255000Y60538665D01*
X54255000Y60821335D01*
X54199853Y61098574D01*
X54091680Y61359727D01*
X53934637Y61594759D01*
X53734759Y61794637D01*
X53502241Y61950000D01*
X53734759Y62105363D01*
X53934637Y62305241D01*
X54091680Y62540273D01*
X54199853Y62801426D01*
X54255000Y63078665D01*
X54255000Y63361335D01*
X54199853Y63638574D01*
X54091680Y63899727D01*
X53934637Y64134759D01*
X53734759Y64334637D01*
X53502241Y64490000D01*
X53734759Y64645363D01*
X53934637Y64845241D01*
X54091680Y65080273D01*
X54199853Y65341426D01*
X54255000Y65618665D01*
X54255000Y65901335D01*
X54199853Y66178574D01*
X54091680Y66439727D01*
X53934637Y66674759D01*
X53734759Y66874637D01*
X53502241Y67030000D01*
X53734759Y67185363D01*
X53934637Y67385241D01*
X54091680Y67620273D01*
X54199853Y67881426D01*
X54255000Y68158665D01*
X54255000Y68441335D01*
X54199853Y68718574D01*
X54091680Y68979727D01*
X53934637Y69214759D01*
X53734759Y69414637D01*
X53499727Y69571680D01*
X53238574Y69679853D01*
X52961335Y69735000D01*
X52678665Y69735000D01*
X52401426Y69679853D01*
X52140273Y69571680D01*
X51905241Y69414637D01*
X51705363Y69214759D01*
X51548320Y68979727D01*
X51440147Y68718574D01*
X51385000Y68441335D01*
X51385000Y68158665D01*
X51440147Y67881426D01*
X51548320Y67620273D01*
X51705363Y67385241D01*
X51905241Y67185363D01*
X52137759Y67030000D01*
X51905241Y66874637D01*
X51705363Y66674759D01*
X51548320Y66439727D01*
X51440147Y66178574D01*
X51385000Y65901335D01*
X51385000Y65618665D01*
X51440147Y65341426D01*
X51548320Y65080273D01*
X51705363Y64845241D01*
X51905241Y64645363D01*
X52137759Y64490000D01*
X51905241Y64334637D01*
X51705363Y64134759D01*
X51548320Y63899727D01*
X51440147Y63638574D01*
X51385000Y63361335D01*
X51385000Y63078665D01*
X51440147Y62801426D01*
X51548320Y62540273D01*
X51705363Y62305241D01*
X51905241Y62105363D01*
X52137759Y61950000D01*
X51905241Y61794637D01*
X51705363Y61594759D01*
X51548320Y61359727D01*
X51440147Y61098574D01*
X51385000Y60821335D01*
X51385000Y60538665D01*
X51440147Y60261426D01*
X51478017Y60170000D01*
X46541983Y60170000D01*
X46579853Y60261426D01*
X46635000Y60538665D01*
X46635000Y60821335D01*
X46579853Y61098574D01*
X46471680Y61359727D01*
X46327063Y61576162D01*
X46836303Y62085401D01*
X46865301Y62109199D01*
X46960274Y62224924D01*
X47030846Y62356953D01*
X47074303Y62500214D01*
X47085300Y62611867D01*
X47085300Y62611877D01*
X47088976Y62649200D01*
X47085300Y62686523D01*
X47085300Y66293378D01*
X47088976Y66330701D01*
X47085300Y66368024D01*
X47085300Y66368033D01*
X47074303Y66479686D01*
X47030846Y66622947D01*
X46960274Y66754976D01*
X46865301Y66870701D01*
X46836304Y66894498D01*
X46327023Y67403778D01*
X46471680Y67620273D01*
X46579853Y67881426D01*
X46635000Y68158665D01*
X46635000Y68441335D01*
X46579853Y68718574D01*
X46471680Y68979727D01*
X46314637Y69214759D01*
X46114759Y69414637D01*
X45879727Y69571680D01*
X45618574Y69679853D01*
X45341335Y69735000D01*
X45058665Y69735000D01*
X44781426Y69679853D01*
X44520273Y69571680D01*
X44285241Y69414637D01*
X44160053Y69289449D01*
X43231804Y70217697D01*
X43208001Y70246701D01*
X43092276Y70341674D01*
X42960247Y70412246D01*
X42816986Y70455703D01*
X42705333Y70466700D01*
X42705322Y70466700D01*
X42668000Y70470376D01*
X42630678Y70466700D01*
X25819323Y70466700D01*
X25782000Y70470376D01*
X25744677Y70466700D01*
X25744667Y70466700D01*
X25633014Y70455703D01*
X25489753Y70412246D01*
X25357724Y70341674D01*
X25241999Y70246701D01*
X25218201Y70217703D01*
X20617899Y65617400D01*
X16478302Y65617400D01*
X11153800Y70941901D01*
X11153800Y71004039D01*
X11114026Y71203998D01*
X11036005Y71392356D01*
X10922737Y71561874D01*
X10778574Y71706037D01*
X10609056Y71819305D01*
X10420698Y71897326D01*
X10220739Y71937100D01*
X10016861Y71937100D01*
X9816902Y71897326D01*
X9628544Y71819305D01*
X9459026Y71706037D01*
X9314863Y71561874D01*
X9201595Y71392356D01*
X9123574Y71203998D01*
X9083800Y71004039D01*
X9083800Y70800161D01*
X9123574Y70600202D01*
X9201595Y70411844D01*
X9314863Y70242326D01*
X9459026Y70098163D01*
X9628544Y69984895D01*
X9816902Y69906874D01*
X10016861Y69867100D01*
X10078999Y69867100D01*
X15403501Y64542597D01*
X15403500Y53943601D01*
X14160000Y55187101D01*
X14160000Y60212913D01*
X14274482Y60224188D01*
X14394180Y60260498D01*
X14504494Y60319463D01*
X14601185Y60398815D01*
X14680537Y60495506D01*
X14739502Y60605820D01*
X14775812Y60725518D01*
X14788072Y60850000D01*
X14788072Y62350000D01*
X14775812Y62474482D01*
X14739502Y62594180D01*
X14680537Y62704494D01*
X14601185Y62801185D01*
X14504494Y62880537D01*
X14394180Y62939502D01*
X14274482Y62975812D01*
X14150000Y62988072D01*
X12650000Y62988072D01*
X12525518Y62975812D01*
X12405820Y62939502D01*
X12295506Y62880537D01*
X12198815Y62801185D01*
X12119463Y62704494D01*
X12060498Y62594180D01*
X12024188Y62474482D01*
X12011928Y62350000D01*
X12011928Y60850000D01*
X12024188Y60725518D01*
X12060498Y60605820D01*
X12119463Y60495506D01*
X12198815Y60398815D01*
X12295506Y60319463D01*
X12405820Y60260498D01*
X12525518Y60224188D01*
X12640001Y60212913D01*
X12640000Y54909623D01*
X12636324Y54872300D01*
X12640000Y54834978D01*
X12640000Y54834968D01*
X12650997Y54723315D01*
X12676270Y54640000D01*
X12694454Y54580054D01*
X12765026Y54448024D01*
X12804871Y54399474D01*
X12859999Y54332299D01*
X12889003Y54308496D01*
X15798701Y51398797D01*
X15822499Y51369799D01*
X15938224Y51274826D01*
X16070253Y51204254D01*
X16213514Y51160797D01*
X16325167Y51149800D01*
X16325175Y51149800D01*
X16362500Y51146124D01*
X16399825Y51149800D01*
X54872478Y51149800D01*
X54909800Y51146124D01*
X54947122Y51149800D01*
X54947133Y51149800D01*
X55058786Y51160797D01*
X55202047Y51204254D01*
X55334076Y51274826D01*
X55449801Y51369799D01*
X55473604Y51398803D01*
X58714802Y54640000D01*
X59276109Y54640000D01*
X59036627Y54592364D01*
X58716327Y54459692D01*
X58428065Y54267081D01*
X58182919Y54021935D01*
X57990308Y53733673D01*
X57857636Y53413373D01*
X57790000Y53073345D01*
X57790000Y52726655D01*
X57857636Y52386627D01*
X57990308Y52066327D01*
X58182919Y51778065D01*
X58428065Y51532919D01*
X58716327Y51340308D01*
X59036627Y51207636D01*
X59376655Y51140000D01*
X59723345Y51140000D01*
X60063373Y51207636D01*
X60383673Y51340308D01*
X60671935Y51532919D01*
X60917081Y51778065D01*
X61109692Y52066327D01*
X61229903Y52356544D01*
X61257703Y52289430D01*
X61398768Y52078310D01*
X61578310Y51898768D01*
X61789430Y51757703D01*
X62024013Y51660535D01*
X62273045Y51611000D01*
X62526955Y51611000D01*
X62775987Y51660535D01*
X63010570Y51757703D01*
X63221690Y51898768D01*
X63400000Y52077078D01*
X63578310Y51898768D01*
X63789430Y51757703D01*
X64024013Y51660535D01*
X64273045Y51611000D01*
X64526955Y51611000D01*
X64775987Y51660535D01*
X65010570Y51757703D01*
X65221690Y51898768D01*
X65400000Y52077078D01*
X65578310Y51898768D01*
X65789430Y51757703D01*
X66024013Y51660535D01*
X66273045Y51611000D01*
X66526955Y51611000D01*
X66775987Y51660535D01*
X67010570Y51757703D01*
X67221690Y51898768D01*
X67401232Y52078310D01*
X67542297Y52289430D01*
X67570097Y52356544D01*
X67690308Y52066327D01*
X67882919Y51778065D01*
X68128065Y51532919D01*
X68416327Y51340308D01*
X68736627Y51207636D01*
X69076655Y51140000D01*
X69423345Y51140000D01*
X69763373Y51207636D01*
X70083673Y51340308D01*
X70371935Y51532919D01*
X70617081Y51778065D01*
X70809692Y52066327D01*
X70942364Y52386627D01*
X71010000Y52726655D01*
X71010000Y53073345D01*
X70942364Y53413373D01*
X70809692Y53733673D01*
X70617081Y54021935D01*
X70371935Y54267081D01*
X70083673Y54459692D01*
X69763373Y54592364D01*
X69423345Y54660000D01*
X69076655Y54660000D01*
X68736627Y54592364D01*
X68416327Y54459692D01*
X68128065Y54267081D01*
X67882919Y54021935D01*
X67690308Y53733673D01*
X67570097Y53443456D01*
X67542297Y53510570D01*
X67401232Y53721690D01*
X67221690Y53901232D01*
X67010570Y54042297D01*
X66775987Y54139465D01*
X66526955Y54189000D01*
X66273045Y54189000D01*
X66024013Y54139465D01*
X65789430Y54042297D01*
X65578310Y53901232D01*
X65400000Y53722922D01*
X65221690Y53901232D01*
X65010570Y54042297D01*
X64775987Y54139465D01*
X64526955Y54189000D01*
X64273045Y54189000D01*
X64024013Y54139465D01*
X63789430Y54042297D01*
X63578310Y53901232D01*
X63400000Y53722922D01*
X63221690Y53901232D01*
X63010570Y54042297D01*
X62775987Y54139465D01*
X62526955Y54189000D01*
X62273045Y54189000D01*
X62024013Y54139465D01*
X61789430Y54042297D01*
X61578310Y53901232D01*
X61398768Y53721690D01*
X61257703Y53510570D01*
X61229903Y53443456D01*
X61109692Y53733673D01*
X60917081Y54021935D01*
X60671935Y54267081D01*
X60383673Y54459692D01*
X60063373Y54592364D01*
X59823891Y54640000D01*
X68662678Y54640000D01*
X68700000Y54636324D01*
X68737322Y54640000D01*
X68737333Y54640000D01*
X68848986Y54650997D01*
X68992247Y54694454D01*
X69124276Y54765026D01*
X69240001Y54859999D01*
X69263804Y54889003D01*
X71031104Y56656302D01*
X71060101Y56680099D01*
X71125795Y56760147D01*
X71155074Y56795823D01*
X71225646Y56927853D01*
X71241420Y56979853D01*
X71269103Y57071114D01*
X71280100Y57182767D01*
X71280100Y57182776D01*
X71283776Y57220099D01*
X71280100Y57257422D01*
X71280100Y62350000D01*
X95011928Y62350000D01*
X95011928Y60850000D01*
X95024188Y60725518D01*
X95060498Y60605820D01*
X95119463Y60495506D01*
X95198815Y60398815D01*
X95295506Y60319463D01*
X95405820Y60260498D01*
X95525518Y60224188D01*
X95650000Y60211928D01*
X97150000Y60211928D01*
X97274482Y60224188D01*
X97394180Y60260498D01*
X97504494Y60319463D01*
X97601185Y60398815D01*
X97680537Y60495506D01*
X97739502Y60605820D01*
X97775812Y60725518D01*
X97788072Y60850000D01*
X97788072Y62350000D01*
X97775812Y62474482D01*
X97739502Y62594180D01*
X97680537Y62704494D01*
X97601185Y62801185D01*
X97504494Y62880537D01*
X97394180Y62939502D01*
X97274482Y62975812D01*
X97150000Y62988072D01*
X95650000Y62988072D01*
X95525518Y62975812D01*
X95405820Y62939502D01*
X95295506Y62880537D01*
X95198815Y62801185D01*
X95119463Y62704494D01*
X95060498Y62594180D01*
X95024188Y62474482D01*
X95011928Y62350000D01*
X71280100Y62350000D01*
X71280100Y63279289D01*
X71324037Y63323226D01*
X71437305Y63492744D01*
X71515326Y63681102D01*
X71555100Y63881061D01*
X71555100Y64084939D01*
X71515326Y64284898D01*
X71437305Y64473256D01*
X71324037Y64642774D01*
X71179874Y64786937D01*
X71010356Y64900205D01*
X70821998Y64978226D01*
X70622039Y65018000D01*
X70418161Y65018000D01*
X70218202Y64978226D01*
X70029844Y64900205D01*
X69860326Y64786937D01*
X69716163Y64642774D01*
X69602895Y64473256D01*
X69524874Y64284898D01*
X69485100Y64084939D01*
X69485100Y63881061D01*
X69524874Y63681102D01*
X69602895Y63492744D01*
X69716163Y63323226D01*
X69760101Y63279288D01*
X69760100Y57534902D01*
X68385199Y56160000D01*
X58437322Y56160000D01*
X58399999Y56163676D01*
X58362676Y56160000D01*
X58362667Y56160000D01*
X58251014Y56149003D01*
X58107753Y56105546D01*
X57975724Y56034974D01*
X57859999Y55940001D01*
X57836201Y55911003D01*
X54594999Y52669800D01*
X54205497Y52669800D01*
X54255000Y52918665D01*
X54255000Y53201335D01*
X54199853Y53478574D01*
X54091680Y53739727D01*
X53934637Y53974759D01*
X53734759Y54174637D01*
X53502241Y54330000D01*
X53734759Y54485363D01*
X53934637Y54685241D01*
X54091680Y54920273D01*
X54199853Y55181426D01*
X54255000Y55458665D01*
X54255000Y55741335D01*
X54199853Y56018574D01*
X54091680Y56279727D01*
X53934637Y56514759D01*
X53734759Y56714637D01*
X53502241Y56870000D01*
X53734759Y57025363D01*
X53934637Y57225241D01*
X54091680Y57460273D01*
X54199853Y57721426D01*
X54255000Y57998665D01*
X54255000Y58281335D01*
X54199853Y58558574D01*
X54161983Y58650000D01*
X54280978Y58650000D01*
X54318300Y58646324D01*
X54355622Y58650000D01*
X54355633Y58650000D01*
X54467286Y58660997D01*
X54610547Y58704454D01*
X54742576Y58775026D01*
X54858301Y58869999D01*
X54882104Y58899003D01*
X64247802Y68264700D01*
X84959478Y68264700D01*
X84996800Y68261024D01*
X85034122Y68264700D01*
X85034133Y68264700D01*
X85145786Y68275697D01*
X85289047Y68319154D01*
X85421076Y68389726D01*
X85536801Y68484699D01*
X85560603Y68513702D01*
X86069371Y69022469D01*
X86276589Y68884010D01*
X86546842Y68772068D01*
X86833740Y68715000D01*
X87126260Y68715000D01*
X87413158Y68772068D01*
X87683411Y68884010D01*
X87926632Y69046525D01*
X88133475Y69253368D01*
X88250000Y69427760D01*
X88366525Y69253368D01*
X88573368Y69046525D01*
X88816589Y68884010D01*
X89086842Y68772068D01*
X89373740Y68715000D01*
X89666260Y68715000D01*
X89953158Y68772068D01*
X90223411Y68884010D01*
X90466632Y69046525D01*
X90673475Y69253368D01*
X90790000Y69427760D01*
X90906525Y69253368D01*
X91113368Y69046525D01*
X91356589Y68884010D01*
X91626842Y68772068D01*
X91913740Y68715000D01*
X92206260Y68715000D01*
X92493158Y68772068D01*
X92763411Y68884010D01*
X93006632Y69046525D01*
X93213475Y69253368D01*
X93375990Y69496589D01*
X93487932Y69766842D01*
X93545000Y70053740D01*
X93545000Y70346260D01*
X93487932Y70633158D01*
X93375990Y70903411D01*
X93213475Y71146632D01*
X93006632Y71353475D01*
X92763411Y71515990D01*
X92493158Y71627932D01*
X92206260Y71685000D01*
X91913740Y71685000D01*
X91626842Y71627932D01*
X91356589Y71515990D01*
X91149311Y71377491D01*
X90631503Y71895298D01*
X90607701Y71924301D01*
X90491976Y72019274D01*
X90453201Y72040000D01*
X98240001Y72040000D01*
X98240000Y51060000D01*
X78867581Y51060000D01*
X78834613Y51056753D01*
X78821633Y51056753D01*
X78812468Y51055790D01*
X78618518Y51034035D01*
X78560019Y51021600D01*
X78501325Y51009978D01*
X78492522Y51007253D01*
X78306491Y50948240D01*
X78251509Y50924674D01*
X78196206Y50901880D01*
X78188100Y50897497D01*
X78153071Y50878239D01*
X78069205Y50934277D01*
X77908145Y51000990D01*
X77737165Y51035000D01*
X77562835Y51035000D01*
X77391855Y51000990D01*
X77275000Y50952587D01*
X77158145Y51000990D01*
X76987165Y51035000D01*
X76812835Y51035000D01*
X76641855Y51000990D01*
X76525000Y50952587D01*
X76408145Y51000990D01*
X76237165Y51035000D01*
X76062835Y51035000D01*
X75891855Y51000990D01*
X75730795Y50934277D01*
X75646323Y50877834D01*
X75590921Y50907292D01*
X75535606Y50930091D01*
X75480634Y50953652D01*
X75471831Y50956377D01*
X75284995Y51012786D01*
X75226307Y51024406D01*
X75167804Y51036842D01*
X75158639Y51037805D01*
X74964405Y51056850D01*
X74964402Y51056850D01*
X74932419Y51060000D01*
X55967581Y51060000D01*
X55934613Y51056753D01*
X55921633Y51056753D01*
X55912468Y51055790D01*
X55718518Y51034035D01*
X55660019Y51021600D01*
X55601325Y51009978D01*
X55592522Y51007253D01*
X55406491Y50948240D01*
X55351509Y50924674D01*
X55296206Y50901880D01*
X55288100Y50897497D01*
X55253071Y50878239D01*
X55169205Y50934277D01*
X55008145Y51000990D01*
X54837165Y51035000D01*
X54662835Y51035000D01*
X54491855Y51000990D01*
X54375000Y50952587D01*
X54258145Y51000990D01*
X54087165Y51035000D01*
X53912835Y51035000D01*
X53741855Y51000990D01*
X53625000Y50952587D01*
X53508145Y51000990D01*
X53337165Y51035000D01*
X53162835Y51035000D01*
X52991855Y51000990D01*
X52830795Y50934277D01*
X52746323Y50877834D01*
X52690921Y50907292D01*
X52635606Y50930091D01*
X52580634Y50953652D01*
X52571831Y50956377D01*
X52384995Y51012786D01*
X52326307Y51024406D01*
X52267804Y51036842D01*
X52258639Y51037805D01*
X52064405Y51056850D01*
X52064402Y51056850D01*
X52032419Y51060000D01*
X30967581Y51060000D01*
X30934613Y51056753D01*
X30921633Y51056753D01*
X30912468Y51055790D01*
X30718518Y51034035D01*
X30660019Y51021600D01*
X30601325Y51009978D01*
X30592522Y51007253D01*
X30406491Y50948240D01*
X30351509Y50924674D01*
X30296206Y50901880D01*
X30288100Y50897497D01*
X30253071Y50878239D01*
X30169205Y50934277D01*
X30008145Y51000990D01*
X29837165Y51035000D01*
X29662835Y51035000D01*
X29491855Y51000990D01*
X29375000Y50952587D01*
X29258145Y51000990D01*
X29087165Y51035000D01*
X28912835Y51035000D01*
X28741855Y51000990D01*
X28625000Y50952587D01*
X28508145Y51000990D01*
X28337165Y51035000D01*
X28162835Y51035000D01*
X27991855Y51000990D01*
X27830795Y50934277D01*
X27746323Y50877834D01*
X27690921Y50907292D01*
X27635606Y50930091D01*
X27580634Y50953652D01*
X27571831Y50956377D01*
X27384995Y51012786D01*
X27326307Y51024406D01*
X27267804Y51036842D01*
X27258639Y51037805D01*
X27064405Y51056850D01*
X27064402Y51056850D01*
X27032419Y51060000D01*
X7660000Y51060000D01*
X7660000Y52740000D01*
X9067591Y52740000D01*
X9100000Y52736808D01*
X9132409Y52740000D01*
X9132419Y52740000D01*
X9229383Y52749550D01*
X9353793Y52787290D01*
X9468450Y52848575D01*
X9568948Y52931052D01*
X9589616Y52956236D01*
X10343769Y53710388D01*
X10368948Y53731052D01*
X10451425Y53831550D01*
X10512710Y53946207D01*
X10550450Y54070617D01*
X10560000Y54167581D01*
X10560000Y54167591D01*
X10563192Y54200000D01*
X10560000Y54232409D01*
X10560000Y68667591D01*
X10563192Y68700000D01*
X10560000Y68732409D01*
X10560000Y68732419D01*
X10550450Y68829383D01*
X10512710Y68953793D01*
X10451425Y69068450D01*
X10368948Y69168948D01*
X10343770Y69189611D01*
X9589616Y69943764D01*
X9568948Y69968948D01*
X9468450Y70051425D01*
X9353793Y70112710D01*
X9229383Y70150450D01*
X9132419Y70160000D01*
X9132409Y70160000D01*
X9100000Y70163192D01*
X9067591Y70160000D01*
X7660000Y70160000D01*
X7660000Y72040000D01*
X22596599Y72040000D01*
X22557824Y72019274D01*
%TA.AperFunction,Conductor*%
D21*
G36*
X22557824Y72019274D02*
G01*
X22442099Y71924301D01*
X22418301Y71895303D01*
X20080399Y69557400D01*
X20018261Y69557400D01*
X19818302Y69517626D01*
X19629944Y69439605D01*
X19460426Y69326337D01*
X19316263Y69182174D01*
X19202995Y69012656D01*
X19124974Y68824298D01*
X19085200Y68624339D01*
X19085200Y68420461D01*
X19124974Y68220502D01*
X19202995Y68032144D01*
X19316263Y67862626D01*
X19460426Y67718463D01*
X19629944Y67605195D01*
X19818302Y67527174D01*
X20018261Y67487400D01*
X20222139Y67487400D01*
X20422098Y67527174D01*
X20610456Y67605195D01*
X20779974Y67718463D01*
X20924137Y67862626D01*
X21037405Y68032144D01*
X21115426Y68220502D01*
X21155200Y68420461D01*
X21155200Y68482599D01*
X23296902Y70624300D01*
X80414246Y70624300D01*
X80415000Y70485750D01*
X80573750Y70327000D01*
X81773000Y70327000D01*
X81773000Y70347000D01*
X82027000Y70347000D01*
X82027000Y70327000D01*
X82047000Y70327000D01*
X82047000Y70073000D01*
X82027000Y70073000D01*
X82027000Y70053000D01*
X81773000Y70053000D01*
X81773000Y70073000D01*
X80573750Y70073000D01*
X80415000Y69914250D01*
X80414295Y69784700D01*
X63970322Y69784700D01*
X63932999Y69788376D01*
X63895676Y69784700D01*
X63895667Y69784700D01*
X63784014Y69773703D01*
X63656425Y69735000D01*
X63640753Y69730246D01*
X63508723Y69659674D01*
X63471814Y69629383D01*
X63392999Y69564701D01*
X63369201Y69535703D01*
X54225907Y60392408D01*
X54255000Y60538665D01*
X54255000Y60821335D01*
X54199853Y61098574D01*
X54091680Y61359727D01*
X53934637Y61594759D01*
X53734759Y61794637D01*
X53502241Y61950000D01*
X53734759Y62105363D01*
X53934637Y62305241D01*
X54091680Y62540273D01*
X54199853Y62801426D01*
X54255000Y63078665D01*
X54255000Y63361335D01*
X54199853Y63638574D01*
X54091680Y63899727D01*
X53934637Y64134759D01*
X53734759Y64334637D01*
X53502241Y64490000D01*
X53734759Y64645363D01*
X53934637Y64845241D01*
X54091680Y65080273D01*
X54199853Y65341426D01*
X54255000Y65618665D01*
X54255000Y65901335D01*
X54199853Y66178574D01*
X54091680Y66439727D01*
X53934637Y66674759D01*
X53734759Y66874637D01*
X53502241Y67030000D01*
X53734759Y67185363D01*
X53934637Y67385241D01*
X54091680Y67620273D01*
X54199853Y67881426D01*
X54255000Y68158665D01*
X54255000Y68441335D01*
X54199853Y68718574D01*
X54091680Y68979727D01*
X53934637Y69214759D01*
X53734759Y69414637D01*
X53499727Y69571680D01*
X53238574Y69679853D01*
X52961335Y69735000D01*
X52678665Y69735000D01*
X52401426Y69679853D01*
X52140273Y69571680D01*
X51905241Y69414637D01*
X51705363Y69214759D01*
X51548320Y68979727D01*
X51440147Y68718574D01*
X51385000Y68441335D01*
X51385000Y68158665D01*
X51440147Y67881426D01*
X51548320Y67620273D01*
X51705363Y67385241D01*
X51905241Y67185363D01*
X52137759Y67030000D01*
X51905241Y66874637D01*
X51705363Y66674759D01*
X51548320Y66439727D01*
X51440147Y66178574D01*
X51385000Y65901335D01*
X51385000Y65618665D01*
X51440147Y65341426D01*
X51548320Y65080273D01*
X51705363Y64845241D01*
X51905241Y64645363D01*
X52137759Y64490000D01*
X51905241Y64334637D01*
X51705363Y64134759D01*
X51548320Y63899727D01*
X51440147Y63638574D01*
X51385000Y63361335D01*
X51385000Y63078665D01*
X51440147Y62801426D01*
X51548320Y62540273D01*
X51705363Y62305241D01*
X51905241Y62105363D01*
X52137759Y61950000D01*
X51905241Y61794637D01*
X51705363Y61594759D01*
X51548320Y61359727D01*
X51440147Y61098574D01*
X51385000Y60821335D01*
X51385000Y60538665D01*
X51440147Y60261426D01*
X51478017Y60170000D01*
X46541983Y60170000D01*
X46579853Y60261426D01*
X46635000Y60538665D01*
X46635000Y60821335D01*
X46579853Y61098574D01*
X46471680Y61359727D01*
X46327063Y61576162D01*
X46836303Y62085401D01*
X46865301Y62109199D01*
X46960274Y62224924D01*
X47030846Y62356953D01*
X47074303Y62500214D01*
X47085300Y62611867D01*
X47085300Y62611877D01*
X47088976Y62649200D01*
X47085300Y62686523D01*
X47085300Y66293378D01*
X47088976Y66330701D01*
X47085300Y66368024D01*
X47085300Y66368033D01*
X47074303Y66479686D01*
X47030846Y66622947D01*
X46960274Y66754976D01*
X46865301Y66870701D01*
X46836304Y66894498D01*
X46327023Y67403778D01*
X46471680Y67620273D01*
X46579853Y67881426D01*
X46635000Y68158665D01*
X46635000Y68441335D01*
X46579853Y68718574D01*
X46471680Y68979727D01*
X46314637Y69214759D01*
X46114759Y69414637D01*
X45879727Y69571680D01*
X45618574Y69679853D01*
X45341335Y69735000D01*
X45058665Y69735000D01*
X44781426Y69679853D01*
X44520273Y69571680D01*
X44285241Y69414637D01*
X44160053Y69289449D01*
X43231804Y70217697D01*
X43208001Y70246701D01*
X43092276Y70341674D01*
X42960247Y70412246D01*
X42816986Y70455703D01*
X42705333Y70466700D01*
X42705322Y70466700D01*
X42668000Y70470376D01*
X42630678Y70466700D01*
X25819323Y70466700D01*
X25782000Y70470376D01*
X25744677Y70466700D01*
X25744667Y70466700D01*
X25633014Y70455703D01*
X25489753Y70412246D01*
X25357724Y70341674D01*
X25241999Y70246701D01*
X25218201Y70217703D01*
X20617899Y65617400D01*
X16478302Y65617400D01*
X11153800Y70941901D01*
X11153800Y71004039D01*
X11114026Y71203998D01*
X11036005Y71392356D01*
X10922737Y71561874D01*
X10778574Y71706037D01*
X10609056Y71819305D01*
X10420698Y71897326D01*
X10220739Y71937100D01*
X10016861Y71937100D01*
X9816902Y71897326D01*
X9628544Y71819305D01*
X9459026Y71706037D01*
X9314863Y71561874D01*
X9201595Y71392356D01*
X9123574Y71203998D01*
X9083800Y71004039D01*
X9083800Y70800161D01*
X9123574Y70600202D01*
X9201595Y70411844D01*
X9314863Y70242326D01*
X9459026Y70098163D01*
X9628544Y69984895D01*
X9816902Y69906874D01*
X10016861Y69867100D01*
X10078999Y69867100D01*
X15403501Y64542597D01*
X15403500Y53943601D01*
X14160000Y55187101D01*
X14160000Y60212913D01*
X14274482Y60224188D01*
X14394180Y60260498D01*
X14504494Y60319463D01*
X14601185Y60398815D01*
X14680537Y60495506D01*
X14739502Y60605820D01*
X14775812Y60725518D01*
X14788072Y60850000D01*
X14788072Y62350000D01*
X14775812Y62474482D01*
X14739502Y62594180D01*
X14680537Y62704494D01*
X14601185Y62801185D01*
X14504494Y62880537D01*
X14394180Y62939502D01*
X14274482Y62975812D01*
X14150000Y62988072D01*
X12650000Y62988072D01*
X12525518Y62975812D01*
X12405820Y62939502D01*
X12295506Y62880537D01*
X12198815Y62801185D01*
X12119463Y62704494D01*
X12060498Y62594180D01*
X12024188Y62474482D01*
X12011928Y62350000D01*
X12011928Y60850000D01*
X12024188Y60725518D01*
X12060498Y60605820D01*
X12119463Y60495506D01*
X12198815Y60398815D01*
X12295506Y60319463D01*
X12405820Y60260498D01*
X12525518Y60224188D01*
X12640001Y60212913D01*
X12640000Y54909623D01*
X12636324Y54872300D01*
X12640000Y54834978D01*
X12640000Y54834968D01*
X12650997Y54723315D01*
X12676270Y54640000D01*
X12694454Y54580054D01*
X12765026Y54448024D01*
X12804871Y54399474D01*
X12859999Y54332299D01*
X12889003Y54308496D01*
X15798701Y51398797D01*
X15822499Y51369799D01*
X15938224Y51274826D01*
X16070253Y51204254D01*
X16213514Y51160797D01*
X16325167Y51149800D01*
X16325175Y51149800D01*
X16362500Y51146124D01*
X16399825Y51149800D01*
X54872478Y51149800D01*
X54909800Y51146124D01*
X54947122Y51149800D01*
X54947133Y51149800D01*
X55058786Y51160797D01*
X55202047Y51204254D01*
X55334076Y51274826D01*
X55449801Y51369799D01*
X55473604Y51398803D01*
X58714802Y54640000D01*
X59276109Y54640000D01*
X59036627Y54592364D01*
X58716327Y54459692D01*
X58428065Y54267081D01*
X58182919Y54021935D01*
X57990308Y53733673D01*
X57857636Y53413373D01*
X57790000Y53073345D01*
X57790000Y52726655D01*
X57857636Y52386627D01*
X57990308Y52066327D01*
X58182919Y51778065D01*
X58428065Y51532919D01*
X58716327Y51340308D01*
X59036627Y51207636D01*
X59376655Y51140000D01*
X59723345Y51140000D01*
X60063373Y51207636D01*
X60383673Y51340308D01*
X60671935Y51532919D01*
X60917081Y51778065D01*
X61109692Y52066327D01*
X61229903Y52356544D01*
X61257703Y52289430D01*
X61398768Y52078310D01*
X61578310Y51898768D01*
X61789430Y51757703D01*
X62024013Y51660535D01*
X62273045Y51611000D01*
X62526955Y51611000D01*
X62775987Y51660535D01*
X63010570Y51757703D01*
X63221690Y51898768D01*
X63400000Y52077078D01*
X63578310Y51898768D01*
X63789430Y51757703D01*
X64024013Y51660535D01*
X64273045Y51611000D01*
X64526955Y51611000D01*
X64775987Y51660535D01*
X65010570Y51757703D01*
X65221690Y51898768D01*
X65400000Y52077078D01*
X65578310Y51898768D01*
X65789430Y51757703D01*
X66024013Y51660535D01*
X66273045Y51611000D01*
X66526955Y51611000D01*
X66775987Y51660535D01*
X67010570Y51757703D01*
X67221690Y51898768D01*
X67401232Y52078310D01*
X67542297Y52289430D01*
X67570097Y52356544D01*
X67690308Y52066327D01*
X67882919Y51778065D01*
X68128065Y51532919D01*
X68416327Y51340308D01*
X68736627Y51207636D01*
X69076655Y51140000D01*
X69423345Y51140000D01*
X69763373Y51207636D01*
X70083673Y51340308D01*
X70371935Y51532919D01*
X70617081Y51778065D01*
X70809692Y52066327D01*
X70942364Y52386627D01*
X71010000Y52726655D01*
X71010000Y53073345D01*
X70942364Y53413373D01*
X70809692Y53733673D01*
X70617081Y54021935D01*
X70371935Y54267081D01*
X70083673Y54459692D01*
X69763373Y54592364D01*
X69423345Y54660000D01*
X69076655Y54660000D01*
X68736627Y54592364D01*
X68416327Y54459692D01*
X68128065Y54267081D01*
X67882919Y54021935D01*
X67690308Y53733673D01*
X67570097Y53443456D01*
X67542297Y53510570D01*
X67401232Y53721690D01*
X67221690Y53901232D01*
X67010570Y54042297D01*
X66775987Y54139465D01*
X66526955Y54189000D01*
X66273045Y54189000D01*
X66024013Y54139465D01*
X65789430Y54042297D01*
X65578310Y53901232D01*
X65400000Y53722922D01*
X65221690Y53901232D01*
X65010570Y54042297D01*
X64775987Y54139465D01*
X64526955Y54189000D01*
X64273045Y54189000D01*
X64024013Y54139465D01*
X63789430Y54042297D01*
X63578310Y53901232D01*
X63400000Y53722922D01*
X63221690Y53901232D01*
X63010570Y54042297D01*
X62775987Y54139465D01*
X62526955Y54189000D01*
X62273045Y54189000D01*
X62024013Y54139465D01*
X61789430Y54042297D01*
X61578310Y53901232D01*
X61398768Y53721690D01*
X61257703Y53510570D01*
X61229903Y53443456D01*
X61109692Y53733673D01*
X60917081Y54021935D01*
X60671935Y54267081D01*
X60383673Y54459692D01*
X60063373Y54592364D01*
X59823891Y54640000D01*
X68662678Y54640000D01*
X68700000Y54636324D01*
X68737322Y54640000D01*
X68737333Y54640000D01*
X68848986Y54650997D01*
X68992247Y54694454D01*
X69124276Y54765026D01*
X69240001Y54859999D01*
X69263804Y54889003D01*
X71031104Y56656302D01*
X71060101Y56680099D01*
X71125795Y56760147D01*
X71155074Y56795823D01*
X71225646Y56927853D01*
X71241420Y56979853D01*
X71269103Y57071114D01*
X71280100Y57182767D01*
X71280100Y57182776D01*
X71283776Y57220099D01*
X71280100Y57257422D01*
X71280100Y62350000D01*
X95011928Y62350000D01*
X95011928Y60850000D01*
X95024188Y60725518D01*
X95060498Y60605820D01*
X95119463Y60495506D01*
X95198815Y60398815D01*
X95295506Y60319463D01*
X95405820Y60260498D01*
X95525518Y60224188D01*
X95650000Y60211928D01*
X97150000Y60211928D01*
X97274482Y60224188D01*
X97394180Y60260498D01*
X97504494Y60319463D01*
X97601185Y60398815D01*
X97680537Y60495506D01*
X97739502Y60605820D01*
X97775812Y60725518D01*
X97788072Y60850000D01*
X97788072Y62350000D01*
X97775812Y62474482D01*
X97739502Y62594180D01*
X97680537Y62704494D01*
X97601185Y62801185D01*
X97504494Y62880537D01*
X97394180Y62939502D01*
X97274482Y62975812D01*
X97150000Y62988072D01*
X95650000Y62988072D01*
X95525518Y62975812D01*
X95405820Y62939502D01*
X95295506Y62880537D01*
X95198815Y62801185D01*
X95119463Y62704494D01*
X95060498Y62594180D01*
X95024188Y62474482D01*
X95011928Y62350000D01*
X71280100Y62350000D01*
X71280100Y63279289D01*
X71324037Y63323226D01*
X71437305Y63492744D01*
X71515326Y63681102D01*
X71555100Y63881061D01*
X71555100Y64084939D01*
X71515326Y64284898D01*
X71437305Y64473256D01*
X71324037Y64642774D01*
X71179874Y64786937D01*
X71010356Y64900205D01*
X70821998Y64978226D01*
X70622039Y65018000D01*
X70418161Y65018000D01*
X70218202Y64978226D01*
X70029844Y64900205D01*
X69860326Y64786937D01*
X69716163Y64642774D01*
X69602895Y64473256D01*
X69524874Y64284898D01*
X69485100Y64084939D01*
X69485100Y63881061D01*
X69524874Y63681102D01*
X69602895Y63492744D01*
X69716163Y63323226D01*
X69760101Y63279288D01*
X69760100Y57534902D01*
X68385199Y56160000D01*
X58437322Y56160000D01*
X58399999Y56163676D01*
X58362676Y56160000D01*
X58362667Y56160000D01*
X58251014Y56149003D01*
X58107753Y56105546D01*
X57975724Y56034974D01*
X57859999Y55940001D01*
X57836201Y55911003D01*
X54594999Y52669800D01*
X54205497Y52669800D01*
X54255000Y52918665D01*
X54255000Y53201335D01*
X54199853Y53478574D01*
X54091680Y53739727D01*
X53934637Y53974759D01*
X53734759Y54174637D01*
X53502241Y54330000D01*
X53734759Y54485363D01*
X53934637Y54685241D01*
X54091680Y54920273D01*
X54199853Y55181426D01*
X54255000Y55458665D01*
X54255000Y55741335D01*
X54199853Y56018574D01*
X54091680Y56279727D01*
X53934637Y56514759D01*
X53734759Y56714637D01*
X53502241Y56870000D01*
X53734759Y57025363D01*
X53934637Y57225241D01*
X54091680Y57460273D01*
X54199853Y57721426D01*
X54255000Y57998665D01*
X54255000Y58281335D01*
X54199853Y58558574D01*
X54161983Y58650000D01*
X54280978Y58650000D01*
X54318300Y58646324D01*
X54355622Y58650000D01*
X54355633Y58650000D01*
X54467286Y58660997D01*
X54610547Y58704454D01*
X54742576Y58775026D01*
X54858301Y58869999D01*
X54882104Y58899003D01*
X64247802Y68264700D01*
X84959478Y68264700D01*
X84996800Y68261024D01*
X85034122Y68264700D01*
X85034133Y68264700D01*
X85145786Y68275697D01*
X85289047Y68319154D01*
X85421076Y68389726D01*
X85536801Y68484699D01*
X85560603Y68513702D01*
X86069371Y69022469D01*
X86276589Y68884010D01*
X86546842Y68772068D01*
X86833740Y68715000D01*
X87126260Y68715000D01*
X87413158Y68772068D01*
X87683411Y68884010D01*
X87926632Y69046525D01*
X88133475Y69253368D01*
X88250000Y69427760D01*
X88366525Y69253368D01*
X88573368Y69046525D01*
X88816589Y68884010D01*
X89086842Y68772068D01*
X89373740Y68715000D01*
X89666260Y68715000D01*
X89953158Y68772068D01*
X90223411Y68884010D01*
X90466632Y69046525D01*
X90673475Y69253368D01*
X90790000Y69427760D01*
X90906525Y69253368D01*
X91113368Y69046525D01*
X91356589Y68884010D01*
X91626842Y68772068D01*
X91913740Y68715000D01*
X92206260Y68715000D01*
X92493158Y68772068D01*
X92763411Y68884010D01*
X93006632Y69046525D01*
X93213475Y69253368D01*
X93375990Y69496589D01*
X93487932Y69766842D01*
X93545000Y70053740D01*
X93545000Y70346260D01*
X93487932Y70633158D01*
X93375990Y70903411D01*
X93213475Y71146632D01*
X93006632Y71353475D01*
X92763411Y71515990D01*
X92493158Y71627932D01*
X92206260Y71685000D01*
X91913740Y71685000D01*
X91626842Y71627932D01*
X91356589Y71515990D01*
X91149311Y71377491D01*
X90631503Y71895298D01*
X90607701Y71924301D01*
X90491976Y72019274D01*
X90453201Y72040000D01*
X98240001Y72040000D01*
X98240000Y51060000D01*
X78867581Y51060000D01*
X78834613Y51056753D01*
X78821633Y51056753D01*
X78812468Y51055790D01*
X78618518Y51034035D01*
X78560019Y51021600D01*
X78501325Y51009978D01*
X78492522Y51007253D01*
X78306491Y50948240D01*
X78251509Y50924674D01*
X78196206Y50901880D01*
X78188100Y50897497D01*
X78153071Y50878239D01*
X78069205Y50934277D01*
X77908145Y51000990D01*
X77737165Y51035000D01*
X77562835Y51035000D01*
X77391855Y51000990D01*
X77275000Y50952587D01*
X77158145Y51000990D01*
X76987165Y51035000D01*
X76812835Y51035000D01*
X76641855Y51000990D01*
X76525000Y50952587D01*
X76408145Y51000990D01*
X76237165Y51035000D01*
X76062835Y51035000D01*
X75891855Y51000990D01*
X75730795Y50934277D01*
X75646323Y50877834D01*
X75590921Y50907292D01*
X75535606Y50930091D01*
X75480634Y50953652D01*
X75471831Y50956377D01*
X75284995Y51012786D01*
X75226307Y51024406D01*
X75167804Y51036842D01*
X75158639Y51037805D01*
X74964405Y51056850D01*
X74964402Y51056850D01*
X74932419Y51060000D01*
X55967581Y51060000D01*
X55934613Y51056753D01*
X55921633Y51056753D01*
X55912468Y51055790D01*
X55718518Y51034035D01*
X55660019Y51021600D01*
X55601325Y51009978D01*
X55592522Y51007253D01*
X55406491Y50948240D01*
X55351509Y50924674D01*
X55296206Y50901880D01*
X55288100Y50897497D01*
X55253071Y50878239D01*
X55169205Y50934277D01*
X55008145Y51000990D01*
X54837165Y51035000D01*
X54662835Y51035000D01*
X54491855Y51000990D01*
X54375000Y50952587D01*
X54258145Y51000990D01*
X54087165Y51035000D01*
X53912835Y51035000D01*
X53741855Y51000990D01*
X53625000Y50952587D01*
X53508145Y51000990D01*
X53337165Y51035000D01*
X53162835Y51035000D01*
X52991855Y51000990D01*
X52830795Y50934277D01*
X52746323Y50877834D01*
X52690921Y50907292D01*
X52635606Y50930091D01*
X52580634Y50953652D01*
X52571831Y50956377D01*
X52384995Y51012786D01*
X52326307Y51024406D01*
X52267804Y51036842D01*
X52258639Y51037805D01*
X52064405Y51056850D01*
X52064402Y51056850D01*
X52032419Y51060000D01*
X30967581Y51060000D01*
X30934613Y51056753D01*
X30921633Y51056753D01*
X30912468Y51055790D01*
X30718518Y51034035D01*
X30660019Y51021600D01*
X30601325Y51009978D01*
X30592522Y51007253D01*
X30406491Y50948240D01*
X30351509Y50924674D01*
X30296206Y50901880D01*
X30288100Y50897497D01*
X30253071Y50878239D01*
X30169205Y50934277D01*
X30008145Y51000990D01*
X29837165Y51035000D01*
X29662835Y51035000D01*
X29491855Y51000990D01*
X29375000Y50952587D01*
X29258145Y51000990D01*
X29087165Y51035000D01*
X28912835Y51035000D01*
X28741855Y51000990D01*
X28625000Y50952587D01*
X28508145Y51000990D01*
X28337165Y51035000D01*
X28162835Y51035000D01*
X27991855Y51000990D01*
X27830795Y50934277D01*
X27746323Y50877834D01*
X27690921Y50907292D01*
X27635606Y50930091D01*
X27580634Y50953652D01*
X27571831Y50956377D01*
X27384995Y51012786D01*
X27326307Y51024406D01*
X27267804Y51036842D01*
X27258639Y51037805D01*
X27064405Y51056850D01*
X27064402Y51056850D01*
X27032419Y51060000D01*
X7660000Y51060000D01*
X7660000Y52740000D01*
X9067591Y52740000D01*
X9100000Y52736808D01*
X9132409Y52740000D01*
X9132419Y52740000D01*
X9229383Y52749550D01*
X9353793Y52787290D01*
X9468450Y52848575D01*
X9568948Y52931052D01*
X9589616Y52956236D01*
X10343769Y53710388D01*
X10368948Y53731052D01*
X10451425Y53831550D01*
X10512710Y53946207D01*
X10550450Y54070617D01*
X10560000Y54167581D01*
X10560000Y54167591D01*
X10563192Y54200000D01*
X10560000Y54232409D01*
X10560000Y68667591D01*
X10563192Y68700000D01*
X10560000Y68732409D01*
X10560000Y68732419D01*
X10550450Y68829383D01*
X10512710Y68953793D01*
X10451425Y69068450D01*
X10368948Y69168948D01*
X10343770Y69189611D01*
X9589616Y69943764D01*
X9568948Y69968948D01*
X9468450Y70051425D01*
X9353793Y70112710D01*
X9229383Y70150450D01*
X9132419Y70160000D01*
X9132409Y70160000D01*
X9100000Y70163192D01*
X9067591Y70160000D01*
X7660000Y70160000D01*
X7660000Y72040000D01*
X22596599Y72040000D01*
X22557824Y72019274D01*
G37*
%TD.AperFunction*%
%TD*%
D20*
%TO.N,GND*%
X22557824Y47719274D02*
X22442099Y47624301D01*
X22418301Y47595303D01*
X20080399Y45257400D01*
X20018261Y45257400D01*
X19818302Y45217626D01*
X19629944Y45139605D01*
X19460426Y45026337D01*
X19316263Y44882174D01*
X19202995Y44712656D01*
X19124974Y44524298D01*
X19085200Y44324339D01*
X19085200Y44120461D01*
X19124974Y43920502D01*
X19202995Y43732144D01*
X19316263Y43562626D01*
X19460426Y43418463D01*
X19629944Y43305195D01*
X19818302Y43227174D01*
X20018261Y43187400D01*
X20222139Y43187400D01*
X20422098Y43227174D01*
X20610456Y43305195D01*
X20779974Y43418463D01*
X20924137Y43562626D01*
X21037405Y43732144D01*
X21115426Y43920502D01*
X21155200Y44120461D01*
X21155200Y44182599D01*
X23296902Y46324300D01*
X80414246Y46324300D01*
X80415000Y46185750D01*
X80573750Y46027000D01*
X81773000Y46027000D01*
X81773000Y46047000D01*
X82027000Y46047000D01*
X82027000Y46027000D01*
X82047000Y46027000D01*
X82047000Y45773000D01*
X82027000Y45773000D01*
X82027000Y45753000D01*
X81773000Y45753000D01*
X81773000Y45773000D01*
X80573750Y45773000D01*
X80415000Y45614250D01*
X80414295Y45484700D01*
X63970322Y45484700D01*
X63932999Y45488376D01*
X63895676Y45484700D01*
X63895667Y45484700D01*
X63784014Y45473703D01*
X63656425Y45435000D01*
X63640753Y45430246D01*
X63508723Y45359674D01*
X63471814Y45329383D01*
X63392999Y45264701D01*
X63369201Y45235703D01*
X54225907Y36092408D01*
X54255000Y36238665D01*
X54255000Y36521335D01*
X54199853Y36798574D01*
X54091680Y37059727D01*
X53934637Y37294759D01*
X53734759Y37494637D01*
X53502241Y37650000D01*
X53734759Y37805363D01*
X53934637Y38005241D01*
X54091680Y38240273D01*
X54199853Y38501426D01*
X54255000Y38778665D01*
X54255000Y39061335D01*
X54199853Y39338574D01*
X54091680Y39599727D01*
X53934637Y39834759D01*
X53734759Y40034637D01*
X53502241Y40190000D01*
X53734759Y40345363D01*
X53934637Y40545241D01*
X54091680Y40780273D01*
X54199853Y41041426D01*
X54255000Y41318665D01*
X54255000Y41601335D01*
X54199853Y41878574D01*
X54091680Y42139727D01*
X53934637Y42374759D01*
X53734759Y42574637D01*
X53502241Y42730000D01*
X53734759Y42885363D01*
X53934637Y43085241D01*
X54091680Y43320273D01*
X54199853Y43581426D01*
X54255000Y43858665D01*
X54255000Y44141335D01*
X54199853Y44418574D01*
X54091680Y44679727D01*
X53934637Y44914759D01*
X53734759Y45114637D01*
X53499727Y45271680D01*
X53238574Y45379853D01*
X52961335Y45435000D01*
X52678665Y45435000D01*
X52401426Y45379853D01*
X52140273Y45271680D01*
X51905241Y45114637D01*
X51705363Y44914759D01*
X51548320Y44679727D01*
X51440147Y44418574D01*
X51385000Y44141335D01*
X51385000Y43858665D01*
X51440147Y43581426D01*
X51548320Y43320273D01*
X51705363Y43085241D01*
X51905241Y42885363D01*
X52137759Y42730000D01*
X51905241Y42574637D01*
X51705363Y42374759D01*
X51548320Y42139727D01*
X51440147Y41878574D01*
X51385000Y41601335D01*
X51385000Y41318665D01*
X51440147Y41041426D01*
X51548320Y40780273D01*
X51705363Y40545241D01*
X51905241Y40345363D01*
X52137759Y40190000D01*
X51905241Y40034637D01*
X51705363Y39834759D01*
X51548320Y39599727D01*
X51440147Y39338574D01*
X51385000Y39061335D01*
X51385000Y38778665D01*
X51440147Y38501426D01*
X51548320Y38240273D01*
X51705363Y38005241D01*
X51905241Y37805363D01*
X52137759Y37650000D01*
X51905241Y37494637D01*
X51705363Y37294759D01*
X51548320Y37059727D01*
X51440147Y36798574D01*
X51385000Y36521335D01*
X51385000Y36238665D01*
X51440147Y35961426D01*
X51478017Y35870000D01*
X46541983Y35870000D01*
X46579853Y35961426D01*
X46635000Y36238665D01*
X46635000Y36521335D01*
X46579853Y36798574D01*
X46471680Y37059727D01*
X46327063Y37276162D01*
X46836303Y37785401D01*
X46865301Y37809199D01*
X46960274Y37924924D01*
X47030846Y38056953D01*
X47074303Y38200214D01*
X47085300Y38311867D01*
X47085300Y38311877D01*
X47088976Y38349200D01*
X47085300Y38386523D01*
X47085300Y41993378D01*
X47088976Y42030701D01*
X47085300Y42068024D01*
X47085300Y42068033D01*
X47074303Y42179686D01*
X47030846Y42322947D01*
X46960274Y42454976D01*
X46865301Y42570701D01*
X46836304Y42594498D01*
X46327023Y43103778D01*
X46471680Y43320273D01*
X46579853Y43581426D01*
X46635000Y43858665D01*
X46635000Y44141335D01*
X46579853Y44418574D01*
X46471680Y44679727D01*
X46314637Y44914759D01*
X46114759Y45114637D01*
X45879727Y45271680D01*
X45618574Y45379853D01*
X45341335Y45435000D01*
X45058665Y45435000D01*
X44781426Y45379853D01*
X44520273Y45271680D01*
X44285241Y45114637D01*
X44160053Y44989449D01*
X43231804Y45917697D01*
X43208001Y45946701D01*
X43092276Y46041674D01*
X42960247Y46112246D01*
X42816986Y46155703D01*
X42705333Y46166700D01*
X42705322Y46166700D01*
X42668000Y46170376D01*
X42630678Y46166700D01*
X25819323Y46166700D01*
X25782000Y46170376D01*
X25744677Y46166700D01*
X25744667Y46166700D01*
X25633014Y46155703D01*
X25489753Y46112246D01*
X25357724Y46041674D01*
X25241999Y45946701D01*
X25218201Y45917703D01*
X20617899Y41317400D01*
X16478302Y41317400D01*
X11153800Y46641901D01*
X11153800Y46704039D01*
X11114026Y46903998D01*
X11036005Y47092356D01*
X10922737Y47261874D01*
X10778574Y47406037D01*
X10609056Y47519305D01*
X10420698Y47597326D01*
X10220739Y47637100D01*
X10016861Y47637100D01*
X9816902Y47597326D01*
X9628544Y47519305D01*
X9459026Y47406037D01*
X9314863Y47261874D01*
X9201595Y47092356D01*
X9123574Y46903998D01*
X9083800Y46704039D01*
X9083800Y46500161D01*
X9123574Y46300202D01*
X9201595Y46111844D01*
X9314863Y45942326D01*
X9459026Y45798163D01*
X9628544Y45684895D01*
X9816902Y45606874D01*
X10016861Y45567100D01*
X10078999Y45567100D01*
X15403501Y40242597D01*
X15403500Y29643601D01*
X14160000Y30887101D01*
X14160000Y35912913D01*
X14274482Y35924188D01*
X14394180Y35960498D01*
X14504494Y36019463D01*
X14601185Y36098815D01*
X14680537Y36195506D01*
X14739502Y36305820D01*
X14775812Y36425518D01*
X14788072Y36550000D01*
X14788072Y38050000D01*
X14775812Y38174482D01*
X14739502Y38294180D01*
X14680537Y38404494D01*
X14601185Y38501185D01*
X14504494Y38580537D01*
X14394180Y38639502D01*
X14274482Y38675812D01*
X14150000Y38688072D01*
X12650000Y38688072D01*
X12525518Y38675812D01*
X12405820Y38639502D01*
X12295506Y38580537D01*
X12198815Y38501185D01*
X12119463Y38404494D01*
X12060498Y38294180D01*
X12024188Y38174482D01*
X12011928Y38050000D01*
X12011928Y36550000D01*
X12024188Y36425518D01*
X12060498Y36305820D01*
X12119463Y36195506D01*
X12198815Y36098815D01*
X12295506Y36019463D01*
X12405820Y35960498D01*
X12525518Y35924188D01*
X12640001Y35912913D01*
X12640000Y30609623D01*
X12636324Y30572300D01*
X12640000Y30534978D01*
X12640000Y30534968D01*
X12650997Y30423315D01*
X12676270Y30340000D01*
X12694454Y30280054D01*
X12765026Y30148024D01*
X12804871Y30099474D01*
X12859999Y30032299D01*
X12889003Y30008496D01*
X15798701Y27098797D01*
X15822499Y27069799D01*
X15938224Y26974826D01*
X16070253Y26904254D01*
X16213514Y26860797D01*
X16325167Y26849800D01*
X16325175Y26849800D01*
X16362500Y26846124D01*
X16399825Y26849800D01*
X54872478Y26849800D01*
X54909800Y26846124D01*
X54947122Y26849800D01*
X54947133Y26849800D01*
X55058786Y26860797D01*
X55202047Y26904254D01*
X55334076Y26974826D01*
X55449801Y27069799D01*
X55473604Y27098803D01*
X58714802Y30340000D01*
X59276109Y30340000D01*
X59036627Y30292364D01*
X58716327Y30159692D01*
X58428065Y29967081D01*
X58182919Y29721935D01*
X57990308Y29433673D01*
X57857636Y29113373D01*
X57790000Y28773345D01*
X57790000Y28426655D01*
X57857636Y28086627D01*
X57990308Y27766327D01*
X58182919Y27478065D01*
X58428065Y27232919D01*
X58716327Y27040308D01*
X59036627Y26907636D01*
X59376655Y26840000D01*
X59723345Y26840000D01*
X60063373Y26907636D01*
X60383673Y27040308D01*
X60671935Y27232919D01*
X60917081Y27478065D01*
X61109692Y27766327D01*
X61229903Y28056544D01*
X61257703Y27989430D01*
X61398768Y27778310D01*
X61578310Y27598768D01*
X61789430Y27457703D01*
X62024013Y27360535D01*
X62273045Y27311000D01*
X62526955Y27311000D01*
X62775987Y27360535D01*
X63010570Y27457703D01*
X63221690Y27598768D01*
X63400000Y27777078D01*
X63578310Y27598768D01*
X63789430Y27457703D01*
X64024013Y27360535D01*
X64273045Y27311000D01*
X64526955Y27311000D01*
X64775987Y27360535D01*
X65010570Y27457703D01*
X65221690Y27598768D01*
X65400000Y27777078D01*
X65578310Y27598768D01*
X65789430Y27457703D01*
X66024013Y27360535D01*
X66273045Y27311000D01*
X66526955Y27311000D01*
X66775987Y27360535D01*
X67010570Y27457703D01*
X67221690Y27598768D01*
X67401232Y27778310D01*
X67542297Y27989430D01*
X67570097Y28056544D01*
X67690308Y27766327D01*
X67882919Y27478065D01*
X68128065Y27232919D01*
X68416327Y27040308D01*
X68736627Y26907636D01*
X69076655Y26840000D01*
X69423345Y26840000D01*
X69763373Y26907636D01*
X70083673Y27040308D01*
X70371935Y27232919D01*
X70617081Y27478065D01*
X70809692Y27766327D01*
X70942364Y28086627D01*
X71010000Y28426655D01*
X71010000Y28773345D01*
X70942364Y29113373D01*
X70809692Y29433673D01*
X70617081Y29721935D01*
X70371935Y29967081D01*
X70083673Y30159692D01*
X69763373Y30292364D01*
X69423345Y30360000D01*
X69076655Y30360000D01*
X68736627Y30292364D01*
X68416327Y30159692D01*
X68128065Y29967081D01*
X67882919Y29721935D01*
X67690308Y29433673D01*
X67570097Y29143456D01*
X67542297Y29210570D01*
X67401232Y29421690D01*
X67221690Y29601232D01*
X67010570Y29742297D01*
X66775987Y29839465D01*
X66526955Y29889000D01*
X66273045Y29889000D01*
X66024013Y29839465D01*
X65789430Y29742297D01*
X65578310Y29601232D01*
X65400000Y29422922D01*
X65221690Y29601232D01*
X65010570Y29742297D01*
X64775987Y29839465D01*
X64526955Y29889000D01*
X64273045Y29889000D01*
X64024013Y29839465D01*
X63789430Y29742297D01*
X63578310Y29601232D01*
X63400000Y29422922D01*
X63221690Y29601232D01*
X63010570Y29742297D01*
X62775987Y29839465D01*
X62526955Y29889000D01*
X62273045Y29889000D01*
X62024013Y29839465D01*
X61789430Y29742297D01*
X61578310Y29601232D01*
X61398768Y29421690D01*
X61257703Y29210570D01*
X61229903Y29143456D01*
X61109692Y29433673D01*
X60917081Y29721935D01*
X60671935Y29967081D01*
X60383673Y30159692D01*
X60063373Y30292364D01*
X59823891Y30340000D01*
X68662678Y30340000D01*
X68700000Y30336324D01*
X68737322Y30340000D01*
X68737333Y30340000D01*
X68848986Y30350997D01*
X68992247Y30394454D01*
X69124276Y30465026D01*
X69240001Y30559999D01*
X69263804Y30589003D01*
X71031104Y32356302D01*
X71060101Y32380099D01*
X71125795Y32460147D01*
X71155074Y32495823D01*
X71225646Y32627853D01*
X71241420Y32679853D01*
X71269103Y32771114D01*
X71280100Y32882767D01*
X71280100Y32882776D01*
X71283776Y32920099D01*
X71280100Y32957422D01*
X71280100Y38050000D01*
X95011928Y38050000D01*
X95011928Y36550000D01*
X95024188Y36425518D01*
X95060498Y36305820D01*
X95119463Y36195506D01*
X95198815Y36098815D01*
X95295506Y36019463D01*
X95405820Y35960498D01*
X95525518Y35924188D01*
X95650000Y35911928D01*
X97150000Y35911928D01*
X97274482Y35924188D01*
X97394180Y35960498D01*
X97504494Y36019463D01*
X97601185Y36098815D01*
X97680537Y36195506D01*
X97739502Y36305820D01*
X97775812Y36425518D01*
X97788072Y36550000D01*
X97788072Y38050000D01*
X97775812Y38174482D01*
X97739502Y38294180D01*
X97680537Y38404494D01*
X97601185Y38501185D01*
X97504494Y38580537D01*
X97394180Y38639502D01*
X97274482Y38675812D01*
X97150000Y38688072D01*
X95650000Y38688072D01*
X95525518Y38675812D01*
X95405820Y38639502D01*
X95295506Y38580537D01*
X95198815Y38501185D01*
X95119463Y38404494D01*
X95060498Y38294180D01*
X95024188Y38174482D01*
X95011928Y38050000D01*
X71280100Y38050000D01*
X71280100Y38979289D01*
X71324037Y39023226D01*
X71437305Y39192744D01*
X71515326Y39381102D01*
X71555100Y39581061D01*
X71555100Y39784939D01*
X71515326Y39984898D01*
X71437305Y40173256D01*
X71324037Y40342774D01*
X71179874Y40486937D01*
X71010356Y40600205D01*
X70821998Y40678226D01*
X70622039Y40718000D01*
X70418161Y40718000D01*
X70218202Y40678226D01*
X70029844Y40600205D01*
X69860326Y40486937D01*
X69716163Y40342774D01*
X69602895Y40173256D01*
X69524874Y39984898D01*
X69485100Y39784939D01*
X69485100Y39581061D01*
X69524874Y39381102D01*
X69602895Y39192744D01*
X69716163Y39023226D01*
X69760101Y38979288D01*
X69760100Y33234902D01*
X68385199Y31860000D01*
X58437322Y31860000D01*
X58399999Y31863676D01*
X58362676Y31860000D01*
X58362667Y31860000D01*
X58251014Y31849003D01*
X58107753Y31805546D01*
X57975724Y31734974D01*
X57859999Y31640001D01*
X57836201Y31611003D01*
X54594999Y28369800D01*
X54205497Y28369800D01*
X54255000Y28618665D01*
X54255000Y28901335D01*
X54199853Y29178574D01*
X54091680Y29439727D01*
X53934637Y29674759D01*
X53734759Y29874637D01*
X53502241Y30030000D01*
X53734759Y30185363D01*
X53934637Y30385241D01*
X54091680Y30620273D01*
X54199853Y30881426D01*
X54255000Y31158665D01*
X54255000Y31441335D01*
X54199853Y31718574D01*
X54091680Y31979727D01*
X53934637Y32214759D01*
X53734759Y32414637D01*
X53502241Y32570000D01*
X53734759Y32725363D01*
X53934637Y32925241D01*
X54091680Y33160273D01*
X54199853Y33421426D01*
X54255000Y33698665D01*
X54255000Y33981335D01*
X54199853Y34258574D01*
X54161983Y34350000D01*
X54280978Y34350000D01*
X54318300Y34346324D01*
X54355622Y34350000D01*
X54355633Y34350000D01*
X54467286Y34360997D01*
X54610547Y34404454D01*
X54742576Y34475026D01*
X54858301Y34569999D01*
X54882104Y34599003D01*
X64247802Y43964700D01*
X84959478Y43964700D01*
X84996800Y43961024D01*
X85034122Y43964700D01*
X85034133Y43964700D01*
X85145786Y43975697D01*
X85289047Y44019154D01*
X85421076Y44089726D01*
X85536801Y44184699D01*
X85560603Y44213702D01*
X86069371Y44722469D01*
X86276589Y44584010D01*
X86546842Y44472068D01*
X86833740Y44415000D01*
X87126260Y44415000D01*
X87413158Y44472068D01*
X87683411Y44584010D01*
X87926632Y44746525D01*
X88133475Y44953368D01*
X88250000Y45127760D01*
X88366525Y44953368D01*
X88573368Y44746525D01*
X88816589Y44584010D01*
X89086842Y44472068D01*
X89373740Y44415000D01*
X89666260Y44415000D01*
X89953158Y44472068D01*
X90223411Y44584010D01*
X90466632Y44746525D01*
X90673475Y44953368D01*
X90790000Y45127760D01*
X90906525Y44953368D01*
X91113368Y44746525D01*
X91356589Y44584010D01*
X91626842Y44472068D01*
X91913740Y44415000D01*
X92206260Y44415000D01*
X92493158Y44472068D01*
X92763411Y44584010D01*
X93006632Y44746525D01*
X93213475Y44953368D01*
X93375990Y45196589D01*
X93487932Y45466842D01*
X93545000Y45753740D01*
X93545000Y46046260D01*
X93487932Y46333158D01*
X93375990Y46603411D01*
X93213475Y46846632D01*
X93006632Y47053475D01*
X92763411Y47215990D01*
X92493158Y47327932D01*
X92206260Y47385000D01*
X91913740Y47385000D01*
X91626842Y47327932D01*
X91356589Y47215990D01*
X91149311Y47077491D01*
X90631503Y47595298D01*
X90607701Y47624301D01*
X90491976Y47719274D01*
X90453201Y47740000D01*
X98240001Y47740000D01*
X98240000Y26760000D01*
X78867581Y26760000D01*
X78834613Y26756753D01*
X78821633Y26756753D01*
X78812468Y26755790D01*
X78618518Y26734035D01*
X78560019Y26721600D01*
X78501325Y26709978D01*
X78492522Y26707253D01*
X78306491Y26648240D01*
X78251509Y26624674D01*
X78196206Y26601880D01*
X78188100Y26597497D01*
X78153071Y26578239D01*
X78069205Y26634277D01*
X77908145Y26700990D01*
X77737165Y26735000D01*
X77562835Y26735000D01*
X77391855Y26700990D01*
X77275000Y26652587D01*
X77158145Y26700990D01*
X76987165Y26735000D01*
X76812835Y26735000D01*
X76641855Y26700990D01*
X76525000Y26652587D01*
X76408145Y26700990D01*
X76237165Y26735000D01*
X76062835Y26735000D01*
X75891855Y26700990D01*
X75730795Y26634277D01*
X75646323Y26577834D01*
X75590921Y26607292D01*
X75535606Y26630091D01*
X75480634Y26653652D01*
X75471831Y26656377D01*
X75284995Y26712786D01*
X75226307Y26724406D01*
X75167804Y26736842D01*
X75158639Y26737805D01*
X74964405Y26756850D01*
X74964402Y26756850D01*
X74932419Y26760000D01*
X55967581Y26760000D01*
X55934613Y26756753D01*
X55921633Y26756753D01*
X55912468Y26755790D01*
X55718518Y26734035D01*
X55660019Y26721600D01*
X55601325Y26709978D01*
X55592522Y26707253D01*
X55406491Y26648240D01*
X55351509Y26624674D01*
X55296206Y26601880D01*
X55288100Y26597497D01*
X55253071Y26578239D01*
X55169205Y26634277D01*
X55008145Y26700990D01*
X54837165Y26735000D01*
X54662835Y26735000D01*
X54491855Y26700990D01*
X54375000Y26652587D01*
X54258145Y26700990D01*
X54087165Y26735000D01*
X53912835Y26735000D01*
X53741855Y26700990D01*
X53625000Y26652587D01*
X53508145Y26700990D01*
X53337165Y26735000D01*
X53162835Y26735000D01*
X52991855Y26700990D01*
X52830795Y26634277D01*
X52746323Y26577834D01*
X52690921Y26607292D01*
X52635606Y26630091D01*
X52580634Y26653652D01*
X52571831Y26656377D01*
X52384995Y26712786D01*
X52326307Y26724406D01*
X52267804Y26736842D01*
X52258639Y26737805D01*
X52064405Y26756850D01*
X52064402Y26756850D01*
X52032419Y26760000D01*
X30967581Y26760000D01*
X30934613Y26756753D01*
X30921633Y26756753D01*
X30912468Y26755790D01*
X30718518Y26734035D01*
X30660019Y26721600D01*
X30601325Y26709978D01*
X30592522Y26707253D01*
X30406491Y26648240D01*
X30351509Y26624674D01*
X30296206Y26601880D01*
X30288100Y26597497D01*
X30253071Y26578239D01*
X30169205Y26634277D01*
X30008145Y26700990D01*
X29837165Y26735000D01*
X29662835Y26735000D01*
X29491855Y26700990D01*
X29375000Y26652587D01*
X29258145Y26700990D01*
X29087165Y26735000D01*
X28912835Y26735000D01*
X28741855Y26700990D01*
X28625000Y26652587D01*
X28508145Y26700990D01*
X28337165Y26735000D01*
X28162835Y26735000D01*
X27991855Y26700990D01*
X27830795Y26634277D01*
X27746323Y26577834D01*
X27690921Y26607292D01*
X27635606Y26630091D01*
X27580634Y26653652D01*
X27571831Y26656377D01*
X27384995Y26712786D01*
X27326307Y26724406D01*
X27267804Y26736842D01*
X27258639Y26737805D01*
X27064405Y26756850D01*
X27064402Y26756850D01*
X27032419Y26760000D01*
X7660000Y26760000D01*
X7660000Y28440000D01*
X9067591Y28440000D01*
X9100000Y28436808D01*
X9132409Y28440000D01*
X9132419Y28440000D01*
X9229383Y28449550D01*
X9353793Y28487290D01*
X9468450Y28548575D01*
X9568948Y28631052D01*
X9589616Y28656236D01*
X10343769Y29410388D01*
X10368948Y29431052D01*
X10451425Y29531550D01*
X10512710Y29646207D01*
X10550450Y29770617D01*
X10560000Y29867581D01*
X10560000Y29867591D01*
X10563192Y29900000D01*
X10560000Y29932409D01*
X10560000Y44367591D01*
X10563192Y44400000D01*
X10560000Y44432409D01*
X10560000Y44432419D01*
X10550450Y44529383D01*
X10512710Y44653793D01*
X10451425Y44768450D01*
X10368948Y44868948D01*
X10343770Y44889611D01*
X9589616Y45643764D01*
X9568948Y45668948D01*
X9468450Y45751425D01*
X9353793Y45812710D01*
X9229383Y45850450D01*
X9132419Y45860000D01*
X9132409Y45860000D01*
X9100000Y45863192D01*
X9067591Y45860000D01*
X7660000Y45860000D01*
X7660000Y47740000D01*
X22596599Y47740000D01*
X22557824Y47719274D01*
%TA.AperFunction,Conductor*%
D21*
G36*
X22557824Y47719274D02*
G01*
X22442099Y47624301D01*
X22418301Y47595303D01*
X20080399Y45257400D01*
X20018261Y45257400D01*
X19818302Y45217626D01*
X19629944Y45139605D01*
X19460426Y45026337D01*
X19316263Y44882174D01*
X19202995Y44712656D01*
X19124974Y44524298D01*
X19085200Y44324339D01*
X19085200Y44120461D01*
X19124974Y43920502D01*
X19202995Y43732144D01*
X19316263Y43562626D01*
X19460426Y43418463D01*
X19629944Y43305195D01*
X19818302Y43227174D01*
X20018261Y43187400D01*
X20222139Y43187400D01*
X20422098Y43227174D01*
X20610456Y43305195D01*
X20779974Y43418463D01*
X20924137Y43562626D01*
X21037405Y43732144D01*
X21115426Y43920502D01*
X21155200Y44120461D01*
X21155200Y44182599D01*
X23296902Y46324300D01*
X80414246Y46324300D01*
X80415000Y46185750D01*
X80573750Y46027000D01*
X81773000Y46027000D01*
X81773000Y46047000D01*
X82027000Y46047000D01*
X82027000Y46027000D01*
X82047000Y46027000D01*
X82047000Y45773000D01*
X82027000Y45773000D01*
X82027000Y45753000D01*
X81773000Y45753000D01*
X81773000Y45773000D01*
X80573750Y45773000D01*
X80415000Y45614250D01*
X80414295Y45484700D01*
X63970322Y45484700D01*
X63932999Y45488376D01*
X63895676Y45484700D01*
X63895667Y45484700D01*
X63784014Y45473703D01*
X63656425Y45435000D01*
X63640753Y45430246D01*
X63508723Y45359674D01*
X63471814Y45329383D01*
X63392999Y45264701D01*
X63369201Y45235703D01*
X54225907Y36092408D01*
X54255000Y36238665D01*
X54255000Y36521335D01*
X54199853Y36798574D01*
X54091680Y37059727D01*
X53934637Y37294759D01*
X53734759Y37494637D01*
X53502241Y37650000D01*
X53734759Y37805363D01*
X53934637Y38005241D01*
X54091680Y38240273D01*
X54199853Y38501426D01*
X54255000Y38778665D01*
X54255000Y39061335D01*
X54199853Y39338574D01*
X54091680Y39599727D01*
X53934637Y39834759D01*
X53734759Y40034637D01*
X53502241Y40190000D01*
X53734759Y40345363D01*
X53934637Y40545241D01*
X54091680Y40780273D01*
X54199853Y41041426D01*
X54255000Y41318665D01*
X54255000Y41601335D01*
X54199853Y41878574D01*
X54091680Y42139727D01*
X53934637Y42374759D01*
X53734759Y42574637D01*
X53502241Y42730000D01*
X53734759Y42885363D01*
X53934637Y43085241D01*
X54091680Y43320273D01*
X54199853Y43581426D01*
X54255000Y43858665D01*
X54255000Y44141335D01*
X54199853Y44418574D01*
X54091680Y44679727D01*
X53934637Y44914759D01*
X53734759Y45114637D01*
X53499727Y45271680D01*
X53238574Y45379853D01*
X52961335Y45435000D01*
X52678665Y45435000D01*
X52401426Y45379853D01*
X52140273Y45271680D01*
X51905241Y45114637D01*
X51705363Y44914759D01*
X51548320Y44679727D01*
X51440147Y44418574D01*
X51385000Y44141335D01*
X51385000Y43858665D01*
X51440147Y43581426D01*
X51548320Y43320273D01*
X51705363Y43085241D01*
X51905241Y42885363D01*
X52137759Y42730000D01*
X51905241Y42574637D01*
X51705363Y42374759D01*
X51548320Y42139727D01*
X51440147Y41878574D01*
X51385000Y41601335D01*
X51385000Y41318665D01*
X51440147Y41041426D01*
X51548320Y40780273D01*
X51705363Y40545241D01*
X51905241Y40345363D01*
X52137759Y40190000D01*
X51905241Y40034637D01*
X51705363Y39834759D01*
X51548320Y39599727D01*
X51440147Y39338574D01*
X51385000Y39061335D01*
X51385000Y38778665D01*
X51440147Y38501426D01*
X51548320Y38240273D01*
X51705363Y38005241D01*
X51905241Y37805363D01*
X52137759Y37650000D01*
X51905241Y37494637D01*
X51705363Y37294759D01*
X51548320Y37059727D01*
X51440147Y36798574D01*
X51385000Y36521335D01*
X51385000Y36238665D01*
X51440147Y35961426D01*
X51478017Y35870000D01*
X46541983Y35870000D01*
X46579853Y35961426D01*
X46635000Y36238665D01*
X46635000Y36521335D01*
X46579853Y36798574D01*
X46471680Y37059727D01*
X46327063Y37276162D01*
X46836303Y37785401D01*
X46865301Y37809199D01*
X46960274Y37924924D01*
X47030846Y38056953D01*
X47074303Y38200214D01*
X47085300Y38311867D01*
X47085300Y38311877D01*
X47088976Y38349200D01*
X47085300Y38386523D01*
X47085300Y41993378D01*
X47088976Y42030701D01*
X47085300Y42068024D01*
X47085300Y42068033D01*
X47074303Y42179686D01*
X47030846Y42322947D01*
X46960274Y42454976D01*
X46865301Y42570701D01*
X46836304Y42594498D01*
X46327023Y43103778D01*
X46471680Y43320273D01*
X46579853Y43581426D01*
X46635000Y43858665D01*
X46635000Y44141335D01*
X46579853Y44418574D01*
X46471680Y44679727D01*
X46314637Y44914759D01*
X46114759Y45114637D01*
X45879727Y45271680D01*
X45618574Y45379853D01*
X45341335Y45435000D01*
X45058665Y45435000D01*
X44781426Y45379853D01*
X44520273Y45271680D01*
X44285241Y45114637D01*
X44160053Y44989449D01*
X43231804Y45917697D01*
X43208001Y45946701D01*
X43092276Y46041674D01*
X42960247Y46112246D01*
X42816986Y46155703D01*
X42705333Y46166700D01*
X42705322Y46166700D01*
X42668000Y46170376D01*
X42630678Y46166700D01*
X25819323Y46166700D01*
X25782000Y46170376D01*
X25744677Y46166700D01*
X25744667Y46166700D01*
X25633014Y46155703D01*
X25489753Y46112246D01*
X25357724Y46041674D01*
X25241999Y45946701D01*
X25218201Y45917703D01*
X20617899Y41317400D01*
X16478302Y41317400D01*
X11153800Y46641901D01*
X11153800Y46704039D01*
X11114026Y46903998D01*
X11036005Y47092356D01*
X10922737Y47261874D01*
X10778574Y47406037D01*
X10609056Y47519305D01*
X10420698Y47597326D01*
X10220739Y47637100D01*
X10016861Y47637100D01*
X9816902Y47597326D01*
X9628544Y47519305D01*
X9459026Y47406037D01*
X9314863Y47261874D01*
X9201595Y47092356D01*
X9123574Y46903998D01*
X9083800Y46704039D01*
X9083800Y46500161D01*
X9123574Y46300202D01*
X9201595Y46111844D01*
X9314863Y45942326D01*
X9459026Y45798163D01*
X9628544Y45684895D01*
X9816902Y45606874D01*
X10016861Y45567100D01*
X10078999Y45567100D01*
X15403501Y40242597D01*
X15403500Y29643601D01*
X14160000Y30887101D01*
X14160000Y35912913D01*
X14274482Y35924188D01*
X14394180Y35960498D01*
X14504494Y36019463D01*
X14601185Y36098815D01*
X14680537Y36195506D01*
X14739502Y36305820D01*
X14775812Y36425518D01*
X14788072Y36550000D01*
X14788072Y38050000D01*
X14775812Y38174482D01*
X14739502Y38294180D01*
X14680537Y38404494D01*
X14601185Y38501185D01*
X14504494Y38580537D01*
X14394180Y38639502D01*
X14274482Y38675812D01*
X14150000Y38688072D01*
X12650000Y38688072D01*
X12525518Y38675812D01*
X12405820Y38639502D01*
X12295506Y38580537D01*
X12198815Y38501185D01*
X12119463Y38404494D01*
X12060498Y38294180D01*
X12024188Y38174482D01*
X12011928Y38050000D01*
X12011928Y36550000D01*
X12024188Y36425518D01*
X12060498Y36305820D01*
X12119463Y36195506D01*
X12198815Y36098815D01*
X12295506Y36019463D01*
X12405820Y35960498D01*
X12525518Y35924188D01*
X12640001Y35912913D01*
X12640000Y30609623D01*
X12636324Y30572300D01*
X12640000Y30534978D01*
X12640000Y30534968D01*
X12650997Y30423315D01*
X12676270Y30340000D01*
X12694454Y30280054D01*
X12765026Y30148024D01*
X12804871Y30099474D01*
X12859999Y30032299D01*
X12889003Y30008496D01*
X15798701Y27098797D01*
X15822499Y27069799D01*
X15938224Y26974826D01*
X16070253Y26904254D01*
X16213514Y26860797D01*
X16325167Y26849800D01*
X16325175Y26849800D01*
X16362500Y26846124D01*
X16399825Y26849800D01*
X54872478Y26849800D01*
X54909800Y26846124D01*
X54947122Y26849800D01*
X54947133Y26849800D01*
X55058786Y26860797D01*
X55202047Y26904254D01*
X55334076Y26974826D01*
X55449801Y27069799D01*
X55473604Y27098803D01*
X58714802Y30340000D01*
X59276109Y30340000D01*
X59036627Y30292364D01*
X58716327Y30159692D01*
X58428065Y29967081D01*
X58182919Y29721935D01*
X57990308Y29433673D01*
X57857636Y29113373D01*
X57790000Y28773345D01*
X57790000Y28426655D01*
X57857636Y28086627D01*
X57990308Y27766327D01*
X58182919Y27478065D01*
X58428065Y27232919D01*
X58716327Y27040308D01*
X59036627Y26907636D01*
X59376655Y26840000D01*
X59723345Y26840000D01*
X60063373Y26907636D01*
X60383673Y27040308D01*
X60671935Y27232919D01*
X60917081Y27478065D01*
X61109692Y27766327D01*
X61229903Y28056544D01*
X61257703Y27989430D01*
X61398768Y27778310D01*
X61578310Y27598768D01*
X61789430Y27457703D01*
X62024013Y27360535D01*
X62273045Y27311000D01*
X62526955Y27311000D01*
X62775987Y27360535D01*
X63010570Y27457703D01*
X63221690Y27598768D01*
X63400000Y27777078D01*
X63578310Y27598768D01*
X63789430Y27457703D01*
X64024013Y27360535D01*
X64273045Y27311000D01*
X64526955Y27311000D01*
X64775987Y27360535D01*
X65010570Y27457703D01*
X65221690Y27598768D01*
X65400000Y27777078D01*
X65578310Y27598768D01*
X65789430Y27457703D01*
X66024013Y27360535D01*
X66273045Y27311000D01*
X66526955Y27311000D01*
X66775987Y27360535D01*
X67010570Y27457703D01*
X67221690Y27598768D01*
X67401232Y27778310D01*
X67542297Y27989430D01*
X67570097Y28056544D01*
X67690308Y27766327D01*
X67882919Y27478065D01*
X68128065Y27232919D01*
X68416327Y27040308D01*
X68736627Y26907636D01*
X69076655Y26840000D01*
X69423345Y26840000D01*
X69763373Y26907636D01*
X70083673Y27040308D01*
X70371935Y27232919D01*
X70617081Y27478065D01*
X70809692Y27766327D01*
X70942364Y28086627D01*
X71010000Y28426655D01*
X71010000Y28773345D01*
X70942364Y29113373D01*
X70809692Y29433673D01*
X70617081Y29721935D01*
X70371935Y29967081D01*
X70083673Y30159692D01*
X69763373Y30292364D01*
X69423345Y30360000D01*
X69076655Y30360000D01*
X68736627Y30292364D01*
X68416327Y30159692D01*
X68128065Y29967081D01*
X67882919Y29721935D01*
X67690308Y29433673D01*
X67570097Y29143456D01*
X67542297Y29210570D01*
X67401232Y29421690D01*
X67221690Y29601232D01*
X67010570Y29742297D01*
X66775987Y29839465D01*
X66526955Y29889000D01*
X66273045Y29889000D01*
X66024013Y29839465D01*
X65789430Y29742297D01*
X65578310Y29601232D01*
X65400000Y29422922D01*
X65221690Y29601232D01*
X65010570Y29742297D01*
X64775987Y29839465D01*
X64526955Y29889000D01*
X64273045Y29889000D01*
X64024013Y29839465D01*
X63789430Y29742297D01*
X63578310Y29601232D01*
X63400000Y29422922D01*
X63221690Y29601232D01*
X63010570Y29742297D01*
X62775987Y29839465D01*
X62526955Y29889000D01*
X62273045Y29889000D01*
X62024013Y29839465D01*
X61789430Y29742297D01*
X61578310Y29601232D01*
X61398768Y29421690D01*
X61257703Y29210570D01*
X61229903Y29143456D01*
X61109692Y29433673D01*
X60917081Y29721935D01*
X60671935Y29967081D01*
X60383673Y30159692D01*
X60063373Y30292364D01*
X59823891Y30340000D01*
X68662678Y30340000D01*
X68700000Y30336324D01*
X68737322Y30340000D01*
X68737333Y30340000D01*
X68848986Y30350997D01*
X68992247Y30394454D01*
X69124276Y30465026D01*
X69240001Y30559999D01*
X69263804Y30589003D01*
X71031104Y32356302D01*
X71060101Y32380099D01*
X71125795Y32460147D01*
X71155074Y32495823D01*
X71225646Y32627853D01*
X71241420Y32679853D01*
X71269103Y32771114D01*
X71280100Y32882767D01*
X71280100Y32882776D01*
X71283776Y32920099D01*
X71280100Y32957422D01*
X71280100Y38050000D01*
X95011928Y38050000D01*
X95011928Y36550000D01*
X95024188Y36425518D01*
X95060498Y36305820D01*
X95119463Y36195506D01*
X95198815Y36098815D01*
X95295506Y36019463D01*
X95405820Y35960498D01*
X95525518Y35924188D01*
X95650000Y35911928D01*
X97150000Y35911928D01*
X97274482Y35924188D01*
X97394180Y35960498D01*
X97504494Y36019463D01*
X97601185Y36098815D01*
X97680537Y36195506D01*
X97739502Y36305820D01*
X97775812Y36425518D01*
X97788072Y36550000D01*
X97788072Y38050000D01*
X97775812Y38174482D01*
X97739502Y38294180D01*
X97680537Y38404494D01*
X97601185Y38501185D01*
X97504494Y38580537D01*
X97394180Y38639502D01*
X97274482Y38675812D01*
X97150000Y38688072D01*
X95650000Y38688072D01*
X95525518Y38675812D01*
X95405820Y38639502D01*
X95295506Y38580537D01*
X95198815Y38501185D01*
X95119463Y38404494D01*
X95060498Y38294180D01*
X95024188Y38174482D01*
X95011928Y38050000D01*
X71280100Y38050000D01*
X71280100Y38979289D01*
X71324037Y39023226D01*
X71437305Y39192744D01*
X71515326Y39381102D01*
X71555100Y39581061D01*
X71555100Y39784939D01*
X71515326Y39984898D01*
X71437305Y40173256D01*
X71324037Y40342774D01*
X71179874Y40486937D01*
X71010356Y40600205D01*
X70821998Y40678226D01*
X70622039Y40718000D01*
X70418161Y40718000D01*
X70218202Y40678226D01*
X70029844Y40600205D01*
X69860326Y40486937D01*
X69716163Y40342774D01*
X69602895Y40173256D01*
X69524874Y39984898D01*
X69485100Y39784939D01*
X69485100Y39581061D01*
X69524874Y39381102D01*
X69602895Y39192744D01*
X69716163Y39023226D01*
X69760101Y38979288D01*
X69760100Y33234902D01*
X68385199Y31860000D01*
X58437322Y31860000D01*
X58399999Y31863676D01*
X58362676Y31860000D01*
X58362667Y31860000D01*
X58251014Y31849003D01*
X58107753Y31805546D01*
X57975724Y31734974D01*
X57859999Y31640001D01*
X57836201Y31611003D01*
X54594999Y28369800D01*
X54205497Y28369800D01*
X54255000Y28618665D01*
X54255000Y28901335D01*
X54199853Y29178574D01*
X54091680Y29439727D01*
X53934637Y29674759D01*
X53734759Y29874637D01*
X53502241Y30030000D01*
X53734759Y30185363D01*
X53934637Y30385241D01*
X54091680Y30620273D01*
X54199853Y30881426D01*
X54255000Y31158665D01*
X54255000Y31441335D01*
X54199853Y31718574D01*
X54091680Y31979727D01*
X53934637Y32214759D01*
X53734759Y32414637D01*
X53502241Y32570000D01*
X53734759Y32725363D01*
X53934637Y32925241D01*
X54091680Y33160273D01*
X54199853Y33421426D01*
X54255000Y33698665D01*
X54255000Y33981335D01*
X54199853Y34258574D01*
X54161983Y34350000D01*
X54280978Y34350000D01*
X54318300Y34346324D01*
X54355622Y34350000D01*
X54355633Y34350000D01*
X54467286Y34360997D01*
X54610547Y34404454D01*
X54742576Y34475026D01*
X54858301Y34569999D01*
X54882104Y34599003D01*
X64247802Y43964700D01*
X84959478Y43964700D01*
X84996800Y43961024D01*
X85034122Y43964700D01*
X85034133Y43964700D01*
X85145786Y43975697D01*
X85289047Y44019154D01*
X85421076Y44089726D01*
X85536801Y44184699D01*
X85560603Y44213702D01*
X86069371Y44722469D01*
X86276589Y44584010D01*
X86546842Y44472068D01*
X86833740Y44415000D01*
X87126260Y44415000D01*
X87413158Y44472068D01*
X87683411Y44584010D01*
X87926632Y44746525D01*
X88133475Y44953368D01*
X88250000Y45127760D01*
X88366525Y44953368D01*
X88573368Y44746525D01*
X88816589Y44584010D01*
X89086842Y44472068D01*
X89373740Y44415000D01*
X89666260Y44415000D01*
X89953158Y44472068D01*
X90223411Y44584010D01*
X90466632Y44746525D01*
X90673475Y44953368D01*
X90790000Y45127760D01*
X90906525Y44953368D01*
X91113368Y44746525D01*
X91356589Y44584010D01*
X91626842Y44472068D01*
X91913740Y44415000D01*
X92206260Y44415000D01*
X92493158Y44472068D01*
X92763411Y44584010D01*
X93006632Y44746525D01*
X93213475Y44953368D01*
X93375990Y45196589D01*
X93487932Y45466842D01*
X93545000Y45753740D01*
X93545000Y46046260D01*
X93487932Y46333158D01*
X93375990Y46603411D01*
X93213475Y46846632D01*
X93006632Y47053475D01*
X92763411Y47215990D01*
X92493158Y47327932D01*
X92206260Y47385000D01*
X91913740Y47385000D01*
X91626842Y47327932D01*
X91356589Y47215990D01*
X91149311Y47077491D01*
X90631503Y47595298D01*
X90607701Y47624301D01*
X90491976Y47719274D01*
X90453201Y47740000D01*
X98240001Y47740000D01*
X98240000Y26760000D01*
X78867581Y26760000D01*
X78834613Y26756753D01*
X78821633Y26756753D01*
X78812468Y26755790D01*
X78618518Y26734035D01*
X78560019Y26721600D01*
X78501325Y26709978D01*
X78492522Y26707253D01*
X78306491Y26648240D01*
X78251509Y26624674D01*
X78196206Y26601880D01*
X78188100Y26597497D01*
X78153071Y26578239D01*
X78069205Y26634277D01*
X77908145Y26700990D01*
X77737165Y26735000D01*
X77562835Y26735000D01*
X77391855Y26700990D01*
X77275000Y26652587D01*
X77158145Y26700990D01*
X76987165Y26735000D01*
X76812835Y26735000D01*
X76641855Y26700990D01*
X76525000Y26652587D01*
X76408145Y26700990D01*
X76237165Y26735000D01*
X76062835Y26735000D01*
X75891855Y26700990D01*
X75730795Y26634277D01*
X75646323Y26577834D01*
X75590921Y26607292D01*
X75535606Y26630091D01*
X75480634Y26653652D01*
X75471831Y26656377D01*
X75284995Y26712786D01*
X75226307Y26724406D01*
X75167804Y26736842D01*
X75158639Y26737805D01*
X74964405Y26756850D01*
X74964402Y26756850D01*
X74932419Y26760000D01*
X55967581Y26760000D01*
X55934613Y26756753D01*
X55921633Y26756753D01*
X55912468Y26755790D01*
X55718518Y26734035D01*
X55660019Y26721600D01*
X55601325Y26709978D01*
X55592522Y26707253D01*
X55406491Y26648240D01*
X55351509Y26624674D01*
X55296206Y26601880D01*
X55288100Y26597497D01*
X55253071Y26578239D01*
X55169205Y26634277D01*
X55008145Y26700990D01*
X54837165Y26735000D01*
X54662835Y26735000D01*
X54491855Y26700990D01*
X54375000Y26652587D01*
X54258145Y26700990D01*
X54087165Y26735000D01*
X53912835Y26735000D01*
X53741855Y26700990D01*
X53625000Y26652587D01*
X53508145Y26700990D01*
X53337165Y26735000D01*
X53162835Y26735000D01*
X52991855Y26700990D01*
X52830795Y26634277D01*
X52746323Y26577834D01*
X52690921Y26607292D01*
X52635606Y26630091D01*
X52580634Y26653652D01*
X52571831Y26656377D01*
X52384995Y26712786D01*
X52326307Y26724406D01*
X52267804Y26736842D01*
X52258639Y26737805D01*
X52064405Y26756850D01*
X52064402Y26756850D01*
X52032419Y26760000D01*
X30967581Y26760000D01*
X30934613Y26756753D01*
X30921633Y26756753D01*
X30912468Y26755790D01*
X30718518Y26734035D01*
X30660019Y26721600D01*
X30601325Y26709978D01*
X30592522Y26707253D01*
X30406491Y26648240D01*
X30351509Y26624674D01*
X30296206Y26601880D01*
X30288100Y26597497D01*
X30253071Y26578239D01*
X30169205Y26634277D01*
X30008145Y26700990D01*
X29837165Y26735000D01*
X29662835Y26735000D01*
X29491855Y26700990D01*
X29375000Y26652587D01*
X29258145Y26700990D01*
X29087165Y26735000D01*
X28912835Y26735000D01*
X28741855Y26700990D01*
X28625000Y26652587D01*
X28508145Y26700990D01*
X28337165Y26735000D01*
X28162835Y26735000D01*
X27991855Y26700990D01*
X27830795Y26634277D01*
X27746323Y26577834D01*
X27690921Y26607292D01*
X27635606Y26630091D01*
X27580634Y26653652D01*
X27571831Y26656377D01*
X27384995Y26712786D01*
X27326307Y26724406D01*
X27267804Y26736842D01*
X27258639Y26737805D01*
X27064405Y26756850D01*
X27064402Y26756850D01*
X27032419Y26760000D01*
X7660000Y26760000D01*
X7660000Y28440000D01*
X9067591Y28440000D01*
X9100000Y28436808D01*
X9132409Y28440000D01*
X9132419Y28440000D01*
X9229383Y28449550D01*
X9353793Y28487290D01*
X9468450Y28548575D01*
X9568948Y28631052D01*
X9589616Y28656236D01*
X10343769Y29410388D01*
X10368948Y29431052D01*
X10451425Y29531550D01*
X10512710Y29646207D01*
X10550450Y29770617D01*
X10560000Y29867581D01*
X10560000Y29867591D01*
X10563192Y29900000D01*
X10560000Y29932409D01*
X10560000Y44367591D01*
X10563192Y44400000D01*
X10560000Y44432409D01*
X10560000Y44432419D01*
X10550450Y44529383D01*
X10512710Y44653793D01*
X10451425Y44768450D01*
X10368948Y44868948D01*
X10343770Y44889611D01*
X9589616Y45643764D01*
X9568948Y45668948D01*
X9468450Y45751425D01*
X9353793Y45812710D01*
X9229383Y45850450D01*
X9132419Y45860000D01*
X9132409Y45860000D01*
X9100000Y45863192D01*
X9067591Y45860000D01*
X7660000Y45860000D01*
X7660000Y47740000D01*
X22596599Y47740000D01*
X22557824Y47719274D01*
G37*
%TD.AperFunction*%
%TD*%
D20*
%TO.N,GND*%
X22557824Y23419274D02*
X22442099Y23324301D01*
X22418301Y23295303D01*
X20080399Y20957400D01*
X20018261Y20957400D01*
X19818302Y20917626D01*
X19629944Y20839605D01*
X19460426Y20726337D01*
X19316263Y20582174D01*
X19202995Y20412656D01*
X19124974Y20224298D01*
X19085200Y20024339D01*
X19085200Y19820461D01*
X19124974Y19620502D01*
X19202995Y19432144D01*
X19316263Y19262626D01*
X19460426Y19118463D01*
X19629944Y19005195D01*
X19818302Y18927174D01*
X20018261Y18887400D01*
X20222139Y18887400D01*
X20422098Y18927174D01*
X20610456Y19005195D01*
X20779974Y19118463D01*
X20924137Y19262626D01*
X21037405Y19432144D01*
X21115426Y19620502D01*
X21155200Y19820461D01*
X21155200Y19882599D01*
X23296902Y22024300D01*
X80414246Y22024300D01*
X80415000Y21885750D01*
X80573750Y21727000D01*
X81773000Y21727000D01*
X81773000Y21747000D01*
X82027000Y21747000D01*
X82027000Y21727000D01*
X82047000Y21727000D01*
X82047000Y21473000D01*
X82027000Y21473000D01*
X82027000Y21453000D01*
X81773000Y21453000D01*
X81773000Y21473000D01*
X80573750Y21473000D01*
X80415000Y21314250D01*
X80414295Y21184700D01*
X63970322Y21184700D01*
X63932999Y21188376D01*
X63895676Y21184700D01*
X63895667Y21184700D01*
X63784014Y21173703D01*
X63656425Y21135000D01*
X63640753Y21130246D01*
X63508723Y21059674D01*
X63471814Y21029383D01*
X63392999Y20964701D01*
X63369201Y20935703D01*
X54225907Y11792408D01*
X54255000Y11938665D01*
X54255000Y12221335D01*
X54199853Y12498574D01*
X54091680Y12759727D01*
X53934637Y12994759D01*
X53734759Y13194637D01*
X53502241Y13350000D01*
X53734759Y13505363D01*
X53934637Y13705241D01*
X54091680Y13940273D01*
X54199853Y14201426D01*
X54255000Y14478665D01*
X54255000Y14761335D01*
X54199853Y15038574D01*
X54091680Y15299727D01*
X53934637Y15534759D01*
X53734759Y15734637D01*
X53502241Y15890000D01*
X53734759Y16045363D01*
X53934637Y16245241D01*
X54091680Y16480273D01*
X54199853Y16741426D01*
X54255000Y17018665D01*
X54255000Y17301335D01*
X54199853Y17578574D01*
X54091680Y17839727D01*
X53934637Y18074759D01*
X53734759Y18274637D01*
X53502241Y18430000D01*
X53734759Y18585363D01*
X53934637Y18785241D01*
X54091680Y19020273D01*
X54199853Y19281426D01*
X54255000Y19558665D01*
X54255000Y19841335D01*
X54199853Y20118574D01*
X54091680Y20379727D01*
X53934637Y20614759D01*
X53734759Y20814637D01*
X53499727Y20971680D01*
X53238574Y21079853D01*
X52961335Y21135000D01*
X52678665Y21135000D01*
X52401426Y21079853D01*
X52140273Y20971680D01*
X51905241Y20814637D01*
X51705363Y20614759D01*
X51548320Y20379727D01*
X51440147Y20118574D01*
X51385000Y19841335D01*
X51385000Y19558665D01*
X51440147Y19281426D01*
X51548320Y19020273D01*
X51705363Y18785241D01*
X51905241Y18585363D01*
X52137759Y18430000D01*
X51905241Y18274637D01*
X51705363Y18074759D01*
X51548320Y17839727D01*
X51440147Y17578574D01*
X51385000Y17301335D01*
X51385000Y17018665D01*
X51440147Y16741426D01*
X51548320Y16480273D01*
X51705363Y16245241D01*
X51905241Y16045363D01*
X52137759Y15890000D01*
X51905241Y15734637D01*
X51705363Y15534759D01*
X51548320Y15299727D01*
X51440147Y15038574D01*
X51385000Y14761335D01*
X51385000Y14478665D01*
X51440147Y14201426D01*
X51548320Y13940273D01*
X51705363Y13705241D01*
X51905241Y13505363D01*
X52137759Y13350000D01*
X51905241Y13194637D01*
X51705363Y12994759D01*
X51548320Y12759727D01*
X51440147Y12498574D01*
X51385000Y12221335D01*
X51385000Y11938665D01*
X51440147Y11661426D01*
X51478017Y11570000D01*
X46541983Y11570000D01*
X46579853Y11661426D01*
X46635000Y11938665D01*
X46635000Y12221335D01*
X46579853Y12498574D01*
X46471680Y12759727D01*
X46327063Y12976162D01*
X46836303Y13485401D01*
X46865301Y13509199D01*
X46960274Y13624924D01*
X47030846Y13756953D01*
X47074303Y13900214D01*
X47085300Y14011867D01*
X47085300Y14011877D01*
X47088976Y14049200D01*
X47085300Y14086523D01*
X47085300Y17693378D01*
X47088976Y17730701D01*
X47085300Y17768024D01*
X47085300Y17768033D01*
X47074303Y17879686D01*
X47030846Y18022947D01*
X46960274Y18154976D01*
X46865301Y18270701D01*
X46836304Y18294498D01*
X46327023Y18803778D01*
X46471680Y19020273D01*
X46579853Y19281426D01*
X46635000Y19558665D01*
X46635000Y19841335D01*
X46579853Y20118574D01*
X46471680Y20379727D01*
X46314637Y20614759D01*
X46114759Y20814637D01*
X45879727Y20971680D01*
X45618574Y21079853D01*
X45341335Y21135000D01*
X45058665Y21135000D01*
X44781426Y21079853D01*
X44520273Y20971680D01*
X44285241Y20814637D01*
X44160053Y20689449D01*
X43231804Y21617697D01*
X43208001Y21646701D01*
X43092276Y21741674D01*
X42960247Y21812246D01*
X42816986Y21855703D01*
X42705333Y21866700D01*
X42705322Y21866700D01*
X42668000Y21870376D01*
X42630678Y21866700D01*
X25819323Y21866700D01*
X25782000Y21870376D01*
X25744677Y21866700D01*
X25744667Y21866700D01*
X25633014Y21855703D01*
X25489753Y21812246D01*
X25357724Y21741674D01*
X25241999Y21646701D01*
X25218201Y21617703D01*
X20617899Y17017400D01*
X16478302Y17017400D01*
X11153800Y22341901D01*
X11153800Y22404039D01*
X11114026Y22603998D01*
X11036005Y22792356D01*
X10922737Y22961874D01*
X10778574Y23106037D01*
X10609056Y23219305D01*
X10420698Y23297326D01*
X10220739Y23337100D01*
X10016861Y23337100D01*
X9816902Y23297326D01*
X9628544Y23219305D01*
X9459026Y23106037D01*
X9314863Y22961874D01*
X9201595Y22792356D01*
X9123574Y22603998D01*
X9083800Y22404039D01*
X9083800Y22200161D01*
X9123574Y22000202D01*
X9201595Y21811844D01*
X9314863Y21642326D01*
X9459026Y21498163D01*
X9628544Y21384895D01*
X9816902Y21306874D01*
X10016861Y21267100D01*
X10078999Y21267100D01*
X15403501Y15942597D01*
X15403500Y5343601D01*
X14160000Y6587101D01*
X14160000Y11612913D01*
X14274482Y11624188D01*
X14394180Y11660498D01*
X14504494Y11719463D01*
X14601185Y11798815D01*
X14680537Y11895506D01*
X14739502Y12005820D01*
X14775812Y12125518D01*
X14788072Y12250000D01*
X14788072Y13750000D01*
X14775812Y13874482D01*
X14739502Y13994180D01*
X14680537Y14104494D01*
X14601185Y14201185D01*
X14504494Y14280537D01*
X14394180Y14339502D01*
X14274482Y14375812D01*
X14150000Y14388072D01*
X12650000Y14388072D01*
X12525518Y14375812D01*
X12405820Y14339502D01*
X12295506Y14280537D01*
X12198815Y14201185D01*
X12119463Y14104494D01*
X12060498Y13994180D01*
X12024188Y13874482D01*
X12011928Y13750000D01*
X12011928Y12250000D01*
X12024188Y12125518D01*
X12060498Y12005820D01*
X12119463Y11895506D01*
X12198815Y11798815D01*
X12295506Y11719463D01*
X12405820Y11660498D01*
X12525518Y11624188D01*
X12640001Y11612913D01*
X12640000Y6309623D01*
X12636324Y6272300D01*
X12640000Y6234978D01*
X12640000Y6234968D01*
X12650997Y6123315D01*
X12676270Y6040000D01*
X12694454Y5980054D01*
X12765026Y5848024D01*
X12804871Y5799474D01*
X12859999Y5732299D01*
X12889003Y5708496D01*
X15798701Y2798797D01*
X15822499Y2769799D01*
X15938224Y2674826D01*
X16070253Y2604254D01*
X16213514Y2560797D01*
X16325167Y2549800D01*
X16325175Y2549800D01*
X16362500Y2546124D01*
X16399825Y2549800D01*
X54872478Y2549800D01*
X54909800Y2546124D01*
X54947122Y2549800D01*
X54947133Y2549800D01*
X55058786Y2560797D01*
X55202047Y2604254D01*
X55334076Y2674826D01*
X55449801Y2769799D01*
X55473604Y2798803D01*
X58714802Y6040000D01*
X59276109Y6040000D01*
X59036627Y5992364D01*
X58716327Y5859692D01*
X58428065Y5667081D01*
X58182919Y5421935D01*
X57990308Y5133673D01*
X57857636Y4813373D01*
X57790000Y4473345D01*
X57790000Y4126655D01*
X57857636Y3786627D01*
X57990308Y3466327D01*
X58182919Y3178065D01*
X58428065Y2932919D01*
X58716327Y2740308D01*
X59036627Y2607636D01*
X59376655Y2540000D01*
X59723345Y2540000D01*
X60063373Y2607636D01*
X60383673Y2740308D01*
X60671935Y2932919D01*
X60917081Y3178065D01*
X61109692Y3466327D01*
X61229903Y3756544D01*
X61257703Y3689430D01*
X61398768Y3478310D01*
X61578310Y3298768D01*
X61789430Y3157703D01*
X62024013Y3060535D01*
X62273045Y3011000D01*
X62526955Y3011000D01*
X62775987Y3060535D01*
X63010570Y3157703D01*
X63221690Y3298768D01*
X63400000Y3477078D01*
X63578310Y3298768D01*
X63789430Y3157703D01*
X64024013Y3060535D01*
X64273045Y3011000D01*
X64526955Y3011000D01*
X64775987Y3060535D01*
X65010570Y3157703D01*
X65221690Y3298768D01*
X65400000Y3477078D01*
X65578310Y3298768D01*
X65789430Y3157703D01*
X66024013Y3060535D01*
X66273045Y3011000D01*
X66526955Y3011000D01*
X66775987Y3060535D01*
X67010570Y3157703D01*
X67221690Y3298768D01*
X67401232Y3478310D01*
X67542297Y3689430D01*
X67570097Y3756544D01*
X67690308Y3466327D01*
X67882919Y3178065D01*
X68128065Y2932919D01*
X68416327Y2740308D01*
X68736627Y2607636D01*
X69076655Y2540000D01*
X69423345Y2540000D01*
X69763373Y2607636D01*
X70083673Y2740308D01*
X70371935Y2932919D01*
X70617081Y3178065D01*
X70809692Y3466327D01*
X70942364Y3786627D01*
X71010000Y4126655D01*
X71010000Y4473345D01*
X70942364Y4813373D01*
X70809692Y5133673D01*
X70617081Y5421935D01*
X70371935Y5667081D01*
X70083673Y5859692D01*
X69763373Y5992364D01*
X69423345Y6060000D01*
X69076655Y6060000D01*
X68736627Y5992364D01*
X68416327Y5859692D01*
X68128065Y5667081D01*
X67882919Y5421935D01*
X67690308Y5133673D01*
X67570097Y4843456D01*
X67542297Y4910570D01*
X67401232Y5121690D01*
X67221690Y5301232D01*
X67010570Y5442297D01*
X66775987Y5539465D01*
X66526955Y5589000D01*
X66273045Y5589000D01*
X66024013Y5539465D01*
X65789430Y5442297D01*
X65578310Y5301232D01*
X65400000Y5122922D01*
X65221690Y5301232D01*
X65010570Y5442297D01*
X64775987Y5539465D01*
X64526955Y5589000D01*
X64273045Y5589000D01*
X64024013Y5539465D01*
X63789430Y5442297D01*
X63578310Y5301232D01*
X63400000Y5122922D01*
X63221690Y5301232D01*
X63010570Y5442297D01*
X62775987Y5539465D01*
X62526955Y5589000D01*
X62273045Y5589000D01*
X62024013Y5539465D01*
X61789430Y5442297D01*
X61578310Y5301232D01*
X61398768Y5121690D01*
X61257703Y4910570D01*
X61229903Y4843456D01*
X61109692Y5133673D01*
X60917081Y5421935D01*
X60671935Y5667081D01*
X60383673Y5859692D01*
X60063373Y5992364D01*
X59823891Y6040000D01*
X68662678Y6040000D01*
X68700000Y6036324D01*
X68737322Y6040000D01*
X68737333Y6040000D01*
X68848986Y6050997D01*
X68992247Y6094454D01*
X69124276Y6165026D01*
X69240001Y6259999D01*
X69263804Y6289003D01*
X71031104Y8056302D01*
X71060101Y8080099D01*
X71125795Y8160147D01*
X71155074Y8195823D01*
X71225646Y8327853D01*
X71241420Y8379853D01*
X71269103Y8471114D01*
X71280100Y8582767D01*
X71280100Y8582776D01*
X71283776Y8620099D01*
X71280100Y8657422D01*
X71280100Y13750000D01*
X95011928Y13750000D01*
X95011928Y12250000D01*
X95024188Y12125518D01*
X95060498Y12005820D01*
X95119463Y11895506D01*
X95198815Y11798815D01*
X95295506Y11719463D01*
X95405820Y11660498D01*
X95525518Y11624188D01*
X95650000Y11611928D01*
X97150000Y11611928D01*
X97274482Y11624188D01*
X97394180Y11660498D01*
X97504494Y11719463D01*
X97601185Y11798815D01*
X97680537Y11895506D01*
X97739502Y12005820D01*
X97775812Y12125518D01*
X97788072Y12250000D01*
X97788072Y13750000D01*
X97775812Y13874482D01*
X97739502Y13994180D01*
X97680537Y14104494D01*
X97601185Y14201185D01*
X97504494Y14280537D01*
X97394180Y14339502D01*
X97274482Y14375812D01*
X97150000Y14388072D01*
X95650000Y14388072D01*
X95525518Y14375812D01*
X95405820Y14339502D01*
X95295506Y14280537D01*
X95198815Y14201185D01*
X95119463Y14104494D01*
X95060498Y13994180D01*
X95024188Y13874482D01*
X95011928Y13750000D01*
X71280100Y13750000D01*
X71280100Y14679289D01*
X71324037Y14723226D01*
X71437305Y14892744D01*
X71515326Y15081102D01*
X71555100Y15281061D01*
X71555100Y15484939D01*
X71515326Y15684898D01*
X71437305Y15873256D01*
X71324037Y16042774D01*
X71179874Y16186937D01*
X71010356Y16300205D01*
X70821998Y16378226D01*
X70622039Y16418000D01*
X70418161Y16418000D01*
X70218202Y16378226D01*
X70029844Y16300205D01*
X69860326Y16186937D01*
X69716163Y16042774D01*
X69602895Y15873256D01*
X69524874Y15684898D01*
X69485100Y15484939D01*
X69485100Y15281061D01*
X69524874Y15081102D01*
X69602895Y14892744D01*
X69716163Y14723226D01*
X69760101Y14679288D01*
X69760100Y8934902D01*
X68385199Y7560000D01*
X58437322Y7560000D01*
X58399999Y7563676D01*
X58362676Y7560000D01*
X58362667Y7560000D01*
X58251014Y7549003D01*
X58107753Y7505546D01*
X57975724Y7434974D01*
X57859999Y7340001D01*
X57836201Y7311003D01*
X54594999Y4069800D01*
X54205497Y4069800D01*
X54255000Y4318665D01*
X54255000Y4601335D01*
X54199853Y4878574D01*
X54091680Y5139727D01*
X53934637Y5374759D01*
X53734759Y5574637D01*
X53502241Y5730000D01*
X53734759Y5885363D01*
X53934637Y6085241D01*
X54091680Y6320273D01*
X54199853Y6581426D01*
X54255000Y6858665D01*
X54255000Y7141335D01*
X54199853Y7418574D01*
X54091680Y7679727D01*
X53934637Y7914759D01*
X53734759Y8114637D01*
X53502241Y8270000D01*
X53734759Y8425363D01*
X53934637Y8625241D01*
X54091680Y8860273D01*
X54199853Y9121426D01*
X54255000Y9398665D01*
X54255000Y9681335D01*
X54199853Y9958574D01*
X54161983Y10050000D01*
X54280978Y10050000D01*
X54318300Y10046324D01*
X54355622Y10050000D01*
X54355633Y10050000D01*
X54467286Y10060997D01*
X54610547Y10104454D01*
X54742576Y10175026D01*
X54858301Y10269999D01*
X54882104Y10299003D01*
X64247802Y19664700D01*
X84959478Y19664700D01*
X84996800Y19661024D01*
X85034122Y19664700D01*
X85034133Y19664700D01*
X85145786Y19675697D01*
X85289047Y19719154D01*
X85421076Y19789726D01*
X85536801Y19884699D01*
X85560603Y19913702D01*
X86069371Y20422469D01*
X86276589Y20284010D01*
X86546842Y20172068D01*
X86833740Y20115000D01*
X87126260Y20115000D01*
X87413158Y20172068D01*
X87683411Y20284010D01*
X87926632Y20446525D01*
X88133475Y20653368D01*
X88250000Y20827760D01*
X88366525Y20653368D01*
X88573368Y20446525D01*
X88816589Y20284010D01*
X89086842Y20172068D01*
X89373740Y20115000D01*
X89666260Y20115000D01*
X89953158Y20172068D01*
X90223411Y20284010D01*
X90466632Y20446525D01*
X90673475Y20653368D01*
X90790000Y20827760D01*
X90906525Y20653368D01*
X91113368Y20446525D01*
X91356589Y20284010D01*
X91626842Y20172068D01*
X91913740Y20115000D01*
X92206260Y20115000D01*
X92493158Y20172068D01*
X92763411Y20284010D01*
X93006632Y20446525D01*
X93213475Y20653368D01*
X93375990Y20896589D01*
X93487932Y21166842D01*
X93545000Y21453740D01*
X93545000Y21746260D01*
X93487932Y22033158D01*
X93375990Y22303411D01*
X93213475Y22546632D01*
X93006632Y22753475D01*
X92763411Y22915990D01*
X92493158Y23027932D01*
X92206260Y23085000D01*
X91913740Y23085000D01*
X91626842Y23027932D01*
X91356589Y22915990D01*
X91149311Y22777491D01*
X90631503Y23295298D01*
X90607701Y23324301D01*
X90491976Y23419274D01*
X90453201Y23440000D01*
X98240001Y23440000D01*
X98240000Y2460000D01*
X7660000Y2460000D01*
X7660000Y4140000D01*
X9067591Y4140000D01*
X9100000Y4136808D01*
X9132409Y4140000D01*
X9132419Y4140000D01*
X9229383Y4149550D01*
X9353793Y4187290D01*
X9468450Y4248575D01*
X9568948Y4331052D01*
X9589616Y4356236D01*
X10343769Y5110388D01*
X10368948Y5131052D01*
X10451425Y5231550D01*
X10512710Y5346207D01*
X10550450Y5470617D01*
X10560000Y5567581D01*
X10560000Y5567591D01*
X10563192Y5600000D01*
X10560000Y5632409D01*
X10560000Y20067591D01*
X10563192Y20100000D01*
X10560000Y20132409D01*
X10560000Y20132419D01*
X10550450Y20229383D01*
X10512710Y20353793D01*
X10451425Y20468450D01*
X10368948Y20568948D01*
X10343770Y20589611D01*
X9589616Y21343764D01*
X9568948Y21368948D01*
X9468450Y21451425D01*
X9353793Y21512710D01*
X9229383Y21550450D01*
X9132419Y21560000D01*
X9132409Y21560000D01*
X9100000Y21563192D01*
X9067591Y21560000D01*
X7660000Y21560000D01*
X7660000Y23440000D01*
X22596599Y23440000D01*
X22557824Y23419274D01*
%TA.AperFunction,Conductor*%
D21*
G36*
X22557824Y23419274D02*
G01*
X22442099Y23324301D01*
X22418301Y23295303D01*
X20080399Y20957400D01*
X20018261Y20957400D01*
X19818302Y20917626D01*
X19629944Y20839605D01*
X19460426Y20726337D01*
X19316263Y20582174D01*
X19202995Y20412656D01*
X19124974Y20224298D01*
X19085200Y20024339D01*
X19085200Y19820461D01*
X19124974Y19620502D01*
X19202995Y19432144D01*
X19316263Y19262626D01*
X19460426Y19118463D01*
X19629944Y19005195D01*
X19818302Y18927174D01*
X20018261Y18887400D01*
X20222139Y18887400D01*
X20422098Y18927174D01*
X20610456Y19005195D01*
X20779974Y19118463D01*
X20924137Y19262626D01*
X21037405Y19432144D01*
X21115426Y19620502D01*
X21155200Y19820461D01*
X21155200Y19882599D01*
X23296902Y22024300D01*
X80414246Y22024300D01*
X80415000Y21885750D01*
X80573750Y21727000D01*
X81773000Y21727000D01*
X81773000Y21747000D01*
X82027000Y21747000D01*
X82027000Y21727000D01*
X82047000Y21727000D01*
X82047000Y21473000D01*
X82027000Y21473000D01*
X82027000Y21453000D01*
X81773000Y21453000D01*
X81773000Y21473000D01*
X80573750Y21473000D01*
X80415000Y21314250D01*
X80414295Y21184700D01*
X63970322Y21184700D01*
X63932999Y21188376D01*
X63895676Y21184700D01*
X63895667Y21184700D01*
X63784014Y21173703D01*
X63656425Y21135000D01*
X63640753Y21130246D01*
X63508723Y21059674D01*
X63471814Y21029383D01*
X63392999Y20964701D01*
X63369201Y20935703D01*
X54225907Y11792408D01*
X54255000Y11938665D01*
X54255000Y12221335D01*
X54199853Y12498574D01*
X54091680Y12759727D01*
X53934637Y12994759D01*
X53734759Y13194637D01*
X53502241Y13350000D01*
X53734759Y13505363D01*
X53934637Y13705241D01*
X54091680Y13940273D01*
X54199853Y14201426D01*
X54255000Y14478665D01*
X54255000Y14761335D01*
X54199853Y15038574D01*
X54091680Y15299727D01*
X53934637Y15534759D01*
X53734759Y15734637D01*
X53502241Y15890000D01*
X53734759Y16045363D01*
X53934637Y16245241D01*
X54091680Y16480273D01*
X54199853Y16741426D01*
X54255000Y17018665D01*
X54255000Y17301335D01*
X54199853Y17578574D01*
X54091680Y17839727D01*
X53934637Y18074759D01*
X53734759Y18274637D01*
X53502241Y18430000D01*
X53734759Y18585363D01*
X53934637Y18785241D01*
X54091680Y19020273D01*
X54199853Y19281426D01*
X54255000Y19558665D01*
X54255000Y19841335D01*
X54199853Y20118574D01*
X54091680Y20379727D01*
X53934637Y20614759D01*
X53734759Y20814637D01*
X53499727Y20971680D01*
X53238574Y21079853D01*
X52961335Y21135000D01*
X52678665Y21135000D01*
X52401426Y21079853D01*
X52140273Y20971680D01*
X51905241Y20814637D01*
X51705363Y20614759D01*
X51548320Y20379727D01*
X51440147Y20118574D01*
X51385000Y19841335D01*
X51385000Y19558665D01*
X51440147Y19281426D01*
X51548320Y19020273D01*
X51705363Y18785241D01*
X51905241Y18585363D01*
X52137759Y18430000D01*
X51905241Y18274637D01*
X51705363Y18074759D01*
X51548320Y17839727D01*
X51440147Y17578574D01*
X51385000Y17301335D01*
X51385000Y17018665D01*
X51440147Y16741426D01*
X51548320Y16480273D01*
X51705363Y16245241D01*
X51905241Y16045363D01*
X52137759Y15890000D01*
X51905241Y15734637D01*
X51705363Y15534759D01*
X51548320Y15299727D01*
X51440147Y15038574D01*
X51385000Y14761335D01*
X51385000Y14478665D01*
X51440147Y14201426D01*
X51548320Y13940273D01*
X51705363Y13705241D01*
X51905241Y13505363D01*
X52137759Y13350000D01*
X51905241Y13194637D01*
X51705363Y12994759D01*
X51548320Y12759727D01*
X51440147Y12498574D01*
X51385000Y12221335D01*
X51385000Y11938665D01*
X51440147Y11661426D01*
X51478017Y11570000D01*
X46541983Y11570000D01*
X46579853Y11661426D01*
X46635000Y11938665D01*
X46635000Y12221335D01*
X46579853Y12498574D01*
X46471680Y12759727D01*
X46327063Y12976162D01*
X46836303Y13485401D01*
X46865301Y13509199D01*
X46960274Y13624924D01*
X47030846Y13756953D01*
X47074303Y13900214D01*
X47085300Y14011867D01*
X47085300Y14011877D01*
X47088976Y14049200D01*
X47085300Y14086523D01*
X47085300Y17693378D01*
X47088976Y17730701D01*
X47085300Y17768024D01*
X47085300Y17768033D01*
X47074303Y17879686D01*
X47030846Y18022947D01*
X46960274Y18154976D01*
X46865301Y18270701D01*
X46836304Y18294498D01*
X46327023Y18803778D01*
X46471680Y19020273D01*
X46579853Y19281426D01*
X46635000Y19558665D01*
X46635000Y19841335D01*
X46579853Y20118574D01*
X46471680Y20379727D01*
X46314637Y20614759D01*
X46114759Y20814637D01*
X45879727Y20971680D01*
X45618574Y21079853D01*
X45341335Y21135000D01*
X45058665Y21135000D01*
X44781426Y21079853D01*
X44520273Y20971680D01*
X44285241Y20814637D01*
X44160053Y20689449D01*
X43231804Y21617697D01*
X43208001Y21646701D01*
X43092276Y21741674D01*
X42960247Y21812246D01*
X42816986Y21855703D01*
X42705333Y21866700D01*
X42705322Y21866700D01*
X42668000Y21870376D01*
X42630678Y21866700D01*
X25819323Y21866700D01*
X25782000Y21870376D01*
X25744677Y21866700D01*
X25744667Y21866700D01*
X25633014Y21855703D01*
X25489753Y21812246D01*
X25357724Y21741674D01*
X25241999Y21646701D01*
X25218201Y21617703D01*
X20617899Y17017400D01*
X16478302Y17017400D01*
X11153800Y22341901D01*
X11153800Y22404039D01*
X11114026Y22603998D01*
X11036005Y22792356D01*
X10922737Y22961874D01*
X10778574Y23106037D01*
X10609056Y23219305D01*
X10420698Y23297326D01*
X10220739Y23337100D01*
X10016861Y23337100D01*
X9816902Y23297326D01*
X9628544Y23219305D01*
X9459026Y23106037D01*
X9314863Y22961874D01*
X9201595Y22792356D01*
X9123574Y22603998D01*
X9083800Y22404039D01*
X9083800Y22200161D01*
X9123574Y22000202D01*
X9201595Y21811844D01*
X9314863Y21642326D01*
X9459026Y21498163D01*
X9628544Y21384895D01*
X9816902Y21306874D01*
X10016861Y21267100D01*
X10078999Y21267100D01*
X15403501Y15942597D01*
X15403500Y5343601D01*
X14160000Y6587101D01*
X14160000Y11612913D01*
X14274482Y11624188D01*
X14394180Y11660498D01*
X14504494Y11719463D01*
X14601185Y11798815D01*
X14680537Y11895506D01*
X14739502Y12005820D01*
X14775812Y12125518D01*
X14788072Y12250000D01*
X14788072Y13750000D01*
X14775812Y13874482D01*
X14739502Y13994180D01*
X14680537Y14104494D01*
X14601185Y14201185D01*
X14504494Y14280537D01*
X14394180Y14339502D01*
X14274482Y14375812D01*
X14150000Y14388072D01*
X12650000Y14388072D01*
X12525518Y14375812D01*
X12405820Y14339502D01*
X12295506Y14280537D01*
X12198815Y14201185D01*
X12119463Y14104494D01*
X12060498Y13994180D01*
X12024188Y13874482D01*
X12011928Y13750000D01*
X12011928Y12250000D01*
X12024188Y12125518D01*
X12060498Y12005820D01*
X12119463Y11895506D01*
X12198815Y11798815D01*
X12295506Y11719463D01*
X12405820Y11660498D01*
X12525518Y11624188D01*
X12640001Y11612913D01*
X12640000Y6309623D01*
X12636324Y6272300D01*
X12640000Y6234978D01*
X12640000Y6234968D01*
X12650997Y6123315D01*
X12676270Y6040000D01*
X12694454Y5980054D01*
X12765026Y5848024D01*
X12804871Y5799474D01*
X12859999Y5732299D01*
X12889003Y5708496D01*
X15798701Y2798797D01*
X15822499Y2769799D01*
X15938224Y2674826D01*
X16070253Y2604254D01*
X16213514Y2560797D01*
X16325167Y2549800D01*
X16325175Y2549800D01*
X16362500Y2546124D01*
X16399825Y2549800D01*
X54872478Y2549800D01*
X54909800Y2546124D01*
X54947122Y2549800D01*
X54947133Y2549800D01*
X55058786Y2560797D01*
X55202047Y2604254D01*
X55334076Y2674826D01*
X55449801Y2769799D01*
X55473604Y2798803D01*
X58714802Y6040000D01*
X59276109Y6040000D01*
X59036627Y5992364D01*
X58716327Y5859692D01*
X58428065Y5667081D01*
X58182919Y5421935D01*
X57990308Y5133673D01*
X57857636Y4813373D01*
X57790000Y4473345D01*
X57790000Y4126655D01*
X57857636Y3786627D01*
X57990308Y3466327D01*
X58182919Y3178065D01*
X58428065Y2932919D01*
X58716327Y2740308D01*
X59036627Y2607636D01*
X59376655Y2540000D01*
X59723345Y2540000D01*
X60063373Y2607636D01*
X60383673Y2740308D01*
X60671935Y2932919D01*
X60917081Y3178065D01*
X61109692Y3466327D01*
X61229903Y3756544D01*
X61257703Y3689430D01*
X61398768Y3478310D01*
X61578310Y3298768D01*
X61789430Y3157703D01*
X62024013Y3060535D01*
X62273045Y3011000D01*
X62526955Y3011000D01*
X62775987Y3060535D01*
X63010570Y3157703D01*
X63221690Y3298768D01*
X63400000Y3477078D01*
X63578310Y3298768D01*
X63789430Y3157703D01*
X64024013Y3060535D01*
X64273045Y3011000D01*
X64526955Y3011000D01*
X64775987Y3060535D01*
X65010570Y3157703D01*
X65221690Y3298768D01*
X65400000Y3477078D01*
X65578310Y3298768D01*
X65789430Y3157703D01*
X66024013Y3060535D01*
X66273045Y3011000D01*
X66526955Y3011000D01*
X66775987Y3060535D01*
X67010570Y3157703D01*
X67221690Y3298768D01*
X67401232Y3478310D01*
X67542297Y3689430D01*
X67570097Y3756544D01*
X67690308Y3466327D01*
X67882919Y3178065D01*
X68128065Y2932919D01*
X68416327Y2740308D01*
X68736627Y2607636D01*
X69076655Y2540000D01*
X69423345Y2540000D01*
X69763373Y2607636D01*
X70083673Y2740308D01*
X70371935Y2932919D01*
X70617081Y3178065D01*
X70809692Y3466327D01*
X70942364Y3786627D01*
X71010000Y4126655D01*
X71010000Y4473345D01*
X70942364Y4813373D01*
X70809692Y5133673D01*
X70617081Y5421935D01*
X70371935Y5667081D01*
X70083673Y5859692D01*
X69763373Y5992364D01*
X69423345Y6060000D01*
X69076655Y6060000D01*
X68736627Y5992364D01*
X68416327Y5859692D01*
X68128065Y5667081D01*
X67882919Y5421935D01*
X67690308Y5133673D01*
X67570097Y4843456D01*
X67542297Y4910570D01*
X67401232Y5121690D01*
X67221690Y5301232D01*
X67010570Y5442297D01*
X66775987Y5539465D01*
X66526955Y5589000D01*
X66273045Y5589000D01*
X66024013Y5539465D01*
X65789430Y5442297D01*
X65578310Y5301232D01*
X65400000Y5122922D01*
X65221690Y5301232D01*
X65010570Y5442297D01*
X64775987Y5539465D01*
X64526955Y5589000D01*
X64273045Y5589000D01*
X64024013Y5539465D01*
X63789430Y5442297D01*
X63578310Y5301232D01*
X63400000Y5122922D01*
X63221690Y5301232D01*
X63010570Y5442297D01*
X62775987Y5539465D01*
X62526955Y5589000D01*
X62273045Y5589000D01*
X62024013Y5539465D01*
X61789430Y5442297D01*
X61578310Y5301232D01*
X61398768Y5121690D01*
X61257703Y4910570D01*
X61229903Y4843456D01*
X61109692Y5133673D01*
X60917081Y5421935D01*
X60671935Y5667081D01*
X60383673Y5859692D01*
X60063373Y5992364D01*
X59823891Y6040000D01*
X68662678Y6040000D01*
X68700000Y6036324D01*
X68737322Y6040000D01*
X68737333Y6040000D01*
X68848986Y6050997D01*
X68992247Y6094454D01*
X69124276Y6165026D01*
X69240001Y6259999D01*
X69263804Y6289003D01*
X71031104Y8056302D01*
X71060101Y8080099D01*
X71125795Y8160147D01*
X71155074Y8195823D01*
X71225646Y8327853D01*
X71241420Y8379853D01*
X71269103Y8471114D01*
X71280100Y8582767D01*
X71280100Y8582776D01*
X71283776Y8620099D01*
X71280100Y8657422D01*
X71280100Y13750000D01*
X95011928Y13750000D01*
X95011928Y12250000D01*
X95024188Y12125518D01*
X95060498Y12005820D01*
X95119463Y11895506D01*
X95198815Y11798815D01*
X95295506Y11719463D01*
X95405820Y11660498D01*
X95525518Y11624188D01*
X95650000Y11611928D01*
X97150000Y11611928D01*
X97274482Y11624188D01*
X97394180Y11660498D01*
X97504494Y11719463D01*
X97601185Y11798815D01*
X97680537Y11895506D01*
X97739502Y12005820D01*
X97775812Y12125518D01*
X97788072Y12250000D01*
X97788072Y13750000D01*
X97775812Y13874482D01*
X97739502Y13994180D01*
X97680537Y14104494D01*
X97601185Y14201185D01*
X97504494Y14280537D01*
X97394180Y14339502D01*
X97274482Y14375812D01*
X97150000Y14388072D01*
X95650000Y14388072D01*
X95525518Y14375812D01*
X95405820Y14339502D01*
X95295506Y14280537D01*
X95198815Y14201185D01*
X95119463Y14104494D01*
X95060498Y13994180D01*
X95024188Y13874482D01*
X95011928Y13750000D01*
X71280100Y13750000D01*
X71280100Y14679289D01*
X71324037Y14723226D01*
X71437305Y14892744D01*
X71515326Y15081102D01*
X71555100Y15281061D01*
X71555100Y15484939D01*
X71515326Y15684898D01*
X71437305Y15873256D01*
X71324037Y16042774D01*
X71179874Y16186937D01*
X71010356Y16300205D01*
X70821998Y16378226D01*
X70622039Y16418000D01*
X70418161Y16418000D01*
X70218202Y16378226D01*
X70029844Y16300205D01*
X69860326Y16186937D01*
X69716163Y16042774D01*
X69602895Y15873256D01*
X69524874Y15684898D01*
X69485100Y15484939D01*
X69485100Y15281061D01*
X69524874Y15081102D01*
X69602895Y14892744D01*
X69716163Y14723226D01*
X69760101Y14679288D01*
X69760100Y8934902D01*
X68385199Y7560000D01*
X58437322Y7560000D01*
X58399999Y7563676D01*
X58362676Y7560000D01*
X58362667Y7560000D01*
X58251014Y7549003D01*
X58107753Y7505546D01*
X57975724Y7434974D01*
X57859999Y7340001D01*
X57836201Y7311003D01*
X54594999Y4069800D01*
X54205497Y4069800D01*
X54255000Y4318665D01*
X54255000Y4601335D01*
X54199853Y4878574D01*
X54091680Y5139727D01*
X53934637Y5374759D01*
X53734759Y5574637D01*
X53502241Y5730000D01*
X53734759Y5885363D01*
X53934637Y6085241D01*
X54091680Y6320273D01*
X54199853Y6581426D01*
X54255000Y6858665D01*
X54255000Y7141335D01*
X54199853Y7418574D01*
X54091680Y7679727D01*
X53934637Y7914759D01*
X53734759Y8114637D01*
X53502241Y8270000D01*
X53734759Y8425363D01*
X53934637Y8625241D01*
X54091680Y8860273D01*
X54199853Y9121426D01*
X54255000Y9398665D01*
X54255000Y9681335D01*
X54199853Y9958574D01*
X54161983Y10050000D01*
X54280978Y10050000D01*
X54318300Y10046324D01*
X54355622Y10050000D01*
X54355633Y10050000D01*
X54467286Y10060997D01*
X54610547Y10104454D01*
X54742576Y10175026D01*
X54858301Y10269999D01*
X54882104Y10299003D01*
X64247802Y19664700D01*
X84959478Y19664700D01*
X84996800Y19661024D01*
X85034122Y19664700D01*
X85034133Y19664700D01*
X85145786Y19675697D01*
X85289047Y19719154D01*
X85421076Y19789726D01*
X85536801Y19884699D01*
X85560603Y19913702D01*
X86069371Y20422469D01*
X86276589Y20284010D01*
X86546842Y20172068D01*
X86833740Y20115000D01*
X87126260Y20115000D01*
X87413158Y20172068D01*
X87683411Y20284010D01*
X87926632Y20446525D01*
X88133475Y20653368D01*
X88250000Y20827760D01*
X88366525Y20653368D01*
X88573368Y20446525D01*
X88816589Y20284010D01*
X89086842Y20172068D01*
X89373740Y20115000D01*
X89666260Y20115000D01*
X89953158Y20172068D01*
X90223411Y20284010D01*
X90466632Y20446525D01*
X90673475Y20653368D01*
X90790000Y20827760D01*
X90906525Y20653368D01*
X91113368Y20446525D01*
X91356589Y20284010D01*
X91626842Y20172068D01*
X91913740Y20115000D01*
X92206260Y20115000D01*
X92493158Y20172068D01*
X92763411Y20284010D01*
X93006632Y20446525D01*
X93213475Y20653368D01*
X93375990Y20896589D01*
X93487932Y21166842D01*
X93545000Y21453740D01*
X93545000Y21746260D01*
X93487932Y22033158D01*
X93375990Y22303411D01*
X93213475Y22546632D01*
X93006632Y22753475D01*
X92763411Y22915990D01*
X92493158Y23027932D01*
X92206260Y23085000D01*
X91913740Y23085000D01*
X91626842Y23027932D01*
X91356589Y22915990D01*
X91149311Y22777491D01*
X90631503Y23295298D01*
X90607701Y23324301D01*
X90491976Y23419274D01*
X90453201Y23440000D01*
X98240001Y23440000D01*
X98240000Y2460000D01*
X7660000Y2460000D01*
X7660000Y4140000D01*
X9067591Y4140000D01*
X9100000Y4136808D01*
X9132409Y4140000D01*
X9132419Y4140000D01*
X9229383Y4149550D01*
X9353793Y4187290D01*
X9468450Y4248575D01*
X9568948Y4331052D01*
X9589616Y4356236D01*
X10343769Y5110388D01*
X10368948Y5131052D01*
X10451425Y5231550D01*
X10512710Y5346207D01*
X10550450Y5470617D01*
X10560000Y5567581D01*
X10560000Y5567591D01*
X10563192Y5600000D01*
X10560000Y5632409D01*
X10560000Y20067591D01*
X10563192Y20100000D01*
X10560000Y20132409D01*
X10560000Y20132419D01*
X10550450Y20229383D01*
X10512710Y20353793D01*
X10451425Y20468450D01*
X10368948Y20568948D01*
X10343770Y20589611D01*
X9589616Y21343764D01*
X9568948Y21368948D01*
X9468450Y21451425D01*
X9353793Y21512710D01*
X9229383Y21550450D01*
X9132419Y21560000D01*
X9132409Y21560000D01*
X9100000Y21563192D01*
X9067591Y21560000D01*
X7660000Y21560000D01*
X7660000Y23440000D01*
X22596599Y23440000D01*
X22557824Y23419274D01*
G37*
%TD.AperFunction*%
%TD*%
M02*
