%TF.GenerationSoftware,KiCad,Pcbnew,5.1.12-84ad8e8a86~92~ubuntu18.04.1*%
%TF.CreationDate,2021-11-12T09:30:33+01:00*%
%TF.ProjectId,window-sensor,77696e64-6f77-42d7-9365-6e736f722e6b,rev?*%
%TF.SameCoordinates,PX5dd7700PY8ec3da0*%
%TF.FileFunction,Soldermask,Top*%
%TF.FilePolarity,Negative*%
%FSLAX46Y46*%
G04 Gerber Fmt 4.6, Leading zero omitted, Abs format (unit mm)*
G04 Created by KiCad (PCBNEW 5.1.12-84ad8e8a86~92~ubuntu18.04.1) date 2021-11-12 09:30:33*
%MOMM*%
%LPD*%
G01*
G04 APERTURE LIST*
%TA.AperFunction,Profile*%
%ADD10C,0.050000*%
%TD*%
%ADD11C,2.250000*%
%ADD12C,1.308000*%
%ADD13C,0.500000*%
%ADD14O,1.600000X1.600000*%
%ADD15R,1.600000X1.600000*%
%ADD16R,1.700000X1.700000*%
%ADD17O,1.700000X1.700000*%
%ADD18R,1.500000X1.500000*%
%ADD19R,1.000000X2.500000*%
%ADD20R,1.800000X1.000000*%
%ADD21R,2.000000X2.000000*%
%ADD22R,0.900000X1.300000*%
%ADD23C,0.100000*%
%ADD24R,2.540000X2.540000*%
G04 APERTURE END LIST*
D10*
X74900000Y1800000D02*
X78900000Y1800000D01*
X52000000Y1800000D02*
X56000000Y1800000D01*
X27000000Y1800000D02*
X31000000Y1800000D01*
X74900000Y97000000D02*
X78900000Y97000000D01*
X52000000Y97000000D02*
X56000000Y97000000D01*
X27000000Y97000000D02*
X31000000Y97000000D01*
X9100000Y20900000D02*
X9900000Y20100000D01*
X9100000Y45200000D02*
X9900000Y44400000D01*
X9100000Y69500000D02*
X9900000Y68700000D01*
X27000000Y26100000D02*
G75*
G02*
X27000000Y24100000I0J-1000000D01*
G01*
X27000000Y50400000D02*
G75*
G02*
X27000000Y48400000I0J-1000000D01*
G01*
X52000000Y26100000D02*
G75*
G02*
X52000000Y24100000I0J-1000000D01*
G01*
X52000000Y50400000D02*
G75*
G02*
X52000000Y48400000I0J-1000000D01*
G01*
X78900000Y24100000D02*
G75*
G02*
X78900000Y26100000I0J1000000D01*
G01*
X78900000Y48400000D02*
G75*
G02*
X78900000Y50400000I0J1000000D01*
G01*
X56000000Y1800000D02*
X74900000Y1800000D01*
X56000000Y26100000D02*
X74900000Y26100000D01*
X56000000Y50400000D02*
X74900000Y50400000D01*
X7000000Y4800000D02*
X7000000Y1800000D01*
X7000000Y29100000D02*
X7000000Y26100000D01*
X7000000Y53400000D02*
X7000000Y50400000D01*
X74900000Y26100000D02*
G75*
G02*
X74900000Y24100000I0J-1000000D01*
G01*
X74900000Y50400000D02*
G75*
G02*
X74900000Y48400000I0J-1000000D01*
G01*
X56000000Y24100000D02*
G75*
G02*
X56000000Y26100000I0J1000000D01*
G01*
X56000000Y48400000D02*
G75*
G02*
X56000000Y50400000I0J1000000D01*
G01*
X31000000Y1800000D02*
X52000000Y1800000D01*
X31000000Y26100000D02*
X52000000Y26100000D01*
X31000000Y50400000D02*
X52000000Y50400000D01*
X9100000Y4800000D02*
X9900000Y5600000D01*
X9100000Y29100000D02*
X9900000Y29900000D01*
X9100000Y53400000D02*
X9900000Y54200000D01*
X31000000Y24100000D02*
X52000000Y24100000D01*
X31000000Y48400000D02*
X52000000Y48400000D01*
X31000000Y72700000D02*
X52000000Y72700000D01*
X9900000Y20100000D02*
X9900000Y5600000D01*
X9900000Y44400000D02*
X9900000Y29900000D01*
X9900000Y68700000D02*
X9900000Y54200000D01*
X31000000Y24100000D02*
G75*
G02*
X31000000Y26100000I0J1000000D01*
G01*
X31000000Y48400000D02*
G75*
G02*
X31000000Y50400000I0J1000000D01*
G01*
X98900000Y24100000D02*
X78900000Y24100000D01*
X98900000Y48400000D02*
X78900000Y48400000D01*
X98900000Y72700000D02*
X78900000Y72700000D01*
X98900000Y1800000D02*
X98900000Y24100000D01*
X98900000Y26100000D02*
X98900000Y48400000D01*
X98900000Y50400000D02*
X98900000Y72700000D01*
X9100000Y4800000D02*
X7000000Y4800000D01*
X9100000Y29100000D02*
X7000000Y29100000D01*
X9100000Y53400000D02*
X7000000Y53400000D01*
X7000000Y20900000D02*
X7000000Y24100000D01*
X7000000Y45200000D02*
X7000000Y48400000D01*
X7000000Y69500000D02*
X7000000Y72700000D01*
X98900000Y1800000D02*
X78900000Y1800000D01*
X98900000Y26100000D02*
X78900000Y26100000D01*
X98900000Y50400000D02*
X78900000Y50400000D01*
X7000000Y24100000D02*
X27000000Y24100000D01*
X7000000Y48400000D02*
X27000000Y48400000D01*
X7000000Y72700000D02*
X27000000Y72700000D01*
X7000000Y20900000D02*
X9100000Y20900000D01*
X7000000Y45200000D02*
X9100000Y45200000D01*
X7000000Y69500000D02*
X9100000Y69500000D01*
X74900000Y24100000D02*
X56000000Y24100000D01*
X74900000Y48400000D02*
X56000000Y48400000D01*
X74900000Y72700000D02*
X56000000Y72700000D01*
X7000000Y1800000D02*
X27000000Y1800000D01*
X7000000Y26100000D02*
X27000000Y26100000D01*
X7000000Y50400000D02*
X27000000Y50400000D01*
X27000000Y74700000D02*
G75*
G02*
X27000000Y72700000I0J-1000000D01*
G01*
X31000000Y72700000D02*
G75*
G02*
X31000000Y74700000I0J1000000D01*
G01*
X52000000Y74700000D02*
G75*
G02*
X52000000Y72700000I0J-1000000D01*
G01*
X56000000Y72700000D02*
G75*
G02*
X56000000Y74700000I0J1000000D01*
G01*
X74900000Y74700000D02*
G75*
G02*
X74900000Y72700000I0J-1000000D01*
G01*
X78900000Y72700000D02*
G75*
G02*
X78900000Y74700000I0J1000000D01*
G01*
X98900000Y74700000D02*
X78900000Y74700000D01*
X56000000Y74700000D02*
X74900000Y74700000D01*
X31000000Y74700000D02*
X52000000Y74700000D01*
X7000000Y74700000D02*
X27000000Y74700000D01*
X74900000Y97000000D02*
X56000000Y97000000D01*
X31000000Y97000000D02*
X52000000Y97000000D01*
X98900000Y97000000D02*
X78900000Y97000000D01*
X7000000Y97000000D02*
X27000000Y97000000D01*
X98900000Y74700000D02*
X98900000Y97000000D01*
X7000000Y77700000D02*
X7000000Y74700000D01*
X7000000Y93800000D02*
X7000000Y97000000D01*
X9100000Y93800000D02*
X9900000Y93000000D01*
X9100000Y77700000D02*
X9900000Y78500000D01*
X9100000Y77700000D02*
X7000000Y77700000D01*
X9900000Y93000000D02*
X9900000Y78500000D01*
X7000000Y93800000D02*
X9100000Y93800000D01*
D11*
%TO.C,S1*%
X59550000Y4300000D03*
X69250000Y4300000D03*
D12*
X62400000Y4300000D03*
X66400000Y4300000D03*
X64400000Y4300000D03*
%TD*%
D11*
%TO.C,S1*%
X59550000Y28600000D03*
X69250000Y28600000D03*
D12*
X62400000Y28600000D03*
X66400000Y28600000D03*
X64400000Y28600000D03*
%TD*%
D11*
%TO.C,S1*%
X59550000Y52900000D03*
X69250000Y52900000D03*
D12*
X62400000Y52900000D03*
X66400000Y52900000D03*
X64400000Y52900000D03*
%TD*%
%TO.C,10k-4*%
G36*
G01*
X41500000Y16150001D02*
X41500000Y15249999D01*
G75*
G02*
X41250001Y15000000I-249999J0D01*
G01*
X40549999Y15000000D01*
G75*
G02*
X40300000Y15249999I0J249999D01*
G01*
X40300000Y16150001D01*
G75*
G02*
X40549999Y16400000I249999J0D01*
G01*
X41250001Y16400000D01*
G75*
G02*
X41500000Y16150001I0J-249999D01*
G01*
G37*
G36*
G01*
X39500000Y16150001D02*
X39500000Y15249999D01*
G75*
G02*
X39250001Y15000000I-249999J0D01*
G01*
X38549999Y15000000D01*
G75*
G02*
X38300000Y15249999I0J249999D01*
G01*
X38300000Y16150001D01*
G75*
G02*
X38549999Y16400000I249999J0D01*
G01*
X39250001Y16400000D01*
G75*
G02*
X39500000Y16150001I0J-249999D01*
G01*
G37*
%TD*%
%TO.C,10k-4*%
G36*
G01*
X41500000Y40450001D02*
X41500000Y39549999D01*
G75*
G02*
X41250001Y39300000I-249999J0D01*
G01*
X40549999Y39300000D01*
G75*
G02*
X40300000Y39549999I0J249999D01*
G01*
X40300000Y40450001D01*
G75*
G02*
X40549999Y40700000I249999J0D01*
G01*
X41250001Y40700000D01*
G75*
G02*
X41500000Y40450001I0J-249999D01*
G01*
G37*
G36*
G01*
X39500000Y40450001D02*
X39500000Y39549999D01*
G75*
G02*
X39250001Y39300000I-249999J0D01*
G01*
X38549999Y39300000D01*
G75*
G02*
X38300000Y39549999I0J249999D01*
G01*
X38300000Y40450001D01*
G75*
G02*
X38549999Y40700000I249999J0D01*
G01*
X39250001Y40700000D01*
G75*
G02*
X39500000Y40450001I0J-249999D01*
G01*
G37*
%TD*%
%TO.C,10k-4*%
G36*
G01*
X41500000Y64750001D02*
X41500000Y63849999D01*
G75*
G02*
X41250001Y63600000I-249999J0D01*
G01*
X40549999Y63600000D01*
G75*
G02*
X40300000Y63849999I0J249999D01*
G01*
X40300000Y64750001D01*
G75*
G02*
X40549999Y65000000I249999J0D01*
G01*
X41250001Y65000000D01*
G75*
G02*
X41500000Y64750001I0J-249999D01*
G01*
G37*
G36*
G01*
X39500000Y64750001D02*
X39500000Y63849999D01*
G75*
G02*
X39250001Y63600000I-249999J0D01*
G01*
X38549999Y63600000D01*
G75*
G02*
X38300000Y63849999I0J249999D01*
G01*
X38300000Y64750001D01*
G75*
G02*
X38549999Y65000000I249999J0D01*
G01*
X39250001Y65000000D01*
G75*
G02*
X39500000Y64750001I0J-249999D01*
G01*
G37*
%TD*%
%TO.C,100nF-1*%
G36*
G01*
X36175000Y2825000D02*
X36175000Y3775000D01*
G75*
G02*
X36425000Y4025000I250000J0D01*
G01*
X37100000Y4025000D01*
G75*
G02*
X37350000Y3775000I0J-250000D01*
G01*
X37350000Y2825000D01*
G75*
G02*
X37100000Y2575000I-250000J0D01*
G01*
X36425000Y2575000D01*
G75*
G02*
X36175000Y2825000I0J250000D01*
G01*
G37*
G36*
G01*
X38250000Y2825000D02*
X38250000Y3775000D01*
G75*
G02*
X38500000Y4025000I250000J0D01*
G01*
X39175000Y4025000D01*
G75*
G02*
X39425000Y3775000I0J-250000D01*
G01*
X39425000Y2825000D01*
G75*
G02*
X39175000Y2575000I-250000J0D01*
G01*
X38500000Y2575000D01*
G75*
G02*
X38250000Y2825000I0J250000D01*
G01*
G37*
%TD*%
%TO.C,100nF-1*%
G36*
G01*
X36175000Y27125000D02*
X36175000Y28075000D01*
G75*
G02*
X36425000Y28325000I250000J0D01*
G01*
X37100000Y28325000D01*
G75*
G02*
X37350000Y28075000I0J-250000D01*
G01*
X37350000Y27125000D01*
G75*
G02*
X37100000Y26875000I-250000J0D01*
G01*
X36425000Y26875000D01*
G75*
G02*
X36175000Y27125000I0J250000D01*
G01*
G37*
G36*
G01*
X38250000Y27125000D02*
X38250000Y28075000D01*
G75*
G02*
X38500000Y28325000I250000J0D01*
G01*
X39175000Y28325000D01*
G75*
G02*
X39425000Y28075000I0J-250000D01*
G01*
X39425000Y27125000D01*
G75*
G02*
X39175000Y26875000I-250000J0D01*
G01*
X38500000Y26875000D01*
G75*
G02*
X38250000Y27125000I0J250000D01*
G01*
G37*
%TD*%
%TO.C,100nF-1*%
G36*
G01*
X36175000Y51425000D02*
X36175000Y52375000D01*
G75*
G02*
X36425000Y52625000I250000J0D01*
G01*
X37100000Y52625000D01*
G75*
G02*
X37350000Y52375000I0J-250000D01*
G01*
X37350000Y51425000D01*
G75*
G02*
X37100000Y51175000I-250000J0D01*
G01*
X36425000Y51175000D01*
G75*
G02*
X36175000Y51425000I0J250000D01*
G01*
G37*
G36*
G01*
X38250000Y51425000D02*
X38250000Y52375000D01*
G75*
G02*
X38500000Y52625000I250000J0D01*
G01*
X39175000Y52625000D01*
G75*
G02*
X39425000Y52375000I0J-250000D01*
G01*
X39425000Y51425000D01*
G75*
G02*
X39175000Y51175000I-250000J0D01*
G01*
X38500000Y51175000D01*
G75*
G02*
X38250000Y51425000I0J250000D01*
G01*
G37*
%TD*%
D13*
%TO.C,mouse-bite-2mm-slot*%
X76900000Y25850000D03*
X76900000Y24350000D03*
X77650000Y25850000D03*
X76150000Y25850000D03*
X76150000Y24350000D03*
X77650000Y24350000D03*
%TD*%
%TO.C,mouse-bite-2mm-slot*%
X76900000Y50150000D03*
X76900000Y48650000D03*
X77650000Y50150000D03*
X76150000Y50150000D03*
X76150000Y48650000D03*
X77650000Y48650000D03*
%TD*%
%TO.C,10k-1*%
G36*
G01*
X26100000Y2849999D02*
X26100000Y3750001D01*
G75*
G02*
X26349999Y4000000I249999J0D01*
G01*
X27050001Y4000000D01*
G75*
G02*
X27300000Y3750001I0J-249999D01*
G01*
X27300000Y2849999D01*
G75*
G02*
X27050001Y2600000I-249999J0D01*
G01*
X26349999Y2600000D01*
G75*
G02*
X26100000Y2849999I0J249999D01*
G01*
G37*
G36*
G01*
X24100000Y2849999D02*
X24100000Y3750001D01*
G75*
G02*
X24349999Y4000000I249999J0D01*
G01*
X25050001Y4000000D01*
G75*
G02*
X25300000Y3750001I0J-249999D01*
G01*
X25300000Y2849999D01*
G75*
G02*
X25050001Y2600000I-249999J0D01*
G01*
X24349999Y2600000D01*
G75*
G02*
X24100000Y2849999I0J249999D01*
G01*
G37*
%TD*%
%TO.C,10k-1*%
G36*
G01*
X26100000Y27149999D02*
X26100000Y28050001D01*
G75*
G02*
X26349999Y28300000I249999J0D01*
G01*
X27050001Y28300000D01*
G75*
G02*
X27300000Y28050001I0J-249999D01*
G01*
X27300000Y27149999D01*
G75*
G02*
X27050001Y26900000I-249999J0D01*
G01*
X26349999Y26900000D01*
G75*
G02*
X26100000Y27149999I0J249999D01*
G01*
G37*
G36*
G01*
X24100000Y27149999D02*
X24100000Y28050001D01*
G75*
G02*
X24349999Y28300000I249999J0D01*
G01*
X25050001Y28300000D01*
G75*
G02*
X25300000Y28050001I0J-249999D01*
G01*
X25300000Y27149999D01*
G75*
G02*
X25050001Y26900000I-249999J0D01*
G01*
X24349999Y26900000D01*
G75*
G02*
X24100000Y27149999I0J249999D01*
G01*
G37*
%TD*%
%TO.C,10k-1*%
G36*
G01*
X26100000Y51449999D02*
X26100000Y52350001D01*
G75*
G02*
X26349999Y52600000I249999J0D01*
G01*
X27050001Y52600000D01*
G75*
G02*
X27300000Y52350001I0J-249999D01*
G01*
X27300000Y51449999D01*
G75*
G02*
X27050001Y51200000I-249999J0D01*
G01*
X26349999Y51200000D01*
G75*
G02*
X26100000Y51449999I0J249999D01*
G01*
G37*
G36*
G01*
X24100000Y51449999D02*
X24100000Y52350001D01*
G75*
G02*
X24349999Y52600000I249999J0D01*
G01*
X25050001Y52600000D01*
G75*
G02*
X25300000Y52350001I0J-249999D01*
G01*
X25300000Y51449999D01*
G75*
G02*
X25050001Y51200000I-249999J0D01*
G01*
X24349999Y51200000D01*
G75*
G02*
X24100000Y51449999I0J249999D01*
G01*
G37*
%TD*%
%TO.C,10k-2*%
G36*
G01*
X31400000Y3750001D02*
X31400000Y2849999D01*
G75*
G02*
X31150001Y2600000I-249999J0D01*
G01*
X30449999Y2600000D01*
G75*
G02*
X30200000Y2849999I0J249999D01*
G01*
X30200000Y3750001D01*
G75*
G02*
X30449999Y4000000I249999J0D01*
G01*
X31150001Y4000000D01*
G75*
G02*
X31400000Y3750001I0J-249999D01*
G01*
G37*
G36*
G01*
X33400000Y3750001D02*
X33400000Y2849999D01*
G75*
G02*
X33150001Y2600000I-249999J0D01*
G01*
X32449999Y2600000D01*
G75*
G02*
X32200000Y2849999I0J249999D01*
G01*
X32200000Y3750001D01*
G75*
G02*
X32449999Y4000000I249999J0D01*
G01*
X33150001Y4000000D01*
G75*
G02*
X33400000Y3750001I0J-249999D01*
G01*
G37*
%TD*%
%TO.C,10k-2*%
G36*
G01*
X31400000Y28050001D02*
X31400000Y27149999D01*
G75*
G02*
X31150001Y26900000I-249999J0D01*
G01*
X30449999Y26900000D01*
G75*
G02*
X30200000Y27149999I0J249999D01*
G01*
X30200000Y28050001D01*
G75*
G02*
X30449999Y28300000I249999J0D01*
G01*
X31150001Y28300000D01*
G75*
G02*
X31400000Y28050001I0J-249999D01*
G01*
G37*
G36*
G01*
X33400000Y28050001D02*
X33400000Y27149999D01*
G75*
G02*
X33150001Y26900000I-249999J0D01*
G01*
X32449999Y26900000D01*
G75*
G02*
X32200000Y27149999I0J249999D01*
G01*
X32200000Y28050001D01*
G75*
G02*
X32449999Y28300000I249999J0D01*
G01*
X33150001Y28300000D01*
G75*
G02*
X33400000Y28050001I0J-249999D01*
G01*
G37*
%TD*%
%TO.C,10k-2*%
G36*
G01*
X31400000Y52350001D02*
X31400000Y51449999D01*
G75*
G02*
X31150001Y51200000I-249999J0D01*
G01*
X30449999Y51200000D01*
G75*
G02*
X30200000Y51449999I0J249999D01*
G01*
X30200000Y52350001D01*
G75*
G02*
X30449999Y52600000I249999J0D01*
G01*
X31150001Y52600000D01*
G75*
G02*
X31400000Y52350001I0J-249999D01*
G01*
G37*
G36*
G01*
X33400000Y52350001D02*
X33400000Y51449999D01*
G75*
G02*
X33150001Y51200000I-249999J0D01*
G01*
X32449999Y51200000D01*
G75*
G02*
X32200000Y51449999I0J249999D01*
G01*
X32200000Y52350001D01*
G75*
G02*
X32449999Y52600000I249999J0D01*
G01*
X33150001Y52600000D01*
G75*
G02*
X33400000Y52350001I0J-249999D01*
G01*
G37*
%TD*%
D14*
%TO.C,U3*%
X45200000Y19700000D03*
X52820000Y4460000D03*
X45200000Y17160000D03*
X52820000Y7000000D03*
X45200000Y14620000D03*
X52820000Y9540000D03*
X45200000Y12080000D03*
X52820000Y12080000D03*
X45200000Y9540000D03*
X52820000Y14620000D03*
X45200000Y7000000D03*
X52820000Y17160000D03*
D15*
X45200000Y4460000D03*
D14*
X52820000Y19700000D03*
%TD*%
%TO.C,U3*%
X45200000Y44000000D03*
X52820000Y28760000D03*
X45200000Y41460000D03*
X52820000Y31300000D03*
X45200000Y38920000D03*
X52820000Y33840000D03*
X45200000Y36380000D03*
X52820000Y36380000D03*
X45200000Y33840000D03*
X52820000Y38920000D03*
X45200000Y31300000D03*
X52820000Y41460000D03*
D15*
X45200000Y28760000D03*
D14*
X52820000Y44000000D03*
%TD*%
%TO.C,U3*%
X45200000Y68300000D03*
X52820000Y53060000D03*
X45200000Y65760000D03*
X52820000Y55600000D03*
X45200000Y63220000D03*
X52820000Y58140000D03*
X45200000Y60680000D03*
X52820000Y60680000D03*
X45200000Y58140000D03*
X52820000Y63220000D03*
X45200000Y55600000D03*
X52820000Y65760000D03*
D15*
X45200000Y53060000D03*
D14*
X52820000Y68300000D03*
%TD*%
D16*
%TO.C,J1*%
X81900000Y21600000D03*
D17*
X84440000Y21600000D03*
X86980000Y21600000D03*
X89520000Y21600000D03*
X92060000Y21600000D03*
%TD*%
D16*
%TO.C,J1*%
X81900000Y45900000D03*
D17*
X84440000Y45900000D03*
X86980000Y45900000D03*
X89520000Y45900000D03*
X92060000Y45900000D03*
%TD*%
D16*
%TO.C,J1*%
X81900000Y70200000D03*
D17*
X84440000Y70200000D03*
X86980000Y70200000D03*
X89520000Y70200000D03*
X92060000Y70200000D03*
%TD*%
D18*
%TO.C,3V7*%
X96400000Y13000000D03*
%TD*%
%TO.C,3V7*%
X96400000Y37300000D03*
%TD*%
%TO.C,3V7*%
X96400000Y61600000D03*
%TD*%
D19*
%TO.C,ESP-12E1*%
X19800000Y6600000D03*
X21800000Y6600000D03*
X23800000Y6600000D03*
X25800000Y6600000D03*
X27800000Y6600000D03*
X29800000Y6600000D03*
X31800000Y6600000D03*
X33800000Y6600000D03*
D20*
X35300000Y9200000D03*
X35300000Y11200000D03*
X35300000Y13200000D03*
X35300000Y15200000D03*
X35300000Y17200000D03*
X35300000Y19200000D03*
D19*
X33800000Y21800000D03*
X31800000Y21800000D03*
X29800000Y21800000D03*
X27800000Y21800000D03*
X25800000Y21800000D03*
X23800000Y21800000D03*
X21800000Y21800000D03*
X19800000Y21800000D03*
%TD*%
%TO.C,ESP-12E1*%
X19800000Y30900000D03*
X21800000Y30900000D03*
X23800000Y30900000D03*
X25800000Y30900000D03*
X27800000Y30900000D03*
X29800000Y30900000D03*
X31800000Y30900000D03*
X33800000Y30900000D03*
D20*
X35300000Y33500000D03*
X35300000Y35500000D03*
X35300000Y37500000D03*
X35300000Y39500000D03*
X35300000Y41500000D03*
X35300000Y43500000D03*
D19*
X33800000Y46100000D03*
X31800000Y46100000D03*
X29800000Y46100000D03*
X27800000Y46100000D03*
X25800000Y46100000D03*
X23800000Y46100000D03*
X21800000Y46100000D03*
X19800000Y46100000D03*
%TD*%
%TO.C,ESP-12E1*%
X19800000Y55200000D03*
X21800000Y55200000D03*
X23800000Y55200000D03*
X25800000Y55200000D03*
X27800000Y55200000D03*
X29800000Y55200000D03*
X31800000Y55200000D03*
X33800000Y55200000D03*
D20*
X35300000Y57800000D03*
X35300000Y59800000D03*
X35300000Y61800000D03*
X35300000Y63800000D03*
X35300000Y65800000D03*
X35300000Y67800000D03*
D19*
X33800000Y70400000D03*
X31800000Y70400000D03*
X29800000Y70400000D03*
X27800000Y70400000D03*
X25800000Y70400000D03*
X23800000Y70400000D03*
X21800000Y70400000D03*
X19800000Y70400000D03*
%TD*%
%TO.C,10k-3*%
G36*
G01*
X21400000Y3850001D02*
X21400000Y2949999D01*
G75*
G02*
X21150001Y2700000I-249999J0D01*
G01*
X20449999Y2700000D01*
G75*
G02*
X20200000Y2949999I0J249999D01*
G01*
X20200000Y3850001D01*
G75*
G02*
X20449999Y4100000I249999J0D01*
G01*
X21150001Y4100000D01*
G75*
G02*
X21400000Y3850001I0J-249999D01*
G01*
G37*
G36*
G01*
X19400000Y3850001D02*
X19400000Y2949999D01*
G75*
G02*
X19150001Y2700000I-249999J0D01*
G01*
X18449999Y2700000D01*
G75*
G02*
X18200000Y2949999I0J249999D01*
G01*
X18200000Y3850001D01*
G75*
G02*
X18449999Y4100000I249999J0D01*
G01*
X19150001Y4100000D01*
G75*
G02*
X19400000Y3850001I0J-249999D01*
G01*
G37*
%TD*%
%TO.C,10k-3*%
G36*
G01*
X21400000Y28150001D02*
X21400000Y27249999D01*
G75*
G02*
X21150001Y27000000I-249999J0D01*
G01*
X20449999Y27000000D01*
G75*
G02*
X20200000Y27249999I0J249999D01*
G01*
X20200000Y28150001D01*
G75*
G02*
X20449999Y28400000I249999J0D01*
G01*
X21150001Y28400000D01*
G75*
G02*
X21400000Y28150001I0J-249999D01*
G01*
G37*
G36*
G01*
X19400000Y28150001D02*
X19400000Y27249999D01*
G75*
G02*
X19150001Y27000000I-249999J0D01*
G01*
X18449999Y27000000D01*
G75*
G02*
X18200000Y27249999I0J249999D01*
G01*
X18200000Y28150001D01*
G75*
G02*
X18449999Y28400000I249999J0D01*
G01*
X19150001Y28400000D01*
G75*
G02*
X19400000Y28150001I0J-249999D01*
G01*
G37*
%TD*%
%TO.C,10k-3*%
G36*
G01*
X21400000Y52450001D02*
X21400000Y51549999D01*
G75*
G02*
X21150001Y51300000I-249999J0D01*
G01*
X20449999Y51300000D01*
G75*
G02*
X20200000Y51549999I0J249999D01*
G01*
X20200000Y52450001D01*
G75*
G02*
X20449999Y52700000I249999J0D01*
G01*
X21150001Y52700000D01*
G75*
G02*
X21400000Y52450001I0J-249999D01*
G01*
G37*
G36*
G01*
X19400000Y52450001D02*
X19400000Y51549999D01*
G75*
G02*
X19150001Y51300000I-249999J0D01*
G01*
X18449999Y51300000D01*
G75*
G02*
X18200000Y51549999I0J249999D01*
G01*
X18200000Y52450001D01*
G75*
G02*
X18449999Y52700000I249999J0D01*
G01*
X19150001Y52700000D01*
G75*
G02*
X19400000Y52450001I0J-249999D01*
G01*
G37*
%TD*%
D21*
%TO.C,REED1*%
X8500000Y22520000D03*
X8600000Y3300000D03*
%TD*%
%TO.C,REED1*%
X8500000Y46820000D03*
X8600000Y27600000D03*
%TD*%
%TO.C,REED1*%
X8500000Y71120000D03*
X8600000Y51900000D03*
%TD*%
D18*
%TO.C,GND*%
X13400000Y13000000D03*
%TD*%
%TO.C,GND*%
X13400000Y37300000D03*
%TD*%
%TO.C,GND*%
X13400000Y61600000D03*
%TD*%
D22*
%TO.C,HT7333*%
X62400000Y8450000D03*
X65400000Y8450000D03*
D23*
G36*
X64766500Y12400000D02*
G01*
X64766500Y9275000D01*
X64350000Y9275000D01*
X64350000Y7800000D01*
X63450000Y7800000D01*
X63450000Y9275000D01*
X63033500Y9275000D01*
X63033500Y12400000D01*
X64766500Y12400000D01*
G37*
%TD*%
D22*
%TO.C,HT7333*%
X62400000Y32750000D03*
X65400000Y32750000D03*
D23*
G36*
X64766500Y36700000D02*
G01*
X64766500Y33575000D01*
X64350000Y33575000D01*
X64350000Y32100000D01*
X63450000Y32100000D01*
X63450000Y33575000D01*
X63033500Y33575000D01*
X63033500Y36700000D01*
X64766500Y36700000D01*
G37*
%TD*%
D22*
%TO.C,HT7333*%
X62400000Y57050000D03*
X65400000Y57050000D03*
D23*
G36*
X64766500Y61000000D02*
G01*
X64766500Y57875000D01*
X64350000Y57875000D01*
X64350000Y56400000D01*
X63450000Y56400000D01*
X63450000Y57875000D01*
X63033500Y57875000D01*
X63033500Y61000000D01*
X64766500Y61000000D01*
G37*
%TD*%
D13*
%TO.C,mouse-bite-2mm-slot*%
X54000000Y25850000D03*
X54000000Y24350000D03*
X54750000Y25850000D03*
X53250000Y25850000D03*
X53250000Y24350000D03*
X54750000Y24350000D03*
%TD*%
%TO.C,mouse-bite-2mm-slot*%
X54000000Y50150000D03*
X54000000Y48650000D03*
X54750000Y50150000D03*
X53250000Y50150000D03*
X53250000Y48650000D03*
X54750000Y48650000D03*
%TD*%
%TO.C,1M-1*%
G36*
G01*
X14400000Y2949999D02*
X14400000Y3850001D01*
G75*
G02*
X14649999Y4100000I249999J0D01*
G01*
X15350001Y4100000D01*
G75*
G02*
X15600000Y3850001I0J-249999D01*
G01*
X15600000Y2949999D01*
G75*
G02*
X15350001Y2700000I-249999J0D01*
G01*
X14649999Y2700000D01*
G75*
G02*
X14400000Y2949999I0J249999D01*
G01*
G37*
G36*
G01*
X12400000Y2949999D02*
X12400000Y3850001D01*
G75*
G02*
X12649999Y4100000I249999J0D01*
G01*
X13350001Y4100000D01*
G75*
G02*
X13600000Y3850001I0J-249999D01*
G01*
X13600000Y2949999D01*
G75*
G02*
X13350001Y2700000I-249999J0D01*
G01*
X12649999Y2700000D01*
G75*
G02*
X12400000Y2949999I0J249999D01*
G01*
G37*
%TD*%
%TO.C,1M-1*%
G36*
G01*
X14400000Y27249999D02*
X14400000Y28150001D01*
G75*
G02*
X14649999Y28400000I249999J0D01*
G01*
X15350001Y28400000D01*
G75*
G02*
X15600000Y28150001I0J-249999D01*
G01*
X15600000Y27249999D01*
G75*
G02*
X15350001Y27000000I-249999J0D01*
G01*
X14649999Y27000000D01*
G75*
G02*
X14400000Y27249999I0J249999D01*
G01*
G37*
G36*
G01*
X12400000Y27249999D02*
X12400000Y28150001D01*
G75*
G02*
X12649999Y28400000I249999J0D01*
G01*
X13350001Y28400000D01*
G75*
G02*
X13600000Y28150001I0J-249999D01*
G01*
X13600000Y27249999D01*
G75*
G02*
X13350001Y27000000I-249999J0D01*
G01*
X12649999Y27000000D01*
G75*
G02*
X12400000Y27249999I0J249999D01*
G01*
G37*
%TD*%
%TO.C,1M-1*%
G36*
G01*
X14400000Y51549999D02*
X14400000Y52450001D01*
G75*
G02*
X14649999Y52700000I249999J0D01*
G01*
X15350001Y52700000D01*
G75*
G02*
X15600000Y52450001I0J-249999D01*
G01*
X15600000Y51549999D01*
G75*
G02*
X15350001Y51300000I-249999J0D01*
G01*
X14649999Y51300000D01*
G75*
G02*
X14400000Y51549999I0J249999D01*
G01*
G37*
G36*
G01*
X12400000Y51549999D02*
X12400000Y52450001D01*
G75*
G02*
X12649999Y52700000I249999J0D01*
G01*
X13350001Y52700000D01*
G75*
G02*
X13600000Y52450001I0J-249999D01*
G01*
X13600000Y51549999D01*
G75*
G02*
X13350001Y51300000I-249999J0D01*
G01*
X12649999Y51300000D01*
G75*
G02*
X12400000Y51549999I0J249999D01*
G01*
G37*
%TD*%
%TO.C,mouse-bite-2mm-slot*%
X29000000Y25850000D03*
X29000000Y24350000D03*
X29750000Y25850000D03*
X28250000Y25850000D03*
X28250000Y24350000D03*
X29750000Y24350000D03*
%TD*%
%TO.C,mouse-bite-2mm-slot*%
X29000000Y50150000D03*
X29000000Y48650000D03*
X29750000Y50150000D03*
X28250000Y50150000D03*
X28250000Y48650000D03*
X29750000Y48650000D03*
%TD*%
%TO.C,FLASH1*%
G36*
G01*
X40700000Y10000000D02*
X39100000Y10000000D01*
G75*
G02*
X38900000Y10200000I0J200000D01*
G01*
X38900000Y10600000D01*
G75*
G02*
X39100000Y10800000I200000J0D01*
G01*
X40700000Y10800000D01*
G75*
G02*
X40900000Y10600000I0J-200000D01*
G01*
X40900000Y10200000D01*
G75*
G02*
X40700000Y10000000I-200000J0D01*
G01*
G37*
G36*
G01*
X40700000Y5800000D02*
X39100000Y5800000D01*
G75*
G02*
X38900000Y6000000I0J200000D01*
G01*
X38900000Y6400000D01*
G75*
G02*
X39100000Y6600000I200000J0D01*
G01*
X40700000Y6600000D01*
G75*
G02*
X40900000Y6400000I0J-200000D01*
G01*
X40900000Y6000000D01*
G75*
G02*
X40700000Y5800000I-200000J0D01*
G01*
G37*
%TD*%
%TO.C,FLASH1*%
G36*
G01*
X40700000Y34300000D02*
X39100000Y34300000D01*
G75*
G02*
X38900000Y34500000I0J200000D01*
G01*
X38900000Y34900000D01*
G75*
G02*
X39100000Y35100000I200000J0D01*
G01*
X40700000Y35100000D01*
G75*
G02*
X40900000Y34900000I0J-200000D01*
G01*
X40900000Y34500000D01*
G75*
G02*
X40700000Y34300000I-200000J0D01*
G01*
G37*
G36*
G01*
X40700000Y30100000D02*
X39100000Y30100000D01*
G75*
G02*
X38900000Y30300000I0J200000D01*
G01*
X38900000Y30700000D01*
G75*
G02*
X39100000Y30900000I200000J0D01*
G01*
X40700000Y30900000D01*
G75*
G02*
X40900000Y30700000I0J-200000D01*
G01*
X40900000Y30300000D01*
G75*
G02*
X40700000Y30100000I-200000J0D01*
G01*
G37*
%TD*%
%TO.C,FLASH1*%
G36*
G01*
X40700000Y58600000D02*
X39100000Y58600000D01*
G75*
G02*
X38900000Y58800000I0J200000D01*
G01*
X38900000Y59200000D01*
G75*
G02*
X39100000Y59400000I200000J0D01*
G01*
X40700000Y59400000D01*
G75*
G02*
X40900000Y59200000I0J-200000D01*
G01*
X40900000Y58800000D01*
G75*
G02*
X40700000Y58600000I-200000J0D01*
G01*
G37*
G36*
G01*
X40700000Y54400000D02*
X39100000Y54400000D01*
G75*
G02*
X38900000Y54600000I0J200000D01*
G01*
X38900000Y55000000D01*
G75*
G02*
X39100000Y55200000I200000J0D01*
G01*
X40700000Y55200000D01*
G75*
G02*
X40900000Y55000000I0J-200000D01*
G01*
X40900000Y54600000D01*
G75*
G02*
X40700000Y54400000I-200000J0D01*
G01*
G37*
%TD*%
D24*
%TO.C,TP4056*%
X73800000Y17800000D03*
X73800000Y14800000D03*
X73800000Y7200000D03*
X73800000Y4200000D03*
X96600000Y17800000D03*
X96600000Y4200000D03*
%TD*%
%TO.C,TP4056*%
X73800000Y42100000D03*
X73800000Y39100000D03*
X73800000Y31500000D03*
X73800000Y28500000D03*
X96600000Y42100000D03*
X96600000Y28500000D03*
%TD*%
%TO.C,TP4056*%
X73800000Y66400000D03*
X73800000Y63400000D03*
X73800000Y55800000D03*
X73800000Y52800000D03*
X96600000Y66400000D03*
X96600000Y52800000D03*
%TD*%
%TO.C,RESET1*%
G36*
G01*
X40700000Y22000000D02*
X39100000Y22000000D01*
G75*
G02*
X38900000Y22200000I0J200000D01*
G01*
X38900000Y22600000D01*
G75*
G02*
X39100000Y22800000I200000J0D01*
G01*
X40700000Y22800000D01*
G75*
G02*
X40900000Y22600000I0J-200000D01*
G01*
X40900000Y22200000D01*
G75*
G02*
X40700000Y22000000I-200000J0D01*
G01*
G37*
G36*
G01*
X40700000Y17800000D02*
X39100000Y17800000D01*
G75*
G02*
X38900000Y18000000I0J200000D01*
G01*
X38900000Y18400000D01*
G75*
G02*
X39100000Y18600000I200000J0D01*
G01*
X40700000Y18600000D01*
G75*
G02*
X40900000Y18400000I0J-200000D01*
G01*
X40900000Y18000000D01*
G75*
G02*
X40700000Y17800000I-200000J0D01*
G01*
G37*
%TD*%
%TO.C,RESET1*%
G36*
G01*
X40700000Y46300000D02*
X39100000Y46300000D01*
G75*
G02*
X38900000Y46500000I0J200000D01*
G01*
X38900000Y46900000D01*
G75*
G02*
X39100000Y47100000I200000J0D01*
G01*
X40700000Y47100000D01*
G75*
G02*
X40900000Y46900000I0J-200000D01*
G01*
X40900000Y46500000D01*
G75*
G02*
X40700000Y46300000I-200000J0D01*
G01*
G37*
G36*
G01*
X40700000Y42100000D02*
X39100000Y42100000D01*
G75*
G02*
X38900000Y42300000I0J200000D01*
G01*
X38900000Y42700000D01*
G75*
G02*
X39100000Y42900000I200000J0D01*
G01*
X40700000Y42900000D01*
G75*
G02*
X40900000Y42700000I0J-200000D01*
G01*
X40900000Y42300000D01*
G75*
G02*
X40700000Y42100000I-200000J0D01*
G01*
G37*
%TD*%
%TO.C,RESET1*%
G36*
G01*
X40700000Y70600000D02*
X39100000Y70600000D01*
G75*
G02*
X38900000Y70800000I0J200000D01*
G01*
X38900000Y71200000D01*
G75*
G02*
X39100000Y71400000I200000J0D01*
G01*
X40700000Y71400000D01*
G75*
G02*
X40900000Y71200000I0J-200000D01*
G01*
X40900000Y70800000D01*
G75*
G02*
X40700000Y70600000I-200000J0D01*
G01*
G37*
G36*
G01*
X40700000Y66400000D02*
X39100000Y66400000D01*
G75*
G02*
X38900000Y66600000I0J200000D01*
G01*
X38900000Y67000000D01*
G75*
G02*
X39100000Y67200000I200000J0D01*
G01*
X40700000Y67200000D01*
G75*
G02*
X40900000Y67000000I0J-200000D01*
G01*
X40900000Y66600000D01*
G75*
G02*
X40700000Y66400000I-200000J0D01*
G01*
G37*
%TD*%
%TO.C,1000uF-1*%
G36*
G01*
X69350000Y19000003D02*
X69350000Y17599997D01*
G75*
G02*
X69100003Y17350000I-249997J0D01*
G01*
X65199997Y17350000D01*
G75*
G02*
X64950000Y17599997I0J249997D01*
G01*
X64950000Y19000003D01*
G75*
G02*
X65199997Y19250000I249997J0D01*
G01*
X69100003Y19250000D01*
G75*
G02*
X69350000Y19000003I0J-249997D01*
G01*
G37*
G36*
G01*
X60650000Y19000003D02*
X60650000Y17599997D01*
G75*
G02*
X60400003Y17350000I-249997J0D01*
G01*
X56499997Y17350000D01*
G75*
G02*
X56250000Y17599997I0J249997D01*
G01*
X56250000Y19000003D01*
G75*
G02*
X56499997Y19250000I249997J0D01*
G01*
X60400003Y19250000D01*
G75*
G02*
X60650000Y19000003I0J-249997D01*
G01*
G37*
%TD*%
%TO.C,1000uF-1*%
G36*
G01*
X69350000Y43300003D02*
X69350000Y41899997D01*
G75*
G02*
X69100003Y41650000I-249997J0D01*
G01*
X65199997Y41650000D01*
G75*
G02*
X64950000Y41899997I0J249997D01*
G01*
X64950000Y43300003D01*
G75*
G02*
X65199997Y43550000I249997J0D01*
G01*
X69100003Y43550000D01*
G75*
G02*
X69350000Y43300003I0J-249997D01*
G01*
G37*
G36*
G01*
X60650000Y43300003D02*
X60650000Y41899997D01*
G75*
G02*
X60400003Y41650000I-249997J0D01*
G01*
X56499997Y41650000D01*
G75*
G02*
X56250000Y41899997I0J249997D01*
G01*
X56250000Y43300003D01*
G75*
G02*
X56499997Y43550000I249997J0D01*
G01*
X60400003Y43550000D01*
G75*
G02*
X60650000Y43300003I0J-249997D01*
G01*
G37*
%TD*%
%TO.C,1000uF-1*%
G36*
G01*
X69350000Y67600003D02*
X69350000Y66199997D01*
G75*
G02*
X69100003Y65950000I-249997J0D01*
G01*
X65199997Y65950000D01*
G75*
G02*
X64950000Y66199997I0J249997D01*
G01*
X64950000Y67600003D01*
G75*
G02*
X65199997Y67850000I249997J0D01*
G01*
X69100003Y67850000D01*
G75*
G02*
X69350000Y67600003I0J-249997D01*
G01*
G37*
G36*
G01*
X60650000Y67600003D02*
X60650000Y66199997D01*
G75*
G02*
X60400003Y65950000I-249997J0D01*
G01*
X56499997Y65950000D01*
G75*
G02*
X56250000Y66199997I0J249997D01*
G01*
X56250000Y67600003D01*
G75*
G02*
X56499997Y67850000I249997J0D01*
G01*
X60400003Y67850000D01*
G75*
G02*
X60650000Y67600003I0J-249997D01*
G01*
G37*
%TD*%
%TO.C,100nF-2*%
G36*
G01*
X40350000Y11925000D02*
X40350000Y12875000D01*
G75*
G02*
X40600000Y13125000I250000J0D01*
G01*
X41275000Y13125000D01*
G75*
G02*
X41525000Y12875000I0J-250000D01*
G01*
X41525000Y11925000D01*
G75*
G02*
X41275000Y11675000I-250000J0D01*
G01*
X40600000Y11675000D01*
G75*
G02*
X40350000Y11925000I0J250000D01*
G01*
G37*
G36*
G01*
X38275000Y11925000D02*
X38275000Y12875000D01*
G75*
G02*
X38525000Y13125000I250000J0D01*
G01*
X39200000Y13125000D01*
G75*
G02*
X39450000Y12875000I0J-250000D01*
G01*
X39450000Y11925000D01*
G75*
G02*
X39200000Y11675000I-250000J0D01*
G01*
X38525000Y11675000D01*
G75*
G02*
X38275000Y11925000I0J250000D01*
G01*
G37*
%TD*%
%TO.C,100nF-2*%
G36*
G01*
X40350000Y36225000D02*
X40350000Y37175000D01*
G75*
G02*
X40600000Y37425000I250000J0D01*
G01*
X41275000Y37425000D01*
G75*
G02*
X41525000Y37175000I0J-250000D01*
G01*
X41525000Y36225000D01*
G75*
G02*
X41275000Y35975000I-250000J0D01*
G01*
X40600000Y35975000D01*
G75*
G02*
X40350000Y36225000I0J250000D01*
G01*
G37*
G36*
G01*
X38275000Y36225000D02*
X38275000Y37175000D01*
G75*
G02*
X38525000Y37425000I250000J0D01*
G01*
X39200000Y37425000D01*
G75*
G02*
X39450000Y37175000I0J-250000D01*
G01*
X39450000Y36225000D01*
G75*
G02*
X39200000Y35975000I-250000J0D01*
G01*
X38525000Y35975000D01*
G75*
G02*
X38275000Y36225000I0J250000D01*
G01*
G37*
%TD*%
%TO.C,100nF-2*%
G36*
G01*
X40350000Y60525000D02*
X40350000Y61475000D01*
G75*
G02*
X40600000Y61725000I250000J0D01*
G01*
X41275000Y61725000D01*
G75*
G02*
X41525000Y61475000I0J-250000D01*
G01*
X41525000Y60525000D01*
G75*
G02*
X41275000Y60275000I-250000J0D01*
G01*
X40600000Y60275000D01*
G75*
G02*
X40350000Y60525000I0J250000D01*
G01*
G37*
G36*
G01*
X38275000Y60525000D02*
X38275000Y61475000D01*
G75*
G02*
X38525000Y61725000I250000J0D01*
G01*
X39200000Y61725000D01*
G75*
G02*
X39450000Y61475000I0J-250000D01*
G01*
X39450000Y60525000D01*
G75*
G02*
X39200000Y60275000I-250000J0D01*
G01*
X38525000Y60275000D01*
G75*
G02*
X38275000Y60525000I0J250000D01*
G01*
G37*
%TD*%
D13*
%TO.C,mouse-bite-2mm-slot*%
X77650000Y72950000D03*
X76150000Y72950000D03*
X76150000Y74450000D03*
X77650000Y74450000D03*
X76900000Y72950000D03*
X76900000Y74450000D03*
%TD*%
%TO.C,mouse-bite-2mm-slot*%
X54750000Y72950000D03*
X53250000Y72950000D03*
X53250000Y74450000D03*
X54750000Y74450000D03*
X54000000Y72950000D03*
X54000000Y74450000D03*
%TD*%
%TO.C,mouse-bite-2mm-slot*%
X29750000Y72950000D03*
X28250000Y72950000D03*
X28250000Y74450000D03*
X29750000Y74450000D03*
X29000000Y72950000D03*
X29000000Y74450000D03*
%TD*%
D18*
%TO.C,GND*%
X13400000Y85900000D03*
%TD*%
%TO.C,3V7*%
X96400000Y85900000D03*
%TD*%
D24*
%TO.C,TP4056*%
X96600000Y77100000D03*
X96600000Y90700000D03*
X73800000Y77100000D03*
X73800000Y80100000D03*
X73800000Y87700000D03*
X73800000Y90700000D03*
%TD*%
D14*
%TO.C,U3*%
X52820000Y92600000D03*
D15*
X45200000Y77360000D03*
D14*
X52820000Y90060000D03*
X45200000Y79900000D03*
X52820000Y87520000D03*
X45200000Y82440000D03*
X52820000Y84980000D03*
X45200000Y84980000D03*
X52820000Y82440000D03*
X45200000Y87520000D03*
X52820000Y79900000D03*
X45200000Y90060000D03*
X52820000Y77360000D03*
X45200000Y92600000D03*
%TD*%
D17*
%TO.C,J1*%
X92060000Y94500000D03*
X89520000Y94500000D03*
X86980000Y94500000D03*
X84440000Y94500000D03*
D16*
X81900000Y94500000D03*
%TD*%
%TO.C,100nF-1*%
G36*
G01*
X38250000Y75725000D02*
X38250000Y76675000D01*
G75*
G02*
X38500000Y76925000I250000J0D01*
G01*
X39175000Y76925000D01*
G75*
G02*
X39425000Y76675000I0J-250000D01*
G01*
X39425000Y75725000D01*
G75*
G02*
X39175000Y75475000I-250000J0D01*
G01*
X38500000Y75475000D01*
G75*
G02*
X38250000Y75725000I0J250000D01*
G01*
G37*
G36*
G01*
X36175000Y75725000D02*
X36175000Y76675000D01*
G75*
G02*
X36425000Y76925000I250000J0D01*
G01*
X37100000Y76925000D01*
G75*
G02*
X37350000Y76675000I0J-250000D01*
G01*
X37350000Y75725000D01*
G75*
G02*
X37100000Y75475000I-250000J0D01*
G01*
X36425000Y75475000D01*
G75*
G02*
X36175000Y75725000I0J250000D01*
G01*
G37*
%TD*%
D19*
%TO.C,ESP-12E1*%
X19800000Y94700000D03*
X21800000Y94700000D03*
X23800000Y94700000D03*
X25800000Y94700000D03*
X27800000Y94700000D03*
X29800000Y94700000D03*
X31800000Y94700000D03*
X33800000Y94700000D03*
D20*
X35300000Y92100000D03*
X35300000Y90100000D03*
X35300000Y88100000D03*
X35300000Y86100000D03*
X35300000Y84100000D03*
X35300000Y82100000D03*
D19*
X33800000Y79500000D03*
X31800000Y79500000D03*
X29800000Y79500000D03*
X27800000Y79500000D03*
X25800000Y79500000D03*
X23800000Y79500000D03*
X21800000Y79500000D03*
X19800000Y79500000D03*
%TD*%
%TO.C,10k-3*%
G36*
G01*
X19400000Y76750001D02*
X19400000Y75849999D01*
G75*
G02*
X19150001Y75600000I-249999J0D01*
G01*
X18449999Y75600000D01*
G75*
G02*
X18200000Y75849999I0J249999D01*
G01*
X18200000Y76750001D01*
G75*
G02*
X18449999Y77000000I249999J0D01*
G01*
X19150001Y77000000D01*
G75*
G02*
X19400000Y76750001I0J-249999D01*
G01*
G37*
G36*
G01*
X21400000Y76750001D02*
X21400000Y75849999D01*
G75*
G02*
X21150001Y75600000I-249999J0D01*
G01*
X20449999Y75600000D01*
G75*
G02*
X20200000Y75849999I0J249999D01*
G01*
X20200000Y76750001D01*
G75*
G02*
X20449999Y77000000I249999J0D01*
G01*
X21150001Y77000000D01*
G75*
G02*
X21400000Y76750001I0J-249999D01*
G01*
G37*
%TD*%
%TO.C,FLASH1*%
G36*
G01*
X40700000Y78700000D02*
X39100000Y78700000D01*
G75*
G02*
X38900000Y78900000I0J200000D01*
G01*
X38900000Y79300000D01*
G75*
G02*
X39100000Y79500000I200000J0D01*
G01*
X40700000Y79500000D01*
G75*
G02*
X40900000Y79300000I0J-200000D01*
G01*
X40900000Y78900000D01*
G75*
G02*
X40700000Y78700000I-200000J0D01*
G01*
G37*
G36*
G01*
X40700000Y82900000D02*
X39100000Y82900000D01*
G75*
G02*
X38900000Y83100000I0J200000D01*
G01*
X38900000Y83500000D01*
G75*
G02*
X39100000Y83700000I200000J0D01*
G01*
X40700000Y83700000D01*
G75*
G02*
X40900000Y83500000I0J-200000D01*
G01*
X40900000Y83100000D01*
G75*
G02*
X40700000Y82900000I-200000J0D01*
G01*
G37*
%TD*%
%TO.C,RESET1*%
G36*
G01*
X40700000Y90700000D02*
X39100000Y90700000D01*
G75*
G02*
X38900000Y90900000I0J200000D01*
G01*
X38900000Y91300000D01*
G75*
G02*
X39100000Y91500000I200000J0D01*
G01*
X40700000Y91500000D01*
G75*
G02*
X40900000Y91300000I0J-200000D01*
G01*
X40900000Y90900000D01*
G75*
G02*
X40700000Y90700000I-200000J0D01*
G01*
G37*
G36*
G01*
X40700000Y94900000D02*
X39100000Y94900000D01*
G75*
G02*
X38900000Y95100000I0J200000D01*
G01*
X38900000Y95500000D01*
G75*
G02*
X39100000Y95700000I200000J0D01*
G01*
X40700000Y95700000D01*
G75*
G02*
X40900000Y95500000I0J-200000D01*
G01*
X40900000Y95100000D01*
G75*
G02*
X40700000Y94900000I-200000J0D01*
G01*
G37*
%TD*%
D21*
%TO.C,REED1*%
X8600000Y76200000D03*
X8500000Y95420000D03*
%TD*%
%TO.C,10k-2*%
G36*
G01*
X33400000Y76650001D02*
X33400000Y75749999D01*
G75*
G02*
X33150001Y75500000I-249999J0D01*
G01*
X32449999Y75500000D01*
G75*
G02*
X32200000Y75749999I0J249999D01*
G01*
X32200000Y76650001D01*
G75*
G02*
X32449999Y76900000I249999J0D01*
G01*
X33150001Y76900000D01*
G75*
G02*
X33400000Y76650001I0J-249999D01*
G01*
G37*
G36*
G01*
X31400000Y76650001D02*
X31400000Y75749999D01*
G75*
G02*
X31150001Y75500000I-249999J0D01*
G01*
X30449999Y75500000D01*
G75*
G02*
X30200000Y75749999I0J249999D01*
G01*
X30200000Y76650001D01*
G75*
G02*
X30449999Y76900000I249999J0D01*
G01*
X31150001Y76900000D01*
G75*
G02*
X31400000Y76650001I0J-249999D01*
G01*
G37*
%TD*%
%TO.C,10k-1*%
G36*
G01*
X24100000Y75749999D02*
X24100000Y76650001D01*
G75*
G02*
X24349999Y76900000I249999J0D01*
G01*
X25050001Y76900000D01*
G75*
G02*
X25300000Y76650001I0J-249999D01*
G01*
X25300000Y75749999D01*
G75*
G02*
X25050001Y75500000I-249999J0D01*
G01*
X24349999Y75500000D01*
G75*
G02*
X24100000Y75749999I0J249999D01*
G01*
G37*
G36*
G01*
X26100000Y75749999D02*
X26100000Y76650001D01*
G75*
G02*
X26349999Y76900000I249999J0D01*
G01*
X27050001Y76900000D01*
G75*
G02*
X27300000Y76650001I0J-249999D01*
G01*
X27300000Y75749999D01*
G75*
G02*
X27050001Y75500000I-249999J0D01*
G01*
X26349999Y75500000D01*
G75*
G02*
X26100000Y75749999I0J249999D01*
G01*
G37*
%TD*%
%TO.C,1M-1*%
G36*
G01*
X12400000Y75849999D02*
X12400000Y76750001D01*
G75*
G02*
X12649999Y77000000I249999J0D01*
G01*
X13350001Y77000000D01*
G75*
G02*
X13600000Y76750001I0J-249999D01*
G01*
X13600000Y75849999D01*
G75*
G02*
X13350001Y75600000I-249999J0D01*
G01*
X12649999Y75600000D01*
G75*
G02*
X12400000Y75849999I0J249999D01*
G01*
G37*
G36*
G01*
X14400000Y75849999D02*
X14400000Y76750001D01*
G75*
G02*
X14649999Y77000000I249999J0D01*
G01*
X15350001Y77000000D01*
G75*
G02*
X15600000Y76750001I0J-249999D01*
G01*
X15600000Y75849999D01*
G75*
G02*
X15350001Y75600000I-249999J0D01*
G01*
X14649999Y75600000D01*
G75*
G02*
X14400000Y75849999I0J249999D01*
G01*
G37*
%TD*%
D23*
%TO.C,HT7333*%
G36*
X64766500Y85300000D02*
G01*
X64766500Y82175000D01*
X64350000Y82175000D01*
X64350000Y80700000D01*
X63450000Y80700000D01*
X63450000Y82175000D01*
X63033500Y82175000D01*
X63033500Y85300000D01*
X64766500Y85300000D01*
G37*
D22*
X65400000Y81350000D03*
X62400000Y81350000D03*
%TD*%
%TO.C,10k-4*%
G36*
G01*
X39500000Y89050001D02*
X39500000Y88149999D01*
G75*
G02*
X39250001Y87900000I-249999J0D01*
G01*
X38549999Y87900000D01*
G75*
G02*
X38300000Y88149999I0J249999D01*
G01*
X38300000Y89050001D01*
G75*
G02*
X38549999Y89300000I249999J0D01*
G01*
X39250001Y89300000D01*
G75*
G02*
X39500000Y89050001I0J-249999D01*
G01*
G37*
G36*
G01*
X41500000Y89050001D02*
X41500000Y88149999D01*
G75*
G02*
X41250001Y87900000I-249999J0D01*
G01*
X40549999Y87900000D01*
G75*
G02*
X40300000Y88149999I0J249999D01*
G01*
X40300000Y89050001D01*
G75*
G02*
X40549999Y89300000I249999J0D01*
G01*
X41250001Y89300000D01*
G75*
G02*
X41500000Y89050001I0J-249999D01*
G01*
G37*
%TD*%
%TO.C,100nF-2*%
G36*
G01*
X38275000Y84825000D02*
X38275000Y85775000D01*
G75*
G02*
X38525000Y86025000I250000J0D01*
G01*
X39200000Y86025000D01*
G75*
G02*
X39450000Y85775000I0J-250000D01*
G01*
X39450000Y84825000D01*
G75*
G02*
X39200000Y84575000I-250000J0D01*
G01*
X38525000Y84575000D01*
G75*
G02*
X38275000Y84825000I0J250000D01*
G01*
G37*
G36*
G01*
X40350000Y84825000D02*
X40350000Y85775000D01*
G75*
G02*
X40600000Y86025000I250000J0D01*
G01*
X41275000Y86025000D01*
G75*
G02*
X41525000Y85775000I0J-250000D01*
G01*
X41525000Y84825000D01*
G75*
G02*
X41275000Y84575000I-250000J0D01*
G01*
X40600000Y84575000D01*
G75*
G02*
X40350000Y84825000I0J250000D01*
G01*
G37*
%TD*%
%TO.C,1000uF-1*%
G36*
G01*
X60650000Y91900003D02*
X60650000Y90499997D01*
G75*
G02*
X60400003Y90250000I-249997J0D01*
G01*
X56499997Y90250000D01*
G75*
G02*
X56250000Y90499997I0J249997D01*
G01*
X56250000Y91900003D01*
G75*
G02*
X56499997Y92150000I249997J0D01*
G01*
X60400003Y92150000D01*
G75*
G02*
X60650000Y91900003I0J-249997D01*
G01*
G37*
G36*
G01*
X69350000Y91900003D02*
X69350000Y90499997D01*
G75*
G02*
X69100003Y90250000I-249997J0D01*
G01*
X65199997Y90250000D01*
G75*
G02*
X64950000Y90499997I0J249997D01*
G01*
X64950000Y91900003D01*
G75*
G02*
X65199997Y92150000I249997J0D01*
G01*
X69100003Y92150000D01*
G75*
G02*
X69350000Y91900003I0J-249997D01*
G01*
G37*
%TD*%
D12*
%TO.C,S1*%
X64400000Y77200000D03*
X66400000Y77200000D03*
X62400000Y77200000D03*
D11*
X69250000Y77200000D03*
X59550000Y77200000D03*
%TD*%
M02*
