%TF.GenerationSoftware,KiCad,Pcbnew,5.1.12-84ad8e8a86~92~ubuntu18.04.1*%
%TF.CreationDate,2021-11-12T09:30:33+01:00*%
%TF.ProjectId,window-sensor,77696e64-6f77-42d7-9365-6e736f722e6b,rev?*%
%TF.SameCoordinates,PX5dd7700PY8ec3da0*%
%TF.FileFunction,OtherDrawing,Comment*%
%FSLAX46Y46*%
G04 Gerber Fmt 4.6, Leading zero omitted, Abs format (unit mm)*
G04 Created by KiCad (PCBNEW 5.1.12-84ad8e8a86~92~ubuntu18.04.1) date 2021-11-12 09:30:33*
%MOMM*%
%LPD*%
G01*
G04 APERTURE LIST*
%TA.AperFunction,Profile*%
%ADD10C,0.050000*%
%TD*%
%ADD11C,0.050000*%
%ADD12C,0.120000*%
G04 APERTURE END LIST*
D10*
X74900000Y1800000D02*
X78900000Y1800000D01*
X52000000Y1800000D02*
X56000000Y1800000D01*
X27000000Y1800000D02*
X31000000Y1800000D01*
X74900000Y97000000D02*
X78900000Y97000000D01*
X52000000Y97000000D02*
X56000000Y97000000D01*
X27000000Y97000000D02*
X31000000Y97000000D01*
X9100000Y20900000D02*
X9900000Y20100000D01*
X9100000Y45200000D02*
X9900000Y44400000D01*
X9100000Y69500000D02*
X9900000Y68700000D01*
X27000000Y26100000D02*
G75*
G02*
X27000000Y24100000I0J-1000000D01*
G01*
X27000000Y50400000D02*
G75*
G02*
X27000000Y48400000I0J-1000000D01*
G01*
X52000000Y26100000D02*
G75*
G02*
X52000000Y24100000I0J-1000000D01*
G01*
X52000000Y50400000D02*
G75*
G02*
X52000000Y48400000I0J-1000000D01*
G01*
X78900000Y24100000D02*
G75*
G02*
X78900000Y26100000I0J1000000D01*
G01*
X78900000Y48400000D02*
G75*
G02*
X78900000Y50400000I0J1000000D01*
G01*
X56000000Y1800000D02*
X74900000Y1800000D01*
X56000000Y26100000D02*
X74900000Y26100000D01*
X56000000Y50400000D02*
X74900000Y50400000D01*
X7000000Y4800000D02*
X7000000Y1800000D01*
X7000000Y29100000D02*
X7000000Y26100000D01*
X7000000Y53400000D02*
X7000000Y50400000D01*
X74900000Y26100000D02*
G75*
G02*
X74900000Y24100000I0J-1000000D01*
G01*
X74900000Y50400000D02*
G75*
G02*
X74900000Y48400000I0J-1000000D01*
G01*
X56000000Y24100000D02*
G75*
G02*
X56000000Y26100000I0J1000000D01*
G01*
X56000000Y48400000D02*
G75*
G02*
X56000000Y50400000I0J1000000D01*
G01*
X31000000Y1800000D02*
X52000000Y1800000D01*
X31000000Y26100000D02*
X52000000Y26100000D01*
X31000000Y50400000D02*
X52000000Y50400000D01*
X9100000Y4800000D02*
X9900000Y5600000D01*
X9100000Y29100000D02*
X9900000Y29900000D01*
X9100000Y53400000D02*
X9900000Y54200000D01*
X31000000Y24100000D02*
X52000000Y24100000D01*
X31000000Y48400000D02*
X52000000Y48400000D01*
X31000000Y72700000D02*
X52000000Y72700000D01*
X9900000Y20100000D02*
X9900000Y5600000D01*
X9900000Y44400000D02*
X9900000Y29900000D01*
X9900000Y68700000D02*
X9900000Y54200000D01*
X31000000Y24100000D02*
G75*
G02*
X31000000Y26100000I0J1000000D01*
G01*
X31000000Y48400000D02*
G75*
G02*
X31000000Y50400000I0J1000000D01*
G01*
X98900000Y24100000D02*
X78900000Y24100000D01*
X98900000Y48400000D02*
X78900000Y48400000D01*
X98900000Y72700000D02*
X78900000Y72700000D01*
X98900000Y1800000D02*
X98900000Y24100000D01*
X98900000Y26100000D02*
X98900000Y48400000D01*
X98900000Y50400000D02*
X98900000Y72700000D01*
X9100000Y4800000D02*
X7000000Y4800000D01*
X9100000Y29100000D02*
X7000000Y29100000D01*
X9100000Y53400000D02*
X7000000Y53400000D01*
X7000000Y20900000D02*
X7000000Y24100000D01*
X7000000Y45200000D02*
X7000000Y48400000D01*
X7000000Y69500000D02*
X7000000Y72700000D01*
X98900000Y1800000D02*
X78900000Y1800000D01*
X98900000Y26100000D02*
X78900000Y26100000D01*
X98900000Y50400000D02*
X78900000Y50400000D01*
X7000000Y24100000D02*
X27000000Y24100000D01*
X7000000Y48400000D02*
X27000000Y48400000D01*
X7000000Y72700000D02*
X27000000Y72700000D01*
X7000000Y20900000D02*
X9100000Y20900000D01*
X7000000Y45200000D02*
X9100000Y45200000D01*
X7000000Y69500000D02*
X9100000Y69500000D01*
X74900000Y24100000D02*
X56000000Y24100000D01*
X74900000Y48400000D02*
X56000000Y48400000D01*
X74900000Y72700000D02*
X56000000Y72700000D01*
X7000000Y1800000D02*
X27000000Y1800000D01*
X7000000Y26100000D02*
X27000000Y26100000D01*
X7000000Y50400000D02*
X27000000Y50400000D01*
X27000000Y74700000D02*
G75*
G02*
X27000000Y72700000I0J-1000000D01*
G01*
X31000000Y72700000D02*
G75*
G02*
X31000000Y74700000I0J1000000D01*
G01*
X52000000Y74700000D02*
G75*
G02*
X52000000Y72700000I0J-1000000D01*
G01*
X56000000Y72700000D02*
G75*
G02*
X56000000Y74700000I0J1000000D01*
G01*
X74900000Y74700000D02*
G75*
G02*
X74900000Y72700000I0J-1000000D01*
G01*
X78900000Y72700000D02*
G75*
G02*
X78900000Y74700000I0J1000000D01*
G01*
X98900000Y74700000D02*
X78900000Y74700000D01*
X56000000Y74700000D02*
X74900000Y74700000D01*
X31000000Y74700000D02*
X52000000Y74700000D01*
X7000000Y74700000D02*
X27000000Y74700000D01*
X74900000Y97000000D02*
X56000000Y97000000D01*
X31000000Y97000000D02*
X52000000Y97000000D01*
X98900000Y97000000D02*
X78900000Y97000000D01*
X7000000Y97000000D02*
X27000000Y97000000D01*
X98900000Y74700000D02*
X98900000Y97000000D01*
X7000000Y77700000D02*
X7000000Y74700000D01*
X7000000Y93800000D02*
X7000000Y97000000D01*
X9100000Y93800000D02*
X9900000Y93000000D01*
X9100000Y77700000D02*
X9900000Y78500000D01*
X9100000Y77700000D02*
X7000000Y77700000D01*
X9900000Y93000000D02*
X9900000Y78500000D01*
X7000000Y93800000D02*
X9100000Y93800000D01*
D11*
%TO.C,mouse-bite-2mm-slot*%
X74960000Y25100000D02*
G75*
G03*
X74960000Y25100000I-60000J0D01*
G01*
X78960000Y25100000D02*
G75*
G03*
X78960000Y25100000I-60000J0D01*
G01*
X74960000Y49400000D02*
G75*
G03*
X74960000Y49400000I-60000J0D01*
G01*
X78960000Y49400000D02*
G75*
G03*
X78960000Y49400000I-60000J0D01*
G01*
D12*
%TO.C,ESP-12E1*%
X11180000Y6080000D02*
X11180000Y22320000D01*
X11180000Y22320000D02*
X18500000Y22320000D01*
X18500000Y22320000D02*
X18500000Y6080000D01*
X18500000Y6080000D02*
X11180000Y6080000D01*
X14180000Y6080000D02*
X11180000Y9080000D01*
X17180000Y6080000D02*
X11180000Y12080000D01*
X18500000Y7760000D02*
X11180000Y15080000D01*
X18500000Y10760000D02*
X11180000Y18080000D01*
X18500000Y13760000D02*
X11180000Y21080000D01*
X18500000Y16760000D02*
X12940000Y22320000D01*
X18500000Y19760000D02*
X15940000Y22320000D01*
X11180000Y30380000D02*
X11180000Y46620000D01*
X11180000Y46620000D02*
X18500000Y46620000D01*
X18500000Y46620000D02*
X18500000Y30380000D01*
X18500000Y30380000D02*
X11180000Y30380000D01*
X14180000Y30380000D02*
X11180000Y33380000D01*
X17180000Y30380000D02*
X11180000Y36380000D01*
X18500000Y32060000D02*
X11180000Y39380000D01*
X18500000Y35060000D02*
X11180000Y42380000D01*
X18500000Y38060000D02*
X11180000Y45380000D01*
X18500000Y41060000D02*
X12940000Y46620000D01*
X18500000Y44060000D02*
X15940000Y46620000D01*
X11180000Y54680000D02*
X11180000Y70920000D01*
X11180000Y70920000D02*
X18500000Y70920000D01*
X18500000Y70920000D02*
X18500000Y54680000D01*
X18500000Y54680000D02*
X11180000Y54680000D01*
X14180000Y54680000D02*
X11180000Y57680000D01*
X17180000Y54680000D02*
X11180000Y60680000D01*
X18500000Y56360000D02*
X11180000Y63680000D01*
X18500000Y59360000D02*
X11180000Y66680000D01*
X18500000Y62360000D02*
X11180000Y69680000D01*
X18500000Y65360000D02*
X12940000Y70920000D01*
X18500000Y68360000D02*
X15940000Y70920000D01*
D11*
%TO.C,mouse-bite-2mm-slot*%
X52060000Y25100000D02*
G75*
G03*
X52060000Y25100000I-60000J0D01*
G01*
X56060000Y25100000D02*
G75*
G03*
X56060000Y25100000I-60000J0D01*
G01*
X52060000Y49400000D02*
G75*
G03*
X52060000Y49400000I-60000J0D01*
G01*
X56060000Y49400000D02*
G75*
G03*
X56060000Y49400000I-60000J0D01*
G01*
X27060000Y25100000D02*
G75*
G03*
X27060000Y25100000I-60000J0D01*
G01*
X31060000Y25100000D02*
G75*
G03*
X31060000Y25100000I-60000J0D01*
G01*
X27060000Y49400000D02*
G75*
G03*
X27060000Y49400000I-60000J0D01*
G01*
X31060000Y49400000D02*
G75*
G03*
X31060000Y49400000I-60000J0D01*
G01*
X78960000Y73700000D02*
G75*
G03*
X78960000Y73700000I-60000J0D01*
G01*
X74960000Y73700000D02*
G75*
G03*
X74960000Y73700000I-60000J0D01*
G01*
X56060000Y73700000D02*
G75*
G03*
X56060000Y73700000I-60000J0D01*
G01*
X52060000Y73700000D02*
G75*
G03*
X52060000Y73700000I-60000J0D01*
G01*
X31060000Y73700000D02*
G75*
G03*
X31060000Y73700000I-60000J0D01*
G01*
X27060000Y73700000D02*
G75*
G03*
X27060000Y73700000I-60000J0D01*
G01*
D12*
%TO.C,ESP-12E1*%
X18500000Y92660000D02*
X15940000Y95220000D01*
X18500000Y89660000D02*
X12940000Y95220000D01*
X18500000Y86660000D02*
X11180000Y93980000D01*
X18500000Y83660000D02*
X11180000Y90980000D01*
X18500000Y80660000D02*
X11180000Y87980000D01*
X17180000Y78980000D02*
X11180000Y84980000D01*
X14180000Y78980000D02*
X11180000Y81980000D01*
X18500000Y78980000D02*
X11180000Y78980000D01*
X18500000Y95220000D02*
X18500000Y78980000D01*
X11180000Y95220000D02*
X18500000Y95220000D01*
X11180000Y78980000D02*
X11180000Y95220000D01*
%TD*%
M02*
