M48
; DRILL file {KiCad 5.1.12-84ad8e8a86~92~ubuntu18.04.1} date Fr 12 Nov 2021 09:30:24 CET
; FORMAT={-:-/ absolute / metric / decimal}
; #@! TF.CreationDate,2021-11-12T09:30:24+01:00
; #@! TF.GenerationSoftware,Kicad,Pcbnew,5.1.12-84ad8e8a86~92~ubuntu18.04.1
FMAT,2
METRIC
T1C0.400
T2C0.700
T3C0.800
T4C1.000
T5C1.500
T6C0.500
%
G90
G05
T1
X10.119Y95.202
X10.119Y70.902
X10.119Y46.602
X10.119Y22.302
X16.163Y77.463
X16.163Y53.163
X16.163Y28.863
X16.163Y4.563
X20.12Y92.822
X20.12Y68.522
X20.12Y44.222
X20.12Y19.922
X21.651Y77.451
X21.651Y53.151
X21.651Y28.851
X21.651Y4.551
X27.8Y92.813
X27.8Y68.513
X27.8Y44.213
X27.8Y19.913
X31.844Y82.46
X31.844Y58.16
X31.844Y33.86
X31.844Y9.56
X37.633Y85.382
X37.633Y61.082
X37.633Y36.782
X37.633Y12.482
X38.976Y93.212
X38.976Y68.912
X38.976Y44.611
X38.976Y20.311
X40.133Y80.117
X40.133Y55.817
X40.133Y31.517
X40.133Y7.217
X70.52Y88.283
X70.52Y63.983
X70.52Y39.683
X70.52Y15.383
T2
X13.4Y85.9
X13.4Y61.6
X13.4Y37.3
X13.4Y13.0
X96.4Y85.9
X96.4Y61.6
X96.4Y37.3
X96.4Y13.0
T3
X45.2Y92.6
X45.2Y90.06
X45.2Y87.52
X45.2Y84.98
X45.2Y82.44
X45.2Y79.9
X45.2Y77.36
X45.2Y68.3
X45.2Y65.76
X45.2Y63.22
X45.2Y60.68
X45.2Y58.14
X45.2Y55.6
X45.2Y53.06
X45.2Y44.0
X45.2Y41.46
X45.2Y38.92
X45.2Y36.38
X45.2Y33.84
X45.2Y31.3
X45.2Y28.76
X45.2Y19.7
X45.2Y17.16
X45.2Y14.62
X45.2Y12.08
X45.2Y9.54
X45.2Y7.0
X45.2Y4.46
X52.82Y92.6
X52.82Y90.06
X52.82Y87.52
X52.82Y84.98
X52.82Y82.44
X52.82Y79.9
X52.82Y77.36
X52.82Y68.3
X52.82Y65.76
X52.82Y63.22
X52.82Y60.68
X52.82Y58.14
X52.82Y55.6
X52.82Y53.06
X52.82Y44.0
X52.82Y41.46
X52.82Y38.92
X52.82Y36.38
X52.82Y33.84
X52.82Y31.3
X52.82Y28.76
X52.82Y19.7
X52.82Y17.16
X52.82Y14.62
X52.82Y12.08
X52.82Y9.54
X52.82Y7.0
X52.82Y4.46
X62.4Y77.2
X62.4Y52.9
X62.4Y28.6
X62.4Y4.3
X64.4Y77.2
X64.4Y52.9
X64.4Y28.6
X64.4Y4.3
X66.4Y77.2
X66.4Y52.9
X66.4Y28.6
X66.4Y4.3
T4
X81.9Y94.5
X81.9Y70.2
X81.9Y45.9
X81.9Y21.6
X84.44Y94.5
X84.44Y70.2
X84.44Y45.9
X84.44Y21.6
X86.98Y94.5
X86.98Y70.2
X86.98Y45.9
X86.98Y21.6
X89.52Y94.5
X89.52Y70.2
X89.52Y45.9
X89.52Y21.6
X92.06Y94.5
X92.06Y70.2
X92.06Y45.9
X92.06Y21.6
T5
X59.55Y77.2
X59.55Y52.9
X59.55Y28.6
X59.55Y4.3
X69.25Y77.2
X69.25Y52.9
X69.25Y28.6
X69.25Y4.3
T6
X28.25Y74.45
X28.25Y72.95
X28.25Y50.15
X28.25Y48.65
X28.25Y25.85
X28.25Y24.35
X29.0Y74.45
X29.0Y72.95
X29.0Y50.15
X29.0Y48.65
X29.0Y25.85
X29.0Y24.35
X29.75Y74.45
X29.75Y72.95
X29.75Y50.15
X29.75Y48.65
X29.75Y25.85
X29.75Y24.35
X53.25Y74.45
X53.25Y72.95
X53.25Y50.15
X53.25Y48.65
X53.25Y25.85
X53.25Y24.35
X54.0Y74.45
X54.0Y72.95
X54.0Y50.15
X54.0Y48.65
X54.0Y25.85
X54.0Y24.35
X54.75Y74.45
X54.75Y72.95
X54.75Y50.15
X54.75Y48.65
X54.75Y25.85
X54.75Y24.35
X76.15Y74.45
X76.15Y72.95
X76.15Y50.15
X76.15Y48.65
X76.15Y25.85
X76.15Y24.35
X76.9Y74.45
X76.9Y72.95
X76.9Y50.15
X76.9Y48.65
X76.9Y25.85
X76.9Y24.35
X77.65Y74.45
X77.65Y72.95
X77.65Y50.15
X77.65Y48.65
X77.65Y25.85
X77.65Y24.35
T0
M30
