%TF.GenerationSoftware,KiCad,Pcbnew,(5.1.7)-1*%
%TF.CreationDate,2021-11-04T21:35:45+01:00*%
%TF.ProjectId,window-sensor,77696e64-6f77-42d7-9365-6e736f722e6b,rev?*%
%TF.SameCoordinates,PX7270e00PY57bcf00*%
%TF.FileFunction,Legend,Bot*%
%TF.FilePolarity,Positive*%
%FSLAX46Y46*%
G04 Gerber Fmt 4.6, Leading zero omitted, Abs format (unit mm)*
G04 Created by KiCad (PCBNEW (5.1.7)-1) date 2021-11-04 21:35:45*
%MOMM*%
%LPD*%
G01*
G04 APERTURE LIST*
%TA.AperFunction,Profile*%
%ADD10C,0.050000*%
%TD*%
%ADD11C,0.200000*%
%ADD12C,0.300000*%
%ADD13C,0.150000*%
%ADD14C,0.010000*%
%ADD15C,0.120000*%
G04 APERTURE END LIST*
D10*
X-4900000Y-4100000D02*
X-4100000Y-4900000D01*
D11*
X74271428Y-7042857D02*
X73985714Y-8242857D01*
X73757142Y-7385714D01*
X73528571Y-8242857D01*
X73242857Y-7042857D01*
X72785714Y-8242857D02*
X72785714Y-7442857D01*
X72785714Y-7042857D02*
X72842857Y-7100000D01*
X72785714Y-7157142D01*
X72728571Y-7100000D01*
X72785714Y-7042857D01*
X72785714Y-7157142D01*
X72214285Y-7442857D02*
X72214285Y-8242857D01*
X72214285Y-7557142D02*
X72157142Y-7500000D01*
X72042857Y-7442857D01*
X71871428Y-7442857D01*
X71757142Y-7500000D01*
X71700000Y-7614285D01*
X71700000Y-8242857D01*
X70614285Y-8242857D02*
X70614285Y-7042857D01*
X70614285Y-8185714D02*
X70728571Y-8242857D01*
X70957142Y-8242857D01*
X71071428Y-8185714D01*
X71128571Y-8128571D01*
X71185714Y-8014285D01*
X71185714Y-7671428D01*
X71128571Y-7557142D01*
X71071428Y-7500000D01*
X70957142Y-7442857D01*
X70728571Y-7442857D01*
X70614285Y-7500000D01*
X69871428Y-8242857D02*
X69985714Y-8185714D01*
X70042857Y-8128571D01*
X70100000Y-8014285D01*
X70100000Y-7671428D01*
X70042857Y-7557142D01*
X69985714Y-7500000D01*
X69871428Y-7442857D01*
X69700000Y-7442857D01*
X69585714Y-7500000D01*
X69528571Y-7557142D01*
X69471428Y-7671428D01*
X69471428Y-8014285D01*
X69528571Y-8128571D01*
X69585714Y-8185714D01*
X69700000Y-8242857D01*
X69871428Y-8242857D01*
X69071428Y-7442857D02*
X68842857Y-8242857D01*
X68614285Y-7671428D01*
X68385714Y-8242857D01*
X68157142Y-7442857D01*
X67700000Y-7785714D02*
X66785714Y-7785714D01*
X66271428Y-8185714D02*
X66100000Y-8242857D01*
X65814285Y-8242857D01*
X65700000Y-8185714D01*
X65642857Y-8128571D01*
X65585714Y-8014285D01*
X65585714Y-7900000D01*
X65642857Y-7785714D01*
X65700000Y-7728571D01*
X65814285Y-7671428D01*
X66042857Y-7614285D01*
X66157142Y-7557142D01*
X66214285Y-7500000D01*
X66271428Y-7385714D01*
X66271428Y-7271428D01*
X66214285Y-7157142D01*
X66157142Y-7100000D01*
X66042857Y-7042857D01*
X65757142Y-7042857D01*
X65585714Y-7100000D01*
X64614285Y-8185714D02*
X64728571Y-8242857D01*
X64957142Y-8242857D01*
X65071428Y-8185714D01*
X65128571Y-8071428D01*
X65128571Y-7614285D01*
X65071428Y-7500000D01*
X64957142Y-7442857D01*
X64728571Y-7442857D01*
X64614285Y-7500000D01*
X64557142Y-7614285D01*
X64557142Y-7728571D01*
X65128571Y-7842857D01*
X64042857Y-7442857D02*
X64042857Y-8242857D01*
X64042857Y-7557142D02*
X63985714Y-7500000D01*
X63871428Y-7442857D01*
X63700000Y-7442857D01*
X63585714Y-7500000D01*
X63528571Y-7614285D01*
X63528571Y-8242857D01*
X63014285Y-8185714D02*
X62900000Y-8242857D01*
X62671428Y-8242857D01*
X62557142Y-8185714D01*
X62500000Y-8071428D01*
X62500000Y-8014285D01*
X62557142Y-7900000D01*
X62671428Y-7842857D01*
X62842857Y-7842857D01*
X62957142Y-7785714D01*
X63014285Y-7671428D01*
X63014285Y-7614285D01*
X62957142Y-7500000D01*
X62842857Y-7442857D01*
X62671428Y-7442857D01*
X62557142Y-7500000D01*
X61814285Y-8242857D02*
X61928571Y-8185714D01*
X61985714Y-8128571D01*
X62042857Y-8014285D01*
X62042857Y-7671428D01*
X61985714Y-7557142D01*
X61928571Y-7500000D01*
X61814285Y-7442857D01*
X61642857Y-7442857D01*
X61528571Y-7500000D01*
X61471428Y-7557142D01*
X61414285Y-7671428D01*
X61414285Y-8014285D01*
X61471428Y-8128571D01*
X61528571Y-8185714D01*
X61642857Y-8242857D01*
X61814285Y-8242857D01*
X60900000Y-8242857D02*
X60900000Y-7442857D01*
X60900000Y-7671428D02*
X60842857Y-7557142D01*
X60785714Y-7500000D01*
X60671428Y-7442857D01*
X60557142Y-7442857D01*
X59357142Y-7442857D02*
X59071428Y-8242857D01*
X58785714Y-7442857D01*
X57700000Y-8242857D02*
X58385714Y-8242857D01*
X58042857Y-8242857D02*
X58042857Y-7042857D01*
X58157142Y-7214285D01*
X58271428Y-7328571D01*
X58385714Y-7385714D01*
X57185714Y-8128571D02*
X57128571Y-8185714D01*
X57185714Y-8242857D01*
X57242857Y-8185714D01*
X57185714Y-8128571D01*
X57185714Y-8242857D01*
X56671428Y-7157142D02*
X56614285Y-7100000D01*
X56500000Y-7042857D01*
X56214285Y-7042857D01*
X56100000Y-7100000D01*
X56042857Y-7157142D01*
X55985714Y-7271428D01*
X55985714Y-7385714D01*
X56042857Y-7557142D01*
X56728571Y-8242857D01*
X55985714Y-8242857D01*
D12*
X25128571Y-17492857D02*
X24900000Y-18292857D01*
X24671428Y-17721428D01*
X24442857Y-18292857D01*
X24214285Y-17492857D01*
X23871428Y-17492857D02*
X23642857Y-18292857D01*
X23414285Y-17721428D01*
X23185714Y-18292857D01*
X22957142Y-17492857D01*
X22614285Y-17492857D02*
X22385714Y-18292857D01*
X22157142Y-17721428D01*
X21928571Y-18292857D01*
X21700000Y-17492857D01*
X21242857Y-18178571D02*
X21185714Y-18235714D01*
X21242857Y-18292857D01*
X21300000Y-18235714D01*
X21242857Y-18178571D01*
X21242857Y-18292857D01*
X20785714Y-17492857D02*
X20500000Y-18292857D01*
X20214285Y-17492857D02*
X20500000Y-18292857D01*
X20614285Y-18578571D01*
X20671428Y-18635714D01*
X20785714Y-18692857D01*
X19585714Y-18292857D02*
X19700000Y-18235714D01*
X19757142Y-18178571D01*
X19814285Y-18064285D01*
X19814285Y-17721428D01*
X19757142Y-17607142D01*
X19700000Y-17550000D01*
X19585714Y-17492857D01*
X19414285Y-17492857D01*
X19300000Y-17550000D01*
X19242857Y-17607142D01*
X19185714Y-17721428D01*
X19185714Y-18064285D01*
X19242857Y-18178571D01*
X19300000Y-18235714D01*
X19414285Y-18292857D01*
X19585714Y-18292857D01*
X18157142Y-17492857D02*
X18157142Y-18292857D01*
X18671428Y-17492857D02*
X18671428Y-18121428D01*
X18614285Y-18235714D01*
X18500000Y-18292857D01*
X18328571Y-18292857D01*
X18214285Y-18235714D01*
X18157142Y-18178571D01*
X17757142Y-17492857D02*
X17300000Y-17492857D01*
X17585714Y-17092857D02*
X17585714Y-18121428D01*
X17528571Y-18235714D01*
X17414285Y-18292857D01*
X17300000Y-18292857D01*
X16385714Y-17492857D02*
X16385714Y-18292857D01*
X16900000Y-17492857D02*
X16900000Y-18121428D01*
X16842857Y-18235714D01*
X16728571Y-18292857D01*
X16557142Y-18292857D01*
X16442857Y-18235714D01*
X16385714Y-18178571D01*
X15814285Y-18292857D02*
X15814285Y-17092857D01*
X15814285Y-17550000D02*
X15700000Y-17492857D01*
X15471428Y-17492857D01*
X15357142Y-17550000D01*
X15300000Y-17607142D01*
X15242857Y-17721428D01*
X15242857Y-18064285D01*
X15300000Y-18178571D01*
X15357142Y-18235714D01*
X15471428Y-18292857D01*
X15700000Y-18292857D01*
X15814285Y-18235714D01*
X14271428Y-18235714D02*
X14385714Y-18292857D01*
X14614285Y-18292857D01*
X14728571Y-18235714D01*
X14785714Y-18121428D01*
X14785714Y-17664285D01*
X14728571Y-17550000D01*
X14614285Y-17492857D01*
X14385714Y-17492857D01*
X14271428Y-17550000D01*
X14214285Y-17664285D01*
X14214285Y-17778571D01*
X14785714Y-17892857D01*
X13700000Y-18178571D02*
X13642857Y-18235714D01*
X13700000Y-18292857D01*
X13757142Y-18235714D01*
X13700000Y-18178571D01*
X13700000Y-18292857D01*
X12614285Y-18235714D02*
X12728571Y-18292857D01*
X12957142Y-18292857D01*
X13071428Y-18235714D01*
X13128571Y-18178571D01*
X13185714Y-18064285D01*
X13185714Y-17721428D01*
X13128571Y-17607142D01*
X13071428Y-17550000D01*
X12957142Y-17492857D01*
X12728571Y-17492857D01*
X12614285Y-17550000D01*
X11928571Y-18292857D02*
X12042857Y-18235714D01*
X12100000Y-18178571D01*
X12157142Y-18064285D01*
X12157142Y-17721428D01*
X12100000Y-17607142D01*
X12042857Y-17550000D01*
X11928571Y-17492857D01*
X11757142Y-17492857D01*
X11642857Y-17550000D01*
X11585714Y-17607142D01*
X11528571Y-17721428D01*
X11528571Y-18064285D01*
X11585714Y-18178571D01*
X11642857Y-18235714D01*
X11757142Y-18292857D01*
X11928571Y-18292857D01*
X11014285Y-18292857D02*
X11014285Y-17492857D01*
X11014285Y-17607142D02*
X10957142Y-17550000D01*
X10842857Y-17492857D01*
X10671428Y-17492857D01*
X10557142Y-17550000D01*
X10500000Y-17664285D01*
X10500000Y-18292857D01*
X10500000Y-17664285D02*
X10442857Y-17550000D01*
X10328571Y-17492857D01*
X10157142Y-17492857D01*
X10042857Y-17550000D01*
X9985714Y-17664285D01*
X9985714Y-18292857D01*
X8557142Y-17035714D02*
X9585714Y-18578571D01*
X8157142Y-18292857D02*
X8157142Y-17092857D01*
X7757142Y-17950000D01*
X7357142Y-17092857D01*
X7357142Y-18292857D01*
X6271428Y-18292857D02*
X6271428Y-17664285D01*
X6328571Y-17550000D01*
X6442857Y-17492857D01*
X6671428Y-17492857D01*
X6785714Y-17550000D01*
X6271428Y-18235714D02*
X6385714Y-18292857D01*
X6671428Y-18292857D01*
X6785714Y-18235714D01*
X6842857Y-18121428D01*
X6842857Y-18007142D01*
X6785714Y-17892857D01*
X6671428Y-17835714D01*
X6385714Y-17835714D01*
X6271428Y-17778571D01*
X5700000Y-18292857D02*
X5700000Y-17092857D01*
X5585714Y-17835714D02*
X5242857Y-18292857D01*
X5242857Y-17492857D02*
X5700000Y-17950000D01*
X4271428Y-18235714D02*
X4385714Y-18292857D01*
X4614285Y-18292857D01*
X4728571Y-18235714D01*
X4785714Y-18121428D01*
X4785714Y-17664285D01*
X4728571Y-17550000D01*
X4614285Y-17492857D01*
X4385714Y-17492857D01*
X4271428Y-17550000D01*
X4214285Y-17664285D01*
X4214285Y-17778571D01*
X4785714Y-17892857D01*
X3700000Y-18292857D02*
X3700000Y-17492857D01*
X3700000Y-17721428D02*
X3642857Y-17607142D01*
X3585714Y-17550000D01*
X3471428Y-17492857D01*
X3357142Y-17492857D01*
X2957142Y-18292857D02*
X2957142Y-17092857D01*
X2557142Y-17950000D01*
X2157142Y-17092857D01*
X2157142Y-18292857D01*
X1128571Y-18235714D02*
X1242857Y-18292857D01*
X1471428Y-18292857D01*
X1585714Y-18235714D01*
X1642857Y-18121428D01*
X1642857Y-17664285D01*
X1585714Y-17550000D01*
X1471428Y-17492857D01*
X1242857Y-17492857D01*
X1128571Y-17550000D01*
X1071428Y-17664285D01*
X1071428Y-17778571D01*
X1642857Y-17892857D01*
X557142Y-18292857D02*
X557142Y-17492857D01*
X557142Y-17092857D02*
X614285Y-17150000D01*
X557142Y-17207142D01*
X500000Y-17150000D01*
X557142Y-17092857D01*
X557142Y-17207142D01*
X-14286Y-18292857D02*
X-14286Y-17092857D01*
X-128572Y-17835714D02*
X-471429Y-18292857D01*
X-471429Y-17492857D02*
X-14286Y-17950000D01*
X23271428Y-19307142D02*
X23214285Y-19250000D01*
X23100000Y-19192857D01*
X22814285Y-19192857D01*
X22700000Y-19250000D01*
X22642857Y-19307142D01*
X22585714Y-19421428D01*
X22585714Y-19535714D01*
X22642857Y-19707142D01*
X23328571Y-20392857D01*
X22585714Y-20392857D01*
X21842857Y-19192857D02*
X21728571Y-19192857D01*
X21614285Y-19250000D01*
X21557142Y-19307142D01*
X21500000Y-19421428D01*
X21442857Y-19650000D01*
X21442857Y-19935714D01*
X21500000Y-20164285D01*
X21557142Y-20278571D01*
X21614285Y-20335714D01*
X21728571Y-20392857D01*
X21842857Y-20392857D01*
X21957142Y-20335714D01*
X22014285Y-20278571D01*
X22071428Y-20164285D01*
X22128571Y-19935714D01*
X22128571Y-19650000D01*
X22071428Y-19421428D01*
X22014285Y-19307142D01*
X21957142Y-19250000D01*
X21842857Y-19192857D01*
X20985714Y-19307142D02*
X20928571Y-19250000D01*
X20814285Y-19192857D01*
X20528571Y-19192857D01*
X20414285Y-19250000D01*
X20357142Y-19307142D01*
X20300000Y-19421428D01*
X20300000Y-19535714D01*
X20357142Y-19707142D01*
X21042857Y-20392857D01*
X20300000Y-20392857D01*
X19157142Y-20392857D02*
X19842857Y-20392857D01*
X19500000Y-20392857D02*
X19500000Y-19192857D01*
X19614285Y-19364285D01*
X19728571Y-19478571D01*
X19842857Y-19535714D01*
X17042857Y-20278571D02*
X17100000Y-20335714D01*
X17271428Y-20392857D01*
X17385714Y-20392857D01*
X17557142Y-20335714D01*
X17671428Y-20221428D01*
X17728571Y-20107142D01*
X17785714Y-19878571D01*
X17785714Y-19707142D01*
X17728571Y-19478571D01*
X17671428Y-19364285D01*
X17557142Y-19250000D01*
X17385714Y-19192857D01*
X17271428Y-19192857D01*
X17100000Y-19250000D01*
X17042857Y-19307142D01*
X15842857Y-20278571D02*
X15900000Y-20335714D01*
X16071428Y-20392857D01*
X16185714Y-20392857D01*
X16357142Y-20335714D01*
X16471428Y-20221428D01*
X16528571Y-20107142D01*
X16585714Y-19878571D01*
X16585714Y-19707142D01*
X16528571Y-19478571D01*
X16471428Y-19364285D01*
X16357142Y-19250000D01*
X16185714Y-19192857D01*
X16071428Y-19192857D01*
X15900000Y-19250000D01*
X15842857Y-19307142D01*
X14014285Y-19764285D02*
X13842857Y-19821428D01*
X13785714Y-19878571D01*
X13728571Y-19992857D01*
X13728571Y-20164285D01*
X13785714Y-20278571D01*
X13842857Y-20335714D01*
X13957142Y-20392857D01*
X14414285Y-20392857D01*
X14414285Y-19192857D01*
X14014285Y-19192857D01*
X13900000Y-19250000D01*
X13842857Y-19307142D01*
X13785714Y-19421428D01*
X13785714Y-19535714D01*
X13842857Y-19650000D01*
X13900000Y-19707142D01*
X14014285Y-19764285D01*
X14414285Y-19764285D01*
X12985714Y-19821428D02*
X12985714Y-20392857D01*
X13385714Y-19192857D02*
X12985714Y-19821428D01*
X12585714Y-19192857D01*
X12185714Y-19935714D02*
X11271428Y-19935714D01*
X10700000Y-20392857D02*
X10700000Y-19192857D01*
X10014285Y-20392857D01*
X10014285Y-19192857D01*
X8757142Y-20278571D02*
X8814285Y-20335714D01*
X8985714Y-20392857D01*
X9100000Y-20392857D01*
X9271428Y-20335714D01*
X9385714Y-20221428D01*
X9442857Y-20107142D01*
X9500000Y-19878571D01*
X9500000Y-19707142D01*
X9442857Y-19478571D01*
X9385714Y-19364285D01*
X9271428Y-19250000D01*
X9100000Y-19192857D01*
X8985714Y-19192857D01*
X8814285Y-19250000D01*
X8757142Y-19307142D01*
X8242857Y-19935714D02*
X7328571Y-19935714D01*
X6814285Y-20335714D02*
X6642857Y-20392857D01*
X6357142Y-20392857D01*
X6242857Y-20335714D01*
X6185714Y-20278571D01*
X6128571Y-20164285D01*
X6128571Y-20050000D01*
X6185714Y-19935714D01*
X6242857Y-19878571D01*
X6357142Y-19821428D01*
X6585714Y-19764285D01*
X6700000Y-19707142D01*
X6757142Y-19650000D01*
X6814285Y-19535714D01*
X6814285Y-19421428D01*
X6757142Y-19307142D01*
X6700000Y-19250000D01*
X6585714Y-19192857D01*
X6300000Y-19192857D01*
X6128571Y-19250000D01*
X5671428Y-20050000D02*
X5100000Y-20050000D01*
X5785714Y-20392857D02*
X5385714Y-19192857D01*
X4985714Y-20392857D01*
X3157142Y-19592857D02*
X3157142Y-20392857D01*
X3442857Y-19135714D02*
X3728571Y-19992857D01*
X2985714Y-19992857D01*
X2528571Y-20278571D02*
X2471428Y-20335714D01*
X2528571Y-20392857D01*
X2585714Y-20335714D01*
X2528571Y-20278571D01*
X2528571Y-20392857D01*
X1728571Y-19192857D02*
X1614285Y-19192857D01*
X1500000Y-19250000D01*
X1442857Y-19307142D01*
X1385714Y-19421428D01*
X1328571Y-19650000D01*
X1328571Y-19935714D01*
X1385714Y-20164285D01*
X1442857Y-20278571D01*
X1500000Y-20335714D01*
X1614285Y-20392857D01*
X1728571Y-20392857D01*
X1842857Y-20335714D01*
X1900000Y-20278571D01*
X1957142Y-20164285D01*
X2014285Y-19935714D01*
X2014285Y-19650000D01*
X1957142Y-19421428D01*
X1900000Y-19307142D01*
X1842857Y-19250000D01*
X1728571Y-19192857D01*
D10*
X-4900000Y-20200000D02*
X-4100000Y-19400000D01*
X-7000000Y-23300000D02*
X-7000000Y-20200000D01*
X-4900000Y-20200000D02*
X-7000000Y-20200000D01*
X-4100000Y-4900000D02*
X-4100000Y-19400000D01*
X-7000000Y-4100000D02*
X-4900000Y-4100000D01*
D13*
X-2647620Y-7695238D02*
X-3123810Y-7361904D01*
X-2647620Y-7123809D02*
X-3647620Y-7123809D01*
X-3647620Y-7504761D01*
X-3600000Y-7600000D01*
X-3552381Y-7647619D01*
X-3457143Y-7695238D01*
X-3314286Y-7695238D01*
X-3219048Y-7647619D01*
X-3171429Y-7600000D01*
X-3123810Y-7504761D01*
X-3123810Y-7123809D01*
X-3171429Y-8123809D02*
X-3171429Y-8457142D01*
X-2647620Y-8600000D02*
X-2647620Y-8123809D01*
X-3647620Y-8123809D01*
X-3647620Y-8600000D01*
X-3171429Y-9028571D02*
X-3171429Y-9361904D01*
X-2647620Y-9504761D02*
X-2647620Y-9028571D01*
X-3647620Y-9028571D01*
X-3647620Y-9504761D01*
X-2647620Y-9933333D02*
X-3647620Y-9933333D01*
X-3647620Y-10171428D01*
X-3600000Y-10314285D01*
X-3504762Y-10409523D01*
X-3409524Y-10457142D01*
X-3219048Y-10504761D01*
X-3076191Y-10504761D01*
X-2885715Y-10457142D01*
X-2790477Y-10409523D01*
X-2695239Y-10314285D01*
X-2647620Y-10171428D01*
X-2647620Y-9933333D01*
X-3028572Y-10933333D02*
X-3028572Y-11695238D01*
X-2695239Y-12123809D02*
X-2647620Y-12266666D01*
X-2647620Y-12504761D01*
X-2695239Y-12600000D01*
X-2742858Y-12647619D01*
X-2838096Y-12695238D01*
X-2933334Y-12695238D01*
X-3028572Y-12647619D01*
X-3076191Y-12600000D01*
X-3123810Y-12504761D01*
X-3171429Y-12314285D01*
X-3219048Y-12219047D01*
X-3266667Y-12171428D01*
X-3361905Y-12123809D01*
X-3457143Y-12123809D01*
X-3552381Y-12171428D01*
X-3600000Y-12219047D01*
X-3647620Y-12314285D01*
X-3647620Y-12552380D01*
X-3600000Y-12695238D01*
X-3647620Y-13028571D02*
X-2647620Y-13266666D01*
X-3361905Y-13457142D01*
X-2647620Y-13647619D01*
X-3647620Y-13885714D01*
X-2647620Y-14266666D02*
X-3647620Y-14266666D01*
X-3647620Y-14600000D02*
X-3647620Y-15171428D01*
X-2647620Y-14885714D02*
X-3647620Y-14885714D01*
X-2742858Y-16076190D02*
X-2695239Y-16028571D01*
X-2647620Y-15885714D01*
X-2647620Y-15790476D01*
X-2695239Y-15647619D01*
X-2790477Y-15552380D01*
X-2885715Y-15504761D01*
X-3076191Y-15457142D01*
X-3219048Y-15457142D01*
X-3409524Y-15504761D01*
X-3504762Y-15552380D01*
X-3600000Y-15647619D01*
X-3647620Y-15790476D01*
X-3647620Y-15885714D01*
X-3600000Y-16028571D01*
X-3552381Y-16076190D01*
X-2647620Y-16504761D02*
X-3647620Y-16504761D01*
X-3171429Y-16504761D02*
X-3171429Y-17076190D01*
X-2647620Y-17076190D02*
X-3647620Y-17076190D01*
D10*
X23900000Y-900000D02*
G75*
G02*
X25770760Y-1744841I-59239J-2624840D01*
G01*
X30817250Y-5799023D02*
G75*
G02*
X29210000Y-5150000I-107250J2049023D01*
G01*
X30817250Y-5799024D02*
X75500000Y-5800000D01*
X25770760Y-1744841D02*
X29210000Y-5150000D01*
D13*
X46561904Y-21571428D02*
X45800000Y-21571428D01*
X46180952Y-21952380D02*
X46180952Y-21190476D01*
X45419047Y-20952380D02*
X44800000Y-20952380D01*
X45133333Y-21333333D01*
X44990476Y-21333333D01*
X44895238Y-21380952D01*
X44847619Y-21428571D01*
X44800000Y-21523809D01*
X44800000Y-21761904D01*
X44847619Y-21857142D01*
X44895238Y-21904761D01*
X44990476Y-21952380D01*
X45276190Y-21952380D01*
X45371428Y-21904761D01*
X45419047Y-21857142D01*
X44514285Y-20952380D02*
X44180952Y-21952380D01*
X43847619Y-20952380D01*
X43609523Y-20952380D02*
X42942857Y-20952380D01*
X43371428Y-21952380D01*
X-4638096Y-21100000D02*
X-4542858Y-21052380D01*
X-4400000Y-21052380D01*
X-4257143Y-21100000D01*
X-4161905Y-21195238D01*
X-4114286Y-21290476D01*
X-4066667Y-21480952D01*
X-4066667Y-21623809D01*
X-4114286Y-21814285D01*
X-4161905Y-21909523D01*
X-4257143Y-22004761D01*
X-4400000Y-22052380D01*
X-4495239Y-22052380D01*
X-4638096Y-22004761D01*
X-4685715Y-21957142D01*
X-4685715Y-21623809D01*
X-4495239Y-21623809D01*
X-5114286Y-22052380D02*
X-5114286Y-21052380D01*
X-5685715Y-22052380D01*
X-5685715Y-21052380D01*
X-6161905Y-22052380D02*
X-6161905Y-21052380D01*
X-6400000Y-21052380D01*
X-6542858Y-21100000D01*
X-6638096Y-21195238D01*
X-6685715Y-21290476D01*
X-6733334Y-21480952D01*
X-6733334Y-21623809D01*
X-6685715Y-21814285D01*
X-6638096Y-21909523D01*
X-6542858Y-22004761D01*
X-6400000Y-22052380D01*
X-6161905Y-22052380D01*
D10*
X-7000000Y-4100000D02*
X-7000000Y-900000D01*
X75500000Y-23300000D02*
X-7000000Y-23300000D01*
X75500000Y-5800000D02*
X75500000Y-23300000D01*
X-7000000Y-900000D02*
X23900000Y-900000D01*
D14*
%TO.C,G\u002A\u002A\u002A*%
G36*
X14328075Y-4054783D02*
G01*
X14205501Y-4169405D01*
X14150771Y-4236522D01*
X14106861Y-4304041D01*
X14071342Y-4388512D01*
X14041786Y-4506488D01*
X14015767Y-4674519D01*
X13990856Y-4909157D01*
X13964626Y-5226952D01*
X13934649Y-5644457D01*
X13898497Y-6178221D01*
X13888111Y-6333243D01*
X13825733Y-7078911D01*
X13747011Y-7691387D01*
X13651116Y-8173898D01*
X13537223Y-8529670D01*
X13404504Y-8761928D01*
X13252134Y-8873898D01*
X13235894Y-8878576D01*
X12995224Y-8879634D01*
X12766157Y-8784814D01*
X12603939Y-8618836D01*
X12588593Y-8588908D01*
X12464510Y-8225592D01*
X12370498Y-7765827D01*
X12310699Y-7247992D01*
X12289260Y-6710465D01*
X12310324Y-6191623D01*
X12319556Y-6097554D01*
X12351521Y-5540002D01*
X12312585Y-5091920D01*
X12201093Y-4744222D01*
X12028767Y-4500908D01*
X11826297Y-4347269D01*
X11644078Y-4324346D01*
X11462299Y-4431530D01*
X11411392Y-4481988D01*
X11301473Y-4683745D01*
X11234020Y-4998178D01*
X11209628Y-5407203D01*
X11228895Y-5892738D01*
X11292418Y-6436701D01*
X11337909Y-6708377D01*
X11408242Y-7169840D01*
X11458417Y-7654971D01*
X11481433Y-8092857D01*
X11482162Y-8169896D01*
X11469282Y-8583965D01*
X11419456Y-8900677D01*
X11315909Y-9158483D01*
X11141865Y-9395833D01*
X10880549Y-9651179D01*
X10808029Y-9715025D01*
X10581177Y-9903018D01*
X10413158Y-10012571D01*
X10266624Y-10063222D01*
X10120635Y-10074594D01*
X9975719Y-10066787D01*
X9865811Y-10027490D01*
X9758743Y-9932888D01*
X9622347Y-9759166D01*
X9539796Y-9644583D01*
X9149067Y-9160568D01*
X8749112Y-8785106D01*
X8349113Y-8522655D01*
X7958249Y-8377670D01*
X7585702Y-8354606D01*
X7240650Y-8457921D01*
X7173060Y-8495774D01*
X6941796Y-8686515D01*
X6843936Y-8886280D01*
X6877256Y-9082745D01*
X7039530Y-9263590D01*
X7328536Y-9416491D01*
X7340041Y-9420856D01*
X7954948Y-9685815D01*
X8458353Y-9975520D01*
X8814663Y-10260344D01*
X9133381Y-10569792D01*
X8994907Y-11060166D01*
X8916599Y-11327577D01*
X8842590Y-11563658D01*
X8788478Y-11718726D01*
X8787101Y-11722162D01*
X8762734Y-11781870D01*
X8741022Y-11814502D01*
X8716169Y-11805471D01*
X8682379Y-11740190D01*
X8633856Y-11604074D01*
X8564803Y-11382534D01*
X8469425Y-11060986D01*
X8341926Y-10624842D01*
X8316558Y-10537973D01*
X8181213Y-10074594D01*
X7020000Y-10074594D01*
X7020000Y-13163783D01*
X7839287Y-13163783D01*
X7858698Y-12391486D01*
X7878108Y-11619189D01*
X8290000Y-13129459D01*
X8744198Y-13149548D01*
X9198396Y-13169638D01*
X9594324Y-11756486D01*
X9613888Y-12460135D01*
X9633452Y-13163783D01*
X9922807Y-13164037D01*
X10071771Y-13168741D01*
X10173747Y-13199666D01*
X10257916Y-13282512D01*
X10353460Y-13442980D01*
X10448954Y-13627416D01*
X10688991Y-14016275D01*
X11008546Y-14417466D01*
X11381588Y-14807117D01*
X11782082Y-15161359D01*
X12183996Y-15456321D01*
X12561297Y-15668131D01*
X12755760Y-15742625D01*
X12955284Y-15791561D01*
X13085321Y-15784757D01*
X13190973Y-15728703D01*
X13310382Y-15572012D01*
X13322151Y-15374775D01*
X13225247Y-15182969D01*
X13203783Y-15159999D01*
X13092564Y-15066970D01*
X12897648Y-14921117D01*
X12649996Y-14745144D01*
X12465810Y-14618876D01*
X12005445Y-14289428D01*
X11648502Y-13983820D01*
X11371648Y-13673132D01*
X11151550Y-13328442D01*
X10964876Y-12920828D01*
X10855253Y-12622552D01*
X10814341Y-12464323D01*
X10778621Y-12257128D01*
X10750142Y-12028781D01*
X10730953Y-11807098D01*
X10723103Y-11619896D01*
X10728641Y-11494988D01*
X10749616Y-11460191D01*
X10772492Y-11499054D01*
X10858496Y-11559162D01*
X11018441Y-11585853D01*
X11024505Y-11585916D01*
X11219200Y-11603985D01*
X11329008Y-11676187D01*
X11380723Y-11833082D01*
X11396750Y-12010498D01*
X11422368Y-12249032D01*
X11465488Y-12459492D01*
X11482561Y-12512670D01*
X11531405Y-12712654D01*
X11550811Y-12927982D01*
X11574345Y-13100681D01*
X11638996Y-13163783D01*
X11639221Y-13163783D01*
X11724970Y-13209143D01*
X11879653Y-13330497D01*
X12076128Y-13505760D01*
X12171782Y-13597148D01*
X12592289Y-13964557D01*
X12992897Y-14216868D01*
X13402436Y-14367342D01*
X13849735Y-14429240D01*
X13987838Y-14432510D01*
X14554767Y-14377998D01*
X15043606Y-14210961D01*
X15456391Y-13930369D01*
X15795156Y-13535190D01*
X15813591Y-13507167D01*
X15940886Y-13324191D01*
X16044248Y-13199628D01*
X16092482Y-13163783D01*
X16156375Y-13110801D01*
X16268725Y-12972177D01*
X16399559Y-12786216D01*
X16535538Y-12593879D01*
X16647485Y-12457880D01*
X16709179Y-12408648D01*
X16741453Y-12470730D01*
X16762858Y-12630872D01*
X16768108Y-12786216D01*
X16768108Y-13163783D01*
X17729189Y-13163783D01*
X17729189Y-10561731D01*
X18055270Y-10340023D01*
X18476593Y-10037179D01*
X18594653Y-9937297D01*
X17660541Y-9937297D01*
X17660541Y-13095135D01*
X16836757Y-13095135D01*
X16836757Y-12717567D01*
X16830169Y-12498043D01*
X16803255Y-12383731D01*
X16745286Y-12342885D01*
X16709179Y-12340000D01*
X16594522Y-12399176D01*
X16441268Y-12564098D01*
X16330910Y-12717567D01*
X16080219Y-13095135D01*
X15185648Y-13095135D01*
X15604630Y-12472019D01*
X15734452Y-12270317D01*
X15621206Y-12270317D01*
X15370873Y-12647345D01*
X15212935Y-12898181D01*
X15136319Y-13057625D01*
X15135985Y-13141022D01*
X15201156Y-13163783D01*
X15233800Y-13197146D01*
X15174762Y-13283111D01*
X15048146Y-13400499D01*
X14878057Y-13528128D01*
X14688597Y-13644816D01*
X14605676Y-13687063D01*
X14371971Y-13787610D01*
X14180163Y-13835174D01*
X13983636Y-13830886D01*
X13735771Y-13775880D01*
X13524591Y-13713322D01*
X13037855Y-13497407D01*
X12762224Y-13295596D01*
X12443243Y-13014818D01*
X12443243Y-11993337D01*
X12445349Y-11569080D01*
X12456935Y-11262882D01*
X12485901Y-11055513D01*
X12540148Y-10927743D01*
X12627576Y-10860344D01*
X12756086Y-10834084D01*
X12921326Y-10829729D01*
X12374595Y-10829729D01*
X12374595Y-13095135D01*
X11632325Y-13095135D01*
X11608730Y-12403020D01*
X11587927Y-12036343D01*
X11546858Y-11785615D01*
X11473388Y-11629726D01*
X11355377Y-11547568D01*
X11180689Y-11518033D01*
X11098818Y-11516216D01*
X10937719Y-11493370D01*
X10844581Y-11407256D01*
X10802966Y-11231510D01*
X10795676Y-11030061D01*
X10804328Y-10856294D01*
X10850302Y-10779954D01*
X10963625Y-10761362D01*
X10999233Y-10761081D01*
X11223128Y-10821483D01*
X11442915Y-10971913D01*
X11683040Y-11182745D01*
X11727340Y-11006237D01*
X11772085Y-10894987D01*
X11860573Y-10843555D01*
X12036010Y-10829886D01*
X12073118Y-10829729D01*
X12374595Y-10829729D01*
X12921326Y-10829729D01*
X13133840Y-10829729D01*
X12982307Y-11034689D01*
X12849377Y-11306563D01*
X12778647Y-11646729D01*
X12777506Y-11997594D01*
X12828082Y-12237027D01*
X12891307Y-12495942D01*
X12922211Y-12766627D01*
X12922785Y-12796662D01*
X12934828Y-12983771D01*
X12989426Y-13084412D01*
X13116879Y-13148866D01*
X13139974Y-13157068D01*
X13449154Y-13219228D01*
X13819061Y-13227993D01*
X14186019Y-13186179D01*
X14484122Y-13097618D01*
X14742597Y-12941853D01*
X14914869Y-12735755D01*
X15013355Y-12454790D01*
X15050473Y-12074422D01*
X15051635Y-11976185D01*
X15039250Y-11823632D01*
X14987925Y-11823632D01*
X14983267Y-12175272D01*
X14921178Y-12495032D01*
X14844271Y-12670072D01*
X14636281Y-12889737D01*
X14335586Y-13051313D01*
X13977738Y-13145705D01*
X13598289Y-13163821D01*
X13232792Y-13096568D01*
X13208622Y-13088419D01*
X13071543Y-13026582D01*
X13009159Y-12936619D01*
X12992733Y-12769419D01*
X12992432Y-12718941D01*
X12992432Y-12424827D01*
X13249865Y-12516697D01*
X13577267Y-12600916D01*
X13830495Y-12586496D01*
X14032942Y-12471398D01*
X14059607Y-12446093D01*
X14173561Y-12313121D01*
X14198904Y-12265948D01*
X14083424Y-12265948D01*
X14044143Y-12356353D01*
X14008432Y-12394919D01*
X13914736Y-12465074D01*
X13820519Y-12452608D01*
X13678953Y-12350249D01*
X13669362Y-12342283D01*
X13507297Y-12207270D01*
X13799054Y-12204986D01*
X14004427Y-12217941D01*
X14083424Y-12265948D01*
X14198904Y-12265948D01*
X14227454Y-12212808D01*
X14228108Y-12205823D01*
X14161722Y-12170479D01*
X13970889Y-12146394D01*
X13668099Y-12134876D01*
X13541622Y-12134054D01*
X12855135Y-12134054D01*
X12855135Y-11766638D01*
X12908190Y-11385229D01*
X13065484Y-11092437D01*
X13324209Y-10890906D01*
X13681558Y-10783276D01*
X13919189Y-10765062D01*
X14281656Y-10823611D01*
X14603262Y-10996132D01*
X14827415Y-11234611D01*
X14935769Y-11492587D01*
X14987925Y-11823632D01*
X15039250Y-11823632D01*
X15014415Y-11517734D01*
X14898979Y-11167749D01*
X14700407Y-10918601D01*
X14413777Y-10762659D01*
X14240192Y-10718055D01*
X14032667Y-10658736D01*
X13780028Y-10559370D01*
X13646480Y-10496535D01*
X13327334Y-10376153D01*
X12965827Y-10303789D01*
X12611165Y-10284588D01*
X12312549Y-10323697D01*
X12237345Y-10349169D01*
X12068350Y-10451728D01*
X11876273Y-10613660D01*
X11796289Y-10695707D01*
X11650515Y-10845736D01*
X11559427Y-10901270D01*
X11494442Y-10876975D01*
X11477995Y-10859033D01*
X11355305Y-10771971D01*
X11183803Y-10705482D01*
X10971359Y-10650433D01*
X11289402Y-10332389D01*
X11521546Y-10143243D01*
X10383784Y-10143243D01*
X10383784Y-13095135D01*
X9697297Y-13095135D01*
X9689334Y-12082567D01*
X9684662Y-11740818D01*
X9677035Y-11466544D01*
X9667331Y-11279530D01*
X9656428Y-11199561D01*
X9650474Y-11207297D01*
X9620927Y-11322862D01*
X9562160Y-11540986D01*
X9482241Y-11832091D01*
X9389235Y-12166599D01*
X9373453Y-12222980D01*
X9127327Y-13101366D01*
X8358651Y-13060810D01*
X7809459Y-11070000D01*
X7790462Y-12082567D01*
X7771465Y-13095135D01*
X7088649Y-13095135D01*
X7088649Y-10143243D01*
X8112565Y-10143243D01*
X8248548Y-10606621D01*
X8335640Y-10904517D01*
X8439989Y-11263058D01*
X8540853Y-11610958D01*
X8553156Y-11653513D01*
X8630580Y-11898296D01*
X8697801Y-12068869D01*
X8744891Y-12141942D01*
X8757995Y-12134054D01*
X8791519Y-12032280D01*
X8846729Y-11854648D01*
X8927901Y-11587070D01*
X9039309Y-11215457D01*
X9179817Y-10743919D01*
X9358467Y-10143243D01*
X10383784Y-10143243D01*
X11521546Y-10143243D01*
X11747112Y-9959457D01*
X12239124Y-9718770D01*
X12760150Y-9611109D01*
X13304902Y-9637254D01*
X13868093Y-9797987D01*
X14125115Y-9913920D01*
X14468366Y-10113858D01*
X14778332Y-10345271D01*
X15022992Y-10581268D01*
X15167848Y-10789596D01*
X15273761Y-11005998D01*
X15370990Y-11193676D01*
X15437576Y-11364603D01*
X15504610Y-11611937D01*
X15547938Y-11828159D01*
X15621206Y-12270317D01*
X15734452Y-12270317D01*
X15771873Y-12212178D01*
X15901346Y-11989522D01*
X15978381Y-11830728D01*
X15992212Y-11767078D01*
X15935612Y-11678617D01*
X15813409Y-11516841D01*
X15649261Y-11312756D01*
X15603384Y-11257491D01*
X15245955Y-10829729D01*
X16126297Y-10829729D01*
X16498689Y-11288936D01*
X16871081Y-11748142D01*
X16877439Y-11447567D01*
X16836757Y-11447567D01*
X16811639Y-11504073D01*
X16790991Y-11493333D01*
X16782775Y-11411863D01*
X16790991Y-11401801D01*
X16831803Y-11411225D01*
X16836757Y-11447567D01*
X16877439Y-11447567D01*
X16890236Y-10842720D01*
X16909391Y-9937297D01*
X17660541Y-9937297D01*
X18594653Y-9937297D01*
X18782497Y-9778377D01*
X18983828Y-9553730D01*
X19064302Y-9420186D01*
X19130599Y-9181151D01*
X19075458Y-9004086D01*
X18900460Y-8892725D01*
X18833149Y-8874469D01*
X18674514Y-8862598D01*
X18506964Y-8905697D01*
X18308858Y-9015487D01*
X18058552Y-9203689D01*
X17770492Y-9450040D01*
X17520717Y-9661385D01*
X17336697Y-9790180D01*
X17189719Y-9853508D01*
X17066843Y-9868648D01*
X16911201Y-9880487D01*
X16848417Y-9944318D01*
X16836757Y-10102615D01*
X16836757Y-10102816D01*
X16800604Y-10304816D01*
X16671543Y-10474120D01*
X16625544Y-10514708D01*
X16437667Y-10649070D01*
X16286909Y-10678041D01*
X16127199Y-10600326D01*
X16002615Y-10497229D01*
X15832893Y-10293736D01*
X15784144Y-10100928D01*
X15814748Y-9978713D01*
X15900257Y-9755131D01*
X16031214Y-9450091D01*
X16198165Y-9083505D01*
X16391653Y-8675282D01*
X16602224Y-8245332D01*
X16820422Y-7813567D01*
X17036791Y-7399895D01*
X17241876Y-7024229D01*
X17263722Y-6985405D01*
X17411740Y-6710419D01*
X17499652Y-6501617D01*
X17542585Y-6310329D01*
X17555666Y-6087891D01*
X17556003Y-6045087D01*
X17541787Y-5753085D01*
X17485389Y-5572163D01*
X17370102Y-5478488D01*
X17179222Y-5448228D01*
X17137255Y-5447675D01*
X16955309Y-5471502D01*
X16794960Y-5552237D01*
X16646894Y-5703757D01*
X16501797Y-5939942D01*
X16350355Y-6274670D01*
X16183253Y-6721821D01*
X16081015Y-7021550D01*
X15933362Y-7444925D01*
X15771239Y-7877320D01*
X15610697Y-8277893D01*
X15467787Y-8605807D01*
X15415506Y-8714797D01*
X15274359Y-8991853D01*
X15172973Y-9168089D01*
X15091255Y-9266249D01*
X15009111Y-9309078D01*
X14906447Y-9319320D01*
X14881309Y-9319459D01*
X14635263Y-9269113D01*
X14484774Y-9120835D01*
X14434054Y-8880345D01*
X14452784Y-8612547D01*
X14505103Y-8240457D01*
X14585203Y-7791305D01*
X14687277Y-7292324D01*
X14805518Y-6770745D01*
X14934118Y-6253800D01*
X15067271Y-5768719D01*
X15168514Y-5436331D01*
X15277296Y-5024967D01*
X15304288Y-4700837D01*
X15247239Y-4439265D01*
X15103898Y-4215574D01*
X15052124Y-4160481D01*
X14811797Y-3996256D01*
X14563129Y-3961101D01*
X14328075Y-4054783D01*
G37*
X14328075Y-4054783D02*
X14205501Y-4169405D01*
X14150771Y-4236522D01*
X14106861Y-4304041D01*
X14071342Y-4388512D01*
X14041786Y-4506488D01*
X14015767Y-4674519D01*
X13990856Y-4909157D01*
X13964626Y-5226952D01*
X13934649Y-5644457D01*
X13898497Y-6178221D01*
X13888111Y-6333243D01*
X13825733Y-7078911D01*
X13747011Y-7691387D01*
X13651116Y-8173898D01*
X13537223Y-8529670D01*
X13404504Y-8761928D01*
X13252134Y-8873898D01*
X13235894Y-8878576D01*
X12995224Y-8879634D01*
X12766157Y-8784814D01*
X12603939Y-8618836D01*
X12588593Y-8588908D01*
X12464510Y-8225592D01*
X12370498Y-7765827D01*
X12310699Y-7247992D01*
X12289260Y-6710465D01*
X12310324Y-6191623D01*
X12319556Y-6097554D01*
X12351521Y-5540002D01*
X12312585Y-5091920D01*
X12201093Y-4744222D01*
X12028767Y-4500908D01*
X11826297Y-4347269D01*
X11644078Y-4324346D01*
X11462299Y-4431530D01*
X11411392Y-4481988D01*
X11301473Y-4683745D01*
X11234020Y-4998178D01*
X11209628Y-5407203D01*
X11228895Y-5892738D01*
X11292418Y-6436701D01*
X11337909Y-6708377D01*
X11408242Y-7169840D01*
X11458417Y-7654971D01*
X11481433Y-8092857D01*
X11482162Y-8169896D01*
X11469282Y-8583965D01*
X11419456Y-8900677D01*
X11315909Y-9158483D01*
X11141865Y-9395833D01*
X10880549Y-9651179D01*
X10808029Y-9715025D01*
X10581177Y-9903018D01*
X10413158Y-10012571D01*
X10266624Y-10063222D01*
X10120635Y-10074594D01*
X9975719Y-10066787D01*
X9865811Y-10027490D01*
X9758743Y-9932888D01*
X9622347Y-9759166D01*
X9539796Y-9644583D01*
X9149067Y-9160568D01*
X8749112Y-8785106D01*
X8349113Y-8522655D01*
X7958249Y-8377670D01*
X7585702Y-8354606D01*
X7240650Y-8457921D01*
X7173060Y-8495774D01*
X6941796Y-8686515D01*
X6843936Y-8886280D01*
X6877256Y-9082745D01*
X7039530Y-9263590D01*
X7328536Y-9416491D01*
X7340041Y-9420856D01*
X7954948Y-9685815D01*
X8458353Y-9975520D01*
X8814663Y-10260344D01*
X9133381Y-10569792D01*
X8994907Y-11060166D01*
X8916599Y-11327577D01*
X8842590Y-11563658D01*
X8788478Y-11718726D01*
X8787101Y-11722162D01*
X8762734Y-11781870D01*
X8741022Y-11814502D01*
X8716169Y-11805471D01*
X8682379Y-11740190D01*
X8633856Y-11604074D01*
X8564803Y-11382534D01*
X8469425Y-11060986D01*
X8341926Y-10624842D01*
X8316558Y-10537973D01*
X8181213Y-10074594D01*
X7020000Y-10074594D01*
X7020000Y-13163783D01*
X7839287Y-13163783D01*
X7858698Y-12391486D01*
X7878108Y-11619189D01*
X8290000Y-13129459D01*
X8744198Y-13149548D01*
X9198396Y-13169638D01*
X9594324Y-11756486D01*
X9613888Y-12460135D01*
X9633452Y-13163783D01*
X9922807Y-13164037D01*
X10071771Y-13168741D01*
X10173747Y-13199666D01*
X10257916Y-13282512D01*
X10353460Y-13442980D01*
X10448954Y-13627416D01*
X10688991Y-14016275D01*
X11008546Y-14417466D01*
X11381588Y-14807117D01*
X11782082Y-15161359D01*
X12183996Y-15456321D01*
X12561297Y-15668131D01*
X12755760Y-15742625D01*
X12955284Y-15791561D01*
X13085321Y-15784757D01*
X13190973Y-15728703D01*
X13310382Y-15572012D01*
X13322151Y-15374775D01*
X13225247Y-15182969D01*
X13203783Y-15159999D01*
X13092564Y-15066970D01*
X12897648Y-14921117D01*
X12649996Y-14745144D01*
X12465810Y-14618876D01*
X12005445Y-14289428D01*
X11648502Y-13983820D01*
X11371648Y-13673132D01*
X11151550Y-13328442D01*
X10964876Y-12920828D01*
X10855253Y-12622552D01*
X10814341Y-12464323D01*
X10778621Y-12257128D01*
X10750142Y-12028781D01*
X10730953Y-11807098D01*
X10723103Y-11619896D01*
X10728641Y-11494988D01*
X10749616Y-11460191D01*
X10772492Y-11499054D01*
X10858496Y-11559162D01*
X11018441Y-11585853D01*
X11024505Y-11585916D01*
X11219200Y-11603985D01*
X11329008Y-11676187D01*
X11380723Y-11833082D01*
X11396750Y-12010498D01*
X11422368Y-12249032D01*
X11465488Y-12459492D01*
X11482561Y-12512670D01*
X11531405Y-12712654D01*
X11550811Y-12927982D01*
X11574345Y-13100681D01*
X11638996Y-13163783D01*
X11639221Y-13163783D01*
X11724970Y-13209143D01*
X11879653Y-13330497D01*
X12076128Y-13505760D01*
X12171782Y-13597148D01*
X12592289Y-13964557D01*
X12992897Y-14216868D01*
X13402436Y-14367342D01*
X13849735Y-14429240D01*
X13987838Y-14432510D01*
X14554767Y-14377998D01*
X15043606Y-14210961D01*
X15456391Y-13930369D01*
X15795156Y-13535190D01*
X15813591Y-13507167D01*
X15940886Y-13324191D01*
X16044248Y-13199628D01*
X16092482Y-13163783D01*
X16156375Y-13110801D01*
X16268725Y-12972177D01*
X16399559Y-12786216D01*
X16535538Y-12593879D01*
X16647485Y-12457880D01*
X16709179Y-12408648D01*
X16741453Y-12470730D01*
X16762858Y-12630872D01*
X16768108Y-12786216D01*
X16768108Y-13163783D01*
X17729189Y-13163783D01*
X17729189Y-10561731D01*
X18055270Y-10340023D01*
X18476593Y-10037179D01*
X18594653Y-9937297D01*
X17660541Y-9937297D01*
X17660541Y-13095135D01*
X16836757Y-13095135D01*
X16836757Y-12717567D01*
X16830169Y-12498043D01*
X16803255Y-12383731D01*
X16745286Y-12342885D01*
X16709179Y-12340000D01*
X16594522Y-12399176D01*
X16441268Y-12564098D01*
X16330910Y-12717567D01*
X16080219Y-13095135D01*
X15185648Y-13095135D01*
X15604630Y-12472019D01*
X15734452Y-12270317D01*
X15621206Y-12270317D01*
X15370873Y-12647345D01*
X15212935Y-12898181D01*
X15136319Y-13057625D01*
X15135985Y-13141022D01*
X15201156Y-13163783D01*
X15233800Y-13197146D01*
X15174762Y-13283111D01*
X15048146Y-13400499D01*
X14878057Y-13528128D01*
X14688597Y-13644816D01*
X14605676Y-13687063D01*
X14371971Y-13787610D01*
X14180163Y-13835174D01*
X13983636Y-13830886D01*
X13735771Y-13775880D01*
X13524591Y-13713322D01*
X13037855Y-13497407D01*
X12762224Y-13295596D01*
X12443243Y-13014818D01*
X12443243Y-11993337D01*
X12445349Y-11569080D01*
X12456935Y-11262882D01*
X12485901Y-11055513D01*
X12540148Y-10927743D01*
X12627576Y-10860344D01*
X12756086Y-10834084D01*
X12921326Y-10829729D01*
X12374595Y-10829729D01*
X12374595Y-13095135D01*
X11632325Y-13095135D01*
X11608730Y-12403020D01*
X11587927Y-12036343D01*
X11546858Y-11785615D01*
X11473388Y-11629726D01*
X11355377Y-11547568D01*
X11180689Y-11518033D01*
X11098818Y-11516216D01*
X10937719Y-11493370D01*
X10844581Y-11407256D01*
X10802966Y-11231510D01*
X10795676Y-11030061D01*
X10804328Y-10856294D01*
X10850302Y-10779954D01*
X10963625Y-10761362D01*
X10999233Y-10761081D01*
X11223128Y-10821483D01*
X11442915Y-10971913D01*
X11683040Y-11182745D01*
X11727340Y-11006237D01*
X11772085Y-10894987D01*
X11860573Y-10843555D01*
X12036010Y-10829886D01*
X12073118Y-10829729D01*
X12374595Y-10829729D01*
X12921326Y-10829729D01*
X13133840Y-10829729D01*
X12982307Y-11034689D01*
X12849377Y-11306563D01*
X12778647Y-11646729D01*
X12777506Y-11997594D01*
X12828082Y-12237027D01*
X12891307Y-12495942D01*
X12922211Y-12766627D01*
X12922785Y-12796662D01*
X12934828Y-12983771D01*
X12989426Y-13084412D01*
X13116879Y-13148866D01*
X13139974Y-13157068D01*
X13449154Y-13219228D01*
X13819061Y-13227993D01*
X14186019Y-13186179D01*
X14484122Y-13097618D01*
X14742597Y-12941853D01*
X14914869Y-12735755D01*
X15013355Y-12454790D01*
X15050473Y-12074422D01*
X15051635Y-11976185D01*
X15039250Y-11823632D01*
X14987925Y-11823632D01*
X14983267Y-12175272D01*
X14921178Y-12495032D01*
X14844271Y-12670072D01*
X14636281Y-12889737D01*
X14335586Y-13051313D01*
X13977738Y-13145705D01*
X13598289Y-13163821D01*
X13232792Y-13096568D01*
X13208622Y-13088419D01*
X13071543Y-13026582D01*
X13009159Y-12936619D01*
X12992733Y-12769419D01*
X12992432Y-12718941D01*
X12992432Y-12424827D01*
X13249865Y-12516697D01*
X13577267Y-12600916D01*
X13830495Y-12586496D01*
X14032942Y-12471398D01*
X14059607Y-12446093D01*
X14173561Y-12313121D01*
X14198904Y-12265948D01*
X14083424Y-12265948D01*
X14044143Y-12356353D01*
X14008432Y-12394919D01*
X13914736Y-12465074D01*
X13820519Y-12452608D01*
X13678953Y-12350249D01*
X13669362Y-12342283D01*
X13507297Y-12207270D01*
X13799054Y-12204986D01*
X14004427Y-12217941D01*
X14083424Y-12265948D01*
X14198904Y-12265948D01*
X14227454Y-12212808D01*
X14228108Y-12205823D01*
X14161722Y-12170479D01*
X13970889Y-12146394D01*
X13668099Y-12134876D01*
X13541622Y-12134054D01*
X12855135Y-12134054D01*
X12855135Y-11766638D01*
X12908190Y-11385229D01*
X13065484Y-11092437D01*
X13324209Y-10890906D01*
X13681558Y-10783276D01*
X13919189Y-10765062D01*
X14281656Y-10823611D01*
X14603262Y-10996132D01*
X14827415Y-11234611D01*
X14935769Y-11492587D01*
X14987925Y-11823632D01*
X15039250Y-11823632D01*
X15014415Y-11517734D01*
X14898979Y-11167749D01*
X14700407Y-10918601D01*
X14413777Y-10762659D01*
X14240192Y-10718055D01*
X14032667Y-10658736D01*
X13780028Y-10559370D01*
X13646480Y-10496535D01*
X13327334Y-10376153D01*
X12965827Y-10303789D01*
X12611165Y-10284588D01*
X12312549Y-10323697D01*
X12237345Y-10349169D01*
X12068350Y-10451728D01*
X11876273Y-10613660D01*
X11796289Y-10695707D01*
X11650515Y-10845736D01*
X11559427Y-10901270D01*
X11494442Y-10876975D01*
X11477995Y-10859033D01*
X11355305Y-10771971D01*
X11183803Y-10705482D01*
X10971359Y-10650433D01*
X11289402Y-10332389D01*
X11521546Y-10143243D01*
X10383784Y-10143243D01*
X10383784Y-13095135D01*
X9697297Y-13095135D01*
X9689334Y-12082567D01*
X9684662Y-11740818D01*
X9677035Y-11466544D01*
X9667331Y-11279530D01*
X9656428Y-11199561D01*
X9650474Y-11207297D01*
X9620927Y-11322862D01*
X9562160Y-11540986D01*
X9482241Y-11832091D01*
X9389235Y-12166599D01*
X9373453Y-12222980D01*
X9127327Y-13101366D01*
X8358651Y-13060810D01*
X7809459Y-11070000D01*
X7790462Y-12082567D01*
X7771465Y-13095135D01*
X7088649Y-13095135D01*
X7088649Y-10143243D01*
X8112565Y-10143243D01*
X8248548Y-10606621D01*
X8335640Y-10904517D01*
X8439989Y-11263058D01*
X8540853Y-11610958D01*
X8553156Y-11653513D01*
X8630580Y-11898296D01*
X8697801Y-12068869D01*
X8744891Y-12141942D01*
X8757995Y-12134054D01*
X8791519Y-12032280D01*
X8846729Y-11854648D01*
X8927901Y-11587070D01*
X9039309Y-11215457D01*
X9179817Y-10743919D01*
X9358467Y-10143243D01*
X10383784Y-10143243D01*
X11521546Y-10143243D01*
X11747112Y-9959457D01*
X12239124Y-9718770D01*
X12760150Y-9611109D01*
X13304902Y-9637254D01*
X13868093Y-9797987D01*
X14125115Y-9913920D01*
X14468366Y-10113858D01*
X14778332Y-10345271D01*
X15022992Y-10581268D01*
X15167848Y-10789596D01*
X15273761Y-11005998D01*
X15370990Y-11193676D01*
X15437576Y-11364603D01*
X15504610Y-11611937D01*
X15547938Y-11828159D01*
X15621206Y-12270317D01*
X15734452Y-12270317D01*
X15771873Y-12212178D01*
X15901346Y-11989522D01*
X15978381Y-11830728D01*
X15992212Y-11767078D01*
X15935612Y-11678617D01*
X15813409Y-11516841D01*
X15649261Y-11312756D01*
X15603384Y-11257491D01*
X15245955Y-10829729D01*
X16126297Y-10829729D01*
X16498689Y-11288936D01*
X16871081Y-11748142D01*
X16877439Y-11447567D01*
X16836757Y-11447567D01*
X16811639Y-11504073D01*
X16790991Y-11493333D01*
X16782775Y-11411863D01*
X16790991Y-11401801D01*
X16831803Y-11411225D01*
X16836757Y-11447567D01*
X16877439Y-11447567D01*
X16890236Y-10842720D01*
X16909391Y-9937297D01*
X17660541Y-9937297D01*
X18594653Y-9937297D01*
X18782497Y-9778377D01*
X18983828Y-9553730D01*
X19064302Y-9420186D01*
X19130599Y-9181151D01*
X19075458Y-9004086D01*
X18900460Y-8892725D01*
X18833149Y-8874469D01*
X18674514Y-8862598D01*
X18506964Y-8905697D01*
X18308858Y-9015487D01*
X18058552Y-9203689D01*
X17770492Y-9450040D01*
X17520717Y-9661385D01*
X17336697Y-9790180D01*
X17189719Y-9853508D01*
X17066843Y-9868648D01*
X16911201Y-9880487D01*
X16848417Y-9944318D01*
X16836757Y-10102615D01*
X16836757Y-10102816D01*
X16800604Y-10304816D01*
X16671543Y-10474120D01*
X16625544Y-10514708D01*
X16437667Y-10649070D01*
X16286909Y-10678041D01*
X16127199Y-10600326D01*
X16002615Y-10497229D01*
X15832893Y-10293736D01*
X15784144Y-10100928D01*
X15814748Y-9978713D01*
X15900257Y-9755131D01*
X16031214Y-9450091D01*
X16198165Y-9083505D01*
X16391653Y-8675282D01*
X16602224Y-8245332D01*
X16820422Y-7813567D01*
X17036791Y-7399895D01*
X17241876Y-7024229D01*
X17263722Y-6985405D01*
X17411740Y-6710419D01*
X17499652Y-6501617D01*
X17542585Y-6310329D01*
X17555666Y-6087891D01*
X17556003Y-6045087D01*
X17541787Y-5753085D01*
X17485389Y-5572163D01*
X17370102Y-5478488D01*
X17179222Y-5448228D01*
X17137255Y-5447675D01*
X16955309Y-5471502D01*
X16794960Y-5552237D01*
X16646894Y-5703757D01*
X16501797Y-5939942D01*
X16350355Y-6274670D01*
X16183253Y-6721821D01*
X16081015Y-7021550D01*
X15933362Y-7444925D01*
X15771239Y-7877320D01*
X15610697Y-8277893D01*
X15467787Y-8605807D01*
X15415506Y-8714797D01*
X15274359Y-8991853D01*
X15172973Y-9168089D01*
X15091255Y-9266249D01*
X15009111Y-9309078D01*
X14906447Y-9319320D01*
X14881309Y-9319459D01*
X14635263Y-9269113D01*
X14484774Y-9120835D01*
X14434054Y-8880345D01*
X14452784Y-8612547D01*
X14505103Y-8240457D01*
X14585203Y-7791305D01*
X14687277Y-7292324D01*
X14805518Y-6770745D01*
X14934118Y-6253800D01*
X15067271Y-5768719D01*
X15168514Y-5436331D01*
X15277296Y-5024967D01*
X15304288Y-4700837D01*
X15247239Y-4439265D01*
X15103898Y-4215574D01*
X15052124Y-4160481D01*
X14811797Y-3996256D01*
X14563129Y-3961101D01*
X14328075Y-4054783D01*
G36*
X18792734Y-10723409D02*
G01*
X18621044Y-10775742D01*
X18553928Y-10807902D01*
X18403137Y-10900016D01*
X18294007Y-11010107D01*
X18219960Y-11160723D01*
X18174419Y-11374412D01*
X18150809Y-11673720D01*
X18142552Y-12081197D01*
X18142093Y-12219864D01*
X18141081Y-13163783D01*
X18486479Y-13163783D01*
X18725898Y-13147168D01*
X18849809Y-13094113D01*
X18871157Y-13061421D01*
X18915244Y-13003630D01*
X18996818Y-13031542D01*
X19084206Y-13095745D01*
X19288676Y-13188549D01*
X19564530Y-13228761D01*
X19854808Y-13212557D01*
X20049131Y-13160516D01*
X20214588Y-13026621D01*
X20331532Y-12801907D01*
X20390805Y-12527091D01*
X20385210Y-12316699D01*
X20325334Y-12316699D01*
X20314483Y-12560457D01*
X20237915Y-12789505D01*
X20081041Y-13004718D01*
X19848509Y-13133369D01*
X19576088Y-13169113D01*
X19299545Y-13105604D01*
X19111347Y-12989355D01*
X18976056Y-12881053D01*
X18903781Y-12856757D01*
X18853038Y-12911424D01*
X18829070Y-12955031D01*
X18733617Y-13053889D01*
X18563122Y-13092660D01*
X18476720Y-13095135D01*
X18199352Y-13095135D01*
X18221703Y-12127944D01*
X18231331Y-11745835D01*
X18242656Y-11476281D01*
X18260303Y-11294570D01*
X18288897Y-11175990D01*
X18333061Y-11095829D01*
X18397421Y-11029376D01*
X18433109Y-10998301D01*
X18637066Y-10870448D01*
X18862490Y-10790764D01*
X18863026Y-10790663D01*
X19104581Y-10771191D01*
X19389206Y-10784831D01*
X19666404Y-10825312D01*
X19885682Y-10886365D01*
X19964735Y-10927478D01*
X20042401Y-11005716D01*
X20044319Y-11105859D01*
X19998408Y-11232416D01*
X19939147Y-11362980D01*
X19874767Y-11426738D01*
X19767748Y-11433036D01*
X19580571Y-11391218D01*
X19474298Y-11362964D01*
X19277535Y-11316914D01*
X19165148Y-11318378D01*
X19090859Y-11372674D01*
X19061421Y-11410409D01*
X18987775Y-11526538D01*
X18990872Y-11596775D01*
X19089607Y-11637635D01*
X19302877Y-11665634D01*
X19359595Y-11671019D01*
X19747533Y-11733665D01*
X20021711Y-11843540D01*
X20200003Y-12008854D01*
X20240013Y-12075361D01*
X20325334Y-12316699D01*
X20385210Y-12316699D01*
X20383247Y-12242889D01*
X20308662Y-12006712D01*
X20151519Y-11817802D01*
X19898331Y-11688460D01*
X19533291Y-11611163D01*
X19460132Y-11602777D01*
X19243171Y-11566787D01*
X19132472Y-11517989D01*
X19123837Y-11489198D01*
X19158911Y-11444730D01*
X19241880Y-11428584D01*
X19400917Y-11440518D01*
X19664197Y-11480288D01*
X19688572Y-11484326D01*
X19870702Y-11505067D01*
X19970014Y-11474603D01*
X20037180Y-11373834D01*
X20048978Y-11348490D01*
X20125374Y-11123885D01*
X20112668Y-10958537D01*
X19999856Y-10842932D01*
X19775938Y-10767552D01*
X19429911Y-10722883D01*
X19316535Y-10715001D01*
X19009518Y-10704995D01*
X18792734Y-10723409D01*
G37*
X18792734Y-10723409D02*
X18621044Y-10775742D01*
X18553928Y-10807902D01*
X18403137Y-10900016D01*
X18294007Y-11010107D01*
X18219960Y-11160723D01*
X18174419Y-11374412D01*
X18150809Y-11673720D01*
X18142552Y-12081197D01*
X18142093Y-12219864D01*
X18141081Y-13163783D01*
X18486479Y-13163783D01*
X18725898Y-13147168D01*
X18849809Y-13094113D01*
X18871157Y-13061421D01*
X18915244Y-13003630D01*
X18996818Y-13031542D01*
X19084206Y-13095745D01*
X19288676Y-13188549D01*
X19564530Y-13228761D01*
X19854808Y-13212557D01*
X20049131Y-13160516D01*
X20214588Y-13026621D01*
X20331532Y-12801907D01*
X20390805Y-12527091D01*
X20385210Y-12316699D01*
X20325334Y-12316699D01*
X20314483Y-12560457D01*
X20237915Y-12789505D01*
X20081041Y-13004718D01*
X19848509Y-13133369D01*
X19576088Y-13169113D01*
X19299545Y-13105604D01*
X19111347Y-12989355D01*
X18976056Y-12881053D01*
X18903781Y-12856757D01*
X18853038Y-12911424D01*
X18829070Y-12955031D01*
X18733617Y-13053889D01*
X18563122Y-13092660D01*
X18476720Y-13095135D01*
X18199352Y-13095135D01*
X18221703Y-12127944D01*
X18231331Y-11745835D01*
X18242656Y-11476281D01*
X18260303Y-11294570D01*
X18288897Y-11175990D01*
X18333061Y-11095829D01*
X18397421Y-11029376D01*
X18433109Y-10998301D01*
X18637066Y-10870448D01*
X18862490Y-10790764D01*
X18863026Y-10790663D01*
X19104581Y-10771191D01*
X19389206Y-10784831D01*
X19666404Y-10825312D01*
X19885682Y-10886365D01*
X19964735Y-10927478D01*
X20042401Y-11005716D01*
X20044319Y-11105859D01*
X19998408Y-11232416D01*
X19939147Y-11362980D01*
X19874767Y-11426738D01*
X19767748Y-11433036D01*
X19580571Y-11391218D01*
X19474298Y-11362964D01*
X19277535Y-11316914D01*
X19165148Y-11318378D01*
X19090859Y-11372674D01*
X19061421Y-11410409D01*
X18987775Y-11526538D01*
X18990872Y-11596775D01*
X19089607Y-11637635D01*
X19302877Y-11665634D01*
X19359595Y-11671019D01*
X19747533Y-11733665D01*
X20021711Y-11843540D01*
X20200003Y-12008854D01*
X20240013Y-12075361D01*
X20325334Y-12316699D01*
X20385210Y-12316699D01*
X20383247Y-12242889D01*
X20308662Y-12006712D01*
X20151519Y-11817802D01*
X19898331Y-11688460D01*
X19533291Y-11611163D01*
X19460132Y-11602777D01*
X19243171Y-11566787D01*
X19132472Y-11517989D01*
X19123837Y-11489198D01*
X19158911Y-11444730D01*
X19241880Y-11428584D01*
X19400917Y-11440518D01*
X19664197Y-11480288D01*
X19688572Y-11484326D01*
X19870702Y-11505067D01*
X19970014Y-11474603D01*
X20037180Y-11373834D01*
X20048978Y-11348490D01*
X20125374Y-11123885D01*
X20112668Y-10958537D01*
X19999856Y-10842932D01*
X19775938Y-10767552D01*
X19429911Y-10722883D01*
X19316535Y-10715001D01*
X19009518Y-10704995D01*
X18792734Y-10723409D01*
G36*
X5045900Y-10741309D02*
G01*
X4723905Y-10869117D01*
X4503423Y-11085502D01*
X4378461Y-11396129D01*
X4342703Y-11766638D01*
X4342703Y-12202702D01*
X4994865Y-12202702D01*
X5331990Y-12209445D01*
X5540858Y-12232593D01*
X5629982Y-12276524D01*
X5607873Y-12345618D01*
X5483044Y-12444251D01*
X5474905Y-12449613D01*
X5381076Y-12502675D01*
X5284362Y-12525190D01*
X5153494Y-12514240D01*
X4957202Y-12466907D01*
X4664220Y-12380273D01*
X4634459Y-12371188D01*
X4546360Y-12353337D01*
X4500297Y-12388661D01*
X4482705Y-12506292D01*
X4480000Y-12702845D01*
X4485019Y-12921830D01*
X4513041Y-13044426D01*
X4583516Y-13111495D01*
X4696190Y-13157068D01*
X5005370Y-13219228D01*
X5375277Y-13227993D01*
X5742235Y-13186179D01*
X6040339Y-13097618D01*
X6294675Y-12945865D01*
X6465362Y-12746628D01*
X6564777Y-12474998D01*
X6605294Y-12106070D01*
X6607852Y-11955422D01*
X6605001Y-11823632D01*
X6544141Y-11823632D01*
X6539483Y-12175272D01*
X6477395Y-12495032D01*
X6400487Y-12670072D01*
X6192497Y-12889737D01*
X5891802Y-13051313D01*
X5533954Y-13145705D01*
X5154506Y-13163821D01*
X4789008Y-13096568D01*
X4764839Y-13088419D01*
X4627759Y-13026582D01*
X4565375Y-12936619D01*
X4548949Y-12769419D01*
X4548649Y-12718941D01*
X4548649Y-12424827D01*
X4806081Y-12516697D01*
X5133483Y-12600916D01*
X5386711Y-12586496D01*
X5589158Y-12471398D01*
X5615823Y-12446093D01*
X5729777Y-12313121D01*
X5783670Y-12212808D01*
X5784324Y-12205823D01*
X5717938Y-12170479D01*
X5527105Y-12146394D01*
X5224315Y-12134876D01*
X5097838Y-12134054D01*
X4411351Y-12134054D01*
X4411351Y-11766638D01*
X4464406Y-11385229D01*
X4621700Y-11092437D01*
X4880425Y-10890906D01*
X5237775Y-10783276D01*
X5475405Y-10765062D01*
X5837872Y-10823611D01*
X6159478Y-10996132D01*
X6383632Y-11234611D01*
X6491985Y-11492587D01*
X6544141Y-11823632D01*
X6605001Y-11823632D01*
X6601299Y-11652604D01*
X6575699Y-11443999D01*
X6522642Y-11286933D01*
X6452280Y-11165962D01*
X6197125Y-10902624D01*
X5859694Y-10744036D01*
X5475405Y-10696413D01*
X5045900Y-10741309D01*
G37*
X5045900Y-10741309D02*
X4723905Y-10869117D01*
X4503423Y-11085502D01*
X4378461Y-11396129D01*
X4342703Y-11766638D01*
X4342703Y-12202702D01*
X4994865Y-12202702D01*
X5331990Y-12209445D01*
X5540858Y-12232593D01*
X5629982Y-12276524D01*
X5607873Y-12345618D01*
X5483044Y-12444251D01*
X5474905Y-12449613D01*
X5381076Y-12502675D01*
X5284362Y-12525190D01*
X5153494Y-12514240D01*
X4957202Y-12466907D01*
X4664220Y-12380273D01*
X4634459Y-12371188D01*
X4546360Y-12353337D01*
X4500297Y-12388661D01*
X4482705Y-12506292D01*
X4480000Y-12702845D01*
X4485019Y-12921830D01*
X4513041Y-13044426D01*
X4583516Y-13111495D01*
X4696190Y-13157068D01*
X5005370Y-13219228D01*
X5375277Y-13227993D01*
X5742235Y-13186179D01*
X6040339Y-13097618D01*
X6294675Y-12945865D01*
X6465362Y-12746628D01*
X6564777Y-12474998D01*
X6605294Y-12106070D01*
X6607852Y-11955422D01*
X6605001Y-11823632D01*
X6544141Y-11823632D01*
X6539483Y-12175272D01*
X6477395Y-12495032D01*
X6400487Y-12670072D01*
X6192497Y-12889737D01*
X5891802Y-13051313D01*
X5533954Y-13145705D01*
X5154506Y-13163821D01*
X4789008Y-13096568D01*
X4764839Y-13088419D01*
X4627759Y-13026582D01*
X4565375Y-12936619D01*
X4548949Y-12769419D01*
X4548649Y-12718941D01*
X4548649Y-12424827D01*
X4806081Y-12516697D01*
X5133483Y-12600916D01*
X5386711Y-12586496D01*
X5589158Y-12471398D01*
X5615823Y-12446093D01*
X5729777Y-12313121D01*
X5783670Y-12212808D01*
X5784324Y-12205823D01*
X5717938Y-12170479D01*
X5527105Y-12146394D01*
X5224315Y-12134876D01*
X5097838Y-12134054D01*
X4411351Y-12134054D01*
X4411351Y-11766638D01*
X4464406Y-11385229D01*
X4621700Y-11092437D01*
X4880425Y-10890906D01*
X5237775Y-10783276D01*
X5475405Y-10765062D01*
X5837872Y-10823611D01*
X6159478Y-10996132D01*
X6383632Y-11234611D01*
X6491985Y-11492587D01*
X6544141Y-11823632D01*
X6605001Y-11823632D01*
X6601299Y-11652604D01*
X6575699Y-11443999D01*
X6522642Y-11286933D01*
X6452280Y-11165962D01*
X6197125Y-10902624D01*
X5859694Y-10744036D01*
X5475405Y-10696413D01*
X5045900Y-10741309D01*
G36*
X22921818Y-10400675D02*
G01*
X22849179Y-10634880D01*
X22758795Y-10936250D01*
X22670153Y-11239798D01*
X22669629Y-11241621D01*
X22593234Y-11492875D01*
X22524892Y-11691697D01*
X22477292Y-11801718D01*
X22471338Y-11809909D01*
X22429581Y-11777561D01*
X22368744Y-11641330D01*
X22302478Y-11432341D01*
X22215945Y-11122827D01*
X22115794Y-10772389D01*
X22047508Y-10537973D01*
X21910943Y-10074594D01*
X20749730Y-10074594D01*
X20749730Y-13163783D01*
X21569017Y-13163783D01*
X21588427Y-12391486D01*
X21607838Y-11619189D01*
X22019730Y-13129459D01*
X22473928Y-13149548D01*
X22928126Y-13169638D01*
X23324054Y-11756486D01*
X23343618Y-12460135D01*
X23363182Y-13163783D01*
X24182162Y-13163783D01*
X24182162Y-10143243D01*
X24113514Y-10143243D01*
X24113514Y-13095135D01*
X23427027Y-13095135D01*
X23419064Y-12082567D01*
X23414392Y-11740818D01*
X23406765Y-11466544D01*
X23397061Y-11279530D01*
X23386158Y-11199561D01*
X23380204Y-11207297D01*
X23350657Y-11322862D01*
X23291890Y-11540986D01*
X23211970Y-11832091D01*
X23118965Y-12166599D01*
X23103182Y-12222980D01*
X22857057Y-13101366D01*
X22088381Y-13060810D01*
X21539189Y-11070000D01*
X21520192Y-12082567D01*
X21501195Y-13095135D01*
X20818378Y-13095135D01*
X20818378Y-10143243D01*
X21842294Y-10143243D01*
X21978278Y-10606621D01*
X22065370Y-10904517D01*
X22169719Y-11263058D01*
X22270583Y-11610958D01*
X22282886Y-11653513D01*
X22360310Y-11898296D01*
X22427531Y-12068869D01*
X22474620Y-12141942D01*
X22487725Y-12134054D01*
X22521249Y-12032280D01*
X22576459Y-11854648D01*
X22657631Y-11587070D01*
X22769039Y-11215457D01*
X22909547Y-10743919D01*
X23088197Y-10143243D01*
X24113514Y-10143243D01*
X24182162Y-10143243D01*
X24182162Y-10074594D01*
X23026169Y-10074594D01*
X22921818Y-10400675D01*
G37*
X22921818Y-10400675D02*
X22849179Y-10634880D01*
X22758795Y-10936250D01*
X22670153Y-11239798D01*
X22669629Y-11241621D01*
X22593234Y-11492875D01*
X22524892Y-11691697D01*
X22477292Y-11801718D01*
X22471338Y-11809909D01*
X22429581Y-11777561D01*
X22368744Y-11641330D01*
X22302478Y-11432341D01*
X22215945Y-11122827D01*
X22115794Y-10772389D01*
X22047508Y-10537973D01*
X21910943Y-10074594D01*
X20749730Y-10074594D01*
X20749730Y-13163783D01*
X21569017Y-13163783D01*
X21588427Y-12391486D01*
X21607838Y-11619189D01*
X22019730Y-13129459D01*
X22473928Y-13149548D01*
X22928126Y-13169638D01*
X23324054Y-11756486D01*
X23343618Y-12460135D01*
X23363182Y-13163783D01*
X24182162Y-13163783D01*
X24182162Y-10143243D01*
X24113514Y-10143243D01*
X24113514Y-13095135D01*
X23427027Y-13095135D01*
X23419064Y-12082567D01*
X23414392Y-11740818D01*
X23406765Y-11466544D01*
X23397061Y-11279530D01*
X23386158Y-11199561D01*
X23380204Y-11207297D01*
X23350657Y-11322862D01*
X23291890Y-11540986D01*
X23211970Y-11832091D01*
X23118965Y-12166599D01*
X23103182Y-12222980D01*
X22857057Y-13101366D01*
X22088381Y-13060810D01*
X21539189Y-11070000D01*
X21520192Y-12082567D01*
X21501195Y-13095135D01*
X20818378Y-13095135D01*
X20818378Y-10143243D01*
X21842294Y-10143243D01*
X21978278Y-10606621D01*
X22065370Y-10904517D01*
X22169719Y-11263058D01*
X22270583Y-11610958D01*
X22282886Y-11653513D01*
X22360310Y-11898296D01*
X22427531Y-12068869D01*
X22474620Y-12141942D01*
X22487725Y-12134054D01*
X22521249Y-12032280D01*
X22576459Y-11854648D01*
X22657631Y-11587070D01*
X22769039Y-11215457D01*
X22909547Y-10743919D01*
X23088197Y-10143243D01*
X24113514Y-10143243D01*
X24182162Y-10143243D01*
X24182162Y-10074594D01*
X23026169Y-10074594D01*
X22921818Y-10400675D01*
G36*
X3038378Y-13163783D02*
G01*
X3999459Y-13163783D01*
X3999459Y-10829729D01*
X3930811Y-10829729D01*
X3930811Y-13095135D01*
X3107027Y-13095135D01*
X3107027Y-10829729D01*
X3930811Y-10829729D01*
X3999459Y-10829729D01*
X3999459Y-10761081D01*
X3038378Y-10761081D01*
X3038378Y-13163783D01*
G37*
X3038378Y-13163783D02*
X3999459Y-13163783D01*
X3999459Y-10829729D01*
X3930811Y-10829729D01*
X3930811Y-13095135D01*
X3107027Y-13095135D01*
X3107027Y-10829729D01*
X3930811Y-10829729D01*
X3999459Y-10829729D01*
X3999459Y-10761081D01*
X3038378Y-10761081D01*
X3038378Y-13163783D01*
G36*
X1665405Y-11466050D02*
G01*
X1378672Y-11113566D01*
X1091939Y-10761081D01*
X589213Y-10761081D01*
X306489Y-10770912D01*
X134823Y-10799040D01*
X86487Y-10835993D01*
X127840Y-10919995D01*
X238034Y-11078754D01*
X396268Y-11283034D01*
X459488Y-11360282D01*
X832489Y-11809659D01*
X425163Y-12415439D01*
X257527Y-12671105D01*
X123386Y-12887780D01*
X38898Y-13038605D01*
X17838Y-13092501D01*
X82611Y-13130132D01*
X262126Y-13154918D01*
X532175Y-13163783D01*
X1046512Y-13163783D01*
X1270148Y-12821774D01*
X1434508Y-12594586D01*
X1550964Y-12494081D01*
X1624511Y-12520243D01*
X1660143Y-12673057D01*
X1665405Y-12820540D01*
X1665405Y-13163783D01*
X2626487Y-13163783D01*
X2626487Y-9937297D01*
X2557838Y-9937297D01*
X2557838Y-13095135D01*
X1734054Y-13095135D01*
X1734054Y-12751891D01*
X1727826Y-12547570D01*
X1698742Y-12445807D01*
X1631200Y-12412059D01*
X1579595Y-12409882D01*
X1446977Y-12460072D01*
X1295946Y-12618280D01*
X1201499Y-12753125D01*
X977864Y-13095135D01*
X82945Y-13095135D01*
X501927Y-12472019D01*
X669171Y-12212178D01*
X798643Y-11989522D01*
X875679Y-11830728D01*
X889510Y-11767078D01*
X832909Y-11678617D01*
X710706Y-11516841D01*
X546558Y-11312756D01*
X500681Y-11257491D01*
X143252Y-10829729D01*
X1026120Y-10829729D01*
X1699730Y-11670053D01*
X1738156Y-9937297D01*
X2557838Y-9937297D01*
X2626487Y-9937297D01*
X2626487Y-9868648D01*
X1665405Y-9868648D01*
X1665405Y-11466050D01*
G37*
X1665405Y-11466050D02*
X1378672Y-11113566D01*
X1091939Y-10761081D01*
X589213Y-10761081D01*
X306489Y-10770912D01*
X134823Y-10799040D01*
X86487Y-10835993D01*
X127840Y-10919995D01*
X238034Y-11078754D01*
X396268Y-11283034D01*
X459488Y-11360282D01*
X832489Y-11809659D01*
X425163Y-12415439D01*
X257527Y-12671105D01*
X123386Y-12887780D01*
X38898Y-13038605D01*
X17838Y-13092501D01*
X82611Y-13130132D01*
X262126Y-13154918D01*
X532175Y-13163783D01*
X1046512Y-13163783D01*
X1270148Y-12821774D01*
X1434508Y-12594586D01*
X1550964Y-12494081D01*
X1624511Y-12520243D01*
X1660143Y-12673057D01*
X1665405Y-12820540D01*
X1665405Y-13163783D01*
X2626487Y-13163783D01*
X2626487Y-9937297D01*
X2557838Y-9937297D01*
X2557838Y-13095135D01*
X1734054Y-13095135D01*
X1734054Y-12751891D01*
X1727826Y-12547570D01*
X1698742Y-12445807D01*
X1631200Y-12412059D01*
X1579595Y-12409882D01*
X1446977Y-12460072D01*
X1295946Y-12618280D01*
X1201499Y-12753125D01*
X977864Y-13095135D01*
X82945Y-13095135D01*
X501927Y-12472019D01*
X669171Y-12212178D01*
X798643Y-11989522D01*
X875679Y-11830728D01*
X889510Y-11767078D01*
X832909Y-11678617D01*
X710706Y-11516841D01*
X546558Y-11312756D01*
X500681Y-11257491D01*
X143252Y-10829729D01*
X1026120Y-10829729D01*
X1699730Y-11670053D01*
X1738156Y-9937297D01*
X2557838Y-9937297D01*
X2626487Y-9937297D01*
X2626487Y-9868648D01*
X1665405Y-9868648D01*
X1665405Y-11466050D01*
G36*
X3243774Y-9849655D02*
G01*
X3088971Y-9993276D01*
X3038378Y-10211891D01*
X3075007Y-10395486D01*
X3146255Y-10515907D01*
X3289364Y-10587045D01*
X3500039Y-10620278D01*
X3718595Y-10613633D01*
X3885350Y-10565134D01*
X3917081Y-10541405D01*
X3971523Y-10422071D01*
X3997947Y-10240752D01*
X3930724Y-10240752D01*
X3890198Y-10415146D01*
X3848432Y-10472756D01*
X3700895Y-10539964D01*
X3496721Y-10549340D01*
X3302515Y-10503566D01*
X3214904Y-10447258D01*
X3112866Y-10277343D01*
X3123385Y-10114166D01*
X3222453Y-9978625D01*
X3386063Y-9891616D01*
X3590205Y-9874035D01*
X3798027Y-9939712D01*
X3897976Y-10060870D01*
X3930724Y-10240752D01*
X3997947Y-10240752D01*
X3998745Y-10235277D01*
X3999459Y-10200577D01*
X3963467Y-9986869D01*
X3843628Y-9859652D01*
X3622155Y-9804829D01*
X3494011Y-9800000D01*
X3243774Y-9849655D01*
G37*
X3243774Y-9849655D02*
X3088971Y-9993276D01*
X3038378Y-10211891D01*
X3075007Y-10395486D01*
X3146255Y-10515907D01*
X3289364Y-10587045D01*
X3500039Y-10620278D01*
X3718595Y-10613633D01*
X3885350Y-10565134D01*
X3917081Y-10541405D01*
X3971523Y-10422071D01*
X3997947Y-10240752D01*
X3930724Y-10240752D01*
X3890198Y-10415146D01*
X3848432Y-10472756D01*
X3700895Y-10539964D01*
X3496721Y-10549340D01*
X3302515Y-10503566D01*
X3214904Y-10447258D01*
X3112866Y-10277343D01*
X3123385Y-10114166D01*
X3222453Y-9978625D01*
X3386063Y-9891616D01*
X3590205Y-9874035D01*
X3798027Y-9939712D01*
X3897976Y-10060870D01*
X3930724Y-10240752D01*
X3997947Y-10240752D01*
X3998745Y-10235277D01*
X3999459Y-10200577D01*
X3963467Y-9986869D01*
X3843628Y-9859652D01*
X3622155Y-9804829D01*
X3494011Y-9800000D01*
X3243774Y-9849655D01*
G36*
X13640816Y-11382054D02*
G01*
X13538028Y-11505788D01*
X13565583Y-11594152D01*
X13720291Y-11643717D01*
X13893238Y-11653513D01*
X14097543Y-11650739D01*
X14189330Y-11632194D01*
X14193380Y-11582541D01*
X14173001Y-11548901D01*
X14059249Y-11548901D01*
X14004815Y-11578524D01*
X13850541Y-11584864D01*
X13689404Y-11577444D01*
X13641716Y-11545793D01*
X13678919Y-11481891D01*
X13791357Y-11394881D01*
X13850541Y-11378919D01*
X13963244Y-11426993D01*
X14022162Y-11481891D01*
X14059249Y-11548901D01*
X14173001Y-11548901D01*
X14142803Y-11499054D01*
X13989230Y-11361420D01*
X13802870Y-11320163D01*
X13640816Y-11382054D01*
G37*
X13640816Y-11382054D02*
X13538028Y-11505788D01*
X13565583Y-11594152D01*
X13720291Y-11643717D01*
X13893238Y-11653513D01*
X14097543Y-11650739D01*
X14189330Y-11632194D01*
X14193380Y-11582541D01*
X14173001Y-11548901D01*
X14059249Y-11548901D01*
X14004815Y-11578524D01*
X13850541Y-11584864D01*
X13689404Y-11577444D01*
X13641716Y-11545793D01*
X13678919Y-11481891D01*
X13791357Y-11394881D01*
X13850541Y-11378919D01*
X13963244Y-11426993D01*
X14022162Y-11481891D01*
X14059249Y-11548901D01*
X14173001Y-11548901D01*
X14142803Y-11499054D01*
X13989230Y-11361420D01*
X13802870Y-11320163D01*
X13640816Y-11382054D01*
G36*
X19006220Y-12094248D02*
G01*
X18965372Y-12205071D01*
X18964865Y-12226387D01*
X19013208Y-12395252D01*
X19132104Y-12531566D01*
X19282350Y-12608664D01*
X19424743Y-12599879D01*
X19468288Y-12568828D01*
X19523505Y-12430538D01*
X19507648Y-12363747D01*
X19437076Y-12363747D01*
X19422351Y-12438358D01*
X19359591Y-12532642D01*
X19266516Y-12517008D01*
X19159054Y-12432333D01*
X19051088Y-12297686D01*
X19038573Y-12196864D01*
X19118289Y-12158926D01*
X19187973Y-12171468D01*
X19374989Y-12255556D01*
X19437076Y-12363747D01*
X19507648Y-12363747D01*
X19485549Y-12270667D01*
X19372146Y-12148580D01*
X19337963Y-12132355D01*
X19124678Y-12071455D01*
X19006220Y-12094248D01*
G37*
X19006220Y-12094248D02*
X18965372Y-12205071D01*
X18964865Y-12226387D01*
X19013208Y-12395252D01*
X19132104Y-12531566D01*
X19282350Y-12608664D01*
X19424743Y-12599879D01*
X19468288Y-12568828D01*
X19523505Y-12430538D01*
X19507648Y-12363747D01*
X19437076Y-12363747D01*
X19422351Y-12438358D01*
X19359591Y-12532642D01*
X19266516Y-12517008D01*
X19159054Y-12432333D01*
X19051088Y-12297686D01*
X19038573Y-12196864D01*
X19118289Y-12158926D01*
X19187973Y-12171468D01*
X19374989Y-12255556D01*
X19437076Y-12363747D01*
X19507648Y-12363747D01*
X19485549Y-12270667D01*
X19372146Y-12148580D01*
X19337963Y-12132355D01*
X19124678Y-12071455D01*
X19006220Y-12094248D01*
G36*
X5197032Y-11382054D02*
G01*
X5094245Y-11505788D01*
X5121799Y-11594152D01*
X5276507Y-11643717D01*
X5449454Y-11653513D01*
X5653759Y-11650739D01*
X5745546Y-11632194D01*
X5749597Y-11582541D01*
X5729218Y-11548901D01*
X5615465Y-11548901D01*
X5561031Y-11578524D01*
X5406757Y-11584864D01*
X5245620Y-11577444D01*
X5197932Y-11545793D01*
X5235135Y-11481891D01*
X5347573Y-11394881D01*
X5406757Y-11378919D01*
X5519460Y-11426993D01*
X5578378Y-11481891D01*
X5615465Y-11548901D01*
X5729218Y-11548901D01*
X5699020Y-11499054D01*
X5545446Y-11361420D01*
X5359086Y-11320163D01*
X5197032Y-11382054D01*
G37*
X5197032Y-11382054D02*
X5094245Y-11505788D01*
X5121799Y-11594152D01*
X5276507Y-11643717D01*
X5449454Y-11653513D01*
X5653759Y-11650739D01*
X5745546Y-11632194D01*
X5749597Y-11582541D01*
X5729218Y-11548901D01*
X5615465Y-11548901D01*
X5561031Y-11578524D01*
X5406757Y-11584864D01*
X5245620Y-11577444D01*
X5197932Y-11545793D01*
X5235135Y-11481891D01*
X5347573Y-11394881D01*
X5406757Y-11378919D01*
X5519460Y-11426993D01*
X5578378Y-11481891D01*
X5615465Y-11548901D01*
X5729218Y-11548901D01*
X5699020Y-11499054D01*
X5545446Y-11361420D01*
X5359086Y-11320163D01*
X5197032Y-11382054D01*
D15*
%TO.C,1000uF-1*%
X67015000Y-9875000D02*
X68265000Y-9875000D01*
X67640000Y-9250000D02*
X67640000Y-10500000D01*
X74295563Y-10740000D02*
X75360000Y-11804437D01*
X65904437Y-10740000D02*
X64840000Y-11804437D01*
X65904437Y-10740000D02*
X68890000Y-10740000D01*
X74295563Y-10740000D02*
X71310000Y-10740000D01*
X75360000Y-11804437D02*
X75360000Y-21260000D01*
X64840000Y-11804437D02*
X64840000Y-21260000D01*
X64840000Y-21260000D02*
X68890000Y-21260000D01*
X75360000Y-21260000D02*
X71310000Y-21260000D01*
%TD*%
%TO.C,1000uF-1*%
D13*
X64352380Y-12880952D02*
X64352380Y-12309523D01*
X64352380Y-12595238D02*
X63352380Y-12595238D01*
X63495238Y-12500000D01*
X63590476Y-12404761D01*
X63638095Y-12309523D01*
X63352380Y-13500000D02*
X63352380Y-13595238D01*
X63400000Y-13690476D01*
X63447619Y-13738095D01*
X63542857Y-13785714D01*
X63733333Y-13833333D01*
X63971428Y-13833333D01*
X64161904Y-13785714D01*
X64257142Y-13738095D01*
X64304761Y-13690476D01*
X64352380Y-13595238D01*
X64352380Y-13500000D01*
X64304761Y-13404761D01*
X64257142Y-13357142D01*
X64161904Y-13309523D01*
X63971428Y-13261904D01*
X63733333Y-13261904D01*
X63542857Y-13309523D01*
X63447619Y-13357142D01*
X63400000Y-13404761D01*
X63352380Y-13500000D01*
X63352380Y-14452380D02*
X63352380Y-14547619D01*
X63400000Y-14642857D01*
X63447619Y-14690476D01*
X63542857Y-14738095D01*
X63733333Y-14785714D01*
X63971428Y-14785714D01*
X64161904Y-14738095D01*
X64257142Y-14690476D01*
X64304761Y-14642857D01*
X64352380Y-14547619D01*
X64352380Y-14452380D01*
X64304761Y-14357142D01*
X64257142Y-14309523D01*
X64161904Y-14261904D01*
X63971428Y-14214285D01*
X63733333Y-14214285D01*
X63542857Y-14261904D01*
X63447619Y-14309523D01*
X63400000Y-14357142D01*
X63352380Y-14452380D01*
X63352380Y-15404761D02*
X63352380Y-15500000D01*
X63400000Y-15595238D01*
X63447619Y-15642857D01*
X63542857Y-15690476D01*
X63733333Y-15738095D01*
X63971428Y-15738095D01*
X64161904Y-15690476D01*
X64257142Y-15642857D01*
X64304761Y-15595238D01*
X64352380Y-15500000D01*
X64352380Y-15404761D01*
X64304761Y-15309523D01*
X64257142Y-15261904D01*
X64161904Y-15214285D01*
X63971428Y-15166666D01*
X63733333Y-15166666D01*
X63542857Y-15214285D01*
X63447619Y-15261904D01*
X63400000Y-15309523D01*
X63352380Y-15404761D01*
X63685714Y-16595238D02*
X64352380Y-16595238D01*
X63685714Y-16166666D02*
X64209523Y-16166666D01*
X64304761Y-16214285D01*
X64352380Y-16309523D01*
X64352380Y-16452380D01*
X64304761Y-16547619D01*
X64257142Y-16595238D01*
X63828571Y-17404761D02*
X63828571Y-17071428D01*
X64352380Y-17071428D02*
X63352380Y-17071428D01*
X63352380Y-17547619D01*
X63971428Y-17928571D02*
X63971428Y-18690476D01*
X64352380Y-19690476D02*
X64352380Y-19119047D01*
X64352380Y-19404761D02*
X63352380Y-19404761D01*
X63495238Y-19309523D01*
X63590476Y-19214285D01*
X63638095Y-19119047D01*
%TD*%
M02*
