%TF.GenerationSoftware,KiCad,Pcbnew,(5.1.7)-1*%
%TF.CreationDate,2021-10-09T11:13:05+02:00*%
%TF.ProjectId,window-sensor,77696e64-6f77-42d7-9365-6e736f722e6b,rev?*%
%TF.SameCoordinates,PX7270e00PY57bcf00*%
%TF.FileFunction,Copper,L2,Bot*%
%TF.FilePolarity,Positive*%
%FSLAX46Y46*%
G04 Gerber Fmt 4.6, Leading zero omitted, Abs format (unit mm)*
G04 Created by KiCad (PCBNEW (5.1.7)-1) date 2021-10-09 11:13:05*
%MOMM*%
%LPD*%
G01*
G04 APERTURE LIST*
%TA.AperFunction,Profile*%
%ADD10C,0.050000*%
%TD*%
%TA.AperFunction,ComponentPad*%
%ADD11O,1.600000X1.600000*%
%TD*%
%TA.AperFunction,ComponentPad*%
%ADD12R,1.600000X1.600000*%
%TD*%
%TA.AperFunction,ComponentPad*%
%ADD13O,1.700000X1.700000*%
%TD*%
%TA.AperFunction,ComponentPad*%
%ADD14R,1.700000X1.700000*%
%TD*%
%TA.AperFunction,ComponentPad*%
%ADD15R,1.500000X1.500000*%
%TD*%
%TA.AperFunction,ViaPad*%
%ADD16C,0.800000*%
%TD*%
%TA.AperFunction,Conductor*%
%ADD17C,0.250000*%
%TD*%
G04 APERTURE END LIST*
D10*
X-4900000Y-4100000D02*
X-4100000Y-4900000D01*
X-4900000Y-20200000D02*
X-4100000Y-19400000D01*
X-7000000Y-23300000D02*
X-7000000Y-20200000D01*
X-4900000Y-20200000D02*
X-7000000Y-20200000D01*
X-4100000Y-4900000D02*
X-4100000Y-19400000D01*
X-7000000Y-4100000D02*
X-4900000Y-4100000D01*
X23900000Y-900000D02*
G75*
G02*
X25770760Y-1744841I-59239J-2624840D01*
G01*
X30817250Y-5799023D02*
G75*
G02*
X29210000Y-5150000I-107250J2049023D01*
G01*
X30817250Y-5799024D02*
X75500000Y-5800000D01*
X25770760Y-1744841D02*
X29210000Y-5150000D01*
X-7000000Y-4100000D02*
X-7000000Y-900000D01*
X75500000Y-23300000D02*
X-7000000Y-23300000D01*
X75500000Y-5800000D02*
X75500000Y-23300000D01*
X-7000000Y-900000D02*
X23900000Y-900000D01*
D11*
%TO.P,U3,14*%
%TO.N,+3V3*%
X27300000Y-10680000D03*
D12*
%TO.P,U3,7*%
%TO.N,GND*%
X42540000Y-18300000D03*
D11*
%TO.P,U3,13*%
%TO.N,N/C*%
X29840000Y-10680000D03*
%TO.P,U3,6*%
%TO.N,EN*%
X40000000Y-18300000D03*
%TO.P,U3,12*%
%TO.N,N/C*%
X32380000Y-10680000D03*
%TO.P,U3,5*%
%TO.N,Net-(100nF-1-Pad1)*%
X37460000Y-18300000D03*
%TO.P,U3,11*%
%TO.N,N/C*%
X34920000Y-10680000D03*
%TO.P,U3,4*%
%TO.N,Net-(1M-1-Pad2)*%
X34920000Y-18300000D03*
%TO.P,U3,10*%
%TO.N,N/C*%
X37460000Y-10680000D03*
%TO.P,U3,3*%
%TO.N,Net-(10k-1-Pad2)*%
X32380000Y-18300000D03*
%TO.P,U3,9*%
%TO.N,GND*%
X40000000Y-10680000D03*
%TO.P,U3,2*%
%TO.N,+3V3*%
X29840000Y-18300000D03*
%TO.P,U3,8*%
%TO.N,N/C*%
X42540000Y-10680000D03*
%TO.P,U3,1*%
%TO.N,Net-(1M-1-Pad2)*%
X27300000Y-18300000D03*
%TD*%
D13*
%TO.P,J1,5*%
%TO.N,Net-(ESP-12E1-Pad22)*%
X38220000Y-7800000D03*
%TO.P,J1,4*%
%TO.N,Net-(ESP-12E1-Pad21)*%
X35680000Y-7800000D03*
%TO.P,J1,3*%
%TO.N,Net-(ESP-12E1-Pad18)*%
X33140000Y-7800000D03*
%TO.P,J1,2*%
%TO.N,+3V3*%
X30600000Y-7800000D03*
D14*
%TO.P,J1,1*%
%TO.N,GND*%
X28060000Y-7800000D03*
%TD*%
D15*
%TO.P,GND,1*%
%TO.N,GND1*%
X-2700000Y-21500000D03*
%TD*%
%TO.P,3V7,1*%
%TO.N,+3V8*%
X48100000Y-21500000D03*
%TD*%
%TO.P,1000uF-1,2*%
%TO.N,GND*%
%TA.AperFunction,SMDPad,CuDef*%
G36*
G01*
X69399999Y-18150000D02*
X70800001Y-18150000D01*
G75*
G02*
X71050000Y-18399999I0J-249999D01*
G01*
X71050000Y-22300001D01*
G75*
G02*
X70800001Y-22550000I-249999J0D01*
G01*
X69399999Y-22550000D01*
G75*
G02*
X69150000Y-22300001I0J249999D01*
G01*
X69150000Y-18399999D01*
G75*
G02*
X69399999Y-18150000I249999J0D01*
G01*
G37*
%TD.AperFunction*%
%TO.P,1000uF-1,1*%
%TO.N,+3V3*%
%TA.AperFunction,SMDPad,CuDef*%
G36*
G01*
X69399999Y-9450000D02*
X70800001Y-9450000D01*
G75*
G02*
X71050000Y-9699999I0J-249999D01*
G01*
X71050000Y-13600001D01*
G75*
G02*
X70800001Y-13850000I-249999J0D01*
G01*
X69399999Y-13850000D01*
G75*
G02*
X69150000Y-13600001I0J249999D01*
G01*
X69150000Y-9699999D01*
G75*
G02*
X69399999Y-9450000I249999J0D01*
G01*
G37*
%TD.AperFunction*%
%TD*%
D16*
%TO.N,GND*%
X8700000Y-21400000D03*
X64000000Y-20300000D03*
X53500000Y-8599996D03*
X25400004Y-11700004D03*
X44700000Y-14400000D03*
X-3200000Y-18400000D03*
X-2062660Y-19537340D03*
X25499998Y-15900000D03*
%TO.N,EN*%
X17800000Y-20300000D03*
X25400000Y-17900000D03*
X23200000Y-17900000D03*
X29100000Y-15900000D03*
%TO.N,GND1*%
X49133967Y-9038932D03*
%TO.N,Net-(ESP-12E1-Pad22)*%
X5800000Y-5300000D03*
X25999976Y-5300000D03*
%TO.N,Net-(ESP-12E1-Pad21)*%
X13800000Y-6625010D03*
%TO.N,Net-(ESP-12E1-Pad18)*%
X23900000Y-21400000D03*
%TO.N,Net-(10k-3-Pad1)*%
X13568855Y-8691353D03*
X7687340Y-21387340D03*
%TO.N,Net-(1M-1-Pad2)*%
X1900000Y-19300000D03*
X1900000Y-13300000D03*
%TO.N,+3V3*%
X22100000Y-14700000D03*
X42949997Y-7049997D03*
X48599998Y-7000000D03*
X19964680Y-18290004D03*
%TD*%
D17*
%TO.N,GND*%
X69300000Y-20300000D02*
X64000000Y-20300000D01*
X70000000Y-21000000D02*
X69300000Y-20300000D01*
X53500000Y-8599996D02*
X47699996Y-14400000D01*
X47699996Y-14400000D02*
X44700000Y-14400000D01*
X-3200000Y-18400000D02*
X-2062660Y-19537340D01*
X9425001Y-22125001D02*
X24248001Y-22125001D01*
X24248001Y-22125001D02*
X24674999Y-21698003D01*
X8700000Y-21400000D02*
X9425001Y-22125001D01*
X24674999Y-21698003D02*
X24674999Y-16724999D01*
X24674999Y-16724999D02*
X25499998Y-15900000D01*
X28100000Y-14400000D02*
X25400004Y-11700004D01*
X44700000Y-14400000D02*
X28100000Y-14400000D01*
%TO.N,EN*%
X17800000Y-20300000D02*
X20800000Y-20300000D01*
X20800000Y-20300000D02*
X23200000Y-17900000D01*
X25400000Y-17900000D02*
X27400000Y-15900000D01*
X27400000Y-15900000D02*
X29100000Y-15900000D01*
%TO.N,GND1*%
X-2400000Y-21800000D02*
X-2700000Y-21500000D01*
X42465928Y-9038932D02*
X49133967Y-9038932D01*
X39576985Y-6149989D02*
X42465928Y-9038932D01*
X14521655Y-6148653D02*
X30488803Y-6148653D01*
X2966950Y-15533050D02*
X12600000Y-5900000D01*
X2966950Y-19406054D02*
X2966950Y-15533050D01*
X873004Y-21500000D02*
X2966950Y-19406054D01*
X-2700000Y-21500000D02*
X873004Y-21500000D01*
X30868195Y-6153631D02*
X30871934Y-6149989D01*
X30488803Y-6148653D02*
X30868195Y-6153631D01*
X30871934Y-6149989D02*
X39576985Y-6149989D01*
X14273002Y-5900000D02*
X14521655Y-6148653D01*
X12600000Y-5900000D02*
X14273002Y-5900000D01*
%TO.N,Net-(ESP-12E1-Pad22)*%
X5800000Y-5300000D02*
X25999976Y-5300000D01*
%TO.N,Net-(ESP-12E1-Pad21)*%
X35680000Y-7800000D02*
X34486048Y-6606048D01*
X13818962Y-6606048D02*
X13800000Y-6625010D01*
X34486048Y-6606048D02*
X13818962Y-6606048D01*
%TO.N,Net-(ESP-12E1-Pad18)*%
X23900000Y-21400000D02*
X24200000Y-21100000D01*
X24200000Y-15424999D02*
X23900000Y-15124999D01*
X23900000Y-15124999D02*
X23900000Y-9310000D01*
X23900000Y-9310000D02*
X24250000Y-8960000D01*
X29170001Y-8975001D02*
X29185002Y-8960000D01*
X24250000Y-8960000D02*
X26934998Y-8960000D01*
X26934998Y-8960000D02*
X26949999Y-8975001D01*
X29185002Y-8960000D02*
X30020998Y-8960000D01*
X26949999Y-8975001D02*
X29170001Y-8975001D01*
X32290001Y-8649999D02*
X33140000Y-7800000D01*
X24200000Y-21100000D02*
X24200000Y-15424999D01*
X30035999Y-8975001D02*
X31964999Y-8975001D01*
X30020998Y-8960000D02*
X30035999Y-8975001D01*
X31964999Y-8975001D02*
X32290001Y-8649999D01*
%TO.N,Net-(10k-3-Pad1)*%
X13568855Y-8691353D02*
X13568855Y-15505825D01*
X13568855Y-15505825D02*
X7687340Y-21387340D01*
%TO.N,Net-(1M-1-Pad2)*%
X1900000Y-13300000D02*
X1900000Y-19300000D01*
X775001Y-20424999D02*
X1900000Y-19300000D01*
X-3710001Y-20424999D02*
X775001Y-20424999D01*
X-3775001Y-22510001D02*
X-3775001Y-20489999D01*
X-3709992Y-22575010D02*
X-3775001Y-22510001D01*
X29769992Y-22575010D02*
X-3709992Y-22575010D01*
X33505001Y-18840001D02*
X29769992Y-22575010D01*
X-3775001Y-20489999D02*
X-3710001Y-20424999D01*
X32920001Y-17174999D02*
X33505001Y-17759999D01*
X28425001Y-17174999D02*
X32920001Y-17174999D01*
X27300000Y-18300000D02*
X28425001Y-17174999D01*
X33600000Y-18300000D02*
X33505001Y-18394999D01*
X34920000Y-18300000D02*
X33600000Y-18300000D01*
X33505001Y-18394999D02*
X33505001Y-18840001D01*
X33505001Y-17759999D02*
X33505001Y-18394999D01*
%TO.N,+3V3*%
X70100000Y-11650000D02*
X65499997Y-7049997D01*
X48549997Y-7049997D02*
X42949997Y-7049997D01*
X65499997Y-7049997D02*
X48549997Y-7049997D01*
X48599994Y-7000000D02*
X48599998Y-7000000D01*
X48549997Y-7049997D02*
X48599994Y-7000000D01*
X48500000Y-7099998D02*
X48599998Y-7000000D01*
X22100000Y-14700000D02*
X22100000Y-16154684D01*
X22100000Y-16154684D02*
X19964680Y-18290004D01*
%TD*%
M02*
