%TF.GenerationSoftware,KiCad,Pcbnew,(5.1.7)-1*%
%TF.CreationDate,2021-11-04T21:35:45+01:00*%
%TF.ProjectId,window-sensor,77696e64-6f77-42d7-9365-6e736f722e6b,rev?*%
%TF.SameCoordinates,PX7270e00PY57bcf00*%
%TF.FileFunction,Copper,L1,Top*%
%TF.FilePolarity,Positive*%
%FSLAX46Y46*%
G04 Gerber Fmt 4.6, Leading zero omitted, Abs format (unit mm)*
G04 Created by KiCad (PCBNEW (5.1.7)-1) date 2021-11-04 21:35:45*
%MOMM*%
%LPD*%
G01*
G04 APERTURE LIST*
%TA.AperFunction,Profile*%
%ADD10C,0.050000*%
%TD*%
%TA.AperFunction,ComponentPad*%
%ADD11O,1.600000X1.600000*%
%TD*%
%TA.AperFunction,ComponentPad*%
%ADD12R,1.600000X1.600000*%
%TD*%
%TA.AperFunction,ComponentPad*%
%ADD13O,1.700000X1.700000*%
%TD*%
%TA.AperFunction,ComponentPad*%
%ADD14R,1.700000X1.700000*%
%TD*%
%TA.AperFunction,SMDPad,CuDef*%
%ADD15R,1.000000X2.500000*%
%TD*%
%TA.AperFunction,SMDPad,CuDef*%
%ADD16R,1.800000X1.000000*%
%TD*%
%TA.AperFunction,ComponentPad*%
%ADD17R,1.500000X1.500000*%
%TD*%
%TA.AperFunction,SMDPad,CuDef*%
%ADD18R,2.540000X2.540000*%
%TD*%
%TA.AperFunction,SMDPad,CuDef*%
%ADD19R,2.000000X2.000000*%
%TD*%
%TA.AperFunction,SMDPad,CuDef*%
%ADD20C,0.100000*%
%TD*%
%TA.AperFunction,SMDPad,CuDef*%
%ADD21R,0.900000X1.300000*%
%TD*%
%TA.AperFunction,ViaPad*%
%ADD22C,0.800000*%
%TD*%
%TA.AperFunction,Conductor*%
%ADD23C,0.250000*%
%TD*%
G04 APERTURE END LIST*
D10*
X-4900000Y-4100000D02*
X-4100000Y-4900000D01*
X-4900000Y-20200000D02*
X-4100000Y-19400000D01*
X-7000000Y-23300000D02*
X-7000000Y-20200000D01*
X-4900000Y-20200000D02*
X-7000000Y-20200000D01*
X-4100000Y-4900000D02*
X-4100000Y-19400000D01*
X-7000000Y-4100000D02*
X-4900000Y-4100000D01*
X23900000Y-900000D02*
G75*
G02*
X25770760Y-1744841I-59239J-2624840D01*
G01*
X30817250Y-5799023D02*
G75*
G02*
X29210000Y-5150000I-107250J2049023D01*
G01*
X30817250Y-5799024D02*
X75500000Y-5800000D01*
X25770760Y-1744841D02*
X29210000Y-5150000D01*
X-7000000Y-4100000D02*
X-7000000Y-900000D01*
X75500000Y-23300000D02*
X-7000000Y-23300000D01*
X75500000Y-5800000D02*
X75500000Y-23300000D01*
X-7000000Y-900000D02*
X23900000Y-900000D01*
D11*
%TO.P,U3,14*%
%TO.N,N/C*%
X27300000Y-10680000D03*
D12*
%TO.P,U3,7*%
X42540000Y-18300000D03*
D11*
%TO.P,U3,13*%
X29840000Y-10680000D03*
%TO.P,U3,6*%
%TO.N,EN*%
X40000000Y-18300000D03*
%TO.P,U3,12*%
%TO.N,N/C*%
X32380000Y-10680000D03*
%TO.P,U3,5*%
%TO.N,Net-(100nF-1-Pad1)*%
X37460000Y-18300000D03*
%TO.P,U3,11*%
%TO.N,N/C*%
X34920000Y-10680000D03*
%TO.P,U3,4*%
%TO.N,Net-(1M-1-Pad2)*%
X34920000Y-18300000D03*
%TO.P,U3,10*%
%TO.N,N/C*%
X37460000Y-10680000D03*
%TO.P,U3,3*%
%TO.N,Net-(10k-1-Pad2)*%
X32380000Y-18300000D03*
%TO.P,U3,9*%
%TO.N,N/C*%
X40000000Y-10680000D03*
%TO.P,U3,2*%
%TO.N,+3V3*%
X29840000Y-18300000D03*
%TO.P,U3,8*%
%TO.N,N/C*%
X42540000Y-10680000D03*
%TO.P,U3,1*%
%TO.N,Net-(1M-1-Pad2)*%
X27300000Y-18300000D03*
%TD*%
D13*
%TO.P,J1,5*%
%TO.N,Net-(ESP-12E1-Pad22)*%
X38220000Y-7800000D03*
%TO.P,J1,4*%
%TO.N,Net-(ESP-12E1-Pad21)*%
X35680000Y-7800000D03*
%TO.P,J1,3*%
%TO.N,Net-(10k-3-Pad1)*%
X33140000Y-7800000D03*
%TO.P,J1,2*%
%TO.N,+3V3*%
X30600000Y-7800000D03*
D14*
%TO.P,J1,1*%
%TO.N,GND*%
X28060000Y-7800000D03*
%TD*%
%TO.P,100nF-1,2*%
%TO.N,GND*%
%TA.AperFunction,SMDPad,CuDef*%
G36*
G01*
X42650000Y-21875000D02*
X42650000Y-20925000D01*
G75*
G02*
X42900000Y-20675000I250000J0D01*
G01*
X43575000Y-20675000D01*
G75*
G02*
X43825000Y-20925000I0J-250000D01*
G01*
X43825000Y-21875000D01*
G75*
G02*
X43575000Y-22125000I-250000J0D01*
G01*
X42900000Y-22125000D01*
G75*
G02*
X42650000Y-21875000I0J250000D01*
G01*
G37*
%TD.AperFunction*%
%TO.P,100nF-1,1*%
%TO.N,Net-(100nF-1-Pad1)*%
%TA.AperFunction,SMDPad,CuDef*%
G36*
G01*
X40575000Y-21875000D02*
X40575000Y-20925000D01*
G75*
G02*
X40825000Y-20675000I250000J0D01*
G01*
X41500000Y-20675000D01*
G75*
G02*
X41750000Y-20925000I0J-250000D01*
G01*
X41750000Y-21875000D01*
G75*
G02*
X41500000Y-22125000I-250000J0D01*
G01*
X40825000Y-22125000D01*
G75*
G02*
X40575000Y-21875000I0J250000D01*
G01*
G37*
%TD.AperFunction*%
%TD*%
D15*
%TO.P,ESP-12E1,22*%
%TO.N,Net-(ESP-12E1-Pad22)*%
X4770000Y-3090000D03*
%TO.P,ESP-12E1,21*%
%TO.N,Net-(ESP-12E1-Pad21)*%
X6770000Y-3090000D03*
%TO.P,ESP-12E1,20*%
%TO.N,Net-(ESP-12E1-Pad20)*%
X8770000Y-3090000D03*
%TO.P,ESP-12E1,19*%
%TO.N,Net-(ESP-12E1-Pad19)*%
X10770000Y-3090000D03*
%TO.P,ESP-12E1,18*%
%TO.N,Net-(10k-3-Pad1)*%
X12770000Y-3090000D03*
%TO.P,ESP-12E1,17*%
%TO.N,Net-(ESP-12E1-Pad17)*%
X14770000Y-3090000D03*
%TO.P,ESP-12E1,16*%
%TO.N,Net-(10k-4-Pad2)*%
X16770000Y-3090000D03*
%TO.P,ESP-12E1,15*%
%TO.N,GND*%
X18770000Y-3090000D03*
D16*
%TO.P,ESP-12E1,14*%
%TO.N,Net-(ESP-12E1-Pad14)*%
X20270000Y-5690000D03*
%TO.P,ESP-12E1,13*%
%TO.N,Net-(ESP-12E1-Pad13)*%
X20270000Y-7690000D03*
%TO.P,ESP-12E1,12*%
%TO.N,Net-(ESP-12E1-Pad12)*%
X20270000Y-9690000D03*
%TO.P,ESP-12E1,11*%
%TO.N,Net-(ESP-12E1-Pad11)*%
X20270000Y-11690000D03*
%TO.P,ESP-12E1,10*%
%TO.N,Net-(ESP-12E1-Pad10)*%
X20270000Y-13690000D03*
%TO.P,ESP-12E1,9*%
%TO.N,Net-(ESP-12E1-Pad9)*%
X20270000Y-15690000D03*
D15*
%TO.P,ESP-12E1,8*%
%TO.N,+3V3*%
X18770000Y-18290000D03*
%TO.P,ESP-12E1,7*%
%TO.N,GPIO13*%
X16770000Y-18290000D03*
%TO.P,ESP-12E1,6*%
%TO.N,Net-(ESP-12E1-Pad6)*%
X14770000Y-18290000D03*
%TO.P,ESP-12E1,5*%
%TO.N,Net-(ESP-12E1-Pad5)*%
X12770000Y-18290000D03*
%TO.P,ESP-12E1,4*%
%TO.N,Net-(ESP-12E1-Pad1)*%
X10770000Y-18290000D03*
%TO.P,ESP-12E1,3*%
%TO.N,EN*%
X8770000Y-18290000D03*
%TO.P,ESP-12E1,2*%
%TO.N,Net-(ESP-12E1-Pad2)*%
X6770000Y-18290000D03*
%TO.P,ESP-12E1,1*%
%TO.N,Net-(ESP-12E1-Pad1)*%
X4770000Y-18290000D03*
%TD*%
D17*
%TO.P,GND,1*%
%TO.N,GND1*%
X-2700000Y-21500000D03*
%TD*%
%TO.P,3V7,1*%
%TO.N,+3V8*%
X48100000Y-21500000D03*
%TD*%
D18*
%TO.P,TP4056,+*%
%TO.N,N/C*%
X73800000Y-21300000D03*
%TO.P,TP4056,-*%
X73800000Y-7700000D03*
%TO.P,TP4056,OUT+*%
%TO.N,+3V8*%
X51000000Y-21300000D03*
%TO.P,TP4056,B+*%
X51000000Y-18300000D03*
%TO.P,TP4056,B-*%
%TO.N,GND1*%
X51000000Y-10700000D03*
%TO.P,TP4056,OUT-*%
%TO.N,GND*%
X51000000Y-7700000D03*
%TD*%
%TO.P,10k-3,2*%
%TO.N,+3V3*%
%TA.AperFunction,SMDPad,CuDef*%
G36*
G01*
X4933333Y-20949999D02*
X4933333Y-21850001D01*
G75*
G02*
X4683334Y-22100000I-249999J0D01*
G01*
X3983332Y-22100000D01*
G75*
G02*
X3733333Y-21850001I0J249999D01*
G01*
X3733333Y-20949999D01*
G75*
G02*
X3983332Y-20700000I249999J0D01*
G01*
X4683334Y-20700000D01*
G75*
G02*
X4933333Y-20949999I0J-249999D01*
G01*
G37*
%TD.AperFunction*%
%TO.P,10k-3,1*%
%TO.N,Net-(10k-3-Pad1)*%
%TA.AperFunction,SMDPad,CuDef*%
G36*
G01*
X6933333Y-20949999D02*
X6933333Y-21850001D01*
G75*
G02*
X6683334Y-22100000I-249999J0D01*
G01*
X5983332Y-22100000D01*
G75*
G02*
X5733333Y-21850001I0J249999D01*
G01*
X5733333Y-20949999D01*
G75*
G02*
X5983332Y-20700000I249999J0D01*
G01*
X6683334Y-20700000D01*
G75*
G02*
X6933333Y-20949999I0J-249999D01*
G01*
G37*
%TD.AperFunction*%
%TD*%
%TO.P,FLASH1,1*%
%TO.N,Net-(10k-3-Pad1)*%
%TA.AperFunction,SMDPad,CuDef*%
G36*
G01*
X24680000Y-20450000D02*
X23080000Y-20450000D01*
G75*
G02*
X22880000Y-20250000I0J200000D01*
G01*
X22880000Y-19850000D01*
G75*
G02*
X23080000Y-19650000I200000J0D01*
G01*
X24680000Y-19650000D01*
G75*
G02*
X24880000Y-19850000I0J-200000D01*
G01*
X24880000Y-20250000D01*
G75*
G02*
X24680000Y-20450000I-200000J0D01*
G01*
G37*
%TD.AperFunction*%
%TO.P,FLASH1,2*%
%TO.N,GND*%
%TA.AperFunction,SMDPad,CuDef*%
G36*
G01*
X24680000Y-16250000D02*
X23080000Y-16250000D01*
G75*
G02*
X22880000Y-16050000I0J200000D01*
G01*
X22880000Y-15650000D01*
G75*
G02*
X23080000Y-15450000I200000J0D01*
G01*
X24680000Y-15450000D01*
G75*
G02*
X24880000Y-15650000I0J-200000D01*
G01*
X24880000Y-16050000D01*
G75*
G02*
X24680000Y-16250000I-200000J0D01*
G01*
G37*
%TD.AperFunction*%
%TD*%
%TO.P,RESET1,1*%
%TO.N,GND*%
%TA.AperFunction,SMDPad,CuDef*%
G36*
G01*
X24680000Y-7850000D02*
X23080000Y-7850000D01*
G75*
G02*
X22880000Y-7650000I0J200000D01*
G01*
X22880000Y-7250000D01*
G75*
G02*
X23080000Y-7050000I200000J0D01*
G01*
X24680000Y-7050000D01*
G75*
G02*
X24880000Y-7250000I0J-200000D01*
G01*
X24880000Y-7650000D01*
G75*
G02*
X24680000Y-7850000I-200000J0D01*
G01*
G37*
%TD.AperFunction*%
%TO.P,RESET1,2*%
%TO.N,Net-(ESP-12E1-Pad1)*%
%TA.AperFunction,SMDPad,CuDef*%
G36*
G01*
X24680000Y-3650000D02*
X23080000Y-3650000D01*
G75*
G02*
X22880000Y-3450000I0J200000D01*
G01*
X22880000Y-3050000D01*
G75*
G02*
X23080000Y-2850000I200000J0D01*
G01*
X24680000Y-2850000D01*
G75*
G02*
X24880000Y-3050000I0J-200000D01*
G01*
X24880000Y-3450000D01*
G75*
G02*
X24680000Y-3650000I-200000J0D01*
G01*
G37*
%TD.AperFunction*%
%TD*%
D19*
%TO.P,REED1,1*%
%TO.N,GND*%
X-5700000Y-21360000D03*
%TO.P,REED1,2*%
%TO.N,Net-(1M-1-Pad2)*%
X-5700000Y-2920000D03*
%TD*%
%TO.P,10k-2,1*%
%TO.N,Net-(100nF-1-Pad1)*%
%TA.AperFunction,SMDPad,CuDef*%
G36*
G01*
X39600000Y-20949999D02*
X39600000Y-21850001D01*
G75*
G02*
X39350001Y-22100000I-249999J0D01*
G01*
X38649999Y-22100000D01*
G75*
G02*
X38400000Y-21850001I0J249999D01*
G01*
X38400000Y-20949999D01*
G75*
G02*
X38649999Y-20700000I249999J0D01*
G01*
X39350001Y-20700000D01*
G75*
G02*
X39600000Y-20949999I0J-249999D01*
G01*
G37*
%TD.AperFunction*%
%TO.P,10k-2,2*%
%TO.N,Net-(10k-1-Pad2)*%
%TA.AperFunction,SMDPad,CuDef*%
G36*
G01*
X37600000Y-20949999D02*
X37600000Y-21850001D01*
G75*
G02*
X37350001Y-22100000I-249999J0D01*
G01*
X36649999Y-22100000D01*
G75*
G02*
X36400000Y-21850001I0J249999D01*
G01*
X36400000Y-20949999D01*
G75*
G02*
X36649999Y-20700000I249999J0D01*
G01*
X37350001Y-20700000D01*
G75*
G02*
X37600000Y-20949999I0J-249999D01*
G01*
G37*
%TD.AperFunction*%
%TD*%
%TO.P,10k-1,1*%
%TO.N,GPIO13*%
%TA.AperFunction,SMDPad,CuDef*%
G36*
G01*
X32100000Y-21850001D02*
X32100000Y-20949999D01*
G75*
G02*
X32349999Y-20700000I249999J0D01*
G01*
X33050001Y-20700000D01*
G75*
G02*
X33300000Y-20949999I0J-249999D01*
G01*
X33300000Y-21850001D01*
G75*
G02*
X33050001Y-22100000I-249999J0D01*
G01*
X32349999Y-22100000D01*
G75*
G02*
X32100000Y-21850001I0J249999D01*
G01*
G37*
%TD.AperFunction*%
%TO.P,10k-1,2*%
%TO.N,Net-(10k-1-Pad2)*%
%TA.AperFunction,SMDPad,CuDef*%
G36*
G01*
X34100000Y-21850001D02*
X34100000Y-20949999D01*
G75*
G02*
X34349999Y-20700000I249999J0D01*
G01*
X35050001Y-20700000D01*
G75*
G02*
X35300000Y-20949999I0J-249999D01*
G01*
X35300000Y-21850001D01*
G75*
G02*
X35050001Y-22100000I-249999J0D01*
G01*
X34349999Y-22100000D01*
G75*
G02*
X34100000Y-21850001I0J249999D01*
G01*
G37*
%TD.AperFunction*%
%TD*%
%TO.P,1M-1,1*%
%TO.N,+3V3*%
%TA.AperFunction,SMDPad,CuDef*%
G36*
G01*
X-700000Y-21850001D02*
X-700000Y-20949999D01*
G75*
G02*
X-450001Y-20700000I249999J0D01*
G01*
X250001Y-20700000D01*
G75*
G02*
X500000Y-20949999I0J-249999D01*
G01*
X500000Y-21850001D01*
G75*
G02*
X250001Y-22100000I-249999J0D01*
G01*
X-450001Y-22100000D01*
G75*
G02*
X-700000Y-21850001I0J249999D01*
G01*
G37*
%TD.AperFunction*%
%TO.P,1M-1,2*%
%TO.N,Net-(1M-1-Pad2)*%
%TA.AperFunction,SMDPad,CuDef*%
G36*
G01*
X1300000Y-21850001D02*
X1300000Y-20949999D01*
G75*
G02*
X1549999Y-20700000I249999J0D01*
G01*
X2250001Y-20700000D01*
G75*
G02*
X2500000Y-20949999I0J-249999D01*
G01*
X2500000Y-21850001D01*
G75*
G02*
X2250001Y-22100000I-249999J0D01*
G01*
X1549999Y-22100000D01*
G75*
G02*
X1300000Y-21850001I0J249999D01*
G01*
G37*
%TD.AperFunction*%
%TD*%
%TA.AperFunction,SMDPad,CuDef*%
D20*
%TO.P,HT7333,2*%
%TO.N,+3V8*%
G36*
X47666500Y-6200000D02*
G01*
X47666500Y-9325000D01*
X47250000Y-9325000D01*
X47250000Y-10800000D01*
X46350000Y-10800000D01*
X46350000Y-9325000D01*
X45933500Y-9325000D01*
X45933500Y-6200000D01*
X47666500Y-6200000D01*
G37*
%TD.AperFunction*%
D21*
%TO.P,HT7333,3*%
%TO.N,+3V3*%
X48300000Y-10150000D03*
%TO.P,HT7333,1*%
%TO.N,GND*%
X45300000Y-10150000D03*
%TD*%
%TO.P,10k-4,2*%
%TO.N,Net-(10k-4-Pad2)*%
%TA.AperFunction,SMDPad,CuDef*%
G36*
G01*
X23370000Y-9883332D02*
X23370000Y-10783334D01*
G75*
G02*
X23120001Y-11033333I-249999J0D01*
G01*
X22419999Y-11033333D01*
G75*
G02*
X22170000Y-10783334I0J249999D01*
G01*
X22170000Y-9883332D01*
G75*
G02*
X22419999Y-9633333I249999J0D01*
G01*
X23120001Y-9633333D01*
G75*
G02*
X23370000Y-9883332I0J-249999D01*
G01*
G37*
%TD.AperFunction*%
%TO.P,10k-4,1*%
%TO.N,GND*%
%TA.AperFunction,SMDPad,CuDef*%
G36*
G01*
X25370000Y-9883332D02*
X25370000Y-10783334D01*
G75*
G02*
X25120001Y-11033333I-249999J0D01*
G01*
X24419999Y-11033333D01*
G75*
G02*
X24170000Y-10783334I0J249999D01*
G01*
X24170000Y-9883332D01*
G75*
G02*
X24419999Y-9633333I249999J0D01*
G01*
X25120001Y-9633333D01*
G75*
G02*
X25370000Y-9883332I0J-249999D01*
G01*
G37*
%TD.AperFunction*%
%TD*%
%TO.P,100nF-2,1*%
%TO.N,+3V3*%
%TA.AperFunction,SMDPad,CuDef*%
G36*
G01*
X22175000Y-13671666D02*
X22175000Y-12721666D01*
G75*
G02*
X22425000Y-12471666I250000J0D01*
G01*
X23100000Y-12471666D01*
G75*
G02*
X23350000Y-12721666I0J-250000D01*
G01*
X23350000Y-13671666D01*
G75*
G02*
X23100000Y-13921666I-250000J0D01*
G01*
X22425000Y-13921666D01*
G75*
G02*
X22175000Y-13671666I0J250000D01*
G01*
G37*
%TD.AperFunction*%
%TO.P,100nF-2,2*%
%TO.N,GND*%
%TA.AperFunction,SMDPad,CuDef*%
G36*
G01*
X24250000Y-13671666D02*
X24250000Y-12721666D01*
G75*
G02*
X24500000Y-12471666I250000J0D01*
G01*
X25175000Y-12471666D01*
G75*
G02*
X25425000Y-12721666I0J-250000D01*
G01*
X25425000Y-13671666D01*
G75*
G02*
X25175000Y-13921666I-250000J0D01*
G01*
X24500000Y-13921666D01*
G75*
G02*
X24250000Y-13671666I0J250000D01*
G01*
G37*
%TD.AperFunction*%
%TD*%
D22*
%TO.N,GND*%
X8700000Y-21400000D03*
X64000000Y-20300000D03*
X53500000Y-8599996D03*
X25400004Y-11700004D03*
X44700000Y-14400000D03*
X-3200000Y-18400000D03*
X-2062660Y-19537340D03*
X25499998Y-15900000D03*
%TO.N,EN*%
X17800000Y-20300000D03*
X25400000Y-17900000D03*
X23200000Y-17900000D03*
X29100000Y-15900000D03*
%TO.N,GND1*%
X49133967Y-9038932D03*
%TO.N,Net-(ESP-12E1-Pad22)*%
X5800000Y-5300000D03*
X25999976Y-5300000D03*
%TO.N,Net-(ESP-12E1-Pad21)*%
X13800000Y-6625010D03*
%TO.N,Net-(10k-3-Pad1)*%
X23900000Y-21400000D03*
X13568855Y-8691353D03*
X7687340Y-21387340D03*
%TO.N,Net-(1M-1-Pad2)*%
X1900000Y-19300000D03*
X1900000Y-13300000D03*
%TO.N,+3V3*%
X22100000Y-14700000D03*
X42949997Y-7049997D03*
X48599998Y-7000000D03*
X19964680Y-18290004D03*
%TD*%
D23*
%TO.N,*%
X29840000Y-10680000D02*
X32380000Y-10680000D01*
X32380000Y-10680000D02*
X34100000Y-12400000D01*
X35740000Y-12400000D02*
X37460000Y-10680000D01*
X34100000Y-12400000D02*
X35740000Y-12400000D01*
X37460000Y-10680000D02*
X40000000Y-10680000D01*
X40000000Y-10680000D02*
X40000000Y-10700000D01*
X73800000Y-7700000D02*
X74000000Y-7700000D01*
%TO.N,+3V8*%
X51000000Y-18200000D02*
X49800000Y-18200000D01*
X49700000Y-18300000D02*
X51000000Y-18300000D01*
X48100000Y-19900000D02*
X49700000Y-18300000D01*
X48100000Y-19900000D02*
X48100000Y-21500000D01*
X46474999Y-9387501D02*
X47362500Y-8500000D01*
X46800000Y-10926996D02*
X46800000Y-10062500D01*
X52800000Y-16926996D02*
X46800000Y-10926996D01*
X52520000Y-21300000D02*
X52800000Y-21020000D01*
X52800000Y-21020000D02*
X52800000Y-16926996D01*
X51000000Y-21300000D02*
X52520000Y-21300000D01*
%TO.N,GND*%
X24880000Y-8450000D02*
X24880000Y-10333333D01*
X23880000Y-7450000D02*
X24880000Y-8450000D01*
X24880000Y-13159166D02*
X24917500Y-13196666D01*
X24880000Y-10333333D02*
X24880000Y-13159166D01*
X23880000Y-7450000D02*
X23854999Y-7475001D01*
X64000000Y-20300000D02*
X53500000Y-9800000D01*
X53500000Y-9800000D02*
X53500000Y-8599996D01*
X52600004Y-7700000D02*
X53500000Y-8599996D01*
X51000000Y-7700000D02*
X52600004Y-7700000D01*
X23880000Y-15850000D02*
X24550000Y-15850000D01*
X27330000Y-8450000D02*
X28060000Y-7720000D01*
X24880000Y-8450000D02*
X27330000Y-8450000D01*
X24880000Y-11180000D02*
X25400004Y-11700004D01*
X24880000Y-10333333D02*
X24880000Y-11180000D01*
X45300000Y-10150000D02*
X45300000Y-13800000D01*
X45300000Y-13800000D02*
X44700000Y-14400000D01*
X42540000Y-15160000D02*
X43300000Y-14400000D01*
X43300000Y-14400000D02*
X44700000Y-14400000D01*
X23880000Y-14234166D02*
X24917500Y-13196666D01*
X23880000Y-15850000D02*
X23880000Y-14234166D01*
X-740675Y-22425010D02*
X-1612661Y-21553024D01*
X-1612661Y-21553024D02*
X-1612661Y-19987339D01*
X7674990Y-22425010D02*
X-740675Y-22425010D01*
X-1612661Y-19987339D02*
X-2062660Y-19537340D01*
X8700000Y-21400000D02*
X7674990Y-22425010D01*
X-4425011Y-21335011D02*
X-4425010Y-20203598D01*
X-4450000Y-21360000D02*
X-4425011Y-21335011D01*
X-5700000Y-21360000D02*
X-4450000Y-21360000D01*
X-3200000Y-18978588D02*
X-3200000Y-18400000D01*
X-4425010Y-20203598D02*
X-3200000Y-18978588D01*
X23880000Y-15850000D02*
X25449998Y-15850000D01*
X25449998Y-15850000D02*
X25499998Y-15900000D01*
X20850000Y-4050000D02*
X18770000Y-4050000D01*
X23880000Y-7080000D02*
X20850000Y-4050000D01*
X23880000Y-7450000D02*
X23880000Y-7080000D01*
X43237500Y-18997500D02*
X42540000Y-18300000D01*
X43237500Y-21400000D02*
X43237500Y-18997500D01*
X42540000Y-15160000D02*
X42540000Y-18300000D01*
X42540000Y-12956390D02*
X40450010Y-10866400D01*
X42540000Y-18300000D02*
X42540000Y-12956390D01*
%TO.N,EN*%
X9280000Y-20300000D02*
X17800000Y-20300000D01*
X8770000Y-19790000D02*
X9280000Y-20300000D01*
X8770000Y-18290000D02*
X8770000Y-19790000D01*
X25400000Y-17900000D02*
X23200000Y-17900000D01*
X40000000Y-18300000D02*
X37600000Y-15900000D01*
X37600000Y-15900000D02*
X29100000Y-15900000D01*
%TO.N,GPIO13*%
X16845001Y-16714999D02*
X16770000Y-16790000D01*
X19530001Y-16714999D02*
X16845001Y-16714999D01*
X19595001Y-17495001D02*
X19595001Y-16779999D01*
X20312681Y-17565003D02*
X19665003Y-17565003D01*
X19595001Y-16779999D02*
X19530001Y-16714999D01*
X20689681Y-17942003D02*
X20312681Y-17565003D01*
X20689681Y-18589681D02*
X20689681Y-17942003D01*
X19665003Y-17565003D02*
X19595001Y-17495001D01*
X21424990Y-19324990D02*
X20689681Y-18589681D01*
X16770000Y-16790000D02*
X16770000Y-18290000D01*
X24897468Y-19324990D02*
X21424990Y-19324990D01*
X26972478Y-21400000D02*
X24897468Y-19324990D01*
X32700000Y-21400000D02*
X26972478Y-21400000D01*
%TO.N,GND1*%
X50795035Y-10700000D02*
X49133967Y-9038932D01*
X51000000Y-10700000D02*
X50795035Y-10700000D01*
%TO.N,Net-(ESP-12E1-Pad22)*%
X4770000Y-4270000D02*
X5800000Y-5300000D01*
X4770000Y-3090000D02*
X4770000Y-4270000D01*
X4770000Y-2754998D02*
X4770000Y-3090000D01*
X37020000Y-6600000D02*
X27299976Y-6600000D01*
X38220000Y-7800000D02*
X37020000Y-6600000D01*
X27299976Y-6600000D02*
X25999976Y-5300000D01*
%TO.N,Net-(ESP-12E1-Pad21)*%
X12224998Y-1300000D02*
X13315002Y-1300000D01*
X6770000Y-3090000D02*
X6770000Y-4590000D01*
X13315002Y-1300000D02*
X13800000Y-1784998D01*
X6770000Y-4590000D02*
X6845001Y-4665001D01*
X6845001Y-4665001D02*
X11530001Y-4665001D01*
X11530001Y-4665001D02*
X11944999Y-4250003D01*
X11944999Y-4250003D02*
X11944999Y-1579999D01*
X11944999Y-1579999D02*
X12224998Y-1300000D01*
X13800000Y-1784998D02*
X13800000Y-6625010D01*
%TO.N,Net-(10k-3-Pad1)*%
X-3975001Y-22410001D02*
X-3509982Y-22875020D01*
X12770000Y-3090000D02*
X12770000Y-4590000D01*
X-3509982Y-22875020D02*
X21054980Y-22875020D01*
X12770000Y-4590000D02*
X12244988Y-5115012D01*
X11299988Y-5115012D02*
X-3975001Y-20389999D01*
X-3975001Y-20389999D02*
X-3975001Y-22410001D01*
X12244988Y-5115012D02*
X11299988Y-5115012D01*
X23880000Y-20050000D02*
X23880000Y-21380000D01*
X23880000Y-21380000D02*
X23900000Y-21400000D01*
X21054980Y-22875020D02*
X23880000Y-20050000D01*
%TO.N,Net-(ESP-12E1-Pad1)*%
X10770000Y-16790000D02*
X10770000Y-18290000D01*
X10694999Y-16714999D02*
X10770000Y-16790000D01*
X4845001Y-16714999D02*
X10694999Y-16714999D01*
X4770000Y-16790000D02*
X4845001Y-16714999D01*
X4770000Y-18290000D02*
X4770000Y-16790000D01*
X16224998Y-1300000D02*
X21930000Y-1300000D01*
X21930000Y-1300000D02*
X23880000Y-3250000D01*
X15800000Y-1724998D02*
X16224998Y-1300000D01*
X15800000Y-7600000D02*
X15800000Y-1724998D01*
X10694999Y-12705001D02*
X15800000Y-7600000D01*
X10694999Y-16714999D02*
X10694999Y-12705001D01*
%TO.N,Net-(100nF-1-Pad1)*%
X41162500Y-21400000D02*
X39000000Y-21400000D01*
X39000000Y-19840000D02*
X39000000Y-21400000D01*
X37460000Y-18300000D02*
X39000000Y-19840000D01*
%TO.N,Net-(10k-1-Pad2)*%
X34700000Y-21400000D02*
X37000000Y-21400000D01*
X33980000Y-19900000D02*
X32380000Y-18300000D01*
X35400000Y-19900000D02*
X33980000Y-19900000D01*
X36900000Y-21400000D02*
X35400000Y-19900000D01*
X37000000Y-21400000D02*
X36900000Y-21400000D01*
%TO.N,Net-(10k-3-Pad1)*%
X6333333Y-21400000D02*
X7674680Y-21400000D01*
X7674680Y-21400000D02*
X7687340Y-21387340D01*
X13074999Y-5945023D02*
X12244988Y-5115012D01*
X13074999Y-8197497D02*
X13074999Y-5945023D01*
X13568855Y-8691353D02*
X13074999Y-8197497D01*
%TO.N,Net-(10k-4-Pad2)*%
X18334998Y-8700000D02*
X16770000Y-7135002D01*
X21246667Y-8700000D02*
X18334998Y-8700000D01*
X16770000Y-7135002D02*
X16770000Y-4050000D01*
X22880000Y-10333333D02*
X21246667Y-8700000D01*
%TO.N,Net-(1M-1-Pad2)*%
X1900000Y-19300000D02*
X1900000Y-21400000D01*
X1900000Y-9000000D02*
X1900000Y-13300000D01*
X-4180000Y-2920000D02*
X1900000Y-9000000D01*
X-5700000Y-2920000D02*
X-4180000Y-2920000D01*
%TO.N,+3V3*%
X29319999Y-9000001D02*
X40999993Y-9000001D01*
X40999993Y-9000001D02*
X42949997Y-7049997D01*
X48300000Y-7299998D02*
X48599998Y-7000000D01*
X48300000Y-10150000D02*
X48300000Y-7299998D01*
X29319999Y-9000001D02*
X29399999Y-9000001D01*
X27300000Y-10680000D02*
X27640000Y-10680000D01*
X28979999Y-9000001D02*
X29319999Y-9000001D01*
X27300000Y-10680000D02*
X28979999Y-9000001D01*
X22842500Y-13196666D02*
X22554990Y-13484176D01*
X29399999Y-9000001D02*
X30600000Y-7800000D01*
X18770000Y-18290000D02*
X19964676Y-18290000D01*
X19964676Y-18290000D02*
X19964680Y-18290004D01*
X22100000Y-13939166D02*
X22842500Y-13196666D01*
X22100000Y-14700000D02*
X22100000Y-13939166D01*
X27300000Y-10680000D02*
X27300000Y-16700000D01*
X22300000Y-14900000D02*
X22100000Y-14700000D01*
X22300000Y-16012478D02*
X22300000Y-14900000D01*
X22987522Y-16700000D02*
X22300000Y-16012478D01*
X27300000Y-16700000D02*
X22987522Y-16700000D01*
X28240000Y-16700000D02*
X27300000Y-16700000D01*
X29840000Y-18300000D02*
X28240000Y-16700000D01*
X4333333Y-20200000D02*
X4333333Y-21400000D01*
X3600000Y-19466667D02*
X4333333Y-20200000D01*
X-100000Y-18500000D02*
X3600000Y-18500000D01*
X3600000Y-18500000D02*
X3600000Y-19466667D01*
X-100000Y-21400000D02*
X-100000Y-18500000D01*
X18770000Y-20600000D02*
X18770000Y-18290000D01*
X18344999Y-21025001D02*
X18770000Y-20600000D01*
X9368590Y-21025001D02*
X18344999Y-21025001D01*
X8543589Y-20200000D02*
X9368590Y-21025001D01*
X4333333Y-20200000D02*
X8543589Y-20200000D01*
%TD*%
M02*
