M48
; DRILL file {KiCad (5.1.7)-1} date 11/04/21 21:36:56
; FORMAT={-:-/ absolute / inch / decimal}
; #@! TF.CreationDate,2021-11-04T21:36:56+01:00
; #@! TF.GenerationSoftware,Kicad,Pcbnew,(5.1.7)-1
FMAT,2
INCH
T1C0.0157
T2C0.0276
T3C0.0315
T4C0.0394
%
G90
G05
T1
X-0.126Y-0.7244
X-0.0812Y-0.7692
X0.0748Y-0.5236
X0.0748Y-0.7598
X0.2283Y-0.2087
X0.3027Y-0.842
X0.3425Y-0.8425
X0.5342Y-0.3422
X0.5433Y-0.2608
X0.7008Y-0.7992
X0.786Y-0.7201
X0.8701Y-0.5787
X0.9134Y-0.7047
X0.9409Y-0.8425
X1.0Y-0.7047
X1.0Y-0.4606
X1.0039Y-0.626
X1.0236Y-0.2087
X1.1457Y-0.626
X1.6909Y-0.2776
X1.7598Y-0.5669
X1.9134Y-0.2756
X1.9344Y-0.3559
X2.1063Y-0.3386
X2.5197Y-0.7992
T2
X1.8937Y-0.8465
X-0.1063Y-0.8465
T3
X1.0748Y-0.4205
X1.0748Y-0.7205
X1.1748Y-0.4205
X1.1748Y-0.7205
X1.2748Y-0.4205
X1.2748Y-0.7205
X1.3748Y-0.4205
X1.3748Y-0.7205
X1.4748Y-0.4205
X1.4748Y-0.7205
X1.5748Y-0.4205
X1.5748Y-0.7205
X1.6748Y-0.4205
X1.6748Y-0.7205
T4
X1.1047Y-0.3071
X1.2047Y-0.3071
X1.3047Y-0.3071
X1.4047Y-0.3071
X1.5047Y-0.3071
T0
M30
