%TF.GenerationSoftware,KiCad,Pcbnew,(5.1.7)-1*%
%TF.CreationDate,2021-11-04T21:35:45+01:00*%
%TF.ProjectId,window-sensor,77696e64-6f77-42d7-9365-6e736f722e6b,rev?*%
%TF.SameCoordinates,PX7270e00PY57bcf00*%
%TF.FileFunction,Paste,Top*%
%TF.FilePolarity,Positive*%
%FSLAX46Y46*%
G04 Gerber Fmt 4.6, Leading zero omitted, Abs format (unit mm)*
G04 Created by KiCad (PCBNEW (5.1.7)-1) date 2021-11-04 21:35:45*
%MOMM*%
%LPD*%
G01*
G04 APERTURE LIST*
%TA.AperFunction,Profile*%
%ADD10C,0.050000*%
%TD*%
%ADD11R,1.000000X2.500000*%
%ADD12R,1.800000X1.000000*%
%ADD13R,2.540000X2.540000*%
%ADD14R,2.000000X2.000000*%
%ADD15C,0.100000*%
%ADD16R,0.900000X1.300000*%
G04 APERTURE END LIST*
D10*
X-4900000Y-4100000D02*
X-4100000Y-4900000D01*
X-4900000Y-20200000D02*
X-4100000Y-19400000D01*
X-7000000Y-23300000D02*
X-7000000Y-20200000D01*
X-4900000Y-20200000D02*
X-7000000Y-20200000D01*
X-4100000Y-4900000D02*
X-4100000Y-19400000D01*
X-7000000Y-4100000D02*
X-4900000Y-4100000D01*
X23900000Y-900000D02*
G75*
G02*
X25770760Y-1744841I-59239J-2624840D01*
G01*
X30817250Y-5799023D02*
G75*
G02*
X29210000Y-5150000I-107250J2049023D01*
G01*
X30817250Y-5799024D02*
X75500000Y-5800000D01*
X25770760Y-1744841D02*
X29210000Y-5150000D01*
X-7000000Y-4100000D02*
X-7000000Y-900000D01*
X75500000Y-23300000D02*
X-7000000Y-23300000D01*
X75500000Y-5800000D02*
X75500000Y-23300000D01*
X-7000000Y-900000D02*
X23900000Y-900000D01*
%TO.C,100nF-1*%
G36*
G01*
X42650000Y-21875000D02*
X42650000Y-20925000D01*
G75*
G02*
X42900000Y-20675000I250000J0D01*
G01*
X43575000Y-20675000D01*
G75*
G02*
X43825000Y-20925000I0J-250000D01*
G01*
X43825000Y-21875000D01*
G75*
G02*
X43575000Y-22125000I-250000J0D01*
G01*
X42900000Y-22125000D01*
G75*
G02*
X42650000Y-21875000I0J250000D01*
G01*
G37*
G36*
G01*
X40575000Y-21875000D02*
X40575000Y-20925000D01*
G75*
G02*
X40825000Y-20675000I250000J0D01*
G01*
X41500000Y-20675000D01*
G75*
G02*
X41750000Y-20925000I0J-250000D01*
G01*
X41750000Y-21875000D01*
G75*
G02*
X41500000Y-22125000I-250000J0D01*
G01*
X40825000Y-22125000D01*
G75*
G02*
X40575000Y-21875000I0J250000D01*
G01*
G37*
%TD*%
D11*
%TO.C,ESP-12E1*%
X4770000Y-3090000D03*
X6770000Y-3090000D03*
X8770000Y-3090000D03*
X10770000Y-3090000D03*
X12770000Y-3090000D03*
X14770000Y-3090000D03*
X16770000Y-3090000D03*
X18770000Y-3090000D03*
D12*
X20270000Y-5690000D03*
X20270000Y-7690000D03*
X20270000Y-9690000D03*
X20270000Y-11690000D03*
X20270000Y-13690000D03*
X20270000Y-15690000D03*
D11*
X18770000Y-18290000D03*
X16770000Y-18290000D03*
X14770000Y-18290000D03*
X12770000Y-18290000D03*
X10770000Y-18290000D03*
X8770000Y-18290000D03*
X6770000Y-18290000D03*
X4770000Y-18290000D03*
%TD*%
D13*
%TO.C,TP4056*%
X73800000Y-21300000D03*
X73800000Y-7700000D03*
X51000000Y-21300000D03*
X51000000Y-18300000D03*
X51000000Y-10700000D03*
X51000000Y-7700000D03*
%TD*%
%TO.C,10k-3*%
G36*
G01*
X4933333Y-20949999D02*
X4933333Y-21850001D01*
G75*
G02*
X4683334Y-22100000I-249999J0D01*
G01*
X3983332Y-22100000D01*
G75*
G02*
X3733333Y-21850001I0J249999D01*
G01*
X3733333Y-20949999D01*
G75*
G02*
X3983332Y-20700000I249999J0D01*
G01*
X4683334Y-20700000D01*
G75*
G02*
X4933333Y-20949999I0J-249999D01*
G01*
G37*
G36*
G01*
X6933333Y-20949999D02*
X6933333Y-21850001D01*
G75*
G02*
X6683334Y-22100000I-249999J0D01*
G01*
X5983332Y-22100000D01*
G75*
G02*
X5733333Y-21850001I0J249999D01*
G01*
X5733333Y-20949999D01*
G75*
G02*
X5983332Y-20700000I249999J0D01*
G01*
X6683334Y-20700000D01*
G75*
G02*
X6933333Y-20949999I0J-249999D01*
G01*
G37*
%TD*%
%TO.C,FLASH1*%
G36*
G01*
X24680000Y-20450000D02*
X23080000Y-20450000D01*
G75*
G02*
X22880000Y-20250000I0J200000D01*
G01*
X22880000Y-19850000D01*
G75*
G02*
X23080000Y-19650000I200000J0D01*
G01*
X24680000Y-19650000D01*
G75*
G02*
X24880000Y-19850000I0J-200000D01*
G01*
X24880000Y-20250000D01*
G75*
G02*
X24680000Y-20450000I-200000J0D01*
G01*
G37*
G36*
G01*
X24680000Y-16250000D02*
X23080000Y-16250000D01*
G75*
G02*
X22880000Y-16050000I0J200000D01*
G01*
X22880000Y-15650000D01*
G75*
G02*
X23080000Y-15450000I200000J0D01*
G01*
X24680000Y-15450000D01*
G75*
G02*
X24880000Y-15650000I0J-200000D01*
G01*
X24880000Y-16050000D01*
G75*
G02*
X24680000Y-16250000I-200000J0D01*
G01*
G37*
%TD*%
%TO.C,RESET1*%
G36*
G01*
X24680000Y-7850000D02*
X23080000Y-7850000D01*
G75*
G02*
X22880000Y-7650000I0J200000D01*
G01*
X22880000Y-7250000D01*
G75*
G02*
X23080000Y-7050000I200000J0D01*
G01*
X24680000Y-7050000D01*
G75*
G02*
X24880000Y-7250000I0J-200000D01*
G01*
X24880000Y-7650000D01*
G75*
G02*
X24680000Y-7850000I-200000J0D01*
G01*
G37*
G36*
G01*
X24680000Y-3650000D02*
X23080000Y-3650000D01*
G75*
G02*
X22880000Y-3450000I0J200000D01*
G01*
X22880000Y-3050000D01*
G75*
G02*
X23080000Y-2850000I200000J0D01*
G01*
X24680000Y-2850000D01*
G75*
G02*
X24880000Y-3050000I0J-200000D01*
G01*
X24880000Y-3450000D01*
G75*
G02*
X24680000Y-3650000I-200000J0D01*
G01*
G37*
%TD*%
D14*
%TO.C,REED1*%
X-5700000Y-21360000D03*
X-5700000Y-2920000D03*
%TD*%
%TO.C,10k-2*%
G36*
G01*
X39600000Y-20949999D02*
X39600000Y-21850001D01*
G75*
G02*
X39350001Y-22100000I-249999J0D01*
G01*
X38649999Y-22100000D01*
G75*
G02*
X38400000Y-21850001I0J249999D01*
G01*
X38400000Y-20949999D01*
G75*
G02*
X38649999Y-20700000I249999J0D01*
G01*
X39350001Y-20700000D01*
G75*
G02*
X39600000Y-20949999I0J-249999D01*
G01*
G37*
G36*
G01*
X37600000Y-20949999D02*
X37600000Y-21850001D01*
G75*
G02*
X37350001Y-22100000I-249999J0D01*
G01*
X36649999Y-22100000D01*
G75*
G02*
X36400000Y-21850001I0J249999D01*
G01*
X36400000Y-20949999D01*
G75*
G02*
X36649999Y-20700000I249999J0D01*
G01*
X37350001Y-20700000D01*
G75*
G02*
X37600000Y-20949999I0J-249999D01*
G01*
G37*
%TD*%
%TO.C,10k-1*%
G36*
G01*
X32100000Y-21850001D02*
X32100000Y-20949999D01*
G75*
G02*
X32349999Y-20700000I249999J0D01*
G01*
X33050001Y-20700000D01*
G75*
G02*
X33300000Y-20949999I0J-249999D01*
G01*
X33300000Y-21850001D01*
G75*
G02*
X33050001Y-22100000I-249999J0D01*
G01*
X32349999Y-22100000D01*
G75*
G02*
X32100000Y-21850001I0J249999D01*
G01*
G37*
G36*
G01*
X34100000Y-21850001D02*
X34100000Y-20949999D01*
G75*
G02*
X34349999Y-20700000I249999J0D01*
G01*
X35050001Y-20700000D01*
G75*
G02*
X35300000Y-20949999I0J-249999D01*
G01*
X35300000Y-21850001D01*
G75*
G02*
X35050001Y-22100000I-249999J0D01*
G01*
X34349999Y-22100000D01*
G75*
G02*
X34100000Y-21850001I0J249999D01*
G01*
G37*
%TD*%
%TO.C,1M-1*%
G36*
G01*
X-700000Y-21850001D02*
X-700000Y-20949999D01*
G75*
G02*
X-450001Y-20700000I249999J0D01*
G01*
X250001Y-20700000D01*
G75*
G02*
X500000Y-20949999I0J-249999D01*
G01*
X500000Y-21850001D01*
G75*
G02*
X250001Y-22100000I-249999J0D01*
G01*
X-450001Y-22100000D01*
G75*
G02*
X-700000Y-21850001I0J249999D01*
G01*
G37*
G36*
G01*
X1300000Y-21850001D02*
X1300000Y-20949999D01*
G75*
G02*
X1549999Y-20700000I249999J0D01*
G01*
X2250001Y-20700000D01*
G75*
G02*
X2500000Y-20949999I0J-249999D01*
G01*
X2500000Y-21850001D01*
G75*
G02*
X2250001Y-22100000I-249999J0D01*
G01*
X1549999Y-22100000D01*
G75*
G02*
X1300000Y-21850001I0J249999D01*
G01*
G37*
%TD*%
D15*
%TO.C,HT7333*%
G36*
X47666500Y-6200000D02*
G01*
X47666500Y-9325000D01*
X47250000Y-9325000D01*
X47250000Y-10800000D01*
X46350000Y-10800000D01*
X46350000Y-9325000D01*
X45933500Y-9325000D01*
X45933500Y-6200000D01*
X47666500Y-6200000D01*
G37*
D16*
X48300000Y-10150000D03*
X45300000Y-10150000D03*
%TD*%
%TO.C,10k-4*%
G36*
G01*
X23370000Y-9883332D02*
X23370000Y-10783334D01*
G75*
G02*
X23120001Y-11033333I-249999J0D01*
G01*
X22419999Y-11033333D01*
G75*
G02*
X22170000Y-10783334I0J249999D01*
G01*
X22170000Y-9883332D01*
G75*
G02*
X22419999Y-9633333I249999J0D01*
G01*
X23120001Y-9633333D01*
G75*
G02*
X23370000Y-9883332I0J-249999D01*
G01*
G37*
G36*
G01*
X25370000Y-9883332D02*
X25370000Y-10783334D01*
G75*
G02*
X25120001Y-11033333I-249999J0D01*
G01*
X24419999Y-11033333D01*
G75*
G02*
X24170000Y-10783334I0J249999D01*
G01*
X24170000Y-9883332D01*
G75*
G02*
X24419999Y-9633333I249999J0D01*
G01*
X25120001Y-9633333D01*
G75*
G02*
X25370000Y-9883332I0J-249999D01*
G01*
G37*
%TD*%
%TO.C,100nF-2*%
G36*
G01*
X22175000Y-13671666D02*
X22175000Y-12721666D01*
G75*
G02*
X22425000Y-12471666I250000J0D01*
G01*
X23100000Y-12471666D01*
G75*
G02*
X23350000Y-12721666I0J-250000D01*
G01*
X23350000Y-13671666D01*
G75*
G02*
X23100000Y-13921666I-250000J0D01*
G01*
X22425000Y-13921666D01*
G75*
G02*
X22175000Y-13671666I0J250000D01*
G01*
G37*
G36*
G01*
X24250000Y-13671666D02*
X24250000Y-12721666D01*
G75*
G02*
X24500000Y-12471666I250000J0D01*
G01*
X25175000Y-12471666D01*
G75*
G02*
X25425000Y-12721666I0J-250000D01*
G01*
X25425000Y-13671666D01*
G75*
G02*
X25175000Y-13921666I-250000J0D01*
G01*
X24500000Y-13921666D01*
G75*
G02*
X24250000Y-13671666I0J250000D01*
G01*
G37*
%TD*%
M02*
