%TF.GenerationSoftware,KiCad,Pcbnew,(5.1.7)-1*%
%TF.CreationDate,2021-10-09T11:13:05+02:00*%
%TF.ProjectId,window-sensor,77696e64-6f77-42d7-9365-6e736f722e6b,rev?*%
%TF.SameCoordinates,PX7270e00PY57bcf00*%
%TF.FileFunction,Paste,Bot*%
%TF.FilePolarity,Positive*%
%FSLAX46Y46*%
G04 Gerber Fmt 4.6, Leading zero omitted, Abs format (unit mm)*
G04 Created by KiCad (PCBNEW (5.1.7)-1) date 2021-10-09 11:13:05*
%MOMM*%
%LPD*%
G01*
G04 APERTURE LIST*
%TA.AperFunction,Profile*%
%ADD10C,0.050000*%
%TD*%
G04 APERTURE END LIST*
D10*
X-4900000Y-4100000D02*
X-4100000Y-4900000D01*
X-4900000Y-20200000D02*
X-4100000Y-19400000D01*
X-7000000Y-23300000D02*
X-7000000Y-20200000D01*
X-4900000Y-20200000D02*
X-7000000Y-20200000D01*
X-4100000Y-4900000D02*
X-4100000Y-19400000D01*
X-7000000Y-4100000D02*
X-4900000Y-4100000D01*
X23900000Y-900000D02*
G75*
G02*
X25770760Y-1744841I-59239J-2624840D01*
G01*
X30817250Y-5799023D02*
G75*
G02*
X29210000Y-5150000I-107250J2049023D01*
G01*
X30817250Y-5799024D02*
X75500000Y-5800000D01*
X25770760Y-1744841D02*
X29210000Y-5150000D01*
X-7000000Y-4100000D02*
X-7000000Y-900000D01*
X75500000Y-23300000D02*
X-7000000Y-23300000D01*
X75500000Y-5800000D02*
X75500000Y-23300000D01*
X-7000000Y-900000D02*
X23900000Y-900000D01*
%TO.C,1000uF-1*%
G36*
G01*
X69399998Y-18150000D02*
X70800002Y-18150000D01*
G75*
G02*
X71050000Y-18399998I0J-249998D01*
G01*
X71050000Y-22300002D01*
G75*
G02*
X70800002Y-22550000I-249998J0D01*
G01*
X69399998Y-22550000D01*
G75*
G02*
X69150000Y-22300002I0J249998D01*
G01*
X69150000Y-18399998D01*
G75*
G02*
X69399998Y-18150000I249998J0D01*
G01*
G37*
G36*
G01*
X69399998Y-9450000D02*
X70800002Y-9450000D01*
G75*
G02*
X71050000Y-9699998I0J-249998D01*
G01*
X71050000Y-13600002D01*
G75*
G02*
X70800002Y-13850000I-249998J0D01*
G01*
X69399998Y-13850000D01*
G75*
G02*
X69150000Y-13600002I0J249998D01*
G01*
X69150000Y-9699998D01*
G75*
G02*
X69399998Y-9450000I249998J0D01*
G01*
G37*
%TD*%
M02*
